<svg xmlns="http://www.w3.org/2000/svg" xmlns:xlink="http://www.w3.org/1999/xlink" width="103" height="103" viewBox="0 0 103 103">
  <defs>
    <filter id="Trazado_982547" x="0" y="0" width="103" height="103" filterUnits="userSpaceOnUse">
      <feOffset dy="3" input="SourceAlpha"/>
      <feGaussianBlur stdDeviation="3" result="blur"/>
      <feFlood flood-opacity="0.161"/>
      <feComposite operator="in" in2="blur"/>
      <feComposite in="SourceGraphic"/>
    </filter>
  </defs>
  <g id="Grupo_1202419" data-name="Grupo 1202419" transform="translate(-611 -744)">
    <g id="Grupo_1202210" data-name="Grupo 1202210" transform="translate(340 -126.414)">
      <g id="Grupo_1174813" data-name="Grupo 1174813" transform="translate(280 876.414)">
        <g id="Grupo_1201680" data-name="Grupo 1201680">
          <g id="Grupo_1201330" data-name="Grupo 1201330">
            <g id="Grupo_1172010" data-name="Grupo 1172010">
              <g id="Grupo_1171046" data-name="Grupo 1171046">
                <g id="Grupo_1148525" data-name="Grupo 1148525">
                  <g transform="matrix(1, 0, 0, 1, -9, -6)" filter="url(#Trazado_982547)">
                    <g id="Trazado_982547-2" data-name="Trazado 982547" transform="translate(9 6)" fill="#f2f7e5">
                      <path d="M 42.5 83.5 C 36.96437835693359 83.5 31.59512901306152 82.41617584228516 26.54141235351562 80.27863311767578 C 21.65934181213379 78.21369171142578 17.27447128295898 75.25723266601562 13.50862312316895 71.49137878417969 C 9.742764472961426 67.72553253173828 6.786305904388428 63.34066009521484 4.721364498138428 58.45858764648438 C 2.583823442459106 53.40486907958984 1.5 48.03562164306641 1.5 42.5 C 1.5 36.96437835693359 2.583823442459106 31.59512901306152 4.721364498138428 26.54141235351562 C 6.786305904388428 21.65934181213379 9.742764472961426 17.27448272705078 13.50862312316895 13.50862312316895 C 17.27447128295898 9.742776870727539 21.65934181213379 6.786305904388428 26.54141235351562 4.721364498138428 C 31.59512901306152 2.583823442459106 36.96437835693359 1.5 42.5 1.5 C 48.03562164306641 1.5 53.40486907958984 2.583823442459106 58.45858764648438 4.721364498138428 C 63.34066009521484 6.786305904388428 67.72553253173828 9.742776870727539 71.49137878417969 13.50862312316895 C 75.25723266601562 17.27448272705078 78.21369171142578 21.65934181213379 80.27863311767578 26.54141235351562 C 82.41617584228516 31.59512901306152 83.5 36.96437835693359 83.5 42.5 C 83.5 48.03562164306641 82.41617584228516 53.40486907958984 80.27863311767578 58.45858764648438 C 78.21369171142578 63.34066009521484 75.25723266601562 67.72553253173828 71.49137878417969 71.49137878417969 C 67.72553253173828 75.25723266601562 63.34066009521484 78.21369171142578 58.45858764648438 80.27863311767578 C 53.40486907958984 82.41617584228516 48.03562164306641 83.5 42.5 83.5 Z" stroke="none"/>
                      <path d="M 42.5 3 C 37.16621398925781 3 31.99356079101562 4.043960571289062 27.125732421875 6.102882385253906 C 22.42246627807617 8.092185974121094 18.19785308837891 10.94070434570312 14.56928253173828 14.56928253173828 C 10.94070434570312 18.19785308837891 8.092185974121094 22.42246627807617 6.102882385253906 27.125732421875 C 4.043960571289062 31.99356079101562 3 37.16621398925781 3 42.5 C 3 47.83378601074219 4.043960571289062 53.00643920898438 6.102882385253906 57.874267578125 C 8.092185974121094 62.57753372192383 10.94070434570312 66.80214691162109 14.56928253173828 70.43071746826172 C 18.19785308837891 74.05929565429688 22.42246627807617 76.90781402587891 27.125732421875 78.89711761474609 C 31.99356079101562 80.95603942871094 37.16621398925781 82 42.5 82 C 47.83378601074219 82 53.00643920898438 80.95603942871094 57.874267578125 78.89711761474609 C 62.57753372192383 76.90781402587891 66.80214691162109 74.05929565429688 70.43071746826172 70.43071746826172 C 74.05929565429688 66.80214691162109 76.90781402587891 62.57753372192383 78.89711761474609 57.874267578125 C 80.95603942871094 53.00643920898438 82 47.83378601074219 82 42.5 C 82 37.16621398925781 80.95603942871094 31.99356079101562 78.89711761474609 27.125732421875 C 76.90781402587891 22.42246627807617 74.05929565429688 18.19785308837891 70.43071746826172 14.56928253173828 C 66.80214691162109 10.94070434570312 62.57753372192383 8.092185974121094 57.874267578125 6.102882385253906 C 53.00643920898438 4.043960571289062 47.83378601074219 3 42.5 3 M 42.5 0 C 65.97210693359375 0 85 19.02789306640625 85 42.5 C 85 65.97210693359375 65.97210693359375 85 42.5 85 C 19.02789306640625 85 0 65.97210693359375 0 42.5 C 0 19.02789306640625 19.02789306640625 0 42.5 0 Z" stroke="none" fill="#1d7083"/>
                    </g>
                  </g>
                </g>
              </g>
            </g>
          </g>
        </g>
      </g>
    </g>
    <g id="resources_8553028" transform="translate(624.926 754.926)">
      <path id="Trazado_1041103" data-name="Trazado 1041103" d="M32.783,106.114a1.921,1.921,0,0,0-1.358,3.278.57.57,0,0,1,0,.806L30.2,111.425a.57.57,0,0,1-.806,0,1.921,1.921,0,0,0-3.278,1.358.57.57,0,0,1-.57.57H23.809a.57.57,0,0,1-.57-.57,1.92,1.92,0,0,0-3.278-1.358.57.57,0,0,1-.806,0L17.928,110.2a.57.57,0,0,1,0-.806,1.921,1.921,0,0,0-1.358-3.278.57.57,0,0,1-.57-.57v-1.735a.57.57,0,0,1,.57-.57,1.921,1.921,0,0,0,1.358-3.278.57.57,0,0,1,0-.806l1.227-1.227a.57.57,0,0,1,.806,0,1.921,1.921,0,0,0,3.278-1.358.57.57,0,0,1,.57-.57h1.735a.57.57,0,0,1,.57.57,1.921,1.921,0,0,0,3.278,1.358.57.57,0,0,1,.806,0l1.227,1.227a.57.57,0,0,1,0,.806,1.921,1.921,0,0,0,1.358,3.278.57.57,0,0,1,.57.57v1.735A.57.57,0,0,1,32.783,106.114Zm-8.107-5.678a4.24,4.24,0,1,0,4.24,4.24A4.24,4.24,0,0,0,24.676,100.437Z" transform="translate(-6.19 -76.935)" fill="#fdcd56" fill-rule="evenodd"/>
      <g id="Grupo_1202413" data-name="Grupo 1202413" transform="translate(21.072 42.608)">
        <path id="Trazado_1041104" data-name="Trazado 1041104" d="M307.011,330.22h10.144a.458.458,0,0,1,.457.457v18.264a.458.458,0,0,1-.457.457H307.011Z" transform="translate(-284.608 -326.667)" fill="#a9b0bb" fill-rule="evenodd"/>
        <path id="Trazado_1041105" data-name="Trazado 1041105" d="M113.811,330.22h10.144V349.4H113.811a.458.458,0,0,1-.457-.457V330.677A.458.458,0,0,1,113.811,330.22Z" transform="translate(-113.354 -326.667)" fill="#a9b0bb" fill-rule="evenodd"/>
        <path id="Trazado_1041106" data-name="Trazado 1041106" d="M197.541,299.509h12.717a.458.458,0,0,1,.457.457V322.24H197.084V299.966A.458.458,0,0,1,197.541,299.509Z" transform="translate(-187.398 -299.509)" fill="#767f8a" fill-rule="evenodd"/>
      </g>
      <g id="Grupo_1202415" data-name="Grupo 1202415" transform="translate(47.408 18.497)">
        <g id="Grupo_1202414" data-name="Grupo 1202414" transform="translate(0 0)">
          <circle id="Elipse_12310" data-name="Elipse 12310" cx="9" cy="9" r="9" transform="translate(0.167 0.078)" fill="#fdcd56"/>
          <circle id="Elipse_12311" data-name="Elipse 12311" cx="6.54" cy="6.54" r="6.54" transform="translate(0 9.248) rotate(-45)" fill="#f5b945"/>
        </g>
      </g>
      <g id="Grupo_1202418" data-name="Grupo 1202418" transform="translate(9 9)">
        <g id="Grupo_1202417" data-name="Grupo 1202417" transform="translate(19.308 0.197)">
          <circle id="Elipse_12312" data-name="Elipse 12312" cx="8.676" cy="8.676" r="8.676" transform="translate(0 17.318) rotate(-85.931)" fill="#e4e8eb"/>
          <g id="Grupo_1202416" data-name="Grupo 1202416" transform="translate(3.089 3.013)">
            <path id="Trazado_1041107" data-name="Trazado 1041107" d="M230.493,39.7a2.951,2.951,0,1,0,2.951-2.951,2.951,2.951,0,0,0-2.951,2.951Z" transform="translate(-227.266 -36.751)" fill="#efc7a4" fill-rule="evenodd"/>
            <path id="Trazado_1041108" data-name="Trazado 1041108" d="M202.6,107.231a6.387,6.387,0,0,1,12.355,0,8.675,8.675,0,0,1-12.355,0Z" transform="translate(-202.601 -94.864)" fill="#66d4f1" fill-rule="evenodd"/>
          </g>
        </g>
        <path id="Trazado_1041109" data-name="Trazado 1041109" d="M40.214,63.081v-.925a.347.347,0,0,1,.347-.347h.926a.347.347,0,0,1,.347.347v.925a.348.348,0,0,1-.347.347h-.925A.348.348,0,0,1,40.214,63.081Zm0-10.3v-.925a.348.348,0,0,1,.347-.347h.926a.348.348,0,0,1,.347.347v.925a.348.348,0,0,1-.347.347h-.925A.348.348,0,0,1,40.214,52.778Zm0,3.435v-.927a.347.347,0,0,1,.347-.346h.926a.347.347,0,0,1,.347.346v.927a.348.348,0,0,1-.347.347h-.925A.348.348,0,0,1,40.214,56.212Zm0,3.434V58.72a.348.348,0,0,1,.347-.347h.926a.348.348,0,0,1,.347.347v.925a.348.348,0,0,1-.347.347h-.925A.348.348,0,0,1,40.214,59.646ZM36.765,45.909v-.925a.348.348,0,0,1,.347-.347h.926a.348.348,0,0,1,.347.347v.925a.348.348,0,0,1-.347.347h-.925A.348.348,0,0,1,36.765,45.909Zm0,10.3v-.927a.347.347,0,0,1,.347-.346h.926a.347.347,0,0,1,.347.346v.927a.348.348,0,0,1-.347.347h-.925A.348.348,0,0,1,36.765,56.212Zm0-6.869v-.925a.348.348,0,0,1,.347-.347h.926a.348.348,0,0,1,.347.347v.925a.348.348,0,0,1-.347.347h-.925A.347.347,0,0,1,36.765,49.343Zm0,3.435v-.925a.348.348,0,0,1,.347-.347h.926a.348.348,0,0,1,.347.347v.925a.348.348,0,0,1-.347.347h-.925A.348.348,0,0,1,36.765,52.778Zm0,10.3v-.925a.347.347,0,0,1,.347-.347h.926a.347.347,0,0,1,.347.347v.925a.348.348,0,0,1-.347.347h-.925A.348.348,0,0,1,36.765,63.081Zm-3.449-10.3v-.925a.347.347,0,0,1,.347-.347h.926a.348.348,0,0,1,.347.347v.925a.348.348,0,0,1-.347.347h-.925A.347.347,0,0,1,33.316,52.778Zm6.9-3.435v-.925a.348.348,0,0,1,.347-.347h.926a.348.348,0,0,1,.347.347v.925a.347.347,0,0,1-.347.347h-.925A.347.347,0,0,1,40.214,49.343Zm-6.9,13.738v-.925a.346.346,0,0,1,.347-.347h.926a.347.347,0,0,1,.347.347v.925a.348.348,0,0,1-.347.347h-.925A.347.347,0,0,1,33.316,63.081Zm0-3.435V58.72a.347.347,0,0,1,.347-.347h.926a.348.348,0,0,1,.347.347v.925a.348.348,0,0,1-.347.347h-.925A.347.347,0,0,1,33.316,59.646Zm0-3.434v-.927a.346.346,0,0,1,.346-.346h.927a.347.347,0,0,1,.347.346v.927a.348.348,0,0,1-.347.347h-.925A.347.347,0,0,1,33.316,56.212Zm6.9-10.3v-.925a.348.348,0,0,1,.347-.347h.926a.348.348,0,0,1,.347.347v.925a.348.348,0,0,1-.347.347h-.925A.348.348,0,0,1,40.214,45.909ZM36.765,59.646V58.72a.348.348,0,0,1,.347-.347h.926a.348.348,0,0,1,.347.347v.925a.348.348,0,0,1-.347.347h-.925A.348.348,0,0,1,36.765,59.646ZM33.316,45.909v-.925a.347.347,0,0,1,.347-.347h.926a.348.348,0,0,1,.347.347v.925a.348.348,0,0,1-.347.347h-.925A.347.347,0,0,1,33.316,45.909Zm0,3.434v-.925a.347.347,0,0,1,.347-.347h.926a.348.348,0,0,1,.347.347v.925a.347.347,0,0,1-.347.347h-.925A.347.347,0,0,1,33.316,49.343Zm-4.957-.925v.925a.348.348,0,0,1-.347.347h-.926a.347.347,0,0,1-.347-.347v-.925a.347.347,0,0,1,.347-.347h.926a.348.348,0,0,1,.347.347Zm0,3.435v.925a.348.348,0,0,1-.347.347h-.926a.348.348,0,0,1-.347-.347v-.925a.347.347,0,0,1,.347-.347h.926a.348.348,0,0,1,.347.347Zm-3.267,3.434v.927a.348.348,0,0,1-.347.347H23.82a.348.348,0,0,1-.347-.347v-.927a.347.347,0,0,1,.347-.346h.926A.347.347,0,0,1,25.092,55.286Zm3.267,0v.927a.348.348,0,0,1-.347.347h-.926a.348.348,0,0,1-.347-.347v-.927a.346.346,0,0,1,.347-.346h.926a.347.347,0,0,1,.347.346Zm0,3.435v.925a.348.348,0,0,1-.347.347h-.926a.348.348,0,0,1-.347-.347V58.72a.347.347,0,0,1,.347-.347h.926a.348.348,0,0,1,.347.347Zm-3.267-6.868v.925a.348.348,0,0,1-.347.347H23.82a.348.348,0,0,1-.347-.347v-.925a.348.348,0,0,1,.347-.347h.926A.348.348,0,0,1,25.092,51.852Zm0-3.435v.925a.347.347,0,0,1-.347.347H23.82a.347.347,0,0,1-.347-.347v-.925a.348.348,0,0,1,.347-.347h.926A.348.348,0,0,1,25.092,48.417Zm3.267,13.738v.925a.348.348,0,0,1-.347.347h-.926a.348.348,0,0,1-.347-.347v-.925a.346.346,0,0,1,.347-.347h.926a.348.348,0,0,1,.347.347ZM25.092,58.72v.925a.348.348,0,0,1-.347.347H23.82a.348.348,0,0,1-.347-.347V58.72a.348.348,0,0,1,.347-.347h.926A.348.348,0,0,1,25.092,58.72Zm0,3.435v.925a.348.348,0,0,1-.347.347H23.82a.348.348,0,0,1-.347-.347v-.925a.347.347,0,0,1,.347-.347h.926A.347.347,0,0,1,25.092,62.155Zm24.965-2.509V58.72a.348.348,0,0,1,.347-.347h.926a.347.347,0,0,1,.347.347v.925a.347.347,0,0,1-.347.347H50.4a.348.348,0,0,1-.347-.347Zm-3.266,0V58.72a.348.348,0,0,1,.347-.347h.926a.348.348,0,0,1,.347.347v.925a.348.348,0,0,1-.347.347h-.925A.348.348,0,0,1,46.791,59.646Zm3.266-3.434v-.927a.347.347,0,0,1,.347-.346h.926a.346.346,0,0,1,.347.346v.927a.347.347,0,0,1-.347.347H50.4a.348.348,0,0,1-.347-.347Zm0-6.869v-.925a.348.348,0,0,1,.347-.347h.926a.347.347,0,0,1,.347.347v.925a.347.347,0,0,1-.347.347H50.4a.347.347,0,0,1-.347-.347Zm0,13.738v-.925a.347.347,0,0,1,.347-.347h.926a.347.347,0,0,1,.347.347v.925a.347.347,0,0,1-.347.347H50.4a.348.348,0,0,1-.347-.347Zm-3.266-6.868v-.927a.347.347,0,0,1,.347-.346h.926a.347.347,0,0,1,.347.346v.927a.348.348,0,0,1-.347.347h-.925A.348.348,0,0,1,46.791,56.212Zm0,6.868v-.925a.347.347,0,0,1,.347-.347h.926a.347.347,0,0,1,.347.347v.925a.348.348,0,0,1-.347.347h-.925A.348.348,0,0,1,46.791,63.081Zm3.266-10.3v-.925a.348.348,0,0,1,.347-.347h.926a.347.347,0,0,1,.347.347v.925a.347.347,0,0,1-.347.347H50.4a.348.348,0,0,1-.347-.347Zm-3.266-3.435v-.925a.348.348,0,0,1,.347-.347h.926a.348.348,0,0,1,.347.347v.925a.348.348,0,0,1-.347.347h-.925A.347.347,0,0,1,46.791,49.343Zm0,3.435v-.925a.348.348,0,0,1,.347-.347h.926a.348.348,0,0,1,.347.347v.925a.348.348,0,0,1-.347.347h-.925A.348.348,0,0,1,46.791,52.778ZM18.486,31.171a3.43,3.43,0,1,1,3.43-3.43A3.434,3.434,0,0,1,18.486,31.171Zm0-8.48a5.05,5.05,0,1,0,5.05,5.05,5.055,5.055,0,0,0-5.05-5.05Zm41.32,7.17a2.948,2.948,0,0,1-2.318,2.791l.012.48a.811.811,0,0,1-.79.829h-.02a.811.811,0,0,1-.81-.79l-.012-.5a3.614,3.614,0,0,1-1.713-1.031.81.81,0,1,1,1.112-1.178,1.763,1.763,0,0,0,1.4.674,1.294,1.294,0,1,0,0-2.546A3.029,3.029,0,0,1,53.521,25.7,2.949,2.949,0,0,1,55.839,22.9l-.013-.556a.809.809,0,1,1,1.618-.038l.015.614a3.5,3.5,0,0,1,1.949,1.207.81.81,0,1,1-1.354.89,2.407,2.407,0,0,0-1.393-.6A1.416,1.416,0,0,0,55.14,25.7a1.416,1.416,0,0,0,1.522,1.274,3.03,3.03,0,0,1,3.143,2.892Zm-3.143,5.746A7.867,7.867,0,1,0,48.8,27.741,7.875,7.875,0,0,0,56.663,35.608Zm-3.4,11.361H45.2v17.56h8.067Zm-31.386,0v17.56h8.066V46.969Zm21.7,17.56V43.416H31.568V64.529ZM23.6,33.754l.9-.9a2.733,2.733,0,0,1,1.854-4.474V27.1A2.733,2.733,0,0,1,24.5,22.629l-.9-.9a2.732,2.732,0,0,1-4.473-1.852H17.849a2.733,2.733,0,0,1-4.473,1.853l-.9.9A2.732,2.732,0,0,1,10.62,27.1v1.276a2.732,2.732,0,0,1,1.853,4.474l.9.9a2.731,2.731,0,0,1,4.474,1.853h1.276A2.732,2.732,0,0,1,23.6,33.754ZM37.574,10.62a7.861,7.861,0,0,1,6.444,12.371,7.2,7.2,0,0,0-12.886,0A7.86,7.86,0,0,1,37.574,10.62Zm0,15.733a7.839,7.839,0,0,0,5.257-2.02,5.578,5.578,0,0,0-10.512,0,7.836,7.836,0,0,0,5.256,2.02Zm19.088-8.1a9.479,9.479,0,0,0-7.252,15.592L41.461,41.8H38.385V27.935a9.486,9.486,0,1,0-1.62,0V41.8H33.689l-7.921-7.921.041-.04a1.381,1.381,0,0,0,0-1.952,1.111,1.111,0,0,1,.785-1.9,1.381,1.381,0,0,0,1.379-1.379V26.873a1.381,1.381,0,0,0-1.379-1.38,1.111,1.111,0,0,1-.785-1.895,1.381,1.381,0,0,0,0-1.952l-1.227-1.227a1.382,1.382,0,0,0-1.952,0,1.111,1.111,0,0,1-1.895-.786,1.381,1.381,0,0,0-1.38-1.379H17.619a1.381,1.381,0,0,0-1.379,1.379,1.112,1.112,0,0,1-1.9.786,1.381,1.381,0,0,0-1.951,0l-1.226,1.227a1.377,1.377,0,0,0,0,1.95,1.112,1.112,0,0,1-.786,1.9A1.382,1.382,0,0,0,9,26.873v1.735a1.381,1.381,0,0,0,1.38,1.379,1.112,1.112,0,0,1,.786,1.9,1.378,1.378,0,0,0,0,1.952l1.226,1.226a1.381,1.381,0,0,0,1.951,0,1.111,1.111,0,0,1,1.9.786,1.382,1.382,0,0,0,1.379,1.38h1.736a1.381,1.381,0,0,0,1.38-1.38,1.112,1.112,0,0,1,1.9-.786,1.38,1.38,0,0,0,1.95,0l.042-.04L31.4,41.8h-.64a.811.811,0,0,0-.81.81v2.743H21.072a.811.811,0,0,0-.81.81V65.339a.81.81,0,0,0,.809.81H54.077a.81.81,0,0,0,.81-.81V46.159a.81.81,0,0,0-.81-.81H45.2V42.607a.81.81,0,0,0-.81-.81h-.639l6.8-6.8a9.484,9.484,0,1,0,6.107-16.737ZM37.574,13.02a2.141,2.141,0,1,0,2.141,2.14A2.143,2.143,0,0,0,37.574,13.02Zm0,5.9a3.76,3.76,0,1,0-3.76-3.761A3.764,3.764,0,0,0,37.574,18.921Z" transform="translate(-9 -9)" fill-rule="evenodd"/>
      </g>
    </g>
  </g>
</svg>
