<svg xmlns="http://www.w3.org/2000/svg" xmlns:xlink="http://www.w3.org/1999/xlink" width="108" height="108" viewBox="0 0 108 108">
  <defs>
    <filter id="Trazado_904820" x="0" y="0" width="108" height="108" filterUnits="userSpaceOnUse">
      <feOffset dy="3" input="SourceAlpha"/>
      <feGaussianBlur stdDeviation="3" result="blur"/>
      <feFlood flood-opacity="0.161"/>
      <feComposite operator="in" in2="blur"/>
      <feComposite in="SourceGraphic"/>
    </filter>
  </defs>
  <g id="Grupo_1202603" data-name="Grupo 1202603" transform="translate(-200 -1984)">
    <g id="Grupo_1202215" data-name="Grupo 1202215" transform="translate(209 1990)">
      <g id="Grupo_1173585" data-name="Grupo 1173585" transform="translate(0 0)">
        <g id="Grupo_1173428" data-name="Grupo 1173428">
          <g id="Grupo_1171958" data-name="Grupo 1171958">
            <g id="Grupo_1167341" data-name="Grupo 1167341">
              <g id="Grupo_1166792" data-name="Grupo 1166792">
                <g transform="matrix(1, 0, 0, 1, -9, -6)" filter="url(#Trazado_904820)">
                  <g id="Trazado_904820-2" data-name="Trazado 904820" transform="translate(9 6)" fill="#e9f9fd">
                    <path d="M 44.99999618530273 88.50004577636719 C 39.12687301635742 88.50004577636719 33.43022155761719 87.35012054443359 28.06829643249512 85.08220672607422 C 22.88852119445801 82.89134216308594 18.23629570007324 79.75463104248047 14.24084663391113 75.75917816162109 C 10.24540901184082 71.76371765136719 7.108683586120605 67.11149597167969 4.917821407318115 61.93173217773438 C 2.649921178817749 56.56979370117188 1.499996185302734 50.87314224243164 1.499996185302734 45.00001907348633 C 1.499996185302734 39.12689590454102 2.649921178817749 33.43024444580078 4.917821407318115 28.06830596923828 C 7.108683586120605 22.88853073120117 10.24540901184082 18.23631858825684 14.24084663391113 14.24086952209473 C 18.23629570007324 10.2454195022583 22.88852119445801 7.108694076538086 28.06829643249512 4.917831420898438 C 33.43022155761719 2.649931669235229 39.12687301635742 1.500006556510925 44.99999618530273 1.500006556510925 C 50.87311935424805 1.500006556510925 56.56977081298828 2.649931669235229 61.93169784545898 4.917831420898438 C 67.11147308349609 7.108694076538086 71.76369476318359 10.2454195022583 75.75914764404297 14.24086952209473 C 79.75458526611328 18.23631858825684 82.89131164550781 22.88853073120117 85.08216857910156 28.06830596923828 C 87.35007476806641 33.43024444580078 88.5 39.12689590454102 88.5 45.00001907348633 C 88.5 50.87314224243164 87.35007476806641 56.56979370117188 85.08216857910156 61.93173217773438 C 82.89131164550781 67.11149597167969 79.75458526611328 71.76371765136719 75.75914764404297 75.75917816162109 C 71.76369476318359 79.75463104248047 67.11147308349609 82.89134216308594 61.93169784545898 85.08220672607422 C 56.56977081298828 87.35012054443359 50.87311935424805 88.50004577636719 44.99999618530273 88.50004577636719 Z" stroke="none"/>
                    <path d="M 44.99999618530273 3.000007629394531 C 39.32870864868164 3.000007629394531 33.82865142822266 4.110061645507812 28.65262603759766 6.299346923828125 C 23.65165710449219 8.414573669433594 19.15968322753906 11.44334411621094 15.301513671875 15.30152130126953 C 11.44333648681641 19.15969085693359 8.414566040039062 23.65166473388672 6.299339294433594 28.65263366699219 C 4.110054016113281 33.82867431640625 2.999992370605469 39.32873153686523 2.999992370605469 45.00001907348633 C 2.999992370605469 50.67130661010742 4.110054016113281 56.17136383056641 6.299339294433594 61.34738922119141 C 8.414566040039062 66.34837341308594 11.44333648681641 70.84033203125 15.301513671875 74.69850158691406 C 19.15968322753906 78.55668640136719 23.65165710449219 81.58546447753906 28.65262603759766 83.70069122314453 C 33.82865142822266 85.88997650146484 39.32870864868164 87.00003051757812 44.99999618530273 87.00003051757812 C 50.67128372192383 87.00003051757812 56.17134094238281 85.88997650146484 61.34736633300781 83.70069122314453 C 66.34834289550781 81.58546447753906 70.84030914306641 78.55668640136719 74.69847869873047 74.69850158691406 C 78.55665588378906 70.84033203125 81.58542633056641 66.34837341308594 83.70065307617188 61.34738922119141 C 85.88993835449219 56.17136383056641 87 50.67130661010742 87 45.00001907348633 C 87 39.32873153686523 85.88993835449219 33.82867431640625 83.70065307617188 28.65263366699219 C 81.58542633056641 23.65166473388672 78.55665588378906 19.15969085693359 74.69847869873047 15.30152130126953 C 70.84030914306641 11.44334411621094 66.34834289550781 8.414573669433594 61.34736633300781 6.299346923828125 C 56.17134094238281 4.110061645507812 50.67128372192383 3.000007629394531 44.99999618530273 3.000007629394531 M 44.99999618530273 7.62939453125e-06 C 69.85281372070312 7.62939453125e-06 90 20.14719390869141 90 45.00001907348633 C 90 69.85282897949219 69.85281372070312 90.00003051757812 44.99999618530273 90.00003051757812 C 20.14717864990234 90.00003051757812 -7.62939453125e-06 69.85282897949219 -7.62939453125e-06 45.00001907348633 C -7.62939453125e-06 20.14719390869141 20.14717864990234 7.62939453125e-06 44.99999618530273 7.62939453125e-06 Z" stroke="none" fill="#1d7083"/>
                  </g>
                </g>
              </g>
            </g>
          </g>
        </g>
      </g>
    </g>
    <g id="quality-control_10845700" transform="translate(214.289 2045.229)">
      <g id="Grupo_1202602" data-name="Grupo 1202602" transform="translate(8.887 -45.973)">
        <g id="Grupo_1202599" data-name="Grupo 1202599" transform="translate(0 0)">
          <path id="Trazado_1041721" data-name="Trazado 1041721" d="M131.515,277.023a19.281,19.281,0,0,0,3.254,3.582l-8.848,8.673-3.368-3.471Z" transform="translate(-110.426 -240.262)" fill="#a79ba7" fill-rule="evenodd"/>
          <path id="Trazado_1041722" data-name="Trazado 1041722" d="M146.966,301.681a2.223,2.223,0,0,0,.963,1.291L139.14,311.7l-1.076-1.179Z" transform="translate(-124.171 -262.113)" fill="#837683" fill-rule="evenodd"/>
          <path id="Trazado_1041723" data-name="Trazado 1041723" d="M20.292,350.549l-3.8-3.918a1.748,1.748,0,0,1,.037-2.465L27.057,333.95a1.748,1.748,0,0,1,2.465.037l3.8,3.918a1.748,1.748,0,0,1-.037,2.465L22.757,350.586A1.748,1.748,0,0,1,20.292,350.549Z" transform="translate(-16 -290.276)" fill="#f1ba84" fill-rule="evenodd"/>
          <path id="Trazado_1041724" data-name="Trazado 1041724" d="M33.331,377.176,22.8,387.393a1.748,1.748,0,0,1-2.465-.037l-3.8-3.918a1.727,1.727,0,0,1-.331-.482A1.75,1.75,0,0,0,16.489,385l3.8,3.918a1.748,1.748,0,0,0,2.465.037l10.529-10.217a1.75,1.75,0,0,0,.368-1.982A1.73,1.73,0,0,1,33.331,377.176Z" transform="translate(-15.999 -328.639)" fill="#e3a76f" fill-rule="evenodd"/>
          <ellipse id="Elipse_12340" data-name="Elipse 12340" cx="19.173" cy="19.173" rx="19.173" ry="19.173" transform="translate(8.34 27.111) rotate(-45)" fill="#8ac9fe"/>
          <path id="Trazado_1041725" data-name="Trazado 1041725" d="M320.292,23.755a19.173,19.173,0,0,1,0,38.346q-.468,0-.931-.023a19.173,19.173,0,0,0,0-38.3q.462-.022.931-.023Z" transform="translate(-284.834 -15.819)" fill="#60b7ff" fill-rule="evenodd"/>
          <circle id="Elipse_12341" data-name="Elipse 12341" cx="15.365" cy="15.365" r="15.365" transform="translate(13.725 27.111) rotate(-45)" fill="#eceff1"/>
          <path id="Trazado_1041726" data-name="Trazado 1041726" d="M207.9,57.217c.349,0,.7.013,1.039.036a15.364,15.364,0,0,0,0,30.658c-.343.023-.69.036-1.039.036a15.365,15.365,0,1,1,0-30.73Z" transform="translate(-172.445 -45.473)" fill="#d1d1d6" fill-rule="evenodd"/>
        </g>
        <g id="Grupo_1202600" data-name="Grupo 1202600" transform="translate(30.107 38.541)">
          <path id="Trazado_1041727" data-name="Trazado 1041727" d="M296.119,294.579l8.415,14.575a3.843,3.843,0,0,1-3.328,5.764h-16.83a3.843,3.843,0,0,1-3.328-5.764l8.415-14.575a3.843,3.843,0,0,1,6.656,0Z" transform="translate(-280.53 -292.657)" fill="#ffe177" fill-rule="evenodd"/>
          <path id="Trazado_1041728" data-name="Trazado 1041728" d="M382.793,294.579l8.415,14.575a3.843,3.843,0,0,1-3.328,5.764h-2.26a3.843,3.843,0,0,0,3.328-5.764l-8.415-14.575a3.817,3.817,0,0,0-2.2-1.754,3.88,3.88,0,0,1,1.13-.167A3.817,3.817,0,0,1,382.793,294.579Z" transform="translate(-367.203 -292.658)" fill="#ffd064" fill-rule="evenodd"/>
          <path id="Trazado_1041729" data-name="Trazado 1041729" d="M378.231,352.7a1.289,1.289,0,1,1-1.289,1.289A1.289,1.289,0,0,1,378.231,352.7Zm0-2.3a1.006,1.006,0,0,1-1.005-.97l-.254-7.042a1.006,1.006,0,0,1,1.005-1.042h.509a1.006,1.006,0,0,1,1.005,1.042l-.254,7.042A1.006,1.006,0,0,1,378.231,350.4Z" transform="translate(-365.969 -335.806)" fill="#fe646f" fill-rule="evenodd"/>
          <path id="Trazado_1041730" data-name="Trazado 1041730" d="M378.231,352.7a1.287,1.287,0,0,1,.41.067,1.289,1.289,0,0,0,0,2.444,1.289,1.289,0,1,1-.41-2.511Zm0-2.3a1.006,1.006,0,0,1-1.005-.97l-.254-7.042a1.006,1.006,0,0,1,1.005-1.042h.509a1.086,1.086,0,0,1,.156.011,1.008,1.008,0,0,0-.849,1.031l.254,7.042a1.006,1.006,0,0,0,.6.882A1,1,0,0,1,378.231,350.4Z" transform="translate(-365.969 -335.807)" fill="#fd4755" fill-rule="evenodd"/>
        </g>
        <g id="Grupo_1202601" data-name="Grupo 1202601" transform="translate(24.107 15.758)">
          <path id="Trazado_1041731" data-name="Trazado 1041731" d="M241.418,94.368a9.69,9.69,0,0,1,2.837,1.176l1.843-.819L248.27,96.9l-.818,1.843a9.685,9.685,0,0,1,1.176,2.837l1.881.724v3.072l-1.881.724a9.684,9.684,0,0,1-1.069,2.659l.055-1.185a1.7,1.7,0,0,0-1.434-1.754l-1.09-.174a6.2,6.2,0,0,0-9.716-6.714l-1.2-.191.1-2.108a1.7,1.7,0,0,0-.4-1.169h0l.187.083a9.685,9.685,0,0,1,2.837-1.176l.724-1.881h3.072Zm3.024,17.846a1.7,1.7,0,0,1-.4-1.168l.1-2.108-1.2-.191a6.2,6.2,0,0,1-9.716-6.714l-1.09-.174A1.7,1.7,0,0,1,230.7,100.1l.055-1.185h0a9.685,9.685,0,0,0-1.069,2.659l-1.881.724v3.072l1.881.724a9.691,9.691,0,0,0,1.176,2.837l-.818,1.843,2.172,2.172,1.843-.819a9.684,9.684,0,0,0,2.837,1.176l.724,1.881h3.072l.724-1.881a9.689,9.689,0,0,0,2.837-1.176Z" transform="translate(-227.807 -92.487)" fill="#ffe177" fill-rule="evenodd"/>
          <path id="Trazado_1041732" data-name="Trazado 1041732" d="M266.2,112.129l-1.843.819-.284-.284,1.728-.768Q265.994,112.018,266.2,112.129Zm7.357-17.763a9.691,9.691,0,0,1,2.837,1.176l-.524.233a12.777,12.777,0,0,0-3.235-1.409l-.724-1.881h.923Zm2.837,17.763a9.688,9.688,0,0,1-2.837,1.176l-.724,1.881h-.923l.724-1.881a12.777,12.777,0,0,0,3.236-1.409ZM266.008,95.459l.187.083-.087.049q-.047-.068-.1-.132Zm11.585-.452.639-.284L280.4,96.9l-.818,1.843a9.684,9.684,0,0,1,1.176,2.837l1.881.724v3.072l-1.881.724a9.683,9.683,0,0,1-1.069,2.659l.055-1.185a1.691,1.691,0,0,0-.123-.712q.123-.375.214-.761l1.881-.724V102.3l-1.881-.724a9.69,9.69,0,0,0-1.176-2.837l.818-1.843Z" transform="translate(-259.942 -92.485)" fill="#ffd064" fill-rule="evenodd"/>
        </g>
      </g>
      <path id="Trazado_1041733" data-name="Trazado 1041733" d="M40.3,27.987a8.847,8.847,0,0,1,1.987-.736.909.909,0,0,0,.643-.558l.5-1.3h1.821l.5,1.3a.911.911,0,0,0,.637.558,8.737,8.737,0,0,1,2.571,1.066.911.911,0,0,0,.846.057l1.275-.566L52.368,29.1l-.562,1.271a.912.912,0,0,0,.054.847,8.679,8.679,0,0,1,1.066,2.571.9.9,0,0,0,.562.638l1.3.5v1.822l-1.3.5a.9.9,0,0,0-.487.451,2.618,2.618,0,0,0-1.489-.781l-.134-.022a6.984,6.984,0,0,0,.08-1.059,7.116,7.116,0,0,0-7.109-7.109,7.041,7.041,0,0,0-4.018,1.242l-.022,0,.059-1.3a2.4,2.4,0,0,0-.059-.678Zm-1.757.6-.1,2.108a.908.908,0,0,0,.766.941l1.2.191a.9.9,0,0,0,.7-.179,5.236,5.236,0,0,1,3.23-1.1,5.294,5.294,0,0,1,5.287,5.288,5.162,5.162,0,0,1-.23,1.541.915.915,0,0,0,.729,1.164l1.093.174a.794.794,0,0,1,.67.813l-.059,1.185a.914.914,0,0,0,.911.953.907.907,0,0,0,.782-.45,10.465,10.465,0,0,0,1.05-2.437l1.446-.557a.916.916,0,0,0,.584-.85V34.3a.916.916,0,0,0-.584-.85l-1.446-.557a10.67,10.67,0,0,0-.916-2.211l.627-1.416a.9.9,0,0,0-.187-1.014l-2.17-2.172a.918.918,0,0,0-1.018-.189L49.5,26.52a10.587,10.587,0,0,0-2.212-.916l-.557-1.447a.906.906,0,0,0-.846-.583H42.806a.918.918,0,0,0-.852.583L41.4,25.6a10.519,10.519,0,0,0-2.266.947.913.913,0,0,0-.777,1.493.8.8,0,0,1,.188.54ZM46.39,44.419a8.756,8.756,0,0,0,1.987-.736A2.612,2.612,0,0,1,48.318,43l.059-1.3-.021,0a7.025,7.025,0,0,1-4.012,1.242,7.116,7.116,0,0,1-7.109-7.11,7.737,7.737,0,0,1,.075-1.058l-.134-.022a2.62,2.62,0,0,1-1.484-.781.91.91,0,0,1-.493.451l-1.3.5v1.822l1.3.5a.9.9,0,0,1,.557.638,8.949,8.949,0,0,0,1.066,2.57.9.9,0,0,1,.059.848l-.563,1.271L37.6,43.862l1.275-.566a.911.911,0,0,1,.846.057,8.8,8.8,0,0,0,2.566,1.065.911.911,0,0,1,.643.559l.5,1.3h1.821l.5-1.3a.91.91,0,0,1,.638-.559Zm3.161.7a.911.911,0,0,0,.771-1.494.766.766,0,0,1-.182-.539l.1-2.108a.908.908,0,0,0-.766-.941l-1.2-.191a.905.905,0,0,0-.7.178,5.288,5.288,0,0,1-8.518-4.188,5.332,5.332,0,0,1,.225-1.54.9.9,0,0,0-.1-.748.914.914,0,0,0-.632-.417l-1.087-.174a.794.794,0,0,1-.67-.813l.059-1.185a.913.913,0,0,0-1.7-.5,10.674,10.674,0,0,0-1.045,2.437l-1.446.557a.908.908,0,0,0-.584.85v3.072a.908.908,0,0,0,.584.85l1.446.557a10.387,10.387,0,0,0,.916,2.211L34.4,42.4a.9.9,0,0,0,.187,1.014l2.17,2.172a.911.911,0,0,0,1.012.189l1.42-.629a10.587,10.587,0,0,0,2.212.916l.552,1.447a.92.92,0,0,0,.852.583h3.075a.907.907,0,0,0,.846-.583l.557-1.446a10.563,10.563,0,0,0,2.266-.948Zm1.377,8.627A.111.111,0,0,1,51,53.719h.509a.094.094,0,0,1,.07.027.087.087,0,0,1,.021.071L51.35,60.86a.1.1,0,0,1-.193,0l-.252-7.042A.114.114,0,0,1,50.927,53.746Zm.327,9.027a1.911,1.911,0,0,0,1.918-1.847l.252-7.043A1.913,1.913,0,0,0,51.511,51.9H51a1.913,1.913,0,0,0-1.918,1.985l.252,7.043A1.911,1.911,0,0,0,51.254,62.773Zm0,3.057a.378.378,0,1,1,.38-.379A.38.38,0,0,1,51.254,65.83Zm0-2.578a2.2,2.2,0,1,0,2.2,2.2A2.2,2.2,0,0,0,51.254,63.252Zm10.955,3.9a2.9,2.9,0,0,0,0-2.932L53.793,49.643a2.931,2.931,0,0,0-5.079,0L40.3,64.218a2.932,2.932,0,0,0,2.539,4.4H59.67A2.9,2.9,0,0,0,62.209,67.15Zm-15.889-17,.82-1.42a4.76,4.76,0,0,1,6.434-1.778,14.451,14.451,0,1,0-9.23,3.334,14.751,14.751,0,0,0,1.977-.136ZM26.081,35.834A18.282,18.282,0,0,0,44.043,54.093L45.2,52.087c-.284.015-.573.023-.857.023a16.276,16.276,0,1,1,10.634-3.955,4.584,4.584,0,0,1,.391.578l.659,1.138a18.09,18.09,0,0,0,6.578-14.037,18.262,18.262,0,1,0-36.524,0Zm-.07,19.01-2.1-2.165,4.618-4.48a20.582,20.582,0,0,0,2.03,2.229Zm-.477,3.322a.805.805,0,0,0,.252-.585.831.831,0,0,0-.23-.593l-3.8-3.918a.816.816,0,0,0-.584-.25h-.016a.833.833,0,0,0-.579.232L10.048,63.271a.834.834,0,0,0-.021,1.177l3.8,3.917a.835.835,0,0,0,1.179.017Zm38.249,5.141L56.948,51.466a20.272,20.272,0,0,0,5.266-6.459,19.87,19.87,0,0,0,2.212-9.173A20.084,20.084,0,1,0,27.458,46.7l-4.864,4.723A2.651,2.651,0,0,0,21.2,51a2.616,2.616,0,0,0-1.886.747L8.778,61.964a2.653,2.653,0,0,0-.053,3.752l3.8,3.917a2.66,2.66,0,0,0,3.755.057L26.8,59.473a2.628,2.628,0,0,0,.8-1.864,2.585,2.585,0,0,0-.38-1.41l4.719-4.575a19.955,19.955,0,0,0,11.068,4.25l-4.291,7.434a4.753,4.753,0,0,0,4.114,7.129H59.67a4.753,4.753,0,0,0,4.114-7.129Z" transform="translate(0 -54.699)" fill-rule="evenodd"/>
    </g>
  </g>
</svg>
