<svg xmlns="http://www.w3.org/2000/svg" xmlns:xlink="http://www.w3.org/1999/xlink" width="113" height="113" viewBox="0 0 113 113">
  <defs>
    <filter id="Trazado_982547" x="0" y="0" width="113" height="113" filterUnits="userSpaceOnUse">
      <feOffset dy="3" input="SourceAlpha"/>
      <feGaussianBlur stdDeviation="3" result="blur"/>
      <feFlood flood-opacity="0.161"/>
      <feComposite operator="in" in2="blur"/>
      <feComposite in="SourceGraphic"/>
    </filter>
  </defs>
  <g id="Grupo_1202513" data-name="Grupo 1202513" transform="translate(-5655 -936.785)">
    <g id="Grupo_1202360" data-name="Grupo 1202360" transform="translate(4861.51 -524.838)">
      <g id="Grupo_1177632" data-name="Grupo 1177632" transform="translate(-4493 -458.649)">
        <g id="Grupo_1176928" data-name="Grupo 1176928" transform="translate(5295.49 1926.273)">
          <g id="Grupo_1172322" data-name="Grupo 1172322" transform="translate(0 0)">
            <g id="Grupo_1164700" data-name="Grupo 1164700">
              <g id="Grupo_1160931" data-name="Grupo 1160931">
                <g id="Grupo_1160749" data-name="Grupo 1160749">
                  <g id="Grupo_1158891" data-name="Grupo 1158891">
                    <g id="Grupo_1157406" data-name="Grupo 1157406">
                      <g id="Grupo_1155793" data-name="Grupo 1155793">
                        <g id="Grupo_1154704" data-name="Grupo 1154704">
                          <g id="Grupo_1150790" data-name="Grupo 1150790">
                            <g id="Grupo_1154214" data-name="Grupo 1154214">
                              <g id="Grupo_1152583" data-name="Grupo 1152583">
                                <g id="Grupo_1146973" data-name="Grupo 1146973">
                                  <g id="Grupo_1146954" data-name="Grupo 1146954">
                                    <g transform="matrix(1, 0, 0, 1, -9, -6)" filter="url(#Trazado_982547)">
                                      <g id="Trazado_982547-2" data-name="Trazado 982547" transform="translate(9 6)" fill="#f2f7e5">
                                        <path d="M 47.5000114440918 93.49987030029297 C 41.28938293457031 93.49987030029297 35.26534652709961 92.28384399414062 29.5951976776123 89.88558959960938 C 24.11773109436035 87.56881713867188 19.19814491271973 84.25183868408203 14.97310447692871 80.02680206298828 C 10.74805164337158 75.80176544189453 7.43107795715332 70.88218688964844 5.114304542541504 65.40472412109375 C 2.716038227081299 59.73458862304688 1.500011444091797 53.71054840087891 1.500011444091797 47.49993515014648 C 1.500011444091797 41.28932189941406 2.716038227081299 35.26528167724609 5.114304542541504 29.59514808654785 C 7.43107795715332 24.1176815032959 10.74805164337158 19.1981086730957 14.97310447692871 14.97306823730469 C 19.19814491271973 10.74802875518799 24.11773109436035 7.431055068969727 29.5951976776123 5.11428165435791 C 35.26534652709961 2.716028451919556 41.28938293457031 1.500001788139343 47.5000114440918 1.500001788139343 C 53.71063995361328 1.500001788139343 59.73467636108398 2.716028451919556 65.40482330322266 5.11428165435791 C 70.88229370117188 7.431055068969727 75.8018798828125 10.74802875518799 80.02691650390625 14.97306823730469 C 84.25196838378906 19.1981086730957 87.56894683837891 24.1176815032959 89.88571929931641 29.59514808654785 C 92.28398132324219 35.26528167724609 93.50001525878906 41.28932189941406 93.50001525878906 47.49993515014648 C 93.50001525878906 53.71054840087891 92.28398132324219 59.73458862304688 89.88571929931641 65.40472412109375 C 87.56894683837891 70.88218688964844 84.25196838378906 75.80176544189453 80.02691650390625 80.02680206298828 C 75.8018798828125 84.25183868408203 70.88229370117188 87.56881713867188 65.40482330322266 89.88558959960938 C 59.73467636108398 92.28384399414062 53.71063995361328 93.49987030029297 47.5000114440918 93.49987030029297 Z" stroke="none"/>
                                        <path d="M 47.5000114440918 3 C 41.49122619628906 3 35.66378021240234 4.1761474609375 30.17951965332031 6.495796203613281 C 24.880859375 8.7369384765625 20.12153625488281 11.94596862792969 16.03376770019531 16.03373718261719 C 11.94598388671875 20.12149047851562 8.736968994140625 24.88081359863281 6.495811462402344 30.17947387695312 C 4.176162719726562 35.66371917724609 3.000007629394531 41.49116516113281 3.000007629394531 47.49993515014648 C 3.000007629394531 53.50870513916016 4.176162719726562 59.33615112304688 6.495811462402344 64.82039642333984 C 8.736968994140625 70.11905670166016 11.94598388671875 74.87837982177734 16.03376770019531 78.96613311767578 C 20.12153625488281 83.05390167236328 24.880859375 86.26293182373047 30.17951965332031 88.50407409667969 C 35.66378021240234 90.82372283935547 41.49122619628906 91.99987030029297 47.5000114440918 91.99987030029297 C 53.50879669189453 91.99987030029297 59.33624267578125 90.82372283935547 64.82050323486328 88.50407409667969 C 70.11916351318359 86.26293182373047 74.87848663330078 83.05390167236328 78.96625518798828 78.96613311767578 C 83.05403900146484 74.87837982177734 86.2630615234375 70.11905670166016 88.50421142578125 64.82039642333984 C 90.82386016845703 59.33615112304688 92.00001525878906 53.50870513916016 92.00001525878906 47.49993515014648 C 92.00001525878906 41.49116516113281 90.82386016845703 35.66371917724609 88.50421142578125 30.17947387695312 C 86.2630615234375 24.88081359863281 83.05403900146484 20.12149047851562 78.96625518798828 16.03373718261719 C 74.87848663330078 11.94596862792969 70.11916351318359 8.7369384765625 64.82050323486328 6.495796203613281 C 59.33624267578125 4.1761474609375 53.50879669189453 3 47.5000114440918 3 M 47.5000114440918 0 C 73.73353576660156 0 95.00001525878906 21.26644134521484 95.00001525878906 47.49993515014648 C 95.00001525878906 73.73342895507812 73.73353576660156 94.99987030029297 47.5000114440918 94.99987030029297 C 21.26648712158203 94.99987030029297 7.62939453125e-06 73.73342895507812 7.62939453125e-06 47.49993515014648 C 7.62939453125e-06 21.26644134521484 21.26648712158203 0 47.5000114440918 0 Z" stroke="none" fill="#86b60c"/>
                                      </g>
                                    </g>
                                  </g>
                                </g>
                              </g>
                            </g>
                          </g>
                        </g>
                      </g>
                    </g>
                  </g>
                </g>
              </g>
            </g>
          </g>
        </g>
      </g>
    </g>
    <g id="Layer_2" transform="translate(5676.075 954.86)">
      <g id="Grupo_1202512" data-name="Grupo 1202512" transform="translate(2.5 2.5)">
        <g id="Grupo_1202510" data-name="Grupo 1202510" transform="translate(0.784 0.822)">
          <path id="Trazado_1041289" data-name="Trazado 1041289" d="M3.63,59.234a6.753,6.753,0,0,0,13.505,0V52.49H10.383A6.765,6.765,0,0,0,3.63,59.234Z" transform="translate(-3.63 -18.661)" fill="#ce3056"/>
          <path id="Trazado_1041290" data-name="Trazado 1041290" d="M59.245,34.079A6.765,6.765,0,0,0,66,27.334V10.446a6.753,6.753,0,0,0-13.505,0V27.334a6.765,6.765,0,0,0,6.753,6.744Z" transform="translate(-18.623 -3.701)" fill="#5bb381"/>
          <path id="Trazado_1041291" data-name="Trazado 1041291" d="M34.776,52.489a6.765,6.765,0,0,0-6.753,6.744V76.121a6.753,6.753,0,0,0,13.505,0V59.233a6.764,6.764,0,0,0-6.753-6.744Z" transform="translate(-11.115 -18.661)" fill="#ce3056"/>
          <path id="Trazado_1041292" data-name="Trazado 1041292" d="M90.391,34.809a6.753,6.753,0,0,0-13.505,0v6.744h6.753a6.765,6.765,0,0,0,6.753-6.744Z" transform="translate(-26.108 -11.177)" fill="#5bb381"/>
          <path id="Trazado_1041293" data-name="Trazado 1041293" d="M10.4,41.54H27.306a6.745,6.745,0,0,0,0-13.49H10.4A6.745,6.745,0,0,0,10.4,41.54Z" transform="translate(-3.645 -11.162)" fill="#61c3ec"/>
          <path id="Trazado_1041294" data-name="Trazado 1041294" d="M59.245,76.853H52.492V83.6a6.744,6.744,0,1,0,6.753-6.744Z" transform="translate(-18.623 -26.137)" fill="#e4b34b"/>
          <path id="Trazado_1041295" data-name="Trazado 1041295" d="M76.168,52.489H59.259a6.745,6.745,0,0,0,0,13.49H76.168A6.745,6.745,0,0,0,76.168,52.489Z" transform="translate(-18.638 -18.661)" fill="#e4b34b"/>
          <path id="Trazado_1041296" data-name="Trazado 1041296" d="M34.791,3.686a6.745,6.745,0,0,0,0,13.49h6.753V10.431a6.764,6.764,0,0,0-6.753-6.745Z" transform="translate(-11.13 -3.686)" fill="#61c3ec"/>
        </g>
        <g id="Grupo_1202511" data-name="Grupo 1202511">
          <path id="Trazado_1041297" data-name="Trazado 1041297" d="M58.78,75.355H52.056a.96.96,0,0,0-.96.959V83.03A7.689,7.689,0,0,0,58.78,90.7C68.973,90.283,68.972,75.776,58.78,75.355Zm0,13.432a5.767,5.767,0,0,1-5.764-5.757V77.274H58.78A5.757,5.757,0,0,1,58.78,88.787Z" transform="translate(-17.411 -24.855)"/>
          <path id="Trazado_1041298" data-name="Trazado 1041298" d="M75.635,51.1H58.8c-10.191.421-10.194,14.929,0,15.35H75.635C85.824,66.026,85.83,51.517,75.635,51.1Zm0,13.432H58.8a5.757,5.757,0,1,1,0-11.513H75.635A5.757,5.757,0,0,1,75.635,64.527Z" transform="translate(-17.429 -17.411)"/>
          <path id="Trazado_1041299" data-name="Trazado 1041299" d="M76.346,42.11H83.07c10.192-.421,10.193-14.929,0-15.35a7.689,7.689,0,0,0-7.684,7.675v6.716A.96.96,0,0,0,76.346,42.11Zm.96-7.675a5.757,5.757,0,1,1,5.764,5.757H77.306Z" transform="translate(-24.864 -9.944)"/>
          <path id="Trazado_1041300" data-name="Trazado 1041300" d="M34.434,2.5c-10.194.421-10.192,14.929,0,15.35h6.724a.96.96,0,0,0,.96-.959V10.175A7.689,7.689,0,0,0,34.434,2.5ZM40.2,15.932H34.433A5.764,5.764,0,1,1,40.2,10.175S40.2,15.932,40.2,15.932Z" transform="translate(-9.953 -2.5)"/>
          <path id="Trazado_1041301" data-name="Trazado 1041301" d="M16.868,51.1H10.144c-10.192.421-10.193,14.929,0,15.35a7.689,7.689,0,0,0,7.684-7.675V52.054a.96.96,0,0,0-.96-.959Zm-.96,7.675a5.764,5.764,0,1,1-5.764-5.757h5.764V58.77Z" transform="translate(-2.5 -17.411)"/>
          <path id="Trazado_1041302" data-name="Trazado 1041302" d="M34.416,51.1a7.689,7.689,0,0,0-7.684,7.675V75.586c.42,10.178,14.946,10.183,15.369,0V58.77A7.689,7.689,0,0,0,34.416,51.1ZM40.18,75.586a5.764,5.764,0,0,1-11.528,0V58.77a5.764,5.764,0,0,1,11.529,0V75.586Z" transform="translate(-9.935 -17.411)"/>
          <path id="Trazado_1041303" data-name="Trazado 1041303" d="M10.145,42.11H26.981c10.191-.421,10.194-14.928,0-15.35a.959.959,0,0,0,0,1.918,5.757,5.757,0,0,1,0,11.514H10.145a5.757,5.757,0,0,1,0-11.514H22.771a.959.959,0,0,0,0-1.918H10.145c-10.189.419-10.2,14.927,0,15.35Z" transform="translate(-2.5 -9.944)"/>
          <path id="Trazado_1041304" data-name="Trazado 1041304" d="M58.78,34.684a7.689,7.689,0,0,0,7.684-7.675.96.96,0,0,0-1.92,0,5.764,5.764,0,0,1-11.528,0V10.193a5.764,5.764,0,0,1,11.528,0V23.165a.96.96,0,0,0,1.92,0V10.193C66.045.017,51.519.009,51.1,10.193V27.009A7.689,7.689,0,0,0,58.78,34.684Z" transform="translate(-17.411 -2.518)"/>
        </g>
      </g>
    </g>
  </g>
</svg>
