<svg xmlns="http://www.w3.org/2000/svg" xmlns:xlink="http://www.w3.org/1999/xlink" width="113" height="113" viewBox="0 0 113 113">
  <defs>
    <filter id="Trazado_982547" x="0" y="0" width="113" height="113" filterUnits="userSpaceOnUse">
      <feOffset dy="3" input="SourceAlpha"/>
      <feGaussianBlur stdDeviation="3" result="blur"/>
      <feFlood flood-opacity="0.161"/>
      <feComposite operator="in" in2="blur"/>
      <feComposite in="SourceGraphic"/>
    </filter>
  </defs>
  <g id="Grupo_1202531" data-name="Grupo 1202531" transform="translate(-586.5 -1388.094)">
    <g id="Grupo_1202365" data-name="Grupo 1202365" transform="translate(315.5 517.68)">
      <g id="Grupo_1174813" data-name="Grupo 1174813" transform="translate(280 876.414)">
        <g id="Grupo_1201680" data-name="Grupo 1201680">
          <g id="Grupo_1201330" data-name="Grupo 1201330">
            <g id="Grupo_1172010" data-name="Grupo 1172010">
              <g id="Grupo_1171046" data-name="Grupo 1171046">
                <g id="Grupo_1148525" data-name="Grupo 1148525">
                  <g transform="matrix(1, 0, 0, 1, -9, -6)" filter="url(#Trazado_982547)">
                    <g id="Trazado_982547-2" data-name="Trazado 982547" transform="translate(9 6)" fill="#e9f9fd">
                      <path d="M 47.5 93.5 C 41.28937149047852 93.5 35.26533508300781 92.28397369384766 29.59518623352051 89.88570404052734 C 24.11771965026855 87.56893157958984 19.19813346862793 84.25196075439453 14.97309303283691 80.02691650390625 C 10.74804019927979 75.80186462402344 7.431066513061523 70.88229370117188 5.114293098449707 65.40481567382812 C 2.716026782989502 59.73468017578125 1.5 53.71062850952148 1.5 47.5 C 1.5 41.28937149047852 2.716026782989502 35.26533508300781 5.114293098449707 29.59518623352051 C 7.431066513061523 24.11771965026855 10.74804019927979 19.19813346862793 14.97309303283691 14.97309303283691 C 19.19813346862793 10.74804019927979 24.11771965026855 7.431066513061523 29.59518623352051 5.114293098449707 C 35.26533508300781 2.716026782989502 41.28937149047852 1.5 47.5 1.5 C 53.71062850952148 1.5 59.73468017578125 2.716026782989502 65.40481567382812 5.114293098449707 C 70.88229370117188 7.431066513061523 75.80186462402344 10.74804019927979 80.02691650390625 14.97309303283691 C 84.25196075439453 19.19813346862793 87.56893157958984 24.11771965026855 89.88570404052734 29.59518623352051 C 92.28397369384766 35.26533508300781 93.5 41.28937149047852 93.5 47.5 C 93.5 53.71062850952148 92.28397369384766 59.73468017578125 89.88570404052734 65.40481567382812 C 87.56893157958984 70.88229370117188 84.25196075439453 75.80186462402344 80.02691650390625 80.02691650390625 C 75.80186462402344 84.25196075439453 70.88229370117188 87.56893157958984 65.40481567382812 89.88570404052734 C 59.73468017578125 92.28397369384766 53.71062850952148 93.5 47.5 93.5 Z" stroke="none"/>
                      <path d="M 47.5 3 C 41.49121475219727 3 35.66376876831055 4.176155090332031 30.17950439453125 6.495796203613281 C 24.88084411621094 8.736953735351562 20.12152099609375 11.94598388671875 16.03375244140625 16.03375244140625 C 11.94598388671875 20.12152099609375 8.736953735351562 24.88084411621094 6.495796203613281 30.17950439453125 C 4.176155090332031 35.66376876831055 3 41.49121475219727 3 47.5 C 3 53.50878524780273 4.176155090332031 59.33623123168945 6.495796203613281 64.82049560546875 C 8.736953735351562 70.11915588378906 11.94598388671875 74.87847900390625 16.03375244140625 78.96624755859375 C 20.12152099609375 83.05401611328125 24.88084411621094 86.26304626464844 30.17950439453125 88.50419616699219 C 35.66376876831055 90.82384490966797 41.49121475219727 92 47.5 92 C 53.50878524780273 92 59.33623123168945 90.82384490966797 64.82049560546875 88.50419616699219 C 70.11915588378906 86.26304626464844 74.87847900390625 83.05401611328125 78.96624755859375 78.96624755859375 C 83.05401611328125 74.87847900390625 86.26304626464844 70.11915588378906 88.50419616699219 64.82049560546875 C 90.82384490966797 59.33623123168945 92 53.50878524780273 92 47.5 C 92 41.49121475219727 90.82384490966797 35.66376876831055 88.50419616699219 30.17950439453125 C 86.26304626464844 24.88084411621094 83.05401611328125 20.12152099609375 78.96624755859375 16.03375244140625 C 74.87847900390625 11.94598388671875 70.11915588378906 8.736953735351562 64.82049560546875 6.495796203613281 C 59.33623123168945 4.176155090332031 53.50878524780273 3 47.5 3 M 47.5 0 C 73.7335205078125 0 95 21.2664794921875 95 47.5 C 95 73.7335205078125 73.7335205078125 95 47.5 95 C 21.2664794921875 95 0 73.7335205078125 0 47.5 C 0 21.2664794921875 21.2664794921875 0 47.5 0 Z" stroke="none" fill="#1d7083"/>
                    </g>
                  </g>
                </g>
              </g>
            </g>
          </g>
        </g>
      </g>
    </g>
    <g id="interview_9066924" transform="translate(607.397 1405.992)">
      <path id="Trazado_1041424" data-name="Trazado 1041424" d="M243.982,408.076h-3.513V397.537l1.756-1.756,1.756,1.756Z" transform="translate(-206.622 -344.37)" fill="#c2bce0"/>
      <path id="Trazado_1041425" data-name="Trazado 1041425" d="M195.909,142.812v5.269a2.262,2.262,0,0,1-2.262,2.262H192.4V152.1l-3.513-1.756h-8.277a2.262,2.262,0,0,1-2.262-2.262v-5.269Z" transform="translate(-151.524 -120.01)" fill="#01c0fa"/>
      <path id="Trazado_1041426" data-name="Trazado 1041426" d="M191.374,142.812a5.613,5.613,0,0,1-5.6,5.269h-7.428a2.262,2.262,0,0,0,2.262,2.262h8.277L192.4,152.1v-1.756h1.251a2.262,2.262,0,0,0,2.262-2.262v-5.269Z" transform="translate(-151.523 -120.01)" fill="#08a9f1"/>
      <path id="Trazado_1041427" data-name="Trazado 1041427" d="M193.646,38.562H180.606a2.262,2.262,0,0,0-2.262,2.262v9.528a2.262,2.262,0,0,0,2.262,2.262h1.251V54.37l3.513-1.756h8.277a2.262,2.262,0,0,0,2.262-2.262V40.824A2.262,2.262,0,0,0,193.646,38.562Z" transform="translate(-151.523 -27.549)" fill="#f2fbff"/>
      <path id="Trazado_1041428" data-name="Trazado 1041428" d="M193.646,38.562h-2.262v6.017a5.773,5.773,0,0,1-5.773,5.773h-7.268a2.262,2.262,0,0,0,2.262,2.262h1.251V54.37l3.513-1.756h8.277a2.262,2.262,0,0,0,2.262-2.262V40.824A2.262,2.262,0,0,0,193.646,38.562Z" transform="translate(-151.523 -27.549)" fill="#dff6fd"/>
      <path id="Trazado_1041429" data-name="Trazado 1041429" d="M8.133,21.129A11.294,11.294,0,0,1,7.5,17.4V14.526a7.027,7.027,0,0,1,13.83-1.756Z" fill="#6354b1"/>
      <path id="Trazado_1041430" data-name="Trazado 1041430" d="M77.376,12.511v3.231l4.3-2.725a7.031,7.031,0,0,0-6.135-5.238A7,7,0,0,1,77.376,12.511Z" transform="translate(-60.348 -0.247)" fill="#54469c"/>
      <path id="Trazado_1041431" data-name="Trazado 1041431" d="M393.668,21.129A11.294,11.294,0,0,0,394.3,17.4V14.526A7.026,7.026,0,0,0,387.276,7.5h0a7.026,7.026,0,0,0-7.026,7.026v.7Z" transform="translate(-330.596)" fill="#fee903"/>
      <path id="Trazado_1041432" data-name="Trazado 1041432" d="M448.292,7.778a7,7,0,0,1,1.833,4.732v2.872a11.3,11.3,0,0,1-.718,3.967l4.609,2.027a11.293,11.293,0,0,0,.633-3.732V14.772A7.027,7.027,0,0,0,448.292,7.778Z" transform="translate(-390.943 -0.247)" fill="#f4d902"/>
      <path id="Trazado_1041433" data-name="Trazado 1041433" d="M23.308,359.727l-7.026,1.756L7.5,359.727V349.188H23.308Z" transform="translate(0 -303.046)" fill="#e3ca00"/>
      <path id="Trazado_1041434" data-name="Trazado 1041434" d="M364.719,359.727l7.026,1.756,8.782-1.756V349.188H364.719Z" transform="translate(-316.821 -303.046)" fill="#e41f2d"/>
      <path id="Trazado_1041435" data-name="Trazado 1041435" d="M302.594,449.4H320.9a4.524,4.524,0,0,0,4.524-4.524v-2.5H306.552a3.958,3.958,0,0,0-3.958,3.958Z" transform="translate(-261.722 -385.695)" fill="#6e61b6"/>
      <path id="Trazado_1041436" data-name="Trazado 1041436" d="M168.082,318.125h-3.513l-1.756,3.513,1.756,3.513h7.471v-3.068A3.958,3.958,0,0,0,168.082,318.125Z" transform="translate(-137.749 -275.496)" fill="#fff3de"/>
      <path id="Trazado_1041437" data-name="Trazado 1041437" d="M17.734,57.223v-2a1.131,1.131,0,0,1,1.131-1.131H26.3a7.036,7.036,0,0,1,.221,1.756v3.513l.971,1.942a1.086,1.086,0,0,1-.971,1.571v2.635A4.394,4.394,0,0,1,20.5,69.591h0l-.913-.364A11.309,11.309,0,0,1,13.1,62.454l2.855-1.9A4,4,0,0,0,17.734,57.223Z" transform="translate(-4.965 -41.325)" fill="#fff3de"/>
      <path id="Trazado_1041438" data-name="Trazado 1041438" d="M23.308,235.476v-3.753a6.785,6.785,0,0,0-6.785-6.785H11.458A3.958,3.958,0,0,0,7.5,228.9v10.213a3.393,3.393,0,0,0,3.393,3.393H26.821v-7.026H23.308Z" transform="translate(0 -192.847)" fill="#fee903"/>
      <path id="Trazado_1041439" data-name="Trazado 1041439" d="M173.173,318.164a3.943,3.943,0,0,1,.379,1.692v.741a2.327,2.327,0,0,1-2.327,2.327h-2.883l1.131,2.262h7.471v-3.068A3.958,3.958,0,0,0,173.173,318.164Z" transform="translate(-142.653 -275.531)" fill="#ffe5c2"/>
      <path id="Trazado_1041440" data-name="Trazado 1041440" d="M9.207,360.25a3.394,3.394,0,0,0,3.2,2.262H28.335V360.25Z" transform="translate(-1.514 -312.857)" fill="#f4d902"/>
      <path id="Trazado_1041441" data-name="Trazado 1041441" d="M271.552,318.125h3.513l1.756,3.513-1.756,3.513h-7.471v-3.068A3.958,3.958,0,0,1,271.552,318.125Z" transform="translate(-230.68 -275.496)" fill="#ffeee6"/>
      <path id="Trazado_1041442" data-name="Trazado 1041442" d="M267.594,360.25v2.262h7.471l1.131-2.262Z" transform="translate(-230.68 -312.857)" fill="#ffdfcf"/>
      <path id="Trazado_1041443" data-name="Trazado 1041443" d="M337.169,235.476v-3.753a6.785,6.785,0,0,1,6.785-6.785h5.064a3.958,3.958,0,0,1,3.958,3.958v10.213a3.393,3.393,0,0,1-3.393,3.393H333.656v-7.026h3.513Z" transform="translate(-289.271 -192.847)" fill="#fd4755"/>
      <path id="Trazado_1041444" data-name="Trazado 1041444" d="M349.019,224.938h-.946a3.942,3.942,0,0,1,.381,1.7v7.887a5.719,5.719,0,0,1-5.719,5.719h-9.078V242.5h15.928a3.393,3.393,0,0,0,3.393-3.393V228.9A3.958,3.958,0,0,0,349.019,224.938Z" transform="translate(-289.271 -192.848)" fill="#fb2b3a"/>
      <rect id="Rectángulo_416640" data-name="Rectángulo 416640" width="42.154" height="3.513" transform="translate(14.526 49.654)" fill="#fe9738"/>
      <path id="Trazado_1041445" data-name="Trazado 1041445" d="M30.334,449.4H12.024A4.524,4.524,0,0,1,7.5,444.877v-2.5H26.375a3.958,3.958,0,0,1,3.958,3.958Z" transform="translate(0 -385.695)" fill="#01c0fa"/>
      <path id="Trazado_1041446" data-name="Trazado 1041446" d="M380.508,50.793V49.8a1.7,1.7,0,0,0-.179-.759l-.485-.97a2.262,2.262,0,0,0-3.187-.928L371.726,50.1v2.81l-.971,1.942a1.086,1.086,0,0,0,.971,1.571v2.635a4.394,4.394,0,0,0,6.016,4.081h0l.913-.364a11.3,11.3,0,0,0,5.866-5.326h0l0-.007h0a11.3,11.3,0,0,0,.619-1.44l-2.874-1.916A3.958,3.958,0,0,1,380.508,50.793Z" transform="translate(-322.072 -34.873)" fill="#ffeee6"/>
      <path id="Trazado_1041447" data-name="Trazado 1041447" d="M55.752,61.305l-.971-1.942V55.85a7.042,7.042,0,0,0-.221-1.756h-4.3v9.155a4.395,4.395,0,0,1-5.291,4.3,11.3,11.3,0,0,0,2.885,1.68l.913.364h0a4.394,4.394,0,0,0,6.016-4.081V62.876A1.085,1.085,0,0,0,55.752,61.305Z" transform="translate(-33.23 -41.325)" fill="#ffe5c2"/>
      <path id="Trazado_1041448" data-name="Trazado 1041448" d="M397.771,101.427,394.9,99.511a3.956,3.956,0,0,1-1.32-1.475,11.288,11.288,0,0,1-.949,2.569h0l0,.007h0a11.3,11.3,0,0,1-5.866,5.326l-.913.364h0a4.36,4.36,0,0,1-.969.262,4.4,4.4,0,0,0,5.493,2h0l.913-.364a11.3,11.3,0,0,0,5.866-5.326h0l0-.007h0A11.3,11.3,0,0,0,397.771,101.427Z" transform="translate(-334.699 -80.297)" fill="#ffdfcf"/>
      <path id="Trazado_1041449" data-name="Trazado 1041449" d="M243.982,411.312v10.539h-3.513V411.312" transform="translate(-206.622 -358.145)" fill="none" stroke="#000" stroke-linecap="round" stroke-linejoin="round" stroke-miterlimit="10" stroke-width="1.5"/>
      <path id="Trazado_1041450" data-name="Trazado 1041450" d="M302.594,449.4H320.9a4.524,4.524,0,0,0,4.524-4.524v-2.5H306.552a3.958,3.958,0,0,0-3.958,3.958Z" transform="translate(-261.722 -385.695)" fill="none" stroke="#000" stroke-linecap="round" stroke-linejoin="round" stroke-miterlimit="10" stroke-width="1.5"/>
      <path id="Trazado_1041451" data-name="Trazado 1041451" d="M30.334,449.4H12.024A4.524,4.524,0,0,1,7.5,444.877v-2.5H26.375a3.958,3.958,0,0,1,3.958,3.958Z" transform="translate(0 -385.695)" fill="none" stroke="#000" stroke-linecap="round" stroke-linejoin="round" stroke-miterlimit="10" stroke-width="1.5"/>
      <path id="Trazado_1041452" data-name="Trazado 1041452" d="M195.909,142.812v5.269a2.262,2.262,0,0,1-2.262,2.262H192.4V152.1l-3.513-1.756h-8.277a2.262,2.262,0,0,1-2.262-2.262v-5.269" transform="translate(-151.524 -120.01)" fill="none" stroke="#000" stroke-linecap="round" stroke-linejoin="round" stroke-miterlimit="10" stroke-width="1.5"/>
      <path id="Trazado_1041453" data-name="Trazado 1041453" d="M178.344,48.386v1.967a2.262,2.262,0,0,0,2.262,2.262h1.251v1.756l3.513-1.756h8.277a2.262,2.262,0,0,0,2.262-2.262V40.825a2.262,2.262,0,0,0-2.262-2.262H180.606a2.262,2.262,0,0,0-2.262,2.262V43.3" transform="translate(-151.523 -27.55)" fill="none" stroke="#000" stroke-linecap="round" stroke-linejoin="round" stroke-miterlimit="10" stroke-width="1.5"/>
      <line id="Línea_869" data-name="Línea 869" x2="7.026" transform="translate(33.847 14.526)" fill="none" stroke="#000" stroke-linecap="round" stroke-linejoin="round" stroke-miterlimit="10" stroke-width="1.5"/>
      <line id="Línea_870" data-name="Línea 870" x2="10.539" transform="translate(30.334 18.039)" fill="none" stroke="#000" stroke-linecap="round" stroke-linejoin="round" stroke-miterlimit="10" stroke-width="1.5"/>
      <line id="Línea_871" data-name="Línea 871" x2="7.026" transform="translate(30.334 21.551)" fill="none" stroke="#000" stroke-linecap="round" stroke-linejoin="round" stroke-miterlimit="10" stroke-width="1.5"/>
      <path id="Trazado_1041454" data-name="Trazado 1041454" d="M8.133,21.129A11.294,11.294,0,0,1,7.5,17.4V14.526a7.027,7.027,0,0,1,13.83-1.756" fill="none" stroke="#000" stroke-linecap="round" stroke-linejoin="round" stroke-miterlimit="10" stroke-width="1.5"/>
      <path id="Trazado_1041455" data-name="Trazado 1041455" d="M393.668,21.129A11.294,11.294,0,0,0,394.3,17.4V14.526A7.026,7.026,0,0,0,387.276,7.5h0a7.026,7.026,0,0,0-7.026,7.026v.7" transform="translate(-330.596)" fill="none" stroke="#000" stroke-linecap="round" stroke-linejoin="round" stroke-miterlimit="10" stroke-width="1.5"/>
      <line id="Línea_872" data-name="Línea 872" y2="3.513" transform="translate(23.308 53.167)" fill="none" stroke="#000" stroke-linecap="round" stroke-linejoin="round" stroke-miterlimit="10" stroke-width="1.5"/>
      <line id="Línea_873" data-name="Línea 873" y1="10.539" transform="translate(7.5 46.142)" fill="none" stroke="#000" stroke-linecap="round" stroke-linejoin="round" stroke-miterlimit="10" stroke-width="1.5"/>
      <line id="Línea_874" data-name="Línea 874" y2="3.513" transform="translate(47.898 53.167)" fill="none" stroke="#000" stroke-linecap="round" stroke-linejoin="round" stroke-miterlimit="10" stroke-width="1.5"/>
      <path id="Trazado_1041456" data-name="Trazado 1041456" d="M178.344,325.151h7.471v-3.068a3.958,3.958,0,0,0-3.958-3.958h-3.513" transform="translate(-151.523 -275.496)" fill="none" stroke="#000" stroke-linecap="round" stroke-linejoin="round" stroke-miterlimit="10" stroke-width="1.5"/>
      <path id="Trazado_1041457" data-name="Trazado 1041457" d="M81.92,290.576h-12.3v-3.513" transform="translate(-55.099 -247.947)" fill="none" stroke="#000" stroke-linecap="round" stroke-linejoin="round" stroke-miterlimit="10" stroke-width="1.5"/>
      <path id="Trazado_1041458" data-name="Trazado 1041458" d="M17.734,57.223v-2a1.131,1.131,0,0,1,1.131-1.131H26.3a7.036,7.036,0,0,1,.221,1.756v3.513l.971,1.942a1.086,1.086,0,0,1-.971,1.571v2.635A4.394,4.394,0,0,1,20.5,69.591h0l-.913-.364A11.309,11.309,0,0,1,13.1,62.454l2.855-1.9A4,4,0,0,0,17.734,57.223Z" transform="translate(-4.965 -41.325)" fill="none" stroke="#000" stroke-linecap="round" stroke-linejoin="round" stroke-miterlimit="10" stroke-width="1.5"/>
      <path id="Trazado_1041459" data-name="Trazado 1041459" d="M23.308,235.476v-3.753a6.785,6.785,0,0,0-6.785-6.785H11.458A3.958,3.958,0,0,0,7.5,228.9v10.213a3.393,3.393,0,0,0,3.393,3.393H26.821v-7.026H23.308Z" transform="translate(0 -192.847)" fill="none" stroke="#000" stroke-linecap="round" stroke-linejoin="round" stroke-miterlimit="10" stroke-width="1.5"/>
      <path id="Trazado_1041460" data-name="Trazado 1041460" d="M275.065,325.151h-7.471v-3.068a3.958,3.958,0,0,1,3.958-3.958h3.513" transform="translate(-230.68 -275.496)" fill="none" stroke="#000" stroke-linecap="round" stroke-linejoin="round" stroke-miterlimit="10" stroke-width="1.5"/>
      <path id="Trazado_1041461" data-name="Trazado 1041461" d="M419.078,290.576h2.635v-3.513" transform="translate(-365.033 -247.947)" fill="none" stroke="#000" stroke-linecap="round" stroke-linejoin="round" stroke-miterlimit="10" stroke-width="1.5"/>
      <line id="Línea_875" data-name="Línea 875" x2="5.702" transform="translate(44.385 42.629)" fill="none" stroke="#000" stroke-linecap="round" stroke-linejoin="round" stroke-miterlimit="10" stroke-width="1.5"/>
      <path id="Trazado_1041462" data-name="Trazado 1041462" d="M337.169,235.476v-3.753a6.785,6.785,0,0,1,6.785-6.785h5.064a3.958,3.958,0,0,1,3.958,3.958v10.213a3.393,3.393,0,0,1-3.393,3.393H333.656v-7.026h3.513Z" transform="translate(-289.271 -192.847)" fill="none" stroke="#000" stroke-linecap="round" stroke-linejoin="round" stroke-miterlimit="10" stroke-width="1.5"/>
      <path id="Trazado_1041463" data-name="Trazado 1041463" d="M80.219,383.763H69.625V380.25h42.154v3.513h-27.6" transform="translate(-55.099 -330.596)" fill="none" stroke="#000" stroke-linecap="round" stroke-linejoin="round" stroke-miterlimit="10" stroke-width="1.5"/>
      <path id="Trazado_1041464" data-name="Trazado 1041464" d="M380.508,50.793V49.8a1.7,1.7,0,0,0-.179-.759l-.485-.97a2.262,2.262,0,0,0-3.187-.928L371.726,50.1v2.81l-.971,1.942a1.086,1.086,0,0,0,.971,1.571v2.635a4.394,4.394,0,0,0,6.016,4.081h0l.913-.364a11.3,11.3,0,0,0,5.866-5.326h0l0-.007h0a11.3,11.3,0,0,0,.619-1.44l-2.874-1.916A3.958,3.958,0,0,1,380.508,50.793Z" transform="translate(-322.072 -34.873)" fill="none" stroke="#000" stroke-linecap="round" stroke-linejoin="round" stroke-miterlimit="10" stroke-width="1.5"/>
      <line id="Línea_876" data-name="Línea 876" y1="10.539" transform="translate(63.706 46.142)" fill="none" stroke="#000" stroke-linecap="round" stroke-linejoin="round" stroke-miterlimit="10" stroke-width="1.5"/>
    </g>
  </g>
</svg>
