<svg xmlns="http://www.w3.org/2000/svg" xmlns:xlink="http://www.w3.org/1999/xlink" width="113" height="113" viewBox="0 0 113 113">
  <defs>
    <filter id="Trazado_982547" x="0" y="0" width="113" height="113" filterUnits="userSpaceOnUse">
      <feOffset dy="3" input="SourceAlpha"/>
      <feGaussianBlur stdDeviation="3" result="blur"/>
      <feFlood flood-opacity="0.161"/>
      <feComposite operator="in" in2="blur"/>
      <feComposite in="SourceGraphic"/>
    </filter>
    <clipPath id="clip-path">
      <path id="path5604" d="M0-682.665H60.535v60.535H0Z" transform="translate(0 682.665)"/>
    </clipPath>
  </defs>
  <g id="Grupo_1202532" data-name="Grupo 1202532" transform="translate(-901.5 -1388.094)">
    <g id="Grupo_1202366" data-name="Grupo 1202366" transform="translate(630.5 517.68)">
      <g id="Grupo_1174813" data-name="Grupo 1174813" transform="translate(280 876.414)">
        <g id="Grupo_1201680" data-name="Grupo 1201680">
          <g id="Grupo_1201330" data-name="Grupo 1201330">
            <g id="Grupo_1172010" data-name="Grupo 1172010">
              <g id="Grupo_1171046" data-name="Grupo 1171046">
                <g id="Grupo_1148525" data-name="Grupo 1148525">
                  <g transform="matrix(1, 0, 0, 1, -9, -6)" filter="url(#Trazado_982547)">
                    <g id="Trazado_982547-2" data-name="Trazado 982547" transform="translate(9 6)" fill="#e9f9fd">
                      <path d="M 47.5 93.5 C 41.28937149047852 93.5 35.26533508300781 92.28397369384766 29.59518623352051 89.88570404052734 C 24.11771965026855 87.56893157958984 19.19813346862793 84.25196075439453 14.97309303283691 80.02691650390625 C 10.74804019927979 75.80186462402344 7.431066513061523 70.88229370117188 5.114293098449707 65.40481567382812 C 2.716026782989502 59.73468017578125 1.5 53.71062850952148 1.5 47.5 C 1.5 41.28937149047852 2.716026782989502 35.26533508300781 5.114293098449707 29.59518623352051 C 7.431066513061523 24.11771965026855 10.74804019927979 19.19813346862793 14.97309303283691 14.97309303283691 C 19.19813346862793 10.74804019927979 24.11771965026855 7.431066513061523 29.59518623352051 5.114293098449707 C 35.26533508300781 2.716026782989502 41.28937149047852 1.5 47.5 1.5 C 53.71062850952148 1.5 59.73468017578125 2.716026782989502 65.40481567382812 5.114293098449707 C 70.88229370117188 7.431066513061523 75.80186462402344 10.74804019927979 80.02691650390625 14.97309303283691 C 84.25196075439453 19.19813346862793 87.56893157958984 24.11771965026855 89.88570404052734 29.59518623352051 C 92.28397369384766 35.26533508300781 93.5 41.28937149047852 93.5 47.5 C 93.5 53.71062850952148 92.28397369384766 59.73468017578125 89.88570404052734 65.40481567382812 C 87.56893157958984 70.88229370117188 84.25196075439453 75.80186462402344 80.02691650390625 80.02691650390625 C 75.80186462402344 84.25196075439453 70.88229370117188 87.56893157958984 65.40481567382812 89.88570404052734 C 59.73468017578125 92.28397369384766 53.71062850952148 93.5 47.5 93.5 Z" stroke="none"/>
                      <path d="M 47.5 3 C 41.49121475219727 3 35.66376876831055 4.176155090332031 30.17950439453125 6.495796203613281 C 24.88084411621094 8.736953735351562 20.12152099609375 11.94598388671875 16.03375244140625 16.03375244140625 C 11.94598388671875 20.12152099609375 8.736953735351562 24.88084411621094 6.495796203613281 30.17950439453125 C 4.176155090332031 35.66376876831055 3 41.49121475219727 3 47.5 C 3 53.50878524780273 4.176155090332031 59.33623123168945 6.495796203613281 64.82049560546875 C 8.736953735351562 70.11915588378906 11.94598388671875 74.87847900390625 16.03375244140625 78.96624755859375 C 20.12152099609375 83.05401611328125 24.88084411621094 86.26304626464844 30.17950439453125 88.50419616699219 C 35.66376876831055 90.82384490966797 41.49121475219727 92 47.5 92 C 53.50878524780273 92 59.33623123168945 90.82384490966797 64.82049560546875 88.50419616699219 C 70.11915588378906 86.26304626464844 74.87847900390625 83.05401611328125 78.96624755859375 78.96624755859375 C 83.05401611328125 74.87847900390625 86.26304626464844 70.11915588378906 88.50419616699219 64.82049560546875 C 90.82384490966797 59.33623123168945 92 53.50878524780273 92 47.5 C 92 41.49121475219727 90.82384490966797 35.66376876831055 88.50419616699219 30.17950439453125 C 86.26304626464844 24.88084411621094 83.05401611328125 20.12152099609375 78.96624755859375 16.03375244140625 C 74.87847900390625 11.94598388671875 70.11915588378906 8.736953735351562 64.82049560546875 6.495796203613281 C 59.33623123168945 4.176155090332031 53.50878524780273 3 47.5 3 M 47.5 0 C 73.7335205078125 0 95 21.2664794921875 95 47.5 C 95 73.7335205078125 73.7335205078125 95 47.5 95 C 21.2664794921875 95 0 73.7335205078125 0 47.5 C 0 21.2664794921875 21.2664794921875 0 47.5 0 Z" stroke="none" fill="#1d7083"/>
                    </g>
                  </g>
                </g>
              </g>
            </g>
          </g>
        </g>
      </g>
    </g>
    <g id="g5598" transform="translate(927.733 2092.992)">
      <g id="g5600" transform="translate(0 -682.665)">
        <g id="g5602" clip-path="url(#clip-path)">
          <g id="g5608" transform="translate(20.474 46.019)">
            <path id="path5610" d="M-201.3-140.068v-11.544l-2.085-2.085H-218.8l-2.085,2.085v11.544Z" transform="translate(220.885 153.697)" fill="#787680"/>
          </g>
          <g id="g5612" transform="translate(27.386 46.019)">
            <path id="path5614" d="M-60.807-107.828h-1.342l-4.575-10.492h10.492Z" transform="translate(66.724 118.32)" fill="#57565c"/>
          </g>
          <g id="g5616" transform="translate(12.526 0.887)">
            <path id="path5618" d="M-368.71,0h-35.877V23.115h3.218v5.73l5.73-5.73h5.285l3.7,5.73,3.705-5.73h5.285l5.73,5.73v-5.73h3.218Z" transform="translate(404.587)" fill="#b6e892"/>
          </g>
          <g id="g5620" transform="translate(22.631 6.266)">
            <path id="path5622" d="M0-63.489s5.095,6.178,11.38,6.178,11.38-6.178,11.38-6.178-5.1-6.178-11.38-6.178S0-63.489,0-63.489" transform="translate(0 69.666)" fill="#7ccc92"/>
          </g>
          <g id="g5624" transform="translate(19.085 6.266)">
            <path id="path5626" d="M0-63.489s5.095,6.178,11.38,6.178,11.38-6.178,11.38-6.178-5.1-6.178-11.38-6.178S0-63.489,0-63.489" transform="translate(0 69.666)" fill="#fff"/>
          </g>
          <g id="g5628" transform="translate(25.204 33.534)">
            <path id="path5630" d="M-104.086-52.043V-47.8l-3.18,3.18h-3.768l-3.18-3.18v-4.241a5.064,5.064,0,0,1,5.064-5.064,5.064,5.064,0,0,1,5.064,5.064" transform="translate(114.214 57.107)" fill="#ffdaaa"/>
          </g>
          <g id="g5632" transform="translate(25.021 46.019)">
            <path id="path5634" d="M-60.807-107.828h-1.342l-4.575-10.492h10.492Z" transform="translate(66.724 118.32)" fill="#fff"/>
          </g>
          <g id="g5636" transform="translate(25.021 46.019)">
            <path id="path5638" d="M-24.3,0h-2.365l4.575,10.492h1.342l.512-1.173Z" transform="translate(26.667)" fill="#d8d7da"/>
          </g>
          <g id="g5640" transform="translate(28.351 46.019)">
            <path id="path5642" d="M-12.8-107.828h1.342l1.246-2.857-.733-7.635h-2.368l-.733,7.635Z" transform="translate(14.051 118.32)" fill="#ff7956"/>
          </g>
          <g id="g5644" transform="translate(44.791 33.534)">
            <path id="path5646" d="M-104.086-52.043V-47.8l-3.18,3.18h-3.768l-3.18-3.18v-4.241a5.064,5.064,0,0,1,5.064-5.064,5.064,5.064,0,0,1,5.064,5.064" transform="translate(114.214 57.107)" fill="#ffdaaa"/>
          </g>
          <g id="g5648" transform="translate(40.062 46.019)">
            <path id="path5650" d="M-201.3-140.068v-11.544l-2.085-2.085H-218.8l-2.085,2.085v11.544Z" transform="translate(220.885 153.697)" fill="#ffe477"/>
          </g>
          <g id="g5652" transform="translate(47.938 46.019)">
            <path id="path5654" d="M-12.8-95.661h1.342l1.246-1.673-.732-7.635h-2.368l-.732,7.635Z" transform="translate(14.049 104.969)" fill="#b6e892"/>
          </g>
          <g id="g5656" transform="translate(5.616 33.534)">
            <path id="path5658" d="M-104.086-52.043V-47.8l-3.18,3.18h-3.768l-3.18-3.18v-4.241a5.064,5.064,0,0,1,5.064-5.064,5.064,5.064,0,0,1,5.064,5.064" transform="translate(114.214 57.107)" fill="#ffdaaa"/>
          </g>
          <g id="g5660" transform="translate(0.887 46.019)">
            <path id="path5662" d="M-201.3-140.068v-11.544l-2.085-2.085H-218.8l-2.085,2.085v11.544Z" transform="translate(220.885 153.697)" fill="#7c84e8"/>
          </g>
          <g id="g5664" transform="translate(50.303 46.019)">
            <path id="path5666" d="M-12.8-95.661h1.342l1.246-1.673-.732-7.635h-2.368l-.732,7.635Z" transform="translate(14.049 104.969)" fill="#ffb655"/>
          </g>
          <g id="g5668" transform="translate(11.128 46.019)">
            <path id="path5670" d="M-12.8-95.661h1.342l1.246-1.673-.733-7.635h-2.368l-.733,7.635Z" transform="translate(14.049 104.969)" fill="#515be0"/>
          </g>
          <g id="g5672" transform="translate(8.763 46.019)">
            <path id="path5674" d="M-12.8-95.661h1.342l1.246-1.673-.733-7.635h-2.368l-.733,7.635Z" transform="translate(14.049 104.969)" fill="#ffb655"/>
          </g>
          <g id="g5676" transform="translate(24.293 6.273)">
            <path id="path5678" d="M-126.837-63.418a6.171,6.171,0,0,1-6.171,6.171,6.171,6.171,0,0,1-6.171-6.171,6.171,6.171,0,0,1,6.171-6.171,6.171,6.171,0,0,1,6.171,6.171" transform="translate(139.178 69.589)" fill="#7c84e8"/>
          </g>
          <g id="g5680" transform="translate(28.866 10.846)">
            <path id="path5682" d="M-32.85-16.426a1.6,1.6,0,0,1-1.6,1.6,1.6,1.6,0,0,1-1.6-1.6,1.6,1.6,0,0,1,1.6-1.6,1.6,1.6,0,0,1,1.6,1.6" transform="translate(36.047 18.024)" fill="#787680"/>
          </g>
          <g id="g5684" transform="translate(30.93 7.443)">
            <path id="path5686" d="M-46.618-23.309a2.268,2.268,0,0,1-2.268,2.268,2.268,2.268,0,0,1-2.268-2.268,2.268,2.268,0,0,1,2.268-2.268,2.268,2.268,0,0,1,2.268,2.268" transform="translate(51.155 25.577)" fill="#fff"/>
          </g>
          <g id="g5688" transform="translate(20.474 46.019)">
            <path id="path5690" d="M-57.88,0h-3.547l-2.085,2.085V13.629h3.547V2.085L-57.88,0" transform="translate(63.512)" fill="#57565c"/>
          </g>
          <g id="g5692" transform="translate(12.526 0.887)">
            <path id="path5694" d="M-69.528-259.983v-2.183h-3.218v-23.115h-3.547v23.115h3.218v5.73Z" transform="translate(76.293 285.281)" fill="#7ccc92"/>
          </g>
          <g id="g5696" transform="translate(19.085 6.266)">
            <path id="path5698" d="M-36.453-63.489s4.164-5.049,9.606-6.018a10.1,10.1,0,0,0-1.773-.16c-6.285,0-11.38,6.178-11.38,6.178s5.095,6.178,11.38,6.178a10.1,10.1,0,0,0,1.773-.16c-5.443-.969-9.606-6.018-9.606-6.018" transform="translate(40 69.666)" fill="#d8d7da"/>
          </g>
          <g id="g5700" transform="translate(25.204 33.534)">
            <path id="path5702" d="M-36.453-95.631v-4.241a5.066,5.066,0,0,1,3.29-4.745,5.052,5.052,0,0,0-1.773-.319A5.064,5.064,0,0,0-40-99.872v4.241l3.18,3.18h3.547l-3.18-3.18" transform="translate(40 104.936)" fill="#ff9478"/>
          </g>
          <g id="g5704" transform="translate(44.791 33.534)">
            <path id="path5706" d="M-36.453-95.631v-4.241a5.066,5.066,0,0,1,3.29-4.745,5.052,5.052,0,0,0-1.773-.319A5.064,5.064,0,0,0-40-99.872v4.241l3.18,3.18h3.547l-3.18-3.18" transform="translate(40 104.936)" fill="#ff9478"/>
          </g>
          <g id="g5708" transform="translate(40.062 46.019)">
            <path id="path5710" d="M-57.88,0h-3.547l-2.085,2.085V13.629h3.547V2.085L-57.88,0" transform="translate(63.512)" fill="#ffb655"/>
          </g>
          <g id="g5712" transform="translate(5.616 33.534)">
            <path id="path5714" d="M-36.453-95.631v-4.241a5.066,5.066,0,0,1,3.291-4.745,5.053,5.053,0,0,0-1.773-.319A5.064,5.064,0,0,0-40-99.872v4.241l3.18,3.18h3.547l-3.18-3.18" transform="translate(40 104.936)" fill="#ff9478"/>
          </g>
          <g id="g5716" transform="translate(0.887 46.019)">
            <path id="path5718" d="M-57.881,0h-3.547l-2.085,2.085V13.629h3.547V2.085Z" transform="translate(63.513)" fill="#515be0"/>
          </g>
          <g id="g5720" transform="translate(24.293 6.273)">
            <path id="path5722" d="M-36.453-63.418a6.173,6.173,0,0,1,4.4-5.912,6.167,6.167,0,0,0-1.773-.259A6.171,6.171,0,0,0-40-63.418a6.171,6.171,0,0,0,6.171,6.171,6.168,6.168,0,0,0,1.773-.259,6.173,6.173,0,0,1-4.4-5.912" transform="translate(40 69.589)" fill="#515be0"/>
          </g>
          <g id="g5724" transform="translate(25.204 33.534)">
            <path id="path5726" d="M-104.086-52.043V-47.8l-3.18,3.18h-3.768l-3.18-3.18v-4.241a5.064,5.064,0,0,1,5.064-5.064A5.064,5.064,0,0,1-104.086-52.043Z" transform="translate(114.214 57.107)" fill="none" stroke="#000" stroke-miterlimit="10" stroke-width="1.5"/>
          </g>
          <g id="g5728" transform="translate(20.474 46.019)">
            <path id="path5730" d="M-44.369-57.309v8.053h10.952v0H-29.1V-60.8l-2.085-2.085H-46.6L-48.687-60.8v11.544h4.317Z" transform="translate(48.687 62.885)" fill="none" stroke="#000" stroke-miterlimit="10" stroke-width="1.5"/>
          </g>
          <g id="g5732" transform="translate(24.792 51.596)">
            <path id="path5734" d="M0-82.759H0v0Z" transform="translate(0 90.812)" fill="none" stroke="#000" stroke-miterlimit="10" stroke-width="1.5"/>
          </g>
          <g id="g5736" transform="translate(25.021 46.019)">
            <path id="path5738" d="M-60.807-107.828h-1.342l-4.575-10.492h10.492Z" transform="translate(66.724 118.32)" fill="none" stroke="#000" stroke-miterlimit="10" stroke-width="1.5"/>
          </g>
          <g id="g5740" transform="translate(28.351 46.019)">
            <path id="path5742" d="M-12.8-107.828h1.342l1.246-2.857-.733-7.635h-2.368l-.733,7.635Z" transform="translate(14.051 118.32)" fill="none" stroke="#000" stroke-miterlimit="10" stroke-width="1.5"/>
          </g>
          <g id="g5744" transform="translate(30.268 36.494)">
            <path id="path5746" d="M0,0A2.106,2.106,0,0,1,2.1,2.1V5.119L.658,6.565" fill="none" stroke="#fff" stroke-miterlimit="10" stroke-width="1.5" stroke-dasharray="15 10 15 10 350"/>
          </g>
          <g id="g5748" transform="translate(44.791 33.534)">
            <path id="path5750" d="M-104.086-52.043V-47.8l-3.18,3.18h-3.768l-3.18-3.18v-4.241a5.064,5.064,0,0,1,5.064-5.064A5.064,5.064,0,0,1-104.086-52.043Z" transform="translate(114.214 57.107)" fill="none" stroke="#000" stroke-miterlimit="10" stroke-width="1.5"/>
          </g>
          <g id="g5752" transform="translate(40.062 46.019)">
            <path id="path5754" d="M-44.368-57.309v8.053h10.952v0H-29.1V-60.8l-2.085-2.085H-46.6L-48.685-60.8v11.544h4.317Z" transform="translate(48.685 62.885)" fill="none" stroke="#000" stroke-miterlimit="10" stroke-width="1.5"/>
          </g>
          <g id="g5756" transform="translate(44.379 51.596)">
            <path id="path5758" d="M0-82.759H0v0Z" transform="translate(0 90.812)" fill="none" stroke="#000" stroke-miterlimit="10" stroke-width="1.5"/>
          </g>
          <g id="g5760" transform="translate(47.938 46.019)">
            <path id="path5762" d="M-12.8-95.661h1.342l1.246-1.673-.732-7.635h-2.368l-.732,7.635Z" transform="translate(14.049 104.969)" fill="none" stroke="#000" stroke-miterlimit="10" stroke-width="1.5"/>
          </g>
          <g id="g5764" transform="translate(49.855 36.494)">
            <path id="path5766" d="M0,0A2.106,2.106,0,0,1,2.1,2.1V5.119L.658,6.565" fill="none" stroke="#fff" stroke-miterlimit="10" stroke-width="1.5" stroke-dasharray="15 10 15 10 350"/>
          </g>
          <g id="g5768" transform="translate(5.616 33.534)">
            <path id="path5770" d="M-104.086-52.043V-47.8l-3.18,3.18h-3.768l-3.18-3.18v-4.241a5.064,5.064,0,0,1,5.064-5.064A5.064,5.064,0,0,1-104.086-52.043Z" transform="translate(114.214 57.107)" fill="none" stroke="#000" stroke-miterlimit="10" stroke-width="1.5"/>
          </g>
          <g id="g5772" transform="translate(0.887 46.019)">
            <path id="path5774" d="M-44.369-57.309v8.053h10.952v0H-29.1V-60.8l-2.085-2.085H-46.6L-48.687-60.8v11.544h4.317Z" transform="translate(48.687 62.885)" fill="none" stroke="#000" stroke-miterlimit="10" stroke-width="1.5"/>
          </g>
          <g id="g5776" transform="translate(5.204 51.596)">
            <path id="path5778" d="M0-82.759H0v0Z" transform="translate(0 90.812)" fill="none" stroke="#000" stroke-miterlimit="10" stroke-width="1.5"/>
          </g>
          <g id="g5780" transform="translate(8.763 46.019)">
            <path id="path5782" d="M-12.8-95.661h1.342l1.246-1.673-.733-7.635h-2.368l-.733,7.635Z" transform="translate(14.049 104.969)" fill="none" stroke="#000" stroke-miterlimit="10" stroke-width="1.5"/>
          </g>
          <g id="g5784" transform="translate(10.68 36.494)">
            <path id="path5786" d="M0,0A2.106,2.106,0,0,1,2.1,2.1V5.119L.658,6.565" fill="none" stroke="#fff" stroke-miterlimit="10" stroke-width="1.5" stroke-dasharray="15 10 15 10 350"/>
          </g>
          <g id="g5788" transform="translate(24.293 6.273)">
            <path id="path5790" d="M-126.837-63.418a6.171,6.171,0,0,1-6.171,6.171,6.171,6.171,0,0,1-6.171-6.171,6.171,6.171,0,0,1,6.171-6.171A6.171,6.171,0,0,1-126.837-63.418Z" transform="translate(139.178 69.589)" fill="none" stroke="#000" stroke-miterlimit="10" stroke-width="1.5"/>
          </g>
          <g id="g5792" transform="translate(28.866 10.846)">
            <path id="path5794" d="M-32.85-16.426a1.6,1.6,0,0,1-1.6,1.6,1.6,1.6,0,0,1-1.6-1.6,1.6,1.6,0,0,1,1.6-1.6A1.6,1.6,0,0,1-32.85-16.426Z" transform="translate(36.047 18.024)" fill="none" stroke="#000" stroke-miterlimit="10" stroke-width="1.5"/>
          </g>
          <g id="g5796" transform="translate(30.93 7.443)">
            <path id="path5798" d="M-46.618-23.309a2.268,2.268,0,0,1-2.268,2.268,2.268,2.268,0,0,1-2.268-2.268,2.268,2.268,0,0,1,2.268-2.268A2.268,2.268,0,0,1-46.618-23.309Z" transform="translate(51.155 25.577)" fill="none" stroke="#000" stroke-miterlimit="10" stroke-width="1.5"/>
          </g>
          <g id="g5800" transform="translate(19.085 6.266)">
            <path id="path5802" d="M0-63.489s5.095,6.178,11.38,6.178,11.38-6.178,11.38-6.178-5.1-6.178-11.38-6.178S0-63.489,0-63.489Z" transform="translate(0 69.666)" fill="none" stroke="#000" stroke-miterlimit="10" stroke-width="1.5"/>
          </g>
          <g id="g5804" transform="translate(12.526 0.887)">
            <path id="path5806" d="M-368.71,0h-35.877V23.115h3.218v5.73l5.73-5.73h5.285l3.7,5.73,3.705-5.73h5.285l5.73,5.73v-5.73h3.218Z" transform="translate(404.587)" fill="none" stroke="#000" stroke-miterlimit="10" stroke-width="1.5"/>
          </g>
          <g id="g5808" transform="translate(45.447 4.296)">
            <path id="path5810" d="M0,0V13.932" fill="none" stroke="#fff" stroke-miterlimit="10" stroke-width="1.5" stroke-dasharray="15 10 15 10 350"/>
          </g>
        </g>
      </g>
    </g>
  </g>
</svg>
