<svg xmlns="http://www.w3.org/2000/svg" xmlns:xlink="http://www.w3.org/1999/xlink" width="113" height="113" viewBox="0 0 113 113">
  <defs>
    <filter id="Trazado_982547" x="0" y="0" width="113" height="113" filterUnits="userSpaceOnUse">
      <feOffset dy="3" input="SourceAlpha"/>
      <feGaussianBlur stdDeviation="3" result="blur"/>
      <feFlood flood-opacity="0.161"/>
      <feComposite operator="in" in2="blur"/>
      <feComposite in="SourceGraphic"/>
    </filter>
  </defs>
  <g id="Grupo_1202539" data-name="Grupo 1202539" transform="translate(-1216.5 -1388.094)">
    <g id="Grupo_1202367" data-name="Grupo 1202367" transform="translate(945.5 517.68)">
      <g id="Grupo_1174813" data-name="Grupo 1174813" transform="translate(280 876.414)">
        <g id="Grupo_1201680" data-name="Grupo 1201680">
          <g id="Grupo_1201330" data-name="Grupo 1201330">
            <g id="Grupo_1172010" data-name="Grupo 1172010">
              <g id="Grupo_1171046" data-name="Grupo 1171046">
                <g id="Grupo_1148525" data-name="Grupo 1148525">
                  <g transform="matrix(1, 0, 0, 1, -9, -6)" filter="url(#Trazado_982547)">
                    <g id="Trazado_982547-2" data-name="Trazado 982547" transform="translate(9 6)" fill="#e9f9fd">
                      <path d="M 47.5 93.5 C 41.28937149047852 93.5 35.26533508300781 92.28397369384766 29.59518623352051 89.88570404052734 C 24.11771965026855 87.56893157958984 19.19813346862793 84.25196075439453 14.97309303283691 80.02691650390625 C 10.74804019927979 75.80186462402344 7.431066513061523 70.88229370117188 5.114293098449707 65.40481567382812 C 2.716026782989502 59.73468017578125 1.5 53.71062850952148 1.5 47.5 C 1.5 41.28937149047852 2.716026782989502 35.26533508300781 5.114293098449707 29.59518623352051 C 7.431066513061523 24.11771965026855 10.74804019927979 19.19813346862793 14.97309303283691 14.97309303283691 C 19.19813346862793 10.74804019927979 24.11771965026855 7.431066513061523 29.59518623352051 5.114293098449707 C 35.26533508300781 2.716026782989502 41.28937149047852 1.5 47.5 1.5 C 53.71062850952148 1.5 59.73468017578125 2.716026782989502 65.40481567382812 5.114293098449707 C 70.88229370117188 7.431066513061523 75.80186462402344 10.74804019927979 80.02691650390625 14.97309303283691 C 84.25196075439453 19.19813346862793 87.56893157958984 24.11771965026855 89.88570404052734 29.59518623352051 C 92.28397369384766 35.26533508300781 93.5 41.28937149047852 93.5 47.5 C 93.5 53.71062850952148 92.28397369384766 59.73468017578125 89.88570404052734 65.40481567382812 C 87.56893157958984 70.88229370117188 84.25196075439453 75.80186462402344 80.02691650390625 80.02691650390625 C 75.80186462402344 84.25196075439453 70.88229370117188 87.56893157958984 65.40481567382812 89.88570404052734 C 59.73468017578125 92.28397369384766 53.71062850952148 93.5 47.5 93.5 Z" stroke="none"/>
                      <path d="M 47.5 3 C 41.49121475219727 3 35.66376876831055 4.176155090332031 30.17950439453125 6.495796203613281 C 24.88084411621094 8.736953735351562 20.12152099609375 11.94598388671875 16.03375244140625 16.03375244140625 C 11.94598388671875 20.12152099609375 8.736953735351562 24.88084411621094 6.495796203613281 30.17950439453125 C 4.176155090332031 35.66376876831055 3 41.49121475219727 3 47.5 C 3 53.50878524780273 4.176155090332031 59.33623123168945 6.495796203613281 64.82049560546875 C 8.736953735351562 70.11915588378906 11.94598388671875 74.87847900390625 16.03375244140625 78.96624755859375 C 20.12152099609375 83.05401611328125 24.88084411621094 86.26304626464844 30.17950439453125 88.50419616699219 C 35.66376876831055 90.82384490966797 41.49121475219727 92 47.5 92 C 53.50878524780273 92 59.33623123168945 90.82384490966797 64.82049560546875 88.50419616699219 C 70.11915588378906 86.26304626464844 74.87847900390625 83.05401611328125 78.96624755859375 78.96624755859375 C 83.05401611328125 74.87847900390625 86.26304626464844 70.11915588378906 88.50419616699219 64.82049560546875 C 90.82384490966797 59.33623123168945 92 53.50878524780273 92 47.5 C 92 41.49121475219727 90.82384490966797 35.66376876831055 88.50419616699219 30.17950439453125 C 86.26304626464844 24.88084411621094 83.05401611328125 20.12152099609375 78.96624755859375 16.03375244140625 C 74.87847900390625 11.94598388671875 70.11915588378906 8.736953735351562 64.82049560546875 6.495796203613281 C 59.33623123168945 4.176155090332031 53.50878524780273 3 47.5 3 M 47.5 0 C 73.7335205078125 0 95 21.2664794921875 95 47.5 C 95 73.7335205078125 73.7335205078125 95 47.5 95 C 21.2664794921875 95 0 73.7335205078125 0 47.5 C 0 21.2664794921875 21.2664794921875 0 47.5 0 Z" stroke="none" fill="#1d7083"/>
                    </g>
                  </g>
                </g>
              </g>
            </g>
          </g>
        </g>
      </g>
    </g>
    <g id="search-folder_18158085" transform="translate(1240.99 1380.157)">
      <g id="Grupo_1202538" data-name="Grupo 1202538" transform="translate(1.984 36.544)">
        <g id="Grupo_1202533" data-name="Grupo 1202533" transform="translate(2.238 8.968)">
          <path id="Trazado_1041465" data-name="Trazado 1041465" d="M68.693,117.343H57.542a1.251,1.251,0,0,0-1.118.657L53.5,123.262a1.251,1.251,0,0,1-1.118.657H28.263a.855.855,0,0,0-.853.853v11.7a.855.855,0,0,0,.853.853h40.43a.855.855,0,0,0,.853-.853V118.2A.855.855,0,0,0,68.693,117.343Z" transform="translate(-27.41 -117.343)" fill="#fdb800" fill-rule="evenodd"/>
          <path id="Trazado_1041466" data-name="Trazado 1041466" d="M68.693,117.343H57.542a1.251,1.251,0,0,0-1.118.657l-.159.286H66.806a.855.855,0,0,1,.853.853v18.182h1.034a.855.855,0,0,0,.853-.853V118.2a.855.855,0,0,0-.853-.853Zm-16.316,6.576H28.263a.855.855,0,0,0-.853.853v.091H51.1a1.25,1.25,0,0,0,1.118-.657Z" transform="translate(-27.41 -117.343)" fill="#f4a40e" fill-rule="evenodd"/>
        </g>
        <g id="Grupo_1202534" data-name="Grupo 1202534" transform="translate(6.013 0)">
          <rect id="Rectángulo_416641" data-name="Rectángulo 416641" width="34.585" height="47.649" rx="13.986" transform="translate(0)" fill="#eff4f7"/>
          <path id="Trazado_1041467" data-name="Trazado 1041467" d="M60.165,43.571H91.35a1.7,1.7,0,0,1,1.7,1.7v.635H62.5a1.7,1.7,0,0,0-1.7,1.7V91.22h-.635a1.7,1.7,0,0,1-1.7-1.7V45.271A1.7,1.7,0,0,1,60.165,43.571Z" transform="translate(-58.465 -43.571)" fill="#dee8ee" fill-rule="evenodd"/>
        </g>
        <g id="Grupo_1202535" data-name="Grupo 1202535" transform="translate(0 22.826)">
          <path id="Trazado_1041468" data-name="Trazado 1041468" d="M10.452,231.333H22.393a1.409,1.409,0,0,1,1.19.623l1.907,2.751a1.409,1.409,0,0,0,1.19.623H54.163a1.448,1.448,0,0,1,1.41,1.776l-4.432,19.028a1.434,1.434,0,0,1-1.41,1.119h-35.1a1.438,1.438,0,0,1-1.424-1.189L9.027,233.039a1.448,1.448,0,0,1,1.424-1.706Z" transform="translate(-9.002 -231.333)" fill="#ffda2d" fill-rule="evenodd"/>
          <path id="Trazado_1041469" data-name="Trazado 1041469" d="M10.452,231.334h.5l4.143,22.844a1.438,1.438,0,0,0,1.424,1.189H51.32l-.179.768a1.434,1.434,0,0,1-1.41,1.119h-35.1a1.438,1.438,0,0,1-1.424-1.189L9.027,233.04a1.447,1.447,0,0,1,1.424-1.706Z" transform="translate(-9.002 -231.334)" fill="#ffc700" fill-rule="evenodd"/>
          <path id="Trazado_1041470" data-name="Trazado 1041470" d="M56.3,318.308l1.67,9.21h4.713l-1.67-9.21Z" transform="translate(-50.549 -307.735)" fill="#64b5f6" fill-rule="evenodd"/>
          <path id="Trazado_1041471" data-name="Trazado 1041471" d="M56.3,318.308l1.67,9.21h4.713l-.171-.944h-3.6l-1.5-8.266Z" transform="translate(-50.549 -307.735)" fill="#42a5f5" fill-rule="evenodd"/>
        </g>
        <g id="Grupo_1202537" data-name="Grupo 1202537" transform="translate(22.214 13.813)">
          <path id="Trazado_1041472" data-name="Trazado 1041472" d="M373.209,341.381l2.1-2.246-4.248-4.248-2.252,2.1Z" transform="translate(-347.284 -313.285)" fill="#b4d2d7" fill-rule="evenodd"/>
          <path id="Trazado_1041473" data-name="Trazado 1041473" d="M373.209,349.855l2.1-2.246-.023-.023-1.176,1.257-4.309-4.309-.992.923Z" transform="translate(-347.284 -321.76)" fill="#9bb9c3" fill-rule="evenodd"/>
          <circle id="Elipse_12322" data-name="Elipse 12322" cx="12.876" cy="12.876" r="12.876" transform="translate(0 3.477) rotate(-7.757)" fill="#64b5f6"/>
          <path id="Trazado_1041474" data-name="Trazado 1041474" d="M210.276,191.177a12.876,12.876,0,1,0,16.9,19.312,12.876,12.876,0,0,1-16.9-19.312Z" transform="translate(-203.429 -187.046)" fill="#42a5f5" fill-rule="evenodd"/>
          <circle id="Elipse_12323" data-name="Elipse 12323" cx="9.482" cy="9.482" r="9.482" transform="translate(5.012 5.009)" fill="#e6f8ff"/>
          <g id="Grupo_1202536" data-name="Grupo 1202536" transform="translate(7.212 5.009)">
            <path id="Trazado_1041475" data-name="Trazado 1041475" d="M258.34,198.4a9.462,9.462,0,0,0-7.283,3.41,9.482,9.482,0,0,1,13.355,13.355A9.482,9.482,0,0,0,258.34,198.4Z" transform="translate(-251.057 -198.396)" fill="#d0f1ff" fill-rule="evenodd"/>
            <path id="Trazado_1041476" data-name="Trazado 1041476" d="M394.875,356.815l-3.494,3.494a.249.249,0,0,0,0,.351l8.867,8.867a2.719,2.719,0,1,0,3.845-3.845l-8.867-8.867A.249.249,0,0,0,394.875,356.815Z" transform="translate(-374.259 -337.493)" fill="#da8c36" fill-rule="evenodd"/>
            <path id="Trazado_1041477" data-name="Trazado 1041477" d="M392.365,378l-.983.983a.249.249,0,0,0,0,.351l8.867,8.867a2.718,2.718,0,0,0,4.272-.555,2.73,2.73,0,0,1-3.29-.427l-8.867-8.867a.249.249,0,0,1,0-.351Z" transform="translate(-374.26 -356.163)" fill="#cd7d25" fill-rule="evenodd"/>
            <path id="Trazado_1041478" data-name="Trazado 1041478" d="M391.382,360.308a.249.249,0,0,0,0,.351l2.3,2.3,3.845-3.845-2.3-2.3a.249.249,0,0,0-.351,0Z" transform="translate(-374.26 -337.492)" fill="#b76f21" fill-rule="evenodd"/>
            <path id="Trazado_1041479" data-name="Trazado 1041479" d="M391.382,378.98a.249.249,0,0,0,0,.351l2.3,2.3.983-.983-2.3-2.3a.249.249,0,0,1,0-.351Z" transform="translate(-374.26 -356.163)" fill="#a3631d" fill-rule="evenodd"/>
          </g>
        </g>
      </g>
      <path id="Trazado_1041480" data-name="Trazado 1041480" d="M47.213,64.848a8.52,8.52,0,1,0-8.52,8.518A8.53,8.53,0,0,0,47.213,64.848Zm1.944,0A10.464,10.464,0,1,1,38.692,54.384,10.477,10.477,0,0,1,49.156,64.848ZM61.065,85.477a1.735,1.735,0,0,0-.5-1.235l-5.883-5.878-2.466,2.47,5.877,5.878a1.728,1.728,0,0,0,1.233.508,1.729,1.729,0,0,0,1.743-1.744Zm-11.33-7.12L52.2,75.888l1.1,1.1-2.465,2.47Zm-5.011-1.043L43.176,83.95a.464.464,0,0,1-.464.367H7.61a.471.471,0,0,1-.47-.39L2.966,60.9a.476.476,0,0,1,.47-.56H15.374a.432.432,0,0,1,.39.2L17.673,63.3a2.4,2.4,0,0,0,1.99,1.042h5.195c-.006.169-.011.338-.011.509A13.848,13.848,0,0,0,44.724,77.314ZM5.2,53.06V58.4H7.026V53.06ZM8.969,58.4V38.244a.729.729,0,0,1,.728-.728H40.883a.729.729,0,0,1,.728.728V51.309A13.852,13.852,0,0,0,25.064,62.393h-5.4a.438.438,0,0,1-.39-.2l-1.909-2.752a2.386,2.386,0,0,0-1.99-1.041h-6.4ZM43.555,46.484v5.4a13.507,13.507,0,0,1,1.829.846V46.484Zm-4.862,6.459a11.9,11.9,0,1,1-11.9,11.9A11.916,11.916,0,0,1,38.692,52.943ZM48.87,74.227c-.252.277-.522.543-.8.8l1.124,1.12.8-.8Zm14.139,11.25a3.689,3.689,0,0,1-6.3,2.611l-8.881-8.88a1.2,1.2,0,0,1-.011-1.685l-.935-.932-1.818,7.8a2.4,2.4,0,0,1-2.356,1.871H7.61a2.416,2.416,0,0,1-2.379-1.988L1.051,61.249a2.392,2.392,0,0,1,.527-1.983A2.365,2.365,0,0,1,3.253,58.4V52.941a1.824,1.824,0,0,1,1.823-1.826H7.025V38.244A2.676,2.676,0,0,1,9.7,35.571H40.883a2.676,2.676,0,0,1,2.672,2.673v6.3H45.5a1.829,1.829,0,0,1,1.829,1.825V54.03A13.824,13.824,0,0,1,50.1,72.7l1.273,1.274a1.2,1.2,0,0,1,1.686.015l8.876,8.879a3.646,3.646,0,0,1,1.078,2.61Zm-50.055-7.3-1.319-7.264H8.9l1.313,7.264Zm2.121.8L13.4,69.769a.963.963,0,0,0-.952-.8H7.736a.974.974,0,0,0-.957,1.145l1.669,9.21a.974.974,0,0,0,.957.8h4.713a.974.974,0,0,0,.957-1.145Zm3.205-30.958a.973.973,0,0,0,.975.972h9.036a.973.973,0,0,0,0-1.945H19.255a.974.974,0,0,0-.975.973Zm19.282-.973h-5.51a.973.973,0,0,0,0,1.945h5.51a.973.973,0,1,0,0-1.945ZM23.538,42.821H37.563a.973.973,0,1,0,0-1.945H23.538a.973.973,0,1,0,0,1.945ZM13.017,48.994H15.66a.973.973,0,1,0,0-1.945H13.017a.973.973,0,1,0,0,1.945Zm0-6.173h5.241a.973.973,0,0,0,0-1.945H13.017a.973.973,0,1,0,0,1.945Zm-.975,11.373a.974.974,0,0,0,.975.973H25.1a.973.973,0,0,0,0-1.945H13.017a.973.973,0,0,0-.975.972Z" transform="translate(0)" fill-rule="evenodd"/>
    </g>
  </g>
</svg>
