<svg xmlns="http://www.w3.org/2000/svg" xmlns:xlink="http://www.w3.org/1999/xlink" width="113" height="113" viewBox="0 0 113 113">
  <defs>
    <filter id="Trazado_982547" x="0" y="0" width="113" height="113" filterUnits="userSpaceOnUse">
      <feOffset dy="3" input="SourceAlpha"/>
      <feGaussianBlur stdDeviation="3" result="blur"/>
      <feFlood flood-opacity="0.161"/>
      <feComposite operator="in" in2="blur"/>
      <feComposite in="SourceGraphic"/>
    </filter>
  </defs>
  <g id="Grupo_1202547" data-name="Grupo 1202547" transform="translate(-792 -4087.494)">
    <g id="Grupo_1202372" data-name="Grupo 1202372" transform="translate(-1.49 2625.871)">
      <g id="Grupo_1177632" data-name="Grupo 1177632" transform="translate(-4493 -458.649)">
        <g id="Grupo_1176928" data-name="Grupo 1176928" transform="translate(5295.49 1926.273)">
          <g id="Grupo_1172322" data-name="Grupo 1172322" transform="translate(0 0)">
            <g id="Grupo_1164700" data-name="Grupo 1164700">
              <g id="Grupo_1160931" data-name="Grupo 1160931">
                <g id="Grupo_1160749" data-name="Grupo 1160749">
                  <g id="Grupo_1158891" data-name="Grupo 1158891">
                    <g id="Grupo_1157406" data-name="Grupo 1157406">
                      <g id="Grupo_1155793" data-name="Grupo 1155793">
                        <g id="Grupo_1154704" data-name="Grupo 1154704">
                          <g id="Grupo_1150790" data-name="Grupo 1150790">
                            <g id="Grupo_1154214" data-name="Grupo 1154214">
                              <g id="Grupo_1152583" data-name="Grupo 1152583">
                                <g id="Grupo_1146973" data-name="Grupo 1146973">
                                  <g id="Grupo_1146954" data-name="Grupo 1146954">
                                    <g transform="matrix(1, 0, 0, 1, -9, -6)" filter="url(#Trazado_982547)">
                                      <g id="Trazado_982547-2" data-name="Trazado 982547" transform="translate(9 6)" fill="#f2f7e5">
                                        <path d="M 47.5000114440918 93.49987030029297 C 41.28938293457031 93.49987030029297 35.26534652709961 92.28384399414062 29.5951976776123 89.88558959960938 C 24.11773109436035 87.56881713867188 19.19814491271973 84.25183868408203 14.97310447692871 80.02680206298828 C 10.74805164337158 75.80176544189453 7.43107795715332 70.88218688964844 5.114304542541504 65.40472412109375 C 2.716038227081299 59.73458862304688 1.500011444091797 53.71054840087891 1.500011444091797 47.49993515014648 C 1.500011444091797 41.28932189941406 2.716038227081299 35.26528167724609 5.114304542541504 29.59514808654785 C 7.43107795715332 24.1176815032959 10.74805164337158 19.1981086730957 14.97310447692871 14.97306823730469 C 19.19814491271973 10.74802875518799 24.11773109436035 7.431055068969727 29.5951976776123 5.11428165435791 C 35.26534652709961 2.716028451919556 41.28938293457031 1.500001788139343 47.5000114440918 1.500001788139343 C 53.71063995361328 1.500001788139343 59.73467636108398 2.716028451919556 65.40482330322266 5.11428165435791 C 70.88229370117188 7.431055068969727 75.8018798828125 10.74802875518799 80.02691650390625 14.97306823730469 C 84.25196838378906 19.1981086730957 87.56894683837891 24.1176815032959 89.88571929931641 29.59514808654785 C 92.28398132324219 35.26528167724609 93.50001525878906 41.28932189941406 93.50001525878906 47.49993515014648 C 93.50001525878906 53.71054840087891 92.28398132324219 59.73458862304688 89.88571929931641 65.40472412109375 C 87.56894683837891 70.88218688964844 84.25196838378906 75.80176544189453 80.02691650390625 80.02680206298828 C 75.8018798828125 84.25183868408203 70.88229370117188 87.56881713867188 65.40482330322266 89.88558959960938 C 59.73467636108398 92.28384399414062 53.71063995361328 93.49987030029297 47.5000114440918 93.49987030029297 Z" stroke="none"/>
                                        <path d="M 47.5000114440918 3 C 41.49122619628906 3 35.66378021240234 4.1761474609375 30.17951965332031 6.495796203613281 C 24.880859375 8.7369384765625 20.12153625488281 11.94596862792969 16.03376770019531 16.03373718261719 C 11.94598388671875 20.12149047851562 8.736968994140625 24.88081359863281 6.495811462402344 30.17947387695312 C 4.176162719726562 35.66371917724609 3.000007629394531 41.49116516113281 3.000007629394531 47.49993515014648 C 3.000007629394531 53.50870513916016 4.176162719726562 59.33615112304688 6.495811462402344 64.82039642333984 C 8.736968994140625 70.11905670166016 11.94598388671875 74.87837982177734 16.03376770019531 78.96613311767578 C 20.12153625488281 83.05390167236328 24.880859375 86.26293182373047 30.17951965332031 88.50407409667969 C 35.66378021240234 90.82372283935547 41.49122619628906 91.99987030029297 47.5000114440918 91.99987030029297 C 53.50879669189453 91.99987030029297 59.33624267578125 90.82372283935547 64.82050323486328 88.50407409667969 C 70.11916351318359 86.26293182373047 74.87848663330078 83.05390167236328 78.96625518798828 78.96613311767578 C 83.05403900146484 74.87837982177734 86.2630615234375 70.11905670166016 88.50421142578125 64.82039642333984 C 90.82386016845703 59.33615112304688 92.00001525878906 53.50870513916016 92.00001525878906 47.49993515014648 C 92.00001525878906 41.49116516113281 90.82386016845703 35.66371917724609 88.50421142578125 30.17947387695312 C 86.2630615234375 24.88081359863281 83.05403900146484 20.12149047851562 78.96625518798828 16.03373718261719 C 74.87848663330078 11.94596862792969 70.11916351318359 8.7369384765625 64.82050323486328 6.495796203613281 C 59.33624267578125 4.1761474609375 53.50879669189453 3 47.5000114440918 3 M 47.5000114440918 0 C 73.73353576660156 0 95.00001525878906 21.26644134521484 95.00001525878906 47.49993515014648 C 95.00001525878906 73.73342895507812 73.73353576660156 94.99987030029297 47.5000114440918 94.99987030029297 C 21.26648712158203 94.99987030029297 7.62939453125e-06 73.73342895507812 7.62939453125e-06 47.49993515014648 C 7.62939453125e-06 21.26644134521484 21.26648712158203 0 47.5000114440918 0 Z" stroke="none" fill="#86b60c"/>
                                      </g>
                                    </g>
                                  </g>
                                </g>
                              </g>
                            </g>
                          </g>
                        </g>
                      </g>
                    </g>
                  </g>
                </g>
              </g>
            </g>
          </g>
        </g>
      </g>
    </g>
    <g id="debt_2846136" transform="translate(818.908 4110.908)">
      <g id="Grupo_1202544" data-name="Grupo 1202544" transform="translate(37.61 37.61)">
        <circle id="Elipse_12325" data-name="Elipse 12325" cx="8" cy="8" r="8" transform="translate(0.483 0.483)" fill="#f0bc5e"/>
      </g>
      <g id="Grupo_1202545" data-name="Grupo 1202545" transform="translate(4.808 4.808)">
        <path id="Trazado_1041491" data-name="Trazado 1041491" d="M5,5H22.134v9.519H5Z" transform="translate(-5 -5)" fill="#f0bc5e"/>
      </g>
      <g id="Grupo_1202546" data-name="Grupo 1202546" transform="translate(1 1)">
        <path id="Trazado_1041492" data-name="Trazado 1041492" d="M48.711,42.808a1.906,1.906,0,0,1,1.9,1.9h1.9A3.811,3.811,0,0,0,48.711,40.9V39h-1.9v1.9H43v3.808a3.811,3.811,0,0,0,3.808,3.808h1.9a1.906,1.906,0,0,1,1.9,1.9v1.9H46.808a1.906,1.906,0,0,1-1.9-1.9H43a3.811,3.811,0,0,0,3.808,3.808v1.9h1.9v-1.9h3.808V50.423a3.811,3.811,0,0,0-3.808-3.808h-1.9a1.906,1.906,0,0,1-1.9-1.9v-1.9Z" transform="translate(-3.02 -2.827)"/>
        <path id="Trazado_1041493" data-name="Trazado 1041493" d="M53.355,33.686V27.654H48.6V19.086a2.856,2.856,0,1,0-5.711,0v8.567h-4.76v1.9H32.413a.953.953,0,0,1-.952-.952V11.471a2.859,2.859,0,0,0-2.856-2.856H25.75V1H1V18.134H25.75V10.519h2.856a.953.953,0,0,1,.952.952V28.605a2.859,2.859,0,0,0,2.856,2.856h5.711v2.225a14.151,14.151,0,0,0-6.378,9.2H28.605a.953.953,0,0,1-.952-.952V36.221A2.859,2.859,0,0,0,24.8,33.365H21.942V29.557H1v9.519H21.942V35.269H24.8a.953.953,0,0,1,.952.952v5.711a2.859,2.859,0,0,0,2.856,2.856h2.887q-.031.473-.031.952c0,.322.028.636.049.952h-2.9a2.859,2.859,0,0,0-2.856,2.856v3.808a.953.953,0,0,1-.952.952H21.942V50.5H1v9.519H21.942V56.211H24.8a2.859,2.859,0,0,0,2.856-2.856V49.548a.953.953,0,0,1,.952-.952h3.143a14.279,14.279,0,0,0,28.27-2.856,14.156,14.156,0,0,0-6.663-12.054ZM23.846,16.231H2.9V2.9H23.846ZM20.038,37.173H2.9V31.461H20.038Zm0,20.942H2.9V52.4H20.038Zm24.75-39.028a.952.952,0,1,1,1.9,0v8.567h-1.9Zm6.663,10.471v3.808H40.028V29.557ZM45.74,58.115a12.364,12.364,0,0,1-6.569-22.846H52.31a12.365,12.365,0,0,1-6.57,22.846Z" transform="translate(-1 -1)"/>
        <path id="Trazado_1041494" data-name="Trazado 1041494" d="M42.668,20.141l.762-1.745-2.172-.949,3.012-1.316-1.2-3.062,3.062,1.2,1.316-3.01,1.316,3.01,3.062-1.2-1.2,3.062,3.012,1.316-2.172.949.762,1.745,6.165-2.694L53.066,15.12l2.12-5.41-5.413,2.118L47.447,6.5l-2.326,5.326L39.708,9.709l2.12,5.411L36.5,17.447Z" transform="translate(-2.707 -1.265)"/>
        <path id="Trazado_1041495" data-name="Trazado 1041495" d="M5,5H6.9V6.9H5Z" transform="translate(-1.192 -1.192)"/>
        <path id="Trazado_1041496" data-name="Trazado 1041496" d="M9,5H22.327V6.9H9Z" transform="translate(-1.385 -1.192)"/>
        <path id="Trazado_1041497" data-name="Trazado 1041497" d="M5,9H22.134v1.9H5Z" transform="translate(-1.192 -1.385)"/>
        <path id="Trazado_1041498" data-name="Trazado 1041498" d="M21,13h1.9v1.9H21Z" transform="translate(-1.962 -1.577)"/>
        <path id="Trazado_1041499" data-name="Trazado 1041499" d="M5,13H18.327v1.9H5Z" transform="translate(-1.192 -1.577)"/>
        <path id="Trazado_1041500" data-name="Trazado 1041500" d="M5,35H6.9v1.9H5Z" transform="translate(-1.192 -2.635)"/>
        <path id="Trazado_1041501" data-name="Trazado 1041501" d="M9,35h1.9v1.9H9Z" transform="translate(-1.385 -2.635)"/>
        <path id="Trazado_1041502" data-name="Trazado 1041502" d="M13,35h1.9v1.9H13Z" transform="translate(-1.577 -2.635)"/>
        <path id="Trazado_1041503" data-name="Trazado 1041503" d="M17,35h1.9v1.9H17Z" transform="translate(-1.769 -2.635)"/>
        <path id="Trazado_1041504" data-name="Trazado 1041504" d="M5,57H6.9v1.9H5Z" transform="translate(-1.192 -3.693)"/>
        <path id="Trazado_1041505" data-name="Trazado 1041505" d="M9,57h1.9v1.9H9Z" transform="translate(-1.385 -3.693)"/>
        <path id="Trazado_1041506" data-name="Trazado 1041506" d="M13,57h1.9v1.9H13Z" transform="translate(-1.577 -3.693)"/>
        <path id="Trazado_1041507" data-name="Trazado 1041507" d="M17,57h1.9v1.9H17Z" transform="translate(-1.769 -3.693)"/>
      </g>
    </g>
  </g>
</svg>
