<svg xmlns="http://www.w3.org/2000/svg" xmlns:xlink="http://www.w3.org/1999/xlink" width="93.934" height="93.934" viewBox="0 0 93.934 93.934">
  <defs>
    <filter id="Trazado_982547" x="0" y="0" width="93.934" height="93.934" filterUnits="userSpaceOnUse">
      <feOffset dy="3" input="SourceAlpha"/>
      <feGaussianBlur stdDeviation="3" result="blur"/>
      <feFlood flood-opacity="0.161"/>
      <feComposite operator="in" in2="blur"/>
      <feComposite in="SourceGraphic"/>
    </filter>
  </defs>
  <g id="Grupo_1202598" data-name="Grupo 1202598" transform="translate(-1132.033 -7923)">
    <g id="Grupo_1202396" data-name="Grupo 1202396" transform="translate(943 6910)">
      <g id="Grupo_1176309" data-name="Grupo 1176309" transform="translate(0 -973)">
        <g id="Grupo_1172970" data-name="Grupo 1172970" transform="translate(-1 -9042)">
          <g id="Grupo_1171971" data-name="Grupo 1171971" transform="translate(199.033 11034)">
            <g id="Grupo_1167337" data-name="Grupo 1167337" transform="translate(0)">
              <g id="Grupo_1166720" data-name="Grupo 1166720">
                <g id="Grupo_1164305" data-name="Grupo 1164305">
                  <g id="Grupo_1163948" data-name="Grupo 1163948">
                    <g id="Grupo_1158168" data-name="Grupo 1158168">
                      <g id="Grupo_1152576" data-name="Grupo 1152576">
                        <g id="Grupo_1148633" data-name="Grupo 1148633">
                          <g id="Grupo_1148525" data-name="Grupo 1148525">
                            <g transform="matrix(1, 0, 0, 1, -9, -6)" filter="url(#Trazado_982547)">
                              <g id="Trazado_982547-2" data-name="Trazado 982547" transform="translate(9 6)" fill="#f2f7e5">
                                <path d="M 37.966796875 74.43359375 C 33.04315185546875 74.43359375 28.26757431030273 73.46962738037109 23.77274131774902 71.56847381591797 C 19.43047523498535 69.73184967041016 15.53040790557861 67.10224914550781 12.18087482452393 63.75271987915039 C 8.831341743469238 60.4031867980957 6.201741218566895 56.50312042236328 4.365118980407715 52.16086196899414 C 2.463963508605957 47.66601943969727 1.499996900558472 42.89044189453125 1.499996900558472 37.966796875 C 1.499996900558472 33.04315185546875 2.463963508605957 28.26757431030273 4.365118980407715 23.77274131774902 C 6.201741218566895 19.43047523498535 8.831341743469238 15.53040790557861 12.18087482452393 12.18087482452393 C 15.53040790557861 8.831341743469238 19.43047523498535 6.201741218566895 23.77274131774902 4.365118980407715 C 28.26757431030273 2.463963508605957 33.04315185546875 1.499996900558472 37.966796875 1.499996900558472 C 42.89044189453125 1.499996900558472 47.66601943969727 2.463963508605957 52.16086196899414 4.365118980407715 C 56.50312042236328 6.201741218566895 60.4031867980957 8.831341743469238 63.75271987915039 12.18087482452393 C 67.10224914550781 15.53040790557861 69.73184967041016 19.43047523498535 71.56847381591797 23.77274131774902 C 73.46962738037109 28.26757431030273 74.43359375 33.04315185546875 74.43359375 37.966796875 C 74.43359375 42.89044189453125 73.46962738037109 47.66601943969727 71.56847381591797 52.16086196899414 C 69.73184967041016 56.50313186645508 67.10224914550781 60.4031867980957 63.75271987915039 63.75271987915039 C 60.4031867980957 67.10224914550781 56.50313186645508 69.73184967041016 52.16086196899414 71.56847381591797 C 47.66601943969727 73.46962738037109 42.89044189453125 74.43359375 37.966796875 74.43359375 Z" stroke="none"/>
                                <path d="M 37.966796875 3 C 33.2449836730957 3 28.66600799560547 3.924095153808594 24.35705947875977 5.746635437011719 C 20.19359588623047 7.507637023925781 16.45379638671875 10.02928161621094 13.24153518676758 13.24153518676758 C 10.02927398681641 16.45379638671875 7.507621765136719 20.19359588623047 5.746635437011719 24.35705947875977 C 3.924095153808594 28.66600799560547 3 33.2449836730957 3 37.966796875 C 3 42.6886100769043 3.924095153808594 47.26758575439453 5.746635437011719 51.57653427124023 C 7.507621765136719 55.73999786376953 10.02927398681641 59.47979736328125 13.24153518676758 62.69205856323242 C 16.45379638671875 65.90431976318359 20.19359588623047 68.42597198486328 24.35705947875977 70.18695831298828 C 28.66600799560547 72.00949859619141 33.2449836730957 72.93359375 37.966796875 72.93359375 C 42.6886100769043 72.93359375 47.26758575439453 72.00949859619141 51.57653427124023 70.18695831298828 C 55.73999786376953 68.42597198486328 59.47979736328125 65.90431976318359 62.69205856323242 62.69205856323242 C 65.90431976318359 59.47979736328125 68.42597198486328 55.73999786376953 70.18695831298828 51.57653427124023 C 72.00949859619141 47.26758575439453 72.93359375 42.6886100769043 72.93359375 37.966796875 C 72.93359375 33.2449836730957 72.00949859619141 28.66600799560547 70.18695831298828 24.35705947875977 C 68.42597198486328 20.19359588623047 65.90431976318359 16.45379638671875 62.69205856323242 13.24153518676758 C 59.47979736328125 10.02928161621094 55.73999786376953 7.507637023925781 51.57653427124023 5.746635437011719 C 47.26758575439453 3.924095153808594 42.6886100769043 3 37.966796875 3 M 37.966796875 0 C 58.93528366088867 0 75.93359375 16.99832153320312 75.93359375 37.966796875 C 75.93359375 58.93528366088867 58.93528366088867 75.93359375 37.966796875 75.93359375 C 16.99831008911133 75.93359375 0 58.93528366088867 0 37.966796875 C 0 16.99832153320312 16.99831008911133 0 37.966796875 0 Z" stroke="none" fill="#1d7083"/>
                              </g>
                            </g>
                          </g>
                        </g>
                      </g>
                    </g>
                  </g>
                </g>
              </g>
            </g>
          </g>
        </g>
      </g>
    </g>
    <g id="page-analyzer_17353824" transform="translate(1150.476 7941.476)">
      <rect id="Rect치ngulo_416684" data-name="Rect치ngulo 416684" width="39" height="39" rx="4" transform="translate(10.524 10.524)" fill="#0082ed"/>
      <path id="Trazado_1041703" data-name="Trazado 1041703" d="M45.8,12H15.245A3.245,3.245,0,0,0,12,15.245V45.8A25.958,25.958,0,0,0,45.8,12Z" transform="translate(-1.699 -1.699)" fill="#1aa3ff"/>
      <path id="Trazado_1041704" data-name="Trazado 1041704" d="M47.692,12H15.245A3.245,3.245,0,0,0,12,15.245v3.245H50.937V15.245A3.245,3.245,0,0,0,47.692,12Z" transform="translate(-1.699 -1.699)" fill="#ffbf1f"/>
      <path id="Trazado_1041705" data-name="Trazado 1041705" d="M45.8,12H15.245A3.245,3.245,0,0,0,12,15.245v3.245H47.483A25.806,25.806,0,0,0,45.8,12Z" transform="translate(-1.699 -1.699)" fill="#ffde17"/>
      <rect id="Rect치ngulo_416685" data-name="Rect치ngulo 416685" width="23" height="23" rx="4" transform="translate(3.524 3.524)" fill="#ffbf1f"/>
      <path id="Trazado_1041706" data-name="Trazado 1041706" d="M21.718,4H7.245A3.245,3.245,0,0,0,4,7.245V21.718A12.963,12.963,0,0,0,21.718,4Z" transform="translate(-0.189 -0.189)" fill="#ffde17"/>
      <path id="Trazado_1041707" data-name="Trazado 1041707" d="M34.87,52.675H36.46a.646.646,0,0,0,.627-.8l-1.174-4.694a.255.255,0,0,0-.5,0l-1.174,4.694A.646.646,0,0,0,34.87,52.675Z" transform="translate(-5.895 -8.305)" fill="#fff"/>
      <path id="Trazado_1041708" data-name="Trazado 1041708" d="M18.84,51.6h3.254a.8.8,0,0,0,.806-.73,9.706,9.706,0,0,1,2.824-6.154l-3.442-3.442a14.554,14.554,0,0,0-4.253,9.49.8.8,0,0,0,.811.835Z" transform="translate(-2.837 -7.226)" fill="#fff"/>
      <path id="Trazado_1041709" data-name="Trazado 1041709" d="M23.264,40.284l.006-.007,3.442,3.442A9.7,9.7,0,0,1,33.6,40.867V36A14.556,14.556,0,0,0,23.264,40.284Z" transform="translate(-3.826 -6.231)" fill="#ffde17"/>
      <path id="Trazado_1041710" data-name="Trazado 1041710" d="M51.4,51.6H48.142a.8.8,0,0,1-.806-.73,9.706,9.706,0,0,0-2.824-6.154l3.442-3.442a14.554,14.554,0,0,1,4.253,9.49.8.8,0,0,1-.811.835Z" transform="translate(-7.838 -7.226)" fill="#ff7b22"/>
      <path id="Trazado_1041711" data-name="Trazado 1041711" d="M47.954,41.272l-3.442,3.442a9.753,9.753,0,0,1,1.17,1.423,26.1,26.1,0,0,0,3.274-3.742,14.953,14.953,0,0,0-1-1.123Z" transform="translate(-7.838 -7.226)" fill="#ff9522"/>
      <path id="Trazado_1041712" data-name="Trazado 1041712" d="M46.359,40.284l-.006-.007-3.442,3.442a9.7,9.7,0,0,0-6.883-2.851V36A14.556,14.556,0,0,1,46.359,40.284Z" transform="translate(-6.236 -6.231)" fill="#ffbf1f"/>
      <g id="Grupo_1202597" data-name="Grupo 1202597" transform="translate(3 3)">
        <path id="Trazado_1041713" data-name="Trazado 1041713" d="M47.5,11H31.28a.811.811,0,1,0,0,1.622H47.5a2.437,2.437,0,0,1,2.434,2.434v2.434H31.28a.811.811,0,1,0,0,1.622H49.937V47.5A2.437,2.437,0,0,1,47.5,49.937H15.056A2.437,2.437,0,0,1,12.622,47.5V31.28a.811.811,0,1,0-1.622,0V47.5a4.061,4.061,0,0,0,4.056,4.056H47.5A4.061,4.061,0,0,0,51.559,47.5V15.056A4.061,4.061,0,0,0,47.5,11Z" transform="translate(-4.511 -4.511)" fill="#12173a"/>
        <path id="Trazado_1041714" data-name="Trazado 1041714" d="M55.434,16.622a.811.811,0,0,0,0-1.622H53.811a.811.811,0,0,0,0,1.622Z" transform="translate(-12.441 -5.266)" fill="#12173a"/>
        <path id="Trazado_1041715" data-name="Trazado 1041715" d="M49.434,16.622a.811.811,0,0,0,0-1.622H47.811a.811.811,0,0,0,0,1.622Z" transform="translate(-11.308 -5.266)" fill="#12173a"/>
        <path id="Trazado_1041716" data-name="Trazado 1041716" d="M43.434,16.622a.811.811,0,0,0,0-1.622H41.811a.811.811,0,0,0,0,1.622Z" transform="translate(-10.175 -5.266)" fill="#12173a"/>
        <path id="Trazado_1041717" data-name="Trazado 1041717" d="M27.336,23.28V7.056A4.061,4.061,0,0,0,23.28,3H7.056A4.061,4.061,0,0,0,3,7.056a.811.811,0,1,0,1.622,0A2.437,2.437,0,0,1,7.056,4.622H23.28a2.437,2.437,0,0,1,2.434,2.434V23.28a2.437,2.437,0,0,1-2.434,2.434H7.056A2.437,2.437,0,0,1,4.622,23.28V10.3A.811.811,0,1,0,3,10.3V23.28a4.061,4.061,0,0,0,4.056,4.056H23.28A4.061,4.061,0,0,0,27.336,23.28Z" transform="translate(-3 -3)" fill="#12173a"/>
        <path id="Trazado_1041718" data-name="Trazado 1041718" d="M35.434,45a.81.81,0,0,0-.787.615L33.024,52.1a.811.811,0,0,0,.787,1.007h3.245a.811.811,0,0,0,.787-1.007L36.22,45.615A.811.811,0,0,0,35.434,45Zm-.583,6.489.583-2.334.583,2.334Z" transform="translate(-8.664 -10.93)" fill="#12173a"/>
        <path id="Trazado_1041719" data-name="Trazado 1041719" d="M41.336,50.413a.811.811,0,0,0,.811.811h4.867a.811.811,0,0,0,.811-.811,15.413,15.413,0,1,0-30.825,0,.811.811,0,0,0,.811.811h4.867a.811.811,0,0,0,.811-.811,8.925,8.925,0,0,1,17.339-2.975.811.811,0,0,0,1.53-.54,10.511,10.511,0,0,0-1.938-3.345L42.7,41.269A13.691,13.691,0,0,1,46.18,49.6H42.148a.811.811,0,0,0-.811.811ZM21.9,49.6H18.646a13.72,13.72,0,0,1,3.472-8.336l2.292,2.292A10.49,10.49,0,0,0,21.9,49.6Zm9.7-9.7a10.5,10.5,0,0,0-6.044,2.512l-2.292-2.292A13.72,13.72,0,0,1,31.6,36.646Zm7.668,2.511a10.555,10.555,0,0,0-6.046-2.51V36.662a13.74,13.74,0,0,1,8.331,3.462Z" transform="translate(-5.643 -9.042)" fill="#12173a"/>
        <path id="Trazado_1041720" data-name="Trazado 1041720" d="M21.545,19.545a.81.81,0,0,0,.811-.811V10.622A1.624,1.624,0,0,0,20.734,9H15.867a.808.808,0,0,0-.574.238l-4.056,4.056a.809.809,0,0,0-.238.574v8.112A1.624,1.624,0,0,0,12.622,23.6h8.112a1.624,1.624,0,0,0,1.622-1.622.811.811,0,1,0-1.622,0H12.622v-7.3h3.245a.81.81,0,0,0,.811-.811V10.622h4.056v8.112A.81.81,0,0,0,21.545,19.545Zm-6.489-6.489H13.769l1.287-1.287Z" transform="translate(-4.511 -4.133)" fill="#12173a"/>
      </g>
    </g>
  </g>
</svg>
