<svg xmlns="http://www.w3.org/2000/svg" xmlns:xlink="http://www.w3.org/1999/xlink" width="103" height="103" viewBox="0 0 103 103">
  <defs>
    <filter id="Trazado_982547" x="0" y="0" width="103" height="103" filterUnits="userSpaceOnUse">
      <feOffset dy="3" input="SourceAlpha"/>
      <feGaussianBlur stdDeviation="3" result="blur"/>
      <feFlood flood-opacity="0.161"/>
      <feComposite operator="in" in2="blur"/>
      <feComposite in="SourceGraphic"/>
    </filter>
  </defs>
  <g id="Grupo_1202421" data-name="Grupo 1202421" transform="translate(-1031 -744)">
    <g id="Grupo_1202211" data-name="Grupo 1202211" transform="translate(760 -126.414)">
      <g id="Grupo_1174813" data-name="Grupo 1174813" transform="translate(280 876.414)">
        <g id="Grupo_1201680" data-name="Grupo 1201680">
          <g id="Grupo_1201330" data-name="Grupo 1201330">
            <g id="Grupo_1172010" data-name="Grupo 1172010">
              <g id="Grupo_1171046" data-name="Grupo 1171046">
                <g id="Grupo_1148525" data-name="Grupo 1148525">
                  <g transform="matrix(1, 0, 0, 1, -9, -6)" filter="url(#Trazado_982547)">
                    <g id="Trazado_982547-2" data-name="Trazado 982547" transform="translate(9 6)" fill="#f2f7e5">
                      <path d="M 42.5 83.5 C 36.96437835693359 83.5 31.59512901306152 82.41617584228516 26.54141235351562 80.27863311767578 C 21.65934181213379 78.21369171142578 17.27447128295898 75.25723266601562 13.50862312316895 71.49137878417969 C 9.742764472961426 67.72553253173828 6.786305904388428 63.34066009521484 4.721364498138428 58.45858764648438 C 2.583823442459106 53.40486907958984 1.5 48.03562164306641 1.5 42.5 C 1.5 36.96437835693359 2.583823442459106 31.59512901306152 4.721364498138428 26.54141235351562 C 6.786305904388428 21.65934181213379 9.742764472961426 17.27448272705078 13.50862312316895 13.50862312316895 C 17.27447128295898 9.742776870727539 21.65934181213379 6.786305904388428 26.54141235351562 4.721364498138428 C 31.59512901306152 2.583823442459106 36.96437835693359 1.5 42.5 1.5 C 48.03562164306641 1.5 53.40486907958984 2.583823442459106 58.45858764648438 4.721364498138428 C 63.34066009521484 6.786305904388428 67.72553253173828 9.742776870727539 71.49137878417969 13.50862312316895 C 75.25723266601562 17.27448272705078 78.21369171142578 21.65934181213379 80.27863311767578 26.54141235351562 C 82.41617584228516 31.59512901306152 83.5 36.96437835693359 83.5 42.5 C 83.5 48.03562164306641 82.41617584228516 53.40486907958984 80.27863311767578 58.45858764648438 C 78.21369171142578 63.34066009521484 75.25723266601562 67.72553253173828 71.49137878417969 71.49137878417969 C 67.72553253173828 75.25723266601562 63.34066009521484 78.21369171142578 58.45858764648438 80.27863311767578 C 53.40486907958984 82.41617584228516 48.03562164306641 83.5 42.5 83.5 Z" stroke="none"/>
                      <path d="M 42.5 3 C 37.16621398925781 3 31.99356079101562 4.043960571289062 27.125732421875 6.102882385253906 C 22.42246627807617 8.092185974121094 18.19785308837891 10.94070434570312 14.56928253173828 14.56928253173828 C 10.94070434570312 18.19785308837891 8.092185974121094 22.42246627807617 6.102882385253906 27.125732421875 C 4.043960571289062 31.99356079101562 3 37.16621398925781 3 42.5 C 3 47.83378601074219 4.043960571289062 53.00643920898438 6.102882385253906 57.874267578125 C 8.092185974121094 62.57753372192383 10.94070434570312 66.80214691162109 14.56928253173828 70.43071746826172 C 18.19785308837891 74.05929565429688 22.42246627807617 76.90781402587891 27.125732421875 78.89711761474609 C 31.99356079101562 80.95603942871094 37.16621398925781 82 42.5 82 C 47.83378601074219 82 53.00643920898438 80.95603942871094 57.874267578125 78.89711761474609 C 62.57753372192383 76.90781402587891 66.80214691162109 74.05929565429688 70.43071746826172 70.43071746826172 C 74.05929565429688 66.80214691162109 76.90781402587891 62.57753372192383 78.89711761474609 57.874267578125 C 80.95603942871094 53.00643920898438 82 47.83378601074219 82 42.5 C 82 37.16621398925781 80.95603942871094 31.99356079101562 78.89711761474609 27.125732421875 C 76.90781402587891 22.42246627807617 74.05929565429688 18.19785308837891 70.43071746826172 14.56928253173828 C 66.80214691162109 10.94070434570312 62.57753372192383 8.092185974121094 57.874267578125 6.102882385253906 C 53.00643920898438 4.043960571289062 47.83378601074219 3 42.5 3 M 42.5 0 C 65.97210693359375 0 85 19.02789306640625 85 42.5 C 85 65.97210693359375 65.97210693359375 85 42.5 85 C 19.02789306640625 85 0 65.97210693359375 0 42.5 C 0 19.02789306640625 19.02789306640625 0 42.5 0 Z" stroke="none" fill="#1d7083"/>
                    </g>
                  </g>
                </g>
              </g>
            </g>
          </g>
        </g>
      </g>
    </g>
    <g id="structure_12650059" transform="translate(1015.101 752.107)">
      <path id="Trazado_1041110" data-name="Trazado 1041110" d="M58.616,400.3a.5.5,0,0,0,.559-.549v-7.02a.946.946,0,0,1,1.891,0v9.226H66.43v-9.226a.944.944,0,1,1,1.888,0v7.02a.5.5,0,0,0,.559.549.521.521,0,0,0,.579-.549v-8.1c0-.649-.07-.884-.134-.961s-.291-.157-.783-.157H58.954c-.492,0-.73.084-.783.157a1.877,1.877,0,0,0-.134.961v8.1A.521.521,0,0,0,58.616,400.3Z" transform="translate(-14.099 -337.982)" fill="#ff7577"/>
      <path id="Trazado_1041111" data-name="Trazado 1041111" d="M230.979,307.764a3.035,3.035,0,1,0,3.036-3.036A3.04,3.04,0,0,0,230.979,307.764Z" transform="translate(-166.617 -262.311)" fill="#faefe8"/>
      <path id="Trazado_1041112" data-name="Trazado 1041112" d="M170.236,34.053a5.957,5.957,0,1,1,5.959,5.956A5.965,5.965,0,0,1,170.236,34.053Zm6.87,10.78a.675.675,0,0,0,.077-.208l.482-2.109a.941.941,0,0,1,.67-.7,7.982,7.982,0,0,0,1.835-.76.945.945,0,0,1,.971.02l1.831,1.155a.7.7,0,0,0,.2.09l1.289-1.286a.771.771,0,0,0-.09-.2L183.215,39a.944.944,0,0,1-.02-.971,8.136,8.136,0,0,0,.76-1.835.941.941,0,0,1,.7-.67l2.112-.482a.67.67,0,0,0,.208-.077V33.142a.777.777,0,0,0-.208-.077l-2.109-.482a.941.941,0,0,1-.7-.67,8.13,8.13,0,0,0-.76-1.835.944.944,0,0,1,.02-.971l1.155-1.831a.809.809,0,0,0,.09-.2l-1.289-1.289a.813.813,0,0,0-.2.09l-1.831,1.155a.945.945,0,0,1-.971.02,7.982,7.982,0,0,0-1.835-.76.941.941,0,0,1-.67-.7l-.482-2.112a.675.675,0,0,0-.077-.208h-1.821a.675.675,0,0,0-.077.208l-.482,2.112a.947.947,0,0,1-.67.7,7.976,7.976,0,0,0-1.835.76.944.944,0,0,1-.971-.02l-1.831-1.155a.771.771,0,0,0-.2-.09l-1.286,1.289a.7.7,0,0,0,.09.2l1.155,1.831a.944.944,0,0,1,.02.971,7.987,7.987,0,0,0-.76,1.835.951.951,0,0,1-.7.67l-2.109.482a.773.773,0,0,0-.208.077v1.821a.675.675,0,0,0,.208.077l2.109.482a.951.951,0,0,1,.7.67,7.982,7.982,0,0,0,.76,1.835.944.944,0,0,1-.02.971l-1.155,1.831a.67.67,0,0,0-.09.2l1.286,1.286a.67.67,0,0,0,.2-.09l1.831-1.155a.944.944,0,0,1,.971-.02,7.981,7.981,0,0,0,1.835.76.946.946,0,0,1,.67.7l.482,2.109a.672.672,0,0,0,.077.208Z" transform="translate(-108.796 -14.095)" fill="#635463"/>
      <path id="Trazado_1041113" data-name="Trazado 1041113" d="M381.272,307.764a3.036,3.036,0,1,0,3.036-3.036A3.04,3.04,0,0,0,381.272,307.764Z" transform="translate(-299.16 -262.311)" fill="#faefe8"/>
      <path id="Trazado_1041114" data-name="Trazado 1041114" d="M230.383,84.177a4.067,4.067,0,1,0-4.067,4.067A4.072,4.072,0,0,0,230.383,84.177Z" transform="translate(-158.917 -64.22)" fill="#fff"/>
      <path id="Trazado_1041115" data-name="Trazado 1041115" d="M83.723,310.8a3.036,3.036,0,1,0-3.036-3.036A3.038,3.038,0,0,0,83.723,310.8Z" transform="translate(-34.074 -262.311)" fill="#faefe8"/>
      <path id="Trazado_1041116" data-name="Trazado 1041116" d="M209.494,392.732a.946.946,0,0,1,1.891,0v9.226h5.363v-9.226a.946.946,0,0,1,1.891,0v7.02a.494.494,0,0,0,.556.549.521.521,0,0,0,.579-.549v-8.1c0-.649-.07-.884-.134-.961s-.288-.157-.78-.157h-9.588c-.492,0-.73.084-.783.157a1.9,1.9,0,0,0-.13.961v8.1a.519.519,0,0,0,.576.549.5.5,0,0,0,.559-.549Z" transform="translate(-146.668 -337.982)" fill="#23ad7f"/>
      <path id="Trazado_1041117" data-name="Trazado 1041117" d="M359.569,390.532c-.492,0-.73.084-.787.157a1.9,1.9,0,0,0-.131.961v8.1a.521.521,0,0,0,.579.549.5.5,0,0,0,.559-.549v-7.02a.944.944,0,1,1,1.888,0v9.226h5.363v-9.226a.946.946,0,0,1,1.891,0v7.02a.5.5,0,0,0,.556.549.521.521,0,0,0,.579-.549v-8.1a1.9,1.9,0,0,0-.13-.961c-.054-.074-.291-.157-.783-.157h-9.585Z" transform="translate(-279.211 -337.981)" fill="#f7cb7f"/>
      <g id="Grupo_1202420" data-name="Grupo 1202420" transform="translate(42.05 7.29)">
        <path id="Trazado_1041118" data-name="Trazado 1041118" d="M208.123,70.079a4.067,4.067,0,1,1,4.067,4.067A4.072,4.072,0,0,1,208.123,70.079Zm10.023,0a5.957,5.957,0,1,0-5.956,5.956A5.962,5.962,0,0,0,218.146,70.079Z" transform="translate(-186.842 -57.411)" fill="#030403"/>
        <path id="Trazado_1041119" data-name="Trazado 1041119" d="M43.938,377.551a1.877,1.877,0,0,1,.134-.961c.054-.074.291-.157.783-.157H54.44c.492,0,.73.084.783.157s.134.311.134.961v8.1a.521.521,0,0,1-.579.549.5.5,0,0,1-.559-.549v-7.02a.944.944,0,0,0-1.888,0v9.226H46.968v-9.226a.946.946,0,0,0-1.891,0v7.02a.5.5,0,0,1-.559.549.521.521,0,0,1-.579-.549v-8.1Zm-1.088,9.933a2.529,2.529,0,0,0,1.667.609,2.426,2.426,0,0,0,.559-.064v.171a1.553,1.553,0,0,0,1.55,1.55h6.043a1.551,1.551,0,0,0,1.55-1.55v-.171a2.473,2.473,0,0,0,3.03-2.377v-8.1c0-.9,0-3.006-2.809-3.006H44.855c-2.805,0-2.805,2.106-2.805,3.006v8.1a2.39,2.39,0,0,0,.8,1.831Z" transform="translate(-42.05 -331.172)" fill="#030403"/>
        <path id="Trazado_1041120" data-name="Trazado 1041120" d="M355.942,377.551v8.1a.521.521,0,0,1-.579.549.5.5,0,0,1-.556-.549v-7.02a.946.946,0,0,0-1.891,0v9.226h-5.363v-9.226a.944.944,0,0,0-1.888,0v7.02a.5.5,0,0,1-.559.549.521.521,0,0,1-.579-.549v-8.1a1.9,1.9,0,0,1,.13-.961c.057-.074.295-.157.787-.157h9.585c.492,0,.73.084.783.157a1.9,1.9,0,0,1,.13.961Zm-10.5-3.006c-2.809,0-2.809,2.106-2.809,3.006v8.1a2.389,2.389,0,0,0,.8,1.831,2.544,2.544,0,0,0,1.671.609,2.469,2.469,0,0,0,.559-.064v.171a1.55,1.55,0,0,0,1.547,1.55h6.046a1.553,1.553,0,0,0,1.55-1.55v-.171a2.47,2.47,0,0,0,3.026-2.377v-8.1c0-.9,0-3.006-2.805-3.006h-9.585Z" transform="translate(-307.136 -331.172)" fill="#030403"/>
        <path id="Trazado_1041121" data-name="Trazado 1041121" d="M69.6,42.417a3.036,3.036,0,1,1-3.036,3.036A3.037,3.037,0,0,1,69.6,42.417Zm17.75,0a3.036,3.036,0,1,1-3.036,3.036A3.037,3.037,0,0,1,87.349,42.417ZM86.362,30.53l-.482-2.109a.946.946,0,0,0-.67-.7,7.981,7.981,0,0,1-1.835-.76.944.944,0,0,0-.971.02l-1.831,1.155a.67.67,0,0,1-.2.09l-1.286-1.286a.67.67,0,0,1,.09-.2L80.329,24.9a.944.944,0,0,0,.02-.971,7.986,7.986,0,0,1-.76-1.835.951.951,0,0,0-.7-.67l-2.109-.482a.669.669,0,0,1-.207-.077V19.047a.776.776,0,0,1,.207-.077l2.109-.482a.951.951,0,0,0,.7-.67,7.981,7.981,0,0,1,.76-1.835.944.944,0,0,0-.02-.971l-1.155-1.831a.7.7,0,0,1-.09-.2l1.286-1.289a.772.772,0,0,1,.2.09L82.4,12.937a.944.944,0,0,0,.971.02,7.981,7.981,0,0,1,1.835-.76.947.947,0,0,0,.67-.7l.482-2.112a.672.672,0,0,1,.077-.208H88.26a.675.675,0,0,1,.077.208l.482,2.112a.941.941,0,0,0,.67.7,7.976,7.976,0,0,1,1.835.76.945.945,0,0,0,.971-.02l1.831-1.155a.813.813,0,0,1,.2-.09l1.289,1.289a.815.815,0,0,1-.09.2l-1.155,1.831a.944.944,0,0,0-.02.971,8.135,8.135,0,0,1,.76,1.835.94.94,0,0,0,.7.67l2.109.482a.773.773,0,0,1,.208.077v1.821a.675.675,0,0,1-.208.077l-2.112.482a.941.941,0,0,0-.7.67,8.13,8.13,0,0,1-.76,1.835.944.944,0,0,0,.02.971l1.155,1.831a.768.768,0,0,1,.09.2l-1.289,1.286a.7.7,0,0,1-.2-.09l-1.831-1.155a.945.945,0,0,0-.971-.02,7.981,7.981,0,0,1-1.835.76.94.94,0,0,0-.67.7l-.482,2.109a.675.675,0,0,1-.077.208H86.439A.675.675,0,0,1,86.362,30.53Zm21.773,14.924a3.036,3.036,0,1,1-3.036-3.036A3.04,3.04,0,0,1,108.135,45.454ZM69.6,50.378a4.923,4.923,0,0,0,.944-9.755V38.648c0-.522.907-1.125,2.082-1.125H86.405v3.1a4.925,4.925,0,1,0,1.888,0v-3.1h13.779c1.172,0,2.082.6,2.082,1.125v1.975a4.925,4.925,0,1,0,1.888,0V38.648c0-1.691-1.744-3.016-3.97-3.016H88.293V32.625h.023a1.962,1.962,0,0,0,1.865-1.677l.358-1.577a9.98,9.98,0,0,0,1.209-.5l1.369.86a1.964,1.964,0,0,0,2.507-.131l1.366-1.366a1.96,1.96,0,0,0,.131-2.5l-.86-1.373a10,10,0,0,0,.5-1.209l1.577-.358a1.963,1.963,0,0,0,1.677-1.865V18.99a1.959,1.959,0,0,0-1.677-1.861l-1.577-.362a10.253,10.253,0,0,0-.5-1.212l.86-1.366a1.959,1.959,0,0,0-.131-2.5l-1.366-1.369a1.964,1.964,0,0,0-2.507-.13l-1.369.86a9.98,9.98,0,0,0-1.209-.5l-.358-1.577A1.965,1.965,0,0,0,88.317,7.29H86.382a1.963,1.963,0,0,0-1.865,1.677l-.358,1.577a10.254,10.254,0,0,0-1.212.5l-1.369-.86a1.959,1.959,0,0,0-2.5.13l-1.366,1.369a1.963,1.963,0,0,0-.134,2.5l.864,1.366a10.289,10.289,0,0,0-.5,1.212l-1.577.362a1.956,1.956,0,0,0-1.677,1.861v1.935a1.959,1.959,0,0,0,1.677,1.865l1.577.358a10.272,10.272,0,0,0,.5,1.212l-.864,1.369a1.964,1.964,0,0,0,.134,2.5L79.074,29.6a1.959,1.959,0,0,0,2.5.131l1.369-.86a10.27,10.27,0,0,0,1.212.5l.358,1.577a1.959,1.959,0,0,0,1.865,1.677h.023v3.006H72.626c-2.226,0-3.974,1.326-3.974,3.016v1.975a4.923,4.923,0,0,0,.947,9.755Z" transform="translate(-62 -7.29)" fill="#030403"/>
        <path id="Trazado_1041122" data-name="Trazado 1041122" d="M194.811,386.2a.519.519,0,0,1-.576-.549v-8.1a1.9,1.9,0,0,1,.13-.961c.054-.074.291-.157.783-.157h9.588c.492,0,.73.084.78.157s.134.311.134.961v8.1a.521.521,0,0,1-.579.549.494.494,0,0,1-.556-.549v-7.02a.946.946,0,0,0-1.891,0v9.226h-5.363v-9.226a.946.946,0,0,0-1.892,0v7.02A.5.5,0,0,1,194.811,386.2Zm2.109,3.549h6.046a1.553,1.553,0,0,0,1.55-1.55v-.171a2.469,2.469,0,0,0,3.026-2.377v-8.1c0-.9,0-3.006-2.805-3.006h-9.588c-2.805,0-2.805,2.106-2.805,3.006v8.1a2.389,2.389,0,0,0,.8,1.831,2.529,2.529,0,0,0,1.667.609,2.422,2.422,0,0,0,.559-.064v.171a1.553,1.553,0,0,0,1.55,1.55Z" transform="translate(-174.594 -331.171)" fill="#030403"/>
      </g>
    </g>
  </g>
</svg>
