<svg xmlns="http://www.w3.org/2000/svg" xmlns:xlink="http://www.w3.org/1999/xlink" width="113" height="113" viewBox="0 0 113 113">
  <defs>
    <filter id="Trazado_982547" x="0" y="0" width="113" height="113" filterUnits="userSpaceOnUse">
      <feOffset dy="3" input="SourceAlpha"/>
      <feGaussianBlur stdDeviation="3" result="blur"/>
      <feFlood flood-opacity="0.161"/>
      <feComposite operator="in" in2="blur"/>
      <feComposite in="SourceGraphic"/>
    </filter>
  </defs>
  <g id="Grupo_1202423" data-name="Grupo 1202423" transform="translate(-320 -1313.523)">
    <g id="Grupo_1202352" data-name="Grupo 1202352" transform="translate(49 443.108)">
      <g id="Grupo_1174813" data-name="Grupo 1174813" transform="translate(280 876.414)">
        <g id="Grupo_1201680" data-name="Grupo 1201680">
          <g id="Grupo_1201330" data-name="Grupo 1201330">
            <g id="Grupo_1172010" data-name="Grupo 1172010">
              <g id="Grupo_1171046" data-name="Grupo 1171046">
                <g id="Grupo_1148525" data-name="Grupo 1148525">
                  <g transform="matrix(1, 0, 0, 1, -9, -6)" filter="url(#Trazado_982547)">
                    <g id="Trazado_982547-2" data-name="Trazado 982547" transform="translate(9 6)" fill="#e9f9fd">
                      <path d="M 47.5 93.5 C 41.28937149047852 93.5 35.26533508300781 92.28397369384766 29.59518623352051 89.88570404052734 C 24.11771965026855 87.56893157958984 19.19813346862793 84.25196075439453 14.97309303283691 80.02691650390625 C 10.74804019927979 75.80186462402344 7.431066513061523 70.88229370117188 5.114293098449707 65.40481567382812 C 2.716026782989502 59.73468017578125 1.5 53.71062850952148 1.5 47.5 C 1.5 41.28937149047852 2.716026782989502 35.26533508300781 5.114293098449707 29.59518623352051 C 7.431066513061523 24.11771965026855 10.74804019927979 19.19813346862793 14.97309303283691 14.97309303283691 C 19.19813346862793 10.74804019927979 24.11771965026855 7.431066513061523 29.59518623352051 5.114293098449707 C 35.26533508300781 2.716026782989502 41.28937149047852 1.5 47.5 1.5 C 53.71062850952148 1.5 59.73468017578125 2.716026782989502 65.40481567382812 5.114293098449707 C 70.88229370117188 7.431066513061523 75.80186462402344 10.74804019927979 80.02691650390625 14.97309303283691 C 84.25196075439453 19.19813346862793 87.56893157958984 24.11771965026855 89.88570404052734 29.59518623352051 C 92.28397369384766 35.26533508300781 93.5 41.28937149047852 93.5 47.5 C 93.5 53.71062850952148 92.28397369384766 59.73468017578125 89.88570404052734 65.40481567382812 C 87.56893157958984 70.88229370117188 84.25196075439453 75.80186462402344 80.02691650390625 80.02691650390625 C 75.80186462402344 84.25196075439453 70.88229370117188 87.56893157958984 65.40481567382812 89.88570404052734 C 59.73468017578125 92.28397369384766 53.71062850952148 93.5 47.5 93.5 Z" stroke="none"/>
                      <path d="M 47.5 3 C 41.49121475219727 3 35.66376876831055 4.176155090332031 30.17950439453125 6.495796203613281 C 24.88084411621094 8.736953735351562 20.12152099609375 11.94598388671875 16.03375244140625 16.03375244140625 C 11.94598388671875 20.12152099609375 8.736953735351562 24.88084411621094 6.495796203613281 30.17950439453125 C 4.176155090332031 35.66376876831055 3 41.49121475219727 3 47.5 C 3 53.50878524780273 4.176155090332031 59.33623123168945 6.495796203613281 64.82049560546875 C 8.736953735351562 70.11915588378906 11.94598388671875 74.87847900390625 16.03375244140625 78.96624755859375 C 20.12152099609375 83.05401611328125 24.88084411621094 86.26304626464844 30.17950439453125 88.50419616699219 C 35.66376876831055 90.82384490966797 41.49121475219727 92 47.5 92 C 53.50878524780273 92 59.33623123168945 90.82384490966797 64.82049560546875 88.50419616699219 C 70.11915588378906 86.26304626464844 74.87847900390625 83.05401611328125 78.96624755859375 78.96624755859375 C 83.05401611328125 74.87847900390625 86.26304626464844 70.11915588378906 88.50419616699219 64.82049560546875 C 90.82384490966797 59.33623123168945 92 53.50878524780273 92 47.5 C 92 41.49121475219727 90.82384490966797 35.66376876831055 88.50419616699219 30.17950439453125 C 86.26304626464844 24.88084411621094 83.05401611328125 20.12152099609375 78.96624755859375 16.03375244140625 C 74.87847900390625 11.94598388671875 70.11915588378906 8.736953735351562 64.82049560546875 6.495796203613281 C 59.33623123168945 4.176155090332031 53.50878524780273 3 47.5 3 M 47.5 0 C 73.7335205078125 0 95 21.2664794921875 95 47.5 C 95 73.7335205078125 73.7335205078125 95 47.5 95 C 21.2664794921875 95 0 73.7335205078125 0 47.5 C 0 21.2664794921875 21.2664794921875 0 47.5 0 Z" stroke="none" fill="#1d7083"/>
                    </g>
                  </g>
                </g>
              </g>
            </g>
          </g>
        </g>
      </g>
    </g>
    <g id="_06-copyright" data-name="06-copyright" transform="translate(341 1335)">
      <path id="Trazado_1041123" data-name="Trazado 1041123" d="M9,63H55V1H21L9,13Z" fill="#f6f6f6"/>
      <path id="Trazado_1041124" data-name="Trazado 1041124" d="M21,1V13H9Z" fill="#999"/>
      <path id="Trazado_1041125" data-name="Trazado 1041125" d="M41.783,13.014c-2.52.146-6.023.943-7.446,3.19-1.805,2.848-4.278,3.028-7.386,3.209a15,15,0,0,0-8.27,2.606c-2.349,1.781-3.9,4.882-3.234,7.789.449,1.968,1.846,3.829,1.41,5.8-.347,1.567-1.745,2.617-2.652,3.93a6.949,6.949,0,0,0-1.047,5.378,6.829,6.829,0,0,0,3.211,4.4A4.822,4.822,0,0,0,19.413,50a10.7,10.7,0,0,0,2.976-1.211,10.576,10.576,0,0,1,6.972-.89c2.2.535,4.131,1.9,6.292,2.6A11.1,11.1,0,0,0,46.082,48.4c1.977-1.683,3.389-4.341,2.847-6.909-.469-2.225-2.307-4.082-2.286-6.357a9.49,9.49,0,0,1,1.6-4.244,27.256,27.256,0,0,0,2-4.7A13.989,13.989,0,0,0,51,22.113a9.284,9.284,0,0,0-2.677-6.593,8.687,8.687,0,0,0-6.54-2.506Z" fill="#cdcdcd"/>
      <path id="Trazado_1041126" data-name="Trazado 1041126" d="M45,26.857V23.143l-3.972-.284A9.221,9.221,0,0,0,39.9,20.132l2.61-3.011-2.627-2.627L36.868,17.1a9.221,9.221,0,0,0-2.727-1.132L33.857,12H30.143l-.284,3.972A9.221,9.221,0,0,0,27.132,17.1l-3.011-2.61-2.627,2.627,2.61,3.011a9.221,9.221,0,0,0-1.132,2.727L19,23.143v3.714l3.972.284A9.221,9.221,0,0,0,24.1,29.868l-2.61,3.011,2.627,2.627,3.011-2.61a9.221,9.221,0,0,0,2.727,1.132L30.143,38h3.714l.284-3.972A9.221,9.221,0,0,0,36.868,32.9l3.011,2.61,2.627-2.627L39.9,29.868a9.221,9.221,0,0,0,1.132-2.727ZM32,29.643A4.643,4.643,0,1,1,36.643,25,4.643,4.643,0,0,1,32,29.643Z" fill="#69d3ff"/>
      <circle id="Elipse_12313" data-name="Elipse 12313" cx="7" cy="7" r="7" transform="translate(43 42)" fill="#ffb05e"/>
      <path id="Trazado_1041127" data-name="Trazado 1041127" d="M50,42a7,7,0,1,0,4.951,2.049A7,7,0,0,0,50,42ZM63,31V50s-3.25,7.95-13,13a31.406,31.406,0,0,1-3.36-2.01A27.64,27.64,0,0,1,37,50V31c0,1.86,2.91,3.37,6.5,3.37S50,32.86,50,31c0,1.54,2,2.84,4.72,3.24a11.381,11.381,0,0,0,1.78.13c3.59,0,6.5-1.51,6.5-3.37Z" fill="#a2e2de"/>
      <circle id="Elipse_12314" data-name="Elipse 12314" cx="7" cy="7" r="7" transform="translate(43 42)" fill="none"/>
      <path id="Trazado_1041128" data-name="Trazado 1041128" d="M63,31c0,1.86-2.91,3.37-6.5,3.37a11.381,11.381,0,0,1-1.78-.13C52,33.84,50,32.54,50,31c0,1.86-2.91,3.37-6.5,3.37S37,32.86,37,31v8H63Z" fill="#53a09b"/>
      <path id="Trazado_1041129" data-name="Trazado 1041129" d="M37,39V50a27.64,27.64,0,0,0,9.64,10.99A31.407,31.407,0,0,0,50,63c9.75-5.05,13-13,13-13V39ZM50,56a7,7,0,1,1,4.951-2.049A7,7,0,0,1,50,56Z" fill="#a2e2de"/>
      <path id="Trazado_1041130" data-name="Trazado 1041130" d="M52.937,48.282a28.676,28.676,0,0,1-8.663,4.739A7,7,0,0,0,55.9,45.236a19.755,19.755,0,0,1-2.963,3.046Z" fill="#fd9b3a"/>
      <path id="Trazado_1041131" data-name="Trazado 1041131" d="M58.994,39a16.568,16.568,0,0,1-3.1,6.236A7,7,0,0,1,44.27,53.021c-1.238.447-2.5.842-3.761,1.185-.27.074-.544.139-.816.208A30.14,30.14,0,0,0,46.64,60.99,31.406,31.406,0,0,0,50,63c9.75-5.05,13-13,13-13V39Z" fill="#66c5bf"/>
      <g id="Grupo_1202422" data-name="Grupo 1202422">
        <path id="Trazado_1041132" data-name="Trazado 1041132" d="M55,32V1H21L9,13V63H45" fill="none" stroke="#252340" stroke-linejoin="round" stroke-width="2"/>
        <path id="Trazado_1041133" data-name="Trazado 1041133" d="M21,1V13H9" fill="none" stroke="#252340" stroke-linejoin="round" stroke-width="2"/>
        <path id="Trazado_1041134" data-name="Trazado 1041134" d="M54.72,34.24a11.381,11.381,0,0,0,1.78.13c3.59,0,6.5-1.51,6.5-3.37V50s-3.25,7.95-13,13a31.407,31.407,0,0,1-3.36-2.01A27.64,27.64,0,0,1,37,50V31c0,1.86,2.91,3.37,6.5,3.37S50,32.86,50,31c0,1.54,2,2.84,4.72,3.24Z" fill="none" stroke="#252340" stroke-linejoin="round" stroke-width="2"/>
        <path id="Trazado_1041135" data-name="Trazado 1041135" d="M37,39H60" fill="none" stroke="#252340" stroke-linejoin="round" stroke-width="2"/>
        <circle id="Elipse_12315" data-name="Elipse 12315" cx="7" cy="7" r="7" transform="translate(43 42)" fill="none" stroke="#252340" stroke-linejoin="round" stroke-width="2"/>
        <path id="Trazado_1041136" data-name="Trazado 1041136" d="M53,50a2.006,2.006,0,0,1-2,2H49a2.006,2.006,0,0,1-2-2V48a2.006,2.006,0,0,1,2-2h2a2.006,2.006,0,0,1,2,2" fill="none" stroke="#252340" stroke-linejoin="round" stroke-width="2"/>
        <path id="Trazado_1041137" data-name="Trazado 1041137" d="M39.9,29.87a9.265,9.265,0,0,0,1.13-2.73L45,26.86V23.14l-3.97-.28a9.265,9.265,0,0,0-1.13-2.73l2.61-3.01-2.63-2.63L36.87,17.1a9.265,9.265,0,0,0-2.73-1.13L33.86,12H30.14l-.28,3.97a9.265,9.265,0,0,0-2.73,1.13l-3.01-2.61-2.63,2.63,2.61,3.01a9.265,9.265,0,0,0-1.13,2.73L19,23.14v3.72l3.97.28a9.265,9.265,0,0,0,1.13,2.73l-2.61,3.01,2.63,2.63,3.01-2.61a9.265,9.265,0,0,0,2.73,1.13L30.14,38h3.72l.28-3.97" fill="none" stroke="#252340" stroke-linejoin="round" stroke-width="2"/>
        <circle id="Elipse_12316" data-name="Elipse 12316" cx="4.64" cy="4.64" r="4.64" transform="translate(27.36 20.36)" fill="none" stroke="#252340" stroke-linejoin="round" stroke-width="2"/>
        <path id="Trazado_1041138" data-name="Trazado 1041138" d="M24,42H34" fill="none" stroke="#252340" stroke-linejoin="round" stroke-width="2"/>
        <path id="Trazado_1041139" data-name="Trazado 1041139" d="M16,46H34" fill="none" stroke="#252340" stroke-linejoin="round" stroke-width="2"/>
        <path id="Trazado_1041140" data-name="Trazado 1041140" d="M16,50H34" fill="none" stroke="#252340" stroke-linejoin="round" stroke-width="2"/>
        <path id="Trazado_1041141" data-name="Trazado 1041141" d="M16,42h2" fill="none" stroke="#252340" stroke-linejoin="round" stroke-width="2"/>
        <path id="Trazado_1041142" data-name="Trazado 1041142" d="M20,42h2" fill="none" stroke="#252340" stroke-linejoin="round" stroke-width="2"/>
      </g>
    </g>
  </g>
</svg>
