<svg xmlns="http://www.w3.org/2000/svg" xmlns:xlink="http://www.w3.org/1999/xlink" width="113" height="113" viewBox="0 0 113 113">
  <defs>
    <filter id="Trazado_982547" x="0" y="0" width="113" height="113" filterUnits="userSpaceOnUse">
      <feOffset dy="3" input="SourceAlpha"/>
      <feGaussianBlur stdDeviation="3" result="blur"/>
      <feFlood flood-opacity="0.161"/>
      <feComposite operator="in" in2="blur"/>
      <feComposite in="SourceGraphic"/>
    </filter>
  </defs>
  <g id="Grupo_1202450" data-name="Grupo 1202450" transform="translate(-743.203 -1313.523)">
    <g id="Grupo_1202353" data-name="Grupo 1202353" transform="translate(472.203 443.108)">
      <g id="Grupo_1174813" data-name="Grupo 1174813" transform="translate(280 876.414)">
        <g id="Grupo_1201680" data-name="Grupo 1201680">
          <g id="Grupo_1201330" data-name="Grupo 1201330">
            <g id="Grupo_1172010" data-name="Grupo 1172010">
              <g id="Grupo_1171046" data-name="Grupo 1171046">
                <g id="Grupo_1148525" data-name="Grupo 1148525">
                  <g transform="matrix(1, 0, 0, 1, -9, -6)" filter="url(#Trazado_982547)">
                    <g id="Trazado_982547-2" data-name="Trazado 982547" transform="translate(9 6)" fill="#e9f9fd">
                      <path d="M 47.5 93.5 C 41.28937149047852 93.5 35.26533508300781 92.28397369384766 29.59518623352051 89.88570404052734 C 24.11771965026855 87.56893157958984 19.19813346862793 84.25196075439453 14.97309303283691 80.02691650390625 C 10.74804019927979 75.80186462402344 7.431066513061523 70.88229370117188 5.114293098449707 65.40481567382812 C 2.716026782989502 59.73468017578125 1.5 53.71062850952148 1.5 47.5 C 1.5 41.28937149047852 2.716026782989502 35.26533508300781 5.114293098449707 29.59518623352051 C 7.431066513061523 24.11771965026855 10.74804019927979 19.19813346862793 14.97309303283691 14.97309303283691 C 19.19813346862793 10.74804019927979 24.11771965026855 7.431066513061523 29.59518623352051 5.114293098449707 C 35.26533508300781 2.716026782989502 41.28937149047852 1.5 47.5 1.5 C 53.71062850952148 1.5 59.73468017578125 2.716026782989502 65.40481567382812 5.114293098449707 C 70.88229370117188 7.431066513061523 75.80186462402344 10.74804019927979 80.02691650390625 14.97309303283691 C 84.25196075439453 19.19813346862793 87.56893157958984 24.11771965026855 89.88570404052734 29.59518623352051 C 92.28397369384766 35.26533508300781 93.5 41.28937149047852 93.5 47.5 C 93.5 53.71062850952148 92.28397369384766 59.73468017578125 89.88570404052734 65.40481567382812 C 87.56893157958984 70.88229370117188 84.25196075439453 75.80186462402344 80.02691650390625 80.02691650390625 C 75.80186462402344 84.25196075439453 70.88229370117188 87.56893157958984 65.40481567382812 89.88570404052734 C 59.73468017578125 92.28397369384766 53.71062850952148 93.5 47.5 93.5 Z" stroke="none"/>
                      <path d="M 47.5 3 C 41.49121475219727 3 35.66376876831055 4.176155090332031 30.17950439453125 6.495796203613281 C 24.88084411621094 8.736953735351562 20.12152099609375 11.94598388671875 16.03375244140625 16.03375244140625 C 11.94598388671875 20.12152099609375 8.736953735351562 24.88084411621094 6.495796203613281 30.17950439453125 C 4.176155090332031 35.66376876831055 3 41.49121475219727 3 47.5 C 3 53.50878524780273 4.176155090332031 59.33623123168945 6.495796203613281 64.82049560546875 C 8.736953735351562 70.11915588378906 11.94598388671875 74.87847900390625 16.03375244140625 78.96624755859375 C 20.12152099609375 83.05401611328125 24.88084411621094 86.26304626464844 30.17950439453125 88.50419616699219 C 35.66376876831055 90.82384490966797 41.49121475219727 92 47.5 92 C 53.50878524780273 92 59.33623123168945 90.82384490966797 64.82049560546875 88.50419616699219 C 70.11915588378906 86.26304626464844 74.87847900390625 83.05401611328125 78.96624755859375 78.96624755859375 C 83.05401611328125 74.87847900390625 86.26304626464844 70.11915588378906 88.50419616699219 64.82049560546875 C 90.82384490966797 59.33623123168945 92 53.50878524780273 92 47.5 C 92 41.49121475219727 90.82384490966797 35.66376876831055 88.50419616699219 30.17950439453125 C 86.26304626464844 24.88084411621094 83.05401611328125 20.12152099609375 78.96624755859375 16.03375244140625 C 74.87847900390625 11.94598388671875 70.11915588378906 8.736953735351562 64.82049560546875 6.495796203613281 C 59.33623123168945 4.176155090332031 53.50878524780273 3 47.5 3 M 47.5 0 C 73.7335205078125 0 95 21.2664794921875 95 47.5 C 95 73.7335205078125 73.7335205078125 95 47.5 95 C 21.2664794921875 95 0 73.7335205078125 0 47.5 C 0 21.2664794921875 21.2664794921875 0 47.5 0 Z" stroke="none" fill="#1d7083"/>
                    </g>
                  </g>
                </g>
              </g>
            </g>
          </g>
        </g>
      </g>
    </g>
    <g id="job-description_3896637" transform="translate(769 1336)">
      <g id="Grupo_1202448" data-name="Grupo 1202448">
        <g id="Grupo_1202424" data-name="Grupo 1202424">
          <path id="Trazado_1041143" data-name="Trazado 1041143" d="M33,5V9H17V4a1,1,0,0,1,1-1H32a1,1,0,0,1,1,1Z" fill="#ffeaa7"/>
        </g>
        <g id="Grupo_1202425" data-name="Grupo 1202425">
          <path id="Trazado_1041144" data-name="Trazado 1041144" d="M43,55v4H23.48A15.074,15.074,0,0,0,28,55Z" fill="#aab2bd"/>
        </g>
        <g id="Grupo_1202426" data-name="Grupo 1202426">
          <path id="Trazado_1041145" data-name="Trazado 1041145" d="M42.11,18.72a1.656,1.656,0,0,1,1.82-.33.035.035,0,0,1,.02.01A1.657,1.657,0,0,1,45,19.91V31.92a1.083,1.083,0,0,1-2.15.18l-.29-1.76A4,4,0,0,0,39,27.02V17.15l2.34,2.34Z" fill="#b27946"/>
        </g>
        <g id="Grupo_1202427" data-name="Grupo 1202427">
          <path id="Trazado_1041146" data-name="Trazado 1041146" d="M43,45V55H28a15.093,15.093,0,0,0,2.14-4H39V34.85c.2.85.36,1.71.49,2.58a14,14,0,0,0,2.67,6.45Z" fill="#b27946"/>
        </g>
        <g id="Grupo_1202428" data-name="Grupo 1202428">
          <path id="Trazado_1041147" data-name="Trazado 1041147" d="M39.28,6.11a1.656,1.656,0,0,1,.33,1.82.035.035,0,0,1-.01.02A1.657,1.657,0,0,1,38.09,9H33V5h5.85l-.34.34Z" fill="#b27946"/>
        </g>
        <g id="Grupo_1202429" data-name="Grupo 1202429">
          <path id="Trazado_1041148" data-name="Trazado 1041148" d="M5,35.8V6A1,1,0,0,1,6,5H17V9H9V32.73a15.009,15.009,0,0,0-3.99,3.08Z" fill="#b27946"/>
        </g>
        <g id="Grupo_1202430" data-name="Grupo 1202430">
          <path id="Trazado_1041149" data-name="Trazado 1041149" d="M9,32.73V9H37v4h1.09a1.657,1.657,0,0,1,1.51,1.05.035.035,0,0,1,.01.02,1.656,1.656,0,0,1-.33,1.82l-.77.77.49.49v9.87c-.12-.01-.25-.02-.38-.02A1.613,1.613,0,0,0,37,28.62v.06a1.668,1.668,0,0,0,.12.62l.59,1.48A28.729,28.729,0,0,1,39,34.85V51H30.14A14.839,14.839,0,0,0,31,46,15.005,15.005,0,0,0,9,32.73ZM33,33V29H29v4Zm0-16V13H13v4H33Z" fill="#e6e9ed"/>
        </g>
        <g id="Grupo_1202431" data-name="Grupo 1202431">
          <path id="Trazado_1041150" data-name="Trazado 1041150" d="M29,29h4v4H29Z" fill="#b4dd7f"/>
        </g>
        <g id="Grupo_1202432" data-name="Grupo 1202432">
          <path id="Trazado_1041151" data-name="Trazado 1041151" d="M17.97,51.08A6.143,6.143,0,0,0,17,51a4,4,0,0,0,4-4h2a2.015,2.015,0,0,0,2-2,2.027,2.027,0,0,0-.8-1.6l.54-1.61A5.246,5.246,0,0,0,25,40.16,5.16,5.16,0,0,0,19.84,35H12.16A5.155,5.155,0,0,0,7,40.16a5.246,5.246,0,0,0,.26,1.63L7.8,43.4A2.027,2.027,0,0,0,7,45a2.015,2.015,0,0,0,2,2h2a4,4,0,0,0,4,4,6.143,6.143,0,0,0-.97.08A6,6,0,0,0,9,57v2.27A15,15,0,1,1,31,46a14.839,14.839,0,0,1-.86,5,14.97,14.97,0,0,1-6.66,8H23V57a6,6,0,0,0-5.03-5.92Z" fill="#ffeaa7"/>
        </g>
        <g id="Grupo_1202433" data-name="Grupo 1202433">
          <path id="Trazado_1041152" data-name="Trazado 1041152" d="M23,59v.27a14.9,14.9,0,0,1-4.08,1.45L17,55l.97-3.92A6,6,0,0,1,23,57Z" fill="#b4dd7f"/>
        </g>
        <g id="Grupo_1202434" data-name="Grupo 1202434">
          <path id="Trazado_1041153" data-name="Trazado 1041153" d="M14.03,51.08,15,55l-1.92,5.72A14.9,14.9,0,0,1,9,59.27V57a6,6,0,0,1,5.03-5.92Z" fill="#b4dd7f"/>
        </g>
        <g id="Grupo_1202435" data-name="Grupo 1202435">
          <path id="Trazado_1041154" data-name="Trazado 1041154" d="M17,55l1.92,5.72a15.366,15.366,0,0,1-5.84,0L15,55Z" fill="#ef7385"/>
        </g>
        <g id="Grupo_1202436" data-name="Grupo 1202436">
          <path id="Trazado_1041155" data-name="Trazado 1041155" d="M17,51a6.143,6.143,0,0,1,.97.08L17,55H15l-.97-3.92A6.143,6.143,0,0,1,15,51Z" fill="#ef7385"/>
        </g>
        <g id="Grupo_1202437" data-name="Grupo 1202437">
          <path id="Trazado_1041156" data-name="Trazado 1041156" d="M24.2,43.4A2.027,2.027,0,0,1,25,45a2.015,2.015,0,0,1-2,2H21V43h2A2.012,2.012,0,0,1,24.2,43.4Z" fill="#f5e0cd"/>
        </g>
        <g id="Grupo_1202438" data-name="Grupo 1202438">
          <path id="Trazado_1041157" data-name="Trazado 1041157" d="M11,43v4H9a2.015,2.015,0,0,1-2-2,2,2,0,0,1,2-2Z" fill="#f5e0cd"/>
        </g>
        <g id="Grupo_1202439" data-name="Grupo 1202439">
          <path id="Trazado_1041158" data-name="Trazado 1041158" d="M21,43v4a4,4,0,0,1-4,4H15a4,4,0,0,1-4-4V43a2.006,2.006,0,0,1,2-2h6A2.006,2.006,0,0,1,21,43Z" fill="#f5e0cd"/>
        </g>
        <g id="Grupo_1202440" data-name="Grupo 1202440">
          <path id="Trazado_1041159" data-name="Trazado 1041159" d="M12.16,35h7.68A5.16,5.16,0,0,1,25,40.16a5.246,5.246,0,0,1-.26,1.63L24.2,43.4A2.012,2.012,0,0,0,23,43H21a2.006,2.006,0,0,0-2-2H13a2.006,2.006,0,0,0-2,2H9a2.012,2.012,0,0,0-1.2.4l-.54-1.61A5.246,5.246,0,0,1,7,40.16,5.155,5.155,0,0,1,12.16,35Z" fill="#b27946"/>
        </g>
        <g id="Grupo_1202441" data-name="Grupo 1202441">
          <path id="Trazado_1041160" data-name="Trazado 1041160" d="M21,13h4v4H21Z" fill="#ef7385"/>
        </g>
        <g id="Grupo_1202442" data-name="Grupo 1202442">
          <path id="Trazado_1041161" data-name="Trazado 1041161" d="M29,13h4v4H29Z" fill="#ef7385"/>
        </g>
        <g id="Grupo_1202443" data-name="Grupo 1202443">
          <path id="Trazado_1041162" data-name="Trazado 1041162" d="M17,13h4v4H17Z" fill="#ef7385"/>
        </g>
        <g id="Grupo_1202444" data-name="Grupo 1202444">
          <path id="Trazado_1041163" data-name="Trazado 1041163" d="M25,13h4v4H25Z" fill="#ef7385"/>
        </g>
        <g id="Grupo_1202445" data-name="Grupo 1202445">
          <path id="Trazado_1041164" data-name="Trazado 1041164" d="M13,13h4v4H13Z" fill="#ef7385"/>
        </g>
        <g id="Grupo_1202446" data-name="Grupo 1202446">
          <path id="Trazado_1041165" data-name="Trazado 1041165" d="M43.93,18.39a1.656,1.656,0,0,0-1.82.33l-.77.77L39,17.15l-.49-.49.77-.77a1.656,1.656,0,0,0,.33-1.82.035.035,0,0,0-.01-.02A1.657,1.657,0,0,0,38.09,13H37V9h1.09A1.657,1.657,0,0,0,39.6,7.95a.035.035,0,0,0,.01-.02,1.656,1.656,0,0,0-.33-1.82l-.77-.77L38.85,5l2.49-2.49.77.77a1.656,1.656,0,0,0,1.82.33.035.035,0,0,0,.02-.01A1.657,1.657,0,0,0,45,2.09V1h4V2.09A1.657,1.657,0,0,0,50.05,3.6a.035.035,0,0,0,.02.01,1.656,1.656,0,0,0,1.82-.33l.77-.77,2.83,2.83-.77.77a1.656,1.656,0,0,0-.33,1.82.035.035,0,0,0,.01.02A1.657,1.657,0,0,0,55.91,9H57v4H55.91a1.657,1.657,0,0,0-1.51,1.05.035.035,0,0,0-.01.02,1.656,1.656,0,0,0,.33,1.82l.77.77-2.83,2.83-.77-.77a1.656,1.656,0,0,0-1.82-.33.035.035,0,0,0-.02.01A1.657,1.657,0,0,0,49,19.91V17a2.015,2.015,0,0,0-2-2,4,4,0,1,0-4-4,4,4,0,0,0,4,4,2.006,2.006,0,0,0-2,2v2.91a1.657,1.657,0,0,0-1.05-1.51.035.035,0,0,0-.02-.01Z" fill="#fcd770"/>
        </g>
        <g id="Grupo_1202447" data-name="Grupo 1202447">
          <path id="Trazado_1041166" data-name="Trazado 1041166" d="M57,29a2.006,2.006,0,0,1,2-2,2.015,2.015,0,0,1,2,2v9.39A11.943,11.943,0,0,1,59,45H43l-.84-1.12a14,14,0,0,1-2.67-6.45c-.13-.87-.29-1.73-.49-2.58a28.728,28.728,0,0,0-1.29-4.07l-.59-1.48a1.668,1.668,0,0,1-.12-.62v-.06A1.613,1.613,0,0,1,38.62,27c.13,0,.26.01.38.02a4,4,0,0,1,3.56,3.32l.29,1.76A1.083,1.083,0,0,0,45,31.92V17a2.006,2.006,0,0,1,2-2,2.015,2.015,0,0,1,2,2v8a2.006,2.006,0,0,1,2-2,2.015,2.015,0,0,1,2,2v2a2.006,2.006,0,0,1,2-2,2.015,2.015,0,0,1,2,2Z" fill="#f5e0cd"/>
        </g>
      </g>
      <g id="Grupo_1202449" data-name="Grupo 1202449">
        <path id="Trazado_1041167" data-name="Trazado 1041167" d="M62,29a2.99,2.99,0,0,0-4.116-2.78,2.975,2.975,0,0,0-4-2A2.95,2.95,0,0,0,50,22.184V19.911a.66.66,0,0,1,.453-.6.651.651,0,0,1,.727.11l1.48,1.48L56.9,16.659l-1.481-1.48a.667.667,0,0,1-.1-.75.656.656,0,0,1,.588-.43H58V8H55.911a.669.669,0,0,1-.6-.453.654.654,0,0,1,.11-.726L56.9,5.34,52.66,1.1,51.18,2.576a.666.666,0,0,1-.75.1A.649.649,0,0,1,50,2.088V0H44V2.088a.66.66,0,0,1-.453.6.656.656,0,0,1-.727-.109L41.34,1.1,38.435,4H34a2,2,0,0,0-2-2H18a2,2,0,0,0-2,2H6A2,2,0,0,0,4,6V35.453A15.981,15.981,0,1,0,28.47,56H42v2H32v2H42v2H60V45.281a12.86,12.86,0,0,0,2-6.887Zm-25.809.671.593,1.483A27.8,27.8,0,0,1,38,35.018V50H31.473A15.97,15.97,0,0,0,10,31.178V10H36v4h2.089a.669.669,0,0,1,.6.453.656.656,0,0,1-.109.726L37.1,16.66l.9.9v8.518a2.643,2.643,0,0,0-2,2.595,2.674,2.674,0,0,0,.191.994ZM40,19.564l1.34,1.34,1.48-1.48a.668.668,0,0,1,.75-.1.648.648,0,0,1,.43.588V31.917c0,.084-.149.1-.164.013l-.294-1.759A4.959,4.959,0,0,0,40,26.211ZM44,11a3,3,0,1,1,3,3A3,3,0,0,1,44,11ZM39.991,5.406l-.067-.066L41.34,3.924l.066.067a2.658,2.658,0,0,0,2.928.533A2.645,2.645,0,0,0,46,2.088V2h2v.088a2.653,2.653,0,0,0,1.684,2.444,2.654,2.654,0,0,0,2.91-.542l.066-.066L54.076,5.34l-.067.067a2.656,2.656,0,0,0-.533,2.927A2.645,2.645,0,0,0,55.911,10H56v2h-.089a2.723,2.723,0,0,0-1.9,4.594l.067.066L52.66,18.076l-.066-.067A2.632,2.632,0,0,0,50,17.363V17a2.981,2.981,0,0,0-.52-1.685,5,5,0,1,0-4.96,0A2.981,2.981,0,0,0,44,17v.362a2.632,2.632,0,0,0-2.594.648l-.066.066L39.924,16.66l.067-.067A2.722,2.722,0,0,0,38.089,12H38V10h.089a2.651,2.651,0,0,0,2.443-1.685,2.651,2.651,0,0,0-.541-2.909ZM37.756,6l.821.82a.667.667,0,0,1,.1.75.656.656,0,0,1-.588.43H34V6ZM32,4V8H18V4ZM16,6V8H8V32.165A16.1,16.1,0,0,0,6,33.53V6ZM12,47V43a1,1,0,0,1,1-1h6a1,1,0,0,1,1,1v4a3,3,0,0,1-3,3H15A3,3,0,0,1,12,47Zm-2-1H9a1,1,0,0,1,0-2h1Zm.184-4H9a2.974,2.974,0,0,0-.593.06l-.193-.58A4.163,4.163,0,0,1,12.162,36h7.676a4.163,4.163,0,0,1,3.949,5.478l-.194.581A3.05,3.05,0,0,0,23,42H21.816A3,3,0,0,0,19,40H16a2,2,0,0,1-2-2H12a3.961,3.961,0,0,0,.579,2.042A2.993,2.993,0,0,0,10.184,42ZM22,44h1a1,1,0,0,1,0,2H22Zm0,14.63a13.934,13.934,0,0,1-2.427.891l-1.532-4.563.656-2.641A4.992,4.992,0,0,1,22,57ZM15.782,54l-.5-2h1.429l-.5,2Zm-1.823.958-1.532,4.563A13.853,13.853,0,0,1,10,58.63V57a4.992,4.992,0,0,1,3.3-4.683Zm.45,4.945,1.31-3.9h.561l1.31,3.9a13.088,13.088,0,0,1-3.181,0ZM24,57.473V57a7,7,0,0,0-3.779-6.208A4.987,4.987,0,0,0,21.9,48H23a3,3,0,0,0,3-3,2.97,2.97,0,0,0-.661-1.855l.345-1.035A6.162,6.162,0,0,0,19.838,34H12.162a6.163,6.163,0,0,0-5.846,8.111l.345,1.033A2.983,2.983,0,0,0,9,48h1.1a4.979,4.979,0,0,0,1.678,2.792A7,7,0,0,0,8,57v.473a14,14,0,1,1,16,0ZM29.835,54a16.005,16.005,0,0,0,.987-2H40V42.285a15.158,15.158,0,0,0,1.363,2.2l.637.849V54ZM58,60H44V46H58Zm2-21.6A10.866,10.866,0,0,1,58.442,44H43.5l-.537-.716a13.089,13.089,0,0,1-2.482-5.995,29.994,29.994,0,0,0-1.839-6.878l-.593-1.482A.788.788,0,0,1,38,28.618.618.618,0,0,1,38.618,28a2.981,2.981,0,0,1,2.951,2.5l.294,1.758A2.083,2.083,0,0,0,46,31.917V17a1,1,0,1,1,2,0V32h2V25a1,1,0,1,1,2,0v7h2V27a1,1,0,1,1,2,0v5h2V29a1,1,0,1,1,2,0Z"/>
        <path id="Trazado_1041168" data-name="Trazado 1041168" d="M12,18H34V12H12Zm12-2H22V14h2Zm2-2h2v2H26Zm-6,2H18V14h2Zm12,0H30V14h2ZM14,14h2v2H14Z"/>
        <path id="Trazado_1041169" data-name="Trazado 1041169" d="M12,20h4v2H12Z"/>
        <path id="Trazado_1041170" data-name="Trazado 1041170" d="M18,20H34v2H18Z"/>
        <path id="Trazado_1041171" data-name="Trazado 1041171" d="M12,24H28v2H12Z"/>
        <path id="Trazado_1041172" data-name="Trazado 1041172" d="M28,34h6V28H28Zm2-4h2v2H30Z"/>
      </g>
    </g>
  </g>
</svg>
