<svg xmlns="http://www.w3.org/2000/svg" xmlns:xlink="http://www.w3.org/1999/xlink" width="113" height="113" viewBox="0 0 113 113">
  <defs>
    <filter id="Trazado_982547" x="0" y="0" width="113" height="113" filterUnits="userSpaceOnUse">
      <feOffset dy="3" input="SourceAlpha"/>
      <feGaussianBlur stdDeviation="3" result="blur"/>
      <feFlood flood-opacity="0.161"/>
      <feComposite operator="in" in2="blur"/>
      <feComposite in="SourceGraphic"/>
    </filter>
  </defs>
  <g id="Grupo_1202477" data-name="Grupo 1202477" transform="translate(-1167.406 -1313.523)">
    <g id="Grupo_1202354" data-name="Grupo 1202354" transform="translate(896.406 443.108)">
      <g id="Grupo_1174813" data-name="Grupo 1174813" transform="translate(280 876.414)">
        <g id="Grupo_1201680" data-name="Grupo 1201680">
          <g id="Grupo_1201330" data-name="Grupo 1201330">
            <g id="Grupo_1172010" data-name="Grupo 1172010">
              <g id="Grupo_1171046" data-name="Grupo 1171046">
                <g id="Grupo_1148525" data-name="Grupo 1148525">
                  <g transform="matrix(1, 0, 0, 1, -9, -6)" filter="url(#Trazado_982547)">
                    <g id="Trazado_982547-2" data-name="Trazado 982547" transform="translate(9 6)" fill="#e9f9fd">
                      <path d="M 47.5 93.5 C 41.28937149047852 93.5 35.26533508300781 92.28397369384766 29.59518623352051 89.88570404052734 C 24.11771965026855 87.56893157958984 19.19813346862793 84.25196075439453 14.97309303283691 80.02691650390625 C 10.74804019927979 75.80186462402344 7.431066513061523 70.88229370117188 5.114293098449707 65.40481567382812 C 2.716026782989502 59.73468017578125 1.5 53.71062850952148 1.5 47.5 C 1.5 41.28937149047852 2.716026782989502 35.26533508300781 5.114293098449707 29.59518623352051 C 7.431066513061523 24.11771965026855 10.74804019927979 19.19813346862793 14.97309303283691 14.97309303283691 C 19.19813346862793 10.74804019927979 24.11771965026855 7.431066513061523 29.59518623352051 5.114293098449707 C 35.26533508300781 2.716026782989502 41.28937149047852 1.5 47.5 1.5 C 53.71062850952148 1.5 59.73468017578125 2.716026782989502 65.40481567382812 5.114293098449707 C 70.88229370117188 7.431066513061523 75.80186462402344 10.74804019927979 80.02691650390625 14.97309303283691 C 84.25196075439453 19.19813346862793 87.56893157958984 24.11771965026855 89.88570404052734 29.59518623352051 C 92.28397369384766 35.26533508300781 93.5 41.28937149047852 93.5 47.5 C 93.5 53.71062850952148 92.28397369384766 59.73468017578125 89.88570404052734 65.40481567382812 C 87.56893157958984 70.88229370117188 84.25196075439453 75.80186462402344 80.02691650390625 80.02691650390625 C 75.80186462402344 84.25196075439453 70.88229370117188 87.56893157958984 65.40481567382812 89.88570404052734 C 59.73468017578125 92.28397369384766 53.71062850952148 93.5 47.5 93.5 Z" stroke="none"/>
                      <path d="M 47.5 3 C 41.49121475219727 3 35.66376876831055 4.176155090332031 30.17950439453125 6.495796203613281 C 24.88084411621094 8.736953735351562 20.12152099609375 11.94598388671875 16.03375244140625 16.03375244140625 C 11.94598388671875 20.12152099609375 8.736953735351562 24.88084411621094 6.495796203613281 30.17950439453125 C 4.176155090332031 35.66376876831055 3 41.49121475219727 3 47.5 C 3 53.50878524780273 4.176155090332031 59.33623123168945 6.495796203613281 64.82049560546875 C 8.736953735351562 70.11915588378906 11.94598388671875 74.87847900390625 16.03375244140625 78.96624755859375 C 20.12152099609375 83.05401611328125 24.88084411621094 86.26304626464844 30.17950439453125 88.50419616699219 C 35.66376876831055 90.82384490966797 41.49121475219727 92 47.5 92 C 53.50878524780273 92 59.33623123168945 90.82384490966797 64.82049560546875 88.50419616699219 C 70.11915588378906 86.26304626464844 74.87847900390625 83.05401611328125 78.96624755859375 78.96624755859375 C 83.05401611328125 74.87847900390625 86.26304626464844 70.11915588378906 88.50419616699219 64.82049560546875 C 90.82384490966797 59.33623123168945 92 53.50878524780273 92 47.5 C 92 41.49121475219727 90.82384490966797 35.66376876831055 88.50419616699219 30.17950439453125 C 86.26304626464844 24.88084411621094 83.05401611328125 20.12152099609375 78.96624755859375 16.03375244140625 C 74.87847900390625 11.94598388671875 70.11915588378906 8.736953735351562 64.82049560546875 6.495796203613281 C 59.33623123168945 4.176155090332031 53.50878524780273 3 47.5 3 M 47.5 0 C 73.7335205078125 0 95 21.2664794921875 95 47.5 C 95 73.7335205078125 73.7335205078125 95 47.5 95 C 21.2664794921875 95 0 73.7335205078125 0 47.5 C 0 21.2664794921875 21.2664794921875 0 47.5 0 Z" stroke="none" fill="#1d7083"/>
                    </g>
                  </g>
                </g>
              </g>
            </g>
          </g>
        </g>
      </g>
    </g>
    <g id="cv_2393436" transform="translate(1195.773 1338.773)">
      <g id="Grupo_1202451" data-name="Grupo 1202451" transform="translate(1.939 1.939)">
        <path id="Trazado_1041173" data-name="Trazado 1041173" d="M45.2,39.566V9.513H37.688V2H2V58.349H45.2V52.714" transform="translate(-2 -2)" fill="#c7e2fc"/>
      </g>
      <g id="Grupo_1202452" data-name="Grupo 1202452" transform="translate(1.939 12.27)">
        <path id="Trazado_1041174" data-name="Trazado 1041174" d="M37.688,50.566C37.688,29.819,23.6,13,6.226,13A26.564,26.564,0,0,0,2,13.347V59.018H36.878A44.62,44.62,0,0,0,37.688,50.566Z" transform="translate(-2 -13)" fill="#ebf7fe"/>
      </g>
      <g id="Grupo_1202453" data-name="Grupo 1202453" transform="translate(37.627 1.939)">
        <path id="Trazado_1041175" data-name="Trazado 1041175" d="M40,2V9.513h7.513Z" transform="translate(-40 -2)" fill="#a1cdfb"/>
      </g>
      <g id="Grupo_1202454" data-name="Grupo 1202454" transform="translate(5.696 5.696)">
        <circle id="Elipse_12317" data-name="Elipse 12317" cx="10.5" cy="10.5" r="10.5" transform="translate(-0.469 -0.469)" fill="#fff"/>
      </g>
      <g id="Grupo_1202455" data-name="Grupo 1202455" transform="translate(11.331 16.026)">
        <path id="Trazado_1041176" data-name="Trazado 1041176" d="M21.392,23.574H12v-4.7A1.878,1.878,0,0,1,13.878,17h5.635a1.878,1.878,0,0,1,1.878,1.878Z" transform="translate(-12 -17)" fill="#f2c351"/>
      </g>
      <g id="Grupo_1202456" data-name="Grupo 1202456" transform="translate(48.897 37.627)">
        <path id="Trazado_1041177" data-name="Trazado 1041177" d="M61.391,56.9H52V40h9.391" transform="translate(-52 -40)" fill="#f2c351"/>
      </g>
      <g id="Grupo_1202457" data-name="Grupo 1202457" transform="translate(14.148 9.452)">
        <path id="Trazado_1041178" data-name="Trazado 1041178" d="M15,10h3.757v3.757H15Z" transform="translate(-15 -10)" fill="#efbe9a"/>
      </g>
      <g id="Grupo_1202458" data-name="Grupo 1202458" transform="translate(25.418 30.114)">
        <path id="Trazado_1041179" data-name="Trazado 1041179" d="M50.479,41.391H43.9l-3.757-3.757V32h-.939a2.817,2.817,0,0,0-2.817,2.817v6.574H27V54.54a1.878,1.878,0,0,0,1.878,1.878h11.27L43.9,54.54h6.574" transform="translate(-27 -32)" fill="#efbe9a"/>
      </g>
      <g id="Grupo_1202459" data-name="Grupo 1202459" transform="translate(1 1)">
        <path id="Trazado_1041180" data-name="Trazado 1041180" d="M45.14,59.227H1.939A.939.939,0,0,1,1,58.288V1.939A.939.939,0,0,1,1.939,1H37.627a.939.939,0,0,1,.939.939V8.513H45.14a.939.939,0,0,1,.939.939V39.505H44.2V10.391H37.627a.939.939,0,0,1-.939-.939V2.878H2.878V57.349H44.2v-4.7h1.878v5.635A.939.939,0,0,1,45.14,59.227Z" transform="translate(-1 -1)"/>
      </g>
      <g id="Grupo_1202460" data-name="Grupo 1202460" transform="translate(36.959 1.279)">
        <path id="Trazado_1041181" data-name="Trazado 1041181" d="M0,0H1.878V10.626H0Z" transform="translate(0 1.328) rotate(-45)"/>
      </g>
      <g id="Grupo_1202461" data-name="Grupo 1202461" transform="translate(13.209 8.513)">
        <path id="Trazado_1041182" data-name="Trazado 1041182" d="M18.7,14.635H14.939A.939.939,0,0,1,14,13.7V9.939A.939.939,0,0,1,14.939,9H18.7a.939.939,0,0,1,.939.939V13.7A.939.939,0,0,1,18.7,14.635Zm-2.817-1.878h1.878V10.878H15.878Z" transform="translate(-14 -9)"/>
      </g>
      <g id="Grupo_1202462" data-name="Grupo 1202462" transform="translate(10.391 15.087)">
        <path id="Trazado_1041183" data-name="Trazado 1041183" d="M21.331,24.452H11.939A.939.939,0,0,1,11,23.513v-4.7A2.821,2.821,0,0,1,13.817,16h5.635a2.821,2.821,0,0,1,2.817,2.817v4.7A.939.939,0,0,1,21.331,24.452Zm-8.452-1.878h7.513V18.817a.94.94,0,0,0-.939-.939H13.817a.94.94,0,0,0-.939.939Z" transform="translate(-11 -16)"/>
      </g>
      <g id="Grupo_1202463" data-name="Grupo 1202463" transform="translate(4.757 4.757)">
        <path id="Trazado_1041184" data-name="Trazado 1041184" d="M16.27,27.54A11.27,11.27,0,1,1,27.54,16.27,11.282,11.282,0,0,1,16.27,27.54Zm0-20.661a9.391,9.391,0,1,0,9.392,9.391A9.4,9.4,0,0,0,16.27,6.878Z" transform="translate(-5 -5)"/>
      </g>
      <g id="Grupo_1202464" data-name="Grupo 1202464" transform="translate(29.174 14.148)">
        <path id="Trazado_1041185" data-name="Trazado 1041185" d="M31,15H44.148v1.878H31Z" transform="translate(-31 -15)"/>
      </g>
      <g id="Grupo_1202465" data-name="Grupo 1202465" transform="translate(29.174 17.905)">
        <path id="Trazado_1041186" data-name="Trazado 1041186" d="M31,19H44.148v1.878H31Z" transform="translate(-31 -19)"/>
      </g>
      <g id="Grupo_1202466" data-name="Grupo 1202466" transform="translate(29.174 21.661)">
        <path id="Trazado_1041187" data-name="Trazado 1041187" d="M31,23H44.148v1.878H31Z" transform="translate(-31 -23)"/>
      </g>
      <g id="Grupo_1202467" data-name="Grupo 1202467" transform="translate(29.174 25.418)">
        <path id="Trazado_1041188" data-name="Trazado 1041188" d="M31,27H44.148v1.878H31Z" transform="translate(-31 -27)"/>
      </g>
      <g id="Grupo_1202468" data-name="Grupo 1202468" transform="translate(4.757 29.174)">
        <path id="Trazado_1041189" data-name="Trazado 1041189" d="M5,31H22.844v1.878H5Z" transform="translate(-5 -31)"/>
      </g>
      <g id="Grupo_1202469" data-name="Grupo 1202469" transform="translate(4.757 32.931)">
        <path id="Trazado_1041190" data-name="Trazado 1041190" d="M5,35H22.844v1.878H5Z" transform="translate(-5 -35)"/>
      </g>
      <g id="Grupo_1202470" data-name="Grupo 1202470" transform="translate(4.757 36.688)">
        <path id="Trazado_1041191" data-name="Trazado 1041191" d="M5,39H22.844v1.878H5Z" transform="translate(-5 -39)"/>
      </g>
      <g id="Grupo_1202471" data-name="Grupo 1202471" transform="translate(4.757 40.444)">
        <path id="Trazado_1041192" data-name="Trazado 1041192" d="M5,43H22.844v1.878H5Z" transform="translate(-5 -43)"/>
      </g>
      <g id="Grupo_1202472" data-name="Grupo 1202472" transform="translate(24.479 49.836)">
        <path id="Trazado_1041193" data-name="Trazado 1041193" d="M40.087,58.635H28.817A2.821,2.821,0,0,1,26,55.817V53.939A.939.939,0,0,1,26.939,53h8.452v1.878H27.878v.939a.94.94,0,0,0,.939.939H39.866l3.558-1.78a.941.941,0,0,1,.42-.1h6.574v1.878H44.065l-3.558,1.78A.941.941,0,0,1,40.087,58.635Z" transform="translate(-26 -53)"/>
      </g>
      <g id="Grupo_1202473" data-name="Grupo 1202473" transform="translate(24.479 46.079)">
        <path id="Trazado_1041194" data-name="Trazado 1041194" d="M35.392,54.635H26.939A.939.939,0,0,1,26,53.7V49.939A.939.939,0,0,1,26.939,49h8.452v1.878H27.878v1.878h7.513Z" transform="translate(-26 -49)"/>
      </g>
      <g id="Grupo_1202474" data-name="Grupo 1202474" transform="translate(24.479 42.323)">
        <path id="Trazado_1041195" data-name="Trazado 1041195" d="M35.392,50.635H26.939A.939.939,0,0,1,26,49.7V45.939A.939.939,0,0,1,26.939,45h8.452v1.878H27.878v1.878h7.513Z" transform="translate(-26 -45)"/>
      </g>
      <g id="Grupo_1202475" data-name="Grupo 1202475" transform="translate(24.479 29.174)">
        <path id="Trazado_1041196" data-name="Trazado 1041196" d="M35.392,46.026H26.939A.939.939,0,0,1,26,45.087V41.331a.939.939,0,0,1,.939-.939h8.452V34.757A3.76,3.76,0,0,1,39.148,31h.939a.939.939,0,0,1,.939.939v5.246l3.206,3.206h6.185V42.27H43.844a.937.937,0,0,1-.664-.275l-3.757-3.757a.935.935,0,0,1-.275-.664v-4.7a1.88,1.88,0,0,0-1.878,1.878v6.574a.939.939,0,0,1-.939.939H27.878v1.878h7.513Z" transform="translate(-26 -31)"/>
      </g>
      <g id="Grupo_1202476" data-name="Grupo 1202476" transform="translate(47.957 36.688)">
        <path id="Trazado_1041197" data-name="Trazado 1041197" d="M62.27,57.783H51.939A.939.939,0,0,1,51,56.844v-16.9A.939.939,0,0,1,51.939,39H62.27v1.878H52.878V55.9H62.27Z" transform="translate(-51 -39)"/>
      </g>
    </g>
  </g>
</svg>
