<svg xmlns="http://www.w3.org/2000/svg" xmlns:xlink="http://www.w3.org/1999/xlink" width="108" height="108" viewBox="0 0 108 108">
  <defs>
    <filter id="Trazado_904820" x="0" y="0" width="108" height="108" filterUnits="userSpaceOnUse">
      <feOffset dy="3" input="SourceAlpha"/>
      <feGaussianBlur stdDeviation="3" result="blur"/>
      <feFlood flood-opacity="0.161"/>
      <feComposite operator="in" in2="blur"/>
      <feComposite in="SourceGraphic"/>
    </filter>
  </defs>
  <g id="Grupo_1202479" data-name="Grupo 1202479" transform="translate(-620 -1709)">
    <g id="Grupo_1202355" data-name="Grupo 1202355" transform="translate(629 1715)">
      <g id="Grupo_1173585" data-name="Grupo 1173585" transform="translate(0 0)">
        <g id="Grupo_1173428" data-name="Grupo 1173428">
          <g id="Grupo_1171958" data-name="Grupo 1171958">
            <g id="Grupo_1167341" data-name="Grupo 1167341">
              <g id="Grupo_1166792" data-name="Grupo 1166792">
                <g transform="matrix(1, 0, 0, 1, -9, -6)" filter="url(#Trazado_904820)">
                  <g id="Trazado_904820-2" data-name="Trazado 904820" transform="translate(9 6)" fill="#e9f9fd">
                    <path d="M 44.99999618530273 88.50004577636719 C 39.12687301635742 88.50004577636719 33.43022155761719 87.35012054443359 28.06829643249512 85.08220672607422 C 22.88852119445801 82.89134216308594 18.23629570007324 79.75463104248047 14.24084663391113 75.75917816162109 C 10.24540901184082 71.76371765136719 7.108683586120605 67.11149597167969 4.917821407318115 61.93173217773438 C 2.649921178817749 56.56979370117188 1.499996185302734 50.87314224243164 1.499996185302734 45.00001907348633 C 1.499996185302734 39.12689590454102 2.649921178817749 33.43024444580078 4.917821407318115 28.06830596923828 C 7.108683586120605 22.88853073120117 10.24540901184082 18.23631858825684 14.24084663391113 14.24086952209473 C 18.23629570007324 10.2454195022583 22.88852119445801 7.108694076538086 28.06829643249512 4.917831420898438 C 33.43022155761719 2.649931669235229 39.12687301635742 1.500006556510925 44.99999618530273 1.500006556510925 C 50.87311935424805 1.500006556510925 56.56977081298828 2.649931669235229 61.93169784545898 4.917831420898438 C 67.11147308349609 7.108694076538086 71.76369476318359 10.2454195022583 75.75914764404297 14.24086952209473 C 79.75458526611328 18.23631858825684 82.89131164550781 22.88853073120117 85.08216857910156 28.06830596923828 C 87.35007476806641 33.43024444580078 88.5 39.12689590454102 88.5 45.00001907348633 C 88.5 50.87314224243164 87.35007476806641 56.56979370117188 85.08216857910156 61.93173217773438 C 82.89131164550781 67.11149597167969 79.75458526611328 71.76371765136719 75.75914764404297 75.75917816162109 C 71.76369476318359 79.75463104248047 67.11147308349609 82.89134216308594 61.93169784545898 85.08220672607422 C 56.56977081298828 87.35012054443359 50.87311935424805 88.50004577636719 44.99999618530273 88.50004577636719 Z" stroke="none"/>
                    <path d="M 44.99999618530273 3.000007629394531 C 39.32870864868164 3.000007629394531 33.82865142822266 4.110061645507812 28.65262603759766 6.299346923828125 C 23.65165710449219 8.414573669433594 19.15968322753906 11.44334411621094 15.301513671875 15.30152130126953 C 11.44333648681641 19.15969085693359 8.414566040039062 23.65166473388672 6.299339294433594 28.65263366699219 C 4.110054016113281 33.82867431640625 2.999992370605469 39.32873153686523 2.999992370605469 45.00001907348633 C 2.999992370605469 50.67130661010742 4.110054016113281 56.17136383056641 6.299339294433594 61.34738922119141 C 8.414566040039062 66.34837341308594 11.44333648681641 70.84033203125 15.301513671875 74.69850158691406 C 19.15968322753906 78.55668640136719 23.65165710449219 81.58546447753906 28.65262603759766 83.70069122314453 C 33.82865142822266 85.88997650146484 39.32870864868164 87.00003051757812 44.99999618530273 87.00003051757812 C 50.67128372192383 87.00003051757812 56.17134094238281 85.88997650146484 61.34736633300781 83.70069122314453 C 66.34834289550781 81.58546447753906 70.84030914306641 78.55668640136719 74.69847869873047 74.69850158691406 C 78.55665588378906 70.84033203125 81.58542633056641 66.34837341308594 83.70065307617188 61.34738922119141 C 85.88993835449219 56.17136383056641 87 50.67130661010742 87 45.00001907348633 C 87 39.32873153686523 85.88993835449219 33.82867431640625 83.70065307617188 28.65263366699219 C 81.58542633056641 23.65166473388672 78.55665588378906 19.15969085693359 74.69847869873047 15.30152130126953 C 70.84030914306641 11.44334411621094 66.34834289550781 8.414573669433594 61.34736633300781 6.299346923828125 C 56.17134094238281 4.110061645507812 50.67128372192383 3.000007629394531 44.99999618530273 3.000007629394531 M 44.99999618530273 7.62939453125e-06 C 69.85281372070312 7.62939453125e-06 90 20.14719390869141 90 45.00001907348633 C 90 69.85282897949219 69.85281372070312 90.00003051757812 44.99999618530273 90.00003051757812 C 20.14717864990234 90.00003051757812 -7.62939453125e-06 69.85282897949219 -7.62939453125e-06 45.00001907348633 C -7.62939453125e-06 20.14719390869141 20.14717864990234 7.62939453125e-06 44.99999618530273 7.62939453125e-06 Z" stroke="none" fill="#1d7083"/>
                  </g>
                </g>
              </g>
            </g>
          </g>
        </g>
      </g>
    </g>
    <g id="employee_16405584" transform="translate(640 1704.317)">
      <g id="Grupo_1202478" data-name="Grupo 1202478" transform="translate(11.496 41.129)">
        <path id="Trazado_1041198" data-name="Trazado 1041198" d="M105.58,246.163h-2.729c-9.035,6.34-14.091,4.5-15.744,18.274-.369,3.079-.448,6.494-.546,9.769a2.952,2.952,0,0,0,2.963,3.057H121.64a2.954,2.954,0,0,0,2.963-3.057c-.1-3.275-.181-6.69-.55-9.769-1.649-13.779-6.7-11.934-15.744-18.274Z" transform="translate(-86.559 -233.194)" fill="#eaf6ff" fill-rule="evenodd"/>
        <path id="Trazado_1041199" data-name="Trazado 1041199" d="M206.57,307.845l-1.9,11.354h6.66l-1.9-11.354Z" transform="translate(-188.979 -286.684)" fill="#fa4655" fill-rule="evenodd"/>
        <path id="Trazado_1041200" data-name="Trazado 1041200" d="M219.609,310.251a6.452,6.452,0,0,1-3.663,0l.407-2.409h2.854Z" transform="translate(-198.762 -286.684)" fill="#e13f4d" fill-rule="evenodd"/>
        <path id="Trazado_1041201" data-name="Trazado 1041201" d="M212.639,276.664l-.489,4.886c-.177,1.483-5.056,1.487-5.206,0l-.489-4.886Z" transform="translate(-190.531 -259.644)" fill="#c73a45" fill-rule="evenodd"/>
        <path id="Trazado_1041202" data-name="Trazado 1041202" d="M135.4,380.357h22.991l1.19-13.82a1.351,1.351,0,0,0-1.348-1.491H135.554a1.305,1.305,0,0,0-1.005.444,1.334,1.334,0,0,0-.346,1.047Z" transform="translate(-127.869 -336.288)" fill="#57a3ff" fill-rule="evenodd"/>
        <path id="Trazado_1041203" data-name="Trazado 1041203" d="M215.5,410.584a2.189,2.189,0,1,0-2.187-2.191A2.189,2.189,0,0,0,215.5,410.584Z" transform="translate(-196.476 -371.982)" fill="#eaf6ff" fill-rule="evenodd"/>
        <path id="Trazado_1041204" data-name="Trazado 1041204" d="M365.937,164.1v12.807a1.572,1.572,0,0,1-1.525,1.611H347.3a1.573,1.573,0,0,1-1.529-1.611V164.1Z" transform="translate(-311.347 -162.029)" fill="#ffba57" fill-rule="evenodd"/>
        <path id="Trazado_1041205" data-name="Trazado 1041205" d="M349.438,148.509h-9.415c-.93,0-1.649.369-1.649,1.491v2.775a2.135,2.135,0,0,0,1.122,1.909,19.229,19.229,0,0,0,19.885,0,2.134,2.134,0,0,0,1.122-1.909V150c0-1.122-.719-1.491-1.649-1.491Z" transform="translate(-304.93 -148.509)" fill="#e6a74e" fill-rule="evenodd"/>
      </g>
      <path id="Trazado_1041206" data-name="Trazado 1041206" d="M409.666,200.553h3.192v4.058h-3.192Z" transform="translate(-355.259 -152.513)" fill="#59616e"/>
      <path id="Trazado_1041207" data-name="Trazado 1041207" d="M7.005,128.979v18.545H22.128V128.979Z" transform="translate(-6.075 -90.444)" fill="#eaf6ff" fill-rule="evenodd"/>
      <path id="Trazado_1041208" data-name="Trazado 1041208" d="M201.631,210.673H209.1v8.885h-7.465Z" transform="translate(-174.852 -161.289)" fill="#fcb079"/>
      <path id="Trazado_1041209" data-name="Trazado 1041209" d="M175.675,251.293l3.735,3.49,4.171,3.9,3.535-5.037c-1.22-.659-2.545-1.4-3.975-2.349l-3.731,3.49-4.175,3.9-3.535-5.037c1.22-.659,2.545-1.4,3.975-2.349Z" transform="translate(-148.897 -196.514)" fill="#d3dde6" fill-rule="evenodd"/>
      <path id="Trazado_1041210" data-name="Trazado 1041210" d="M148.708,47.938h21.534V39.546c0-4.047-3.279-7.232-7.217-6.306a4.809,4.809,0,0,1-3.2-.689c-5.707-2.865-11.113,1.7-11.113,6.995Z" transform="translate(-128.958 -6.056)" fill="#59616e" fill-rule="evenodd"/>
      <path id="Trazado_1041211" data-name="Trazado 1041211" d="M148.075,130.486a2.913,2.913,0,1,1-3.971,1.1,2.913,2.913,0,0,1,3.971-1.1Zm17.035,0a2.914,2.914,0,1,1-3.975,1.1A2.914,2.914,0,0,1,165.111,130.486Z" transform="translate(-124.636 -91.42)" fill="#fcb079" fill-rule="evenodd"/>
      <path id="Trazado_1041212" data-name="Trazado 1041212" d="M209.1,214.046a9.247,9.247,0,0,1-7.465-.008v-3.366H209.1Z" transform="translate(-174.852 -161.289)" fill="#e39e6d" fill-rule="evenodd"/>
      <path id="Trazado_1041213" data-name="Trazado 1041213" d="M184.353,93.1c-3.1.113-8.934.956-9.615-3.158a17.65,17.65,0,0,1-6.814,3.158v7.733a8.214,8.214,0,1,0,16.429,0Z" transform="translate(-145.621 -56.595)" fill="#fdc8a2" fill-rule="evenodd"/>
      <path id="Trazado_1041214" data-name="Trazado 1041214" d="M193.383,141.759a.93.93,0,1,1,1.859,0v1.125a.93.93,0,1,1-1.859,0Zm3.076,7.974a.93.93,0,1,1,0-1.859h3.516a.93.93,0,1,1,0,1.859Zm4.736-7.974a.93.93,0,0,1,1.859,0v1.125a.93.93,0,1,1-1.859,0Z" transform="translate(-167.7 -100.72)" fill="#59616e"/>
      <path id="Trazado_1041215" data-name="Trazado 1041215" d="M151.814,42.438c.708-4.777,5.737-8.5,11.031-5.847a4.845,4.845,0,0,0,3.2.689,5.549,5.549,0,0,1,3.979.5,5.83,5.83,0,0,0-7-4.54,4.809,4.809,0,0,1-3.2-.689c-5.707-2.865-11.113,1.7-11.113,6.995v6.261a2.918,2.918,0,0,1,2.552-1.05V42.565c.188-.041.373-.083.553-.128Z" transform="translate(-128.958 -6.056)" fill="#505763" fill-rule="evenodd"/>
      <path id="Trazado_1041216" data-name="Trazado 1041216" d="M7.005,128.979v18.545h1.22V128.979Z" transform="translate(-6.075 -90.444)" fill="#d3dde6" fill-rule="evenodd"/>
      <path id="Trazado_1041217" data-name="Trazado 1041217" d="M89.7,285.223c1.216-10.119,4.265-11.81,9.378-14.505l-1.212-1.736c-5.956,3.2-9.446,4.243-10.763,15.243-.369,3.079-.448,6.494-.546,9.769a2.952,2.952,0,0,0,2.963,3.057H89.9A2.956,2.956,0,0,1,89.158,295C89.256,291.721,89.339,288.3,89.7,285.223Z" transform="translate(-75.063 -211.854)" fill="#d3dde6" fill-rule="evenodd"/>
      <path id="Trazado_1041218" data-name="Trazado 1041218" d="M138.393,380.357l-1.19-13.82a1.331,1.331,0,0,1,.343-1.047,1.317,1.317,0,0,1,1.005-.444h-3a1.305,1.305,0,0,0-1.005.444,1.334,1.334,0,0,0-.346,1.047l1.193,13.82Z" transform="translate(-116.373 -295.16)" fill="#4e93e6" fill-rule="evenodd"/>
      <path id="Trazado_1041219" data-name="Trazado 1041219" d="M347.813,203.161v-7.744c-.632-.286-1.269-.606-1.9-.96-.049-.027-.094-.053-.139-.083v8.787a1.573,1.573,0,0,0,1.529,1.611h2.04A1.573,1.573,0,0,1,347.813,203.161Z" transform="translate(-299.851 -147.154)" fill="#e6a74e" fill-rule="evenodd"/>
      <path id="Trazado_1041220" data-name="Trazado 1041220" d="M340.828,152.774V150c0-1.122.723-1.491,1.649-1.491h-2.454c-.93,0-1.649.369-1.649,1.491v2.775a2.131,2.131,0,0,0,.983,1.826c.045.03.09.056.139.083.632.354,1.269.674,1.9.96a19.959,19.959,0,0,0,6.445,1.735v-.388a22.1,22.1,0,0,1-5.892-2.307,2.135,2.135,0,0,1-1.122-1.909Z" transform="translate(-293.434 -107.381)" fill="#cf9646" fill-rule="evenodd"/>
      <path id="Trazado_1041221" data-name="Trazado 1041221" d="M409.666,200.553h1.6v4.058h-1.6Z" transform="translate(-355.259 -152.513)" fill="#505763"/>
      <path id="Trazado_1041222" data-name="Trazado 1041222" d="M43.159,65.182a.93.93,0,0,1-.93.93H37.953a.93.93,0,1,1,0-1.859h4.276a.93.93,0,0,1,.93.93ZM34.424,43.091a.93.93,0,0,0,.93-.93V41.036a.93.93,0,1,0-1.859,0v1.126a.93.93,0,0,0,.93.93ZM50.469,82.11a3.888,3.888,0,0,1-3.9,4.015H14.46a3.887,3.887,0,0,1-3.9-4.014l.025-.814c.093-3.036.188-6.176.531-9.039,1.282-10.7,4.753-12.525,10.008-15.294q.583-.307,1.2-.639l.05-.027c1.144-.615,2.38-1.311,3.7-2.172V52.235A9.162,9.162,0,0,1,21.449,45.4a3.845,3.845,0,0,1-2.79-5.7c.05-.089.1-.175.161-.259V33.487a8.972,8.972,0,0,1,4.222-7.59,8.3,8.3,0,0,1,8.238-.236,3.994,3.994,0,0,0,2.573.615,6.441,6.441,0,0,1,5.584,1.217,7.654,7.654,0,0,1,2.777,5.994v5.951A3.844,3.844,0,0,1,39.585,45.4a9.162,9.162,0,0,1-4.648,6.842v1.873c1.829,1.192,3.494,2.07,4.975,2.852,5.251,2.769,8.721,4.6,10,15.293.351,2.929.446,6.143.538,9.251ZM34.352,55.949l-2.48,2.314,2.666,2.49,2.326-3.315c-.795-.441-1.632-.93-2.512-1.489Zm-2.154,6.9.159-1.59-1.848-1.727-1.845,1.726.161,1.6a.956.956,0,0,0,.252.133.922.922,0,0,1,.1.035,4.406,4.406,0,0,0,1.346.186,4.248,4.248,0,0,0,1.334-.2l.046-.017a1.043,1.043,0,0,0,.3-.153Zm-.749,2.158a6.94,6.94,0,0,1-.955.066h-.072a7.141,7.141,0,0,1-.854-.06l-.66,3.938h3.2Zm-.94-8.02L33.077,54.6V53.016a9.107,9.107,0,0,1-5.131,0V54.6Zm9.5-17.119a1.985,1.985,0,0,0-.35-.155v3.761a1.983,1.983,0,0,0,.35-3.606Zm-18.639-.156a1.983,1.983,0,0,0-.351,3.605,2.027,2.027,0,0,0,.351.156Zm.739-4.12a16.57,16.57,0,0,0,6.451-3,.93.93,0,0,1,1.467.6c.434,2.622,3.815,2.649,7.541,2.438.4-.023.778-.044,1.127-.057a.93.93,0,0,1,.964.93v1.3a3.767,3.767,0,0,1,.693.181v-4.5a5.783,5.783,0,0,0-2.072-4.536,4.619,4.619,0,0,0-4-.864,5.685,5.685,0,0,1-3.836-.764,6.4,6.4,0,0,0-6.425.157,7.1,7.1,0,0,0-3.339,6.007v4.5a3.856,3.856,0,0,1,.693-.182v-1.3a.93.93,0,0,1,.74-.91ZM27.359,50.8c.027.01.052.022.077.035a7.262,7.262,0,0,0,6.124.017.92.92,0,0,1,.116-.053A7.294,7.294,0,0,0,37.8,44.239v-5.53a.024.024,0,0,0,0,0V37.484l-.126.007c-2.9.164-7.548.428-9.067-2.665a18.041,18.041,0,0,1-5.377,2.418v7A7.294,7.294,0,0,0,27.359,50.8Zm-3.2,6.641,2.322,3.308,2.663-2.49-2.47-2.307c-.881.559-1.719,1.048-2.514,1.49ZM18.009,84.265,16.9,71.455a2.267,2.267,0,0,1,.577-1.748,2.238,2.238,0,0,1,1.7-.753h7.845l.763-4.55a1.756,1.756,0,0,1-.8-1.278l-.027-.269a.929.929,0,0,1-1.379-.159l-3.062-4.363-.521.275c-5.069,2.672-7.862,4.144-9.028,13.87-.334,2.781-.428,5.879-.519,8.874l-.025.813a2.028,2.028,0,0,0,2.037,2.1ZM42.174,70.954a.389.389,0,0,0-.317-.14H19.178a.389.389,0,0,0-.318.14.413.413,0,0,0-.1.342l1.12,12.969H41.158l1.12-12.97a.4.4,0,0,0-.1-.341ZM48.61,82.165l-.018-.6c-.09-3.067-.184-6.238-.526-9.084-1.165-9.725-3.956-11.2-9.023-13.869l-.533-.282L35.445,62.7a.928.928,0,0,1-1.379.159l-.027.269a.152.152,0,0,1,0,.019,1.747,1.747,0,0,1-.806,1.248L34,68.954h7.86a2.281,2.281,0,0,1,2.274,2.5L43.024,84.265h3.549a2.028,2.028,0,0,0,2.037-2.1ZM33.634,77.538a3.117,3.117,0,1,1-3.117-3.117A3.117,3.117,0,0,1,33.634,77.538Zm-1.859,0A1.257,1.257,0,1,0,30.517,78.8a1.257,1.257,0,0,0,1.257-1.257ZM28.759,49.009h3.516a.93.93,0,1,0,0-1.859H28.759a.93.93,0,0,0,0,1.859Zm-1.22-7.974a.93.93,0,1,0-1.859,0v1.126a.93.93,0,1,0,1.859,0ZM4.265,50.6h8.448a.93.93,0,1,0,0-1.859H4.265a.93.93,0,1,0,0,1.859Zm0-7.473h8.448a.93.93,0,1,0,0-1.86H4.265a.93.93,0,0,0,0,1.86Zm0,3.738h8.448a.93.93,0,0,0,0-1.859H4.265a.93.93,0,0,0,0,1.859Zm11.783,11.14H.93a.93.93,0,0,1-.93-.93V38.532a.93.93,0,0,1,.93-.93H16.049a.93.93,0,0,1,.93.93V57.077a.93.93,0,0,1-.93.93Zm-.93-18.545H1.859V56.147H15.119ZM4.266,54.336h8.448a.93.93,0,1,0,0-1.859H4.265a.93.93,0,0,0,0,1.859ZM68,42.616V45.39a3.07,3.07,0,0,1-.983,2.273V56a2.505,2.505,0,0,1-2.458,2.545H47.447A2.5,2.5,0,0,1,44.992,56V47.666a3.074,3.074,0,0,1-.983-2.275V42.616A2.322,2.322,0,0,1,46.588,40.2H49.25V38.482A2.195,2.195,0,0,1,51.4,36.254h9.2a2.195,2.195,0,0,1,2.154,2.229V40.2h2.662A2.322,2.322,0,0,1,68,42.616ZM51.11,40.2H60.9V38.482a.342.342,0,0,0-.294-.369H51.4a.343.343,0,0,0-.294.369Zm14.046,8.563a21.779,21.779,0,0,1-6.626,2.062v1.272a.93.93,0,0,1-.93.93H54.408a.93.93,0,0,1-.93-.93V50.825a21.672,21.672,0,0,1-6.626-2.062V56a.646.646,0,0,0,.595.685h17.11a.646.646,0,0,0,.6-.685Zm-8.486,2.4V48.968H55.338v2.195Zm9.469-8.546c0-.338,0-.561-.719-.561H46.588c-.719,0-.719.223-.719.561V45.39a1.209,1.209,0,0,0,.642,1.1,20.59,20.59,0,0,0,6.967,2.46v-.91a.93.93,0,0,1,.93-.93H57.6a.93.93,0,0,1,.93.93v.906a20.725,20.725,0,0,0,6.965-2.457,1.207,1.207,0,0,0,.644-1.1Z"/>
    </g>
  </g>
</svg>
