<svg xmlns="http://www.w3.org/2000/svg" width="190" height="88.353" viewBox="0 0 190 88.353">
  <g id="Grupo_1202351" data-name="Grupo 1202351" transform="translate(-1131 -273.717)">
    <g id="Grupo_1201683" data-name="Grupo 1201683" transform="translate(1131 277)">
      <rect id="Rect치ngulo_416279" data-name="Rect치ngulo 416279" width="190" height="65" rx="5" transform="translate(0 10)" fill="#103d47"/>
      <rect id="Rect치ngulo_416280" data-name="Rect치ngulo 416280" width="141" height="85" rx="5" transform="translate(20)" fill="#1d7083"/>
    </g>
    <g id="member_3317723" transform="translate(1180.824 272.717)">
      <g id="Grupo_1202505" data-name="Grupo 1202505" transform="translate(2.425 2.425)">
        <g id="Grupo_1202480" data-name="Grupo 1202480" transform="translate(0 25.651)">
          <ellipse id="Elipse_12318" data-name="Elipse 12318" cx="14.5" cy="14" rx="14.5" ry="14" transform="translate(-0.425 0.277)" fill="#e6e9ed"/>
        </g>
        <g id="Grupo_1202481" data-name="Grupo 1202481" transform="translate(57.002 25.651)">
          <ellipse id="Elipse_12319" data-name="Elipse 12319" cx="14.5" cy="14" rx="14.5" ry="14" transform="translate(-0.427 0.277)" fill="#e6e9ed"/>
        </g>
        <g id="Grupo_1202482" data-name="Grupo 1202482" transform="translate(28.501 0)">
          <circle id="Elipse_12320" data-name="Elipse 12320" cx="15.5" cy="15.5" r="15.5" transform="translate(0.074 -0.072)" fill="#e6e9ed"/>
        </g>
        <g id="Grupo_1202483" data-name="Grupo 1202483" transform="translate(4.688 45.601)">
          <path id="Trazado_1041223" data-name="Trazado 1041223" d="M23.887,37.819A6.891,6.891,0,0,0,17.7,34l-2.85,2.85L12,34a6.891,6.891,0,0,0-6.185,3.819l-.527,1.04a14.175,14.175,0,0,0,9.562,3.691,13.973,13.973,0,0,0,3.734-.5,14.323,14.323,0,0,0,5.828-3.192Z" transform="translate(-5.29 -34)" fill="#b4dd7f"/>
        </g>
        <g id="Grupo_1202484" data-name="Grupo 1202484" transform="translate(5.7 25.651)">
          <path id="Trazado_1041224" data-name="Trazado 1041224" d="M19.467,28.151,14.55,25.7,9.634,28.151a1.429,1.429,0,0,0-.784,1.283V31.4l-1.1-1.1A5.963,5.963,0,0,1,7,22.779l.656-1,.014-.014A14.2,14.2,0,0,1,14.55,20a14.417,14.417,0,0,1,3.064.328v.014a13.688,13.688,0,0,1,3.819,1.425l.014.014.656,1a5.963,5.963,0,0,1-.755,7.524l-1.1,1.1V29.434a1.429,1.429,0,0,0-.784-1.283Z" transform="translate(-6 -20)" fill="#656d78"/>
        </g>
        <g id="Grupo_1202485" data-name="Grupo 1202485" transform="translate(62.702 25.651)">
          <path id="Trazado_1041225" data-name="Trazado 1041225" d="M63.1,26.085A5.954,5.954,0,0,1,61.348,30.3l-1.1,1.1V29.434a1.429,1.429,0,0,0-.784-1.283L54.55,25.7l-4.916,2.451a1.429,1.429,0,0,0-.784,1.283V31.4l-1.1-1.1A5.963,5.963,0,0,1,47,22.779l.656-1,.014-.014a14.444,14.444,0,0,1,3.791-1.425A13.8,13.8,0,0,1,54.55,20a14.2,14.2,0,0,1,6.883,1.767l.014.014.656,1A5.9,5.9,0,0,1,63.1,26.085Z" transform="translate(-46 -20)" fill="#b27946"/>
        </g>
        <g id="Grupo_1202486" data-name="Grupo 1202486" transform="translate(37.051 5.7)">
          <path id="Trazado_1041226" data-name="Trazado 1041226" d="M35.125,6a7.128,7.128,0,0,1,7.125,7.125v6.783a5.169,5.169,0,0,1-1.6,3.734,15.607,15.607,0,0,0-2.679-.542l-.242-.713-.841-2.522a4.255,4.255,0,0,0,2.508-3.89v-2.85l-4.275-2.85-4.275,2.85v2.85a4.281,4.281,0,0,0,2.508,3.89l-.841,2.522-.242.713a15.608,15.608,0,0,0-2.679.542A5.169,5.169,0,0,1,28,19.908V13.125A7.1,7.1,0,0,1,35.125,6Z" transform="translate(-28 -6)" fill="#fcd770"/>
        </g>
        <g id="Grupo_1202487" data-name="Grupo 1202487" transform="translate(34.458 22.088)">
          <path id="Trazado_1041227" data-name="Trazado 1041227" d="M33.291,17.5l.727,2.209a1.984,1.984,0,0,0,3.762,0l.727-2.209.242.713a15.608,15.608,0,0,1,2.679.542,7.5,7.5,0,0,1,.955.485,7,7,0,0,1,2.551,2.793l.684,1.354a15.672,15.672,0,0,1-19.438,0l.684-1.354a7,7,0,0,1,2.551-2.793,7.5,7.5,0,0,1,.955-.485,15.607,15.607,0,0,1,2.679-.542Z" transform="translate(-26.18 -17.5)" fill="#ff826e"/>
        </g>
        <g id="Grupo_1202488" data-name="Grupo 1202488" transform="translate(61.69 45.601)">
          <path id="Trazado_1041228" data-name="Trazado 1041228" d="M63.887,37.819A6.892,6.892,0,0,0,57.7,34l-2.85,2.85L52,34a6.891,6.891,0,0,0-6.185,3.819l-.527,1.04a14.323,14.323,0,0,0,5.828,3.192,13.973,13.973,0,0,0,3.734.5,14.175,14.175,0,0,0,9.562-3.691Z" transform="translate(-45.29 -34)" fill="#75b1f2"/>
        </g>
        <g id="Grupo_1202489" data-name="Grupo 1202489" transform="translate(68.402 42.452)">
          <path id="Trazado_1041229" data-name="Trazado 1041229" d="M54.66,31.8l1.04,3.135-2.85,2.85L50,34.939,51.04,31.8V31.79l1.81.3a5.419,5.419,0,0,0,1.81-.3Z" transform="translate(-50 -31.79)" fill="#f0d0b4"/>
        </g>
        <g id="Grupo_1202490" data-name="Grupo 1202490" transform="translate(65.552 31.351)">
          <path id="Trazado_1041230" data-name="Trazado 1041230" d="M59.4,29.7a5.7,5.7,0,0,1-3.89,5.4,5.419,5.419,0,0,1-1.81.3l-1.81-.3-2.223-1.368A5.736,5.736,0,0,1,48,29.7V27.734a1.429,1.429,0,0,1,.784-1.283L53.7,24l4.916,2.451a1.429,1.429,0,0,1,.784,1.283Z" transform="translate(-48 -24)" fill="#f0d0b4"/>
        </g>
        <g id="Grupo_1202491" data-name="Grupo 1202491" transform="translate(41.569 19.566)">
          <path id="Trazado_1041231" data-name="Trazado 1041231" d="M33.778,16.115a4.324,4.324,0,0,0,1.767-.385l.841,2.522-.727,2.209a1.984,1.984,0,0,1-3.762,0l-.727-2.209.841-2.522Z" transform="translate(-31.17 -15.73)" fill="#f0d0b4"/>
        </g>
        <g id="Grupo_1202492" data-name="Grupo 1202492" transform="translate(39.901 9.975)">
          <path id="Trazado_1041232" data-name="Trazado 1041232" d="M36.042,18.591a4.324,4.324,0,0,1-1.767.385l-1.767-.385A4.281,4.281,0,0,1,30,14.7V11.85L34.275,9l4.275,2.85V14.7A4.255,4.255,0,0,1,36.042,18.591Z" transform="translate(-30 -9)" fill="#f0d0b4"/>
        </g>
        <g id="Grupo_1202493" data-name="Grupo 1202493" transform="translate(11.4 42.452)">
          <path id="Trazado_1041233" data-name="Trazado 1041233" d="M14.66,31.8l1.04,3.135-2.85,2.85L10,34.939,11.04,31.8V31.79l1.81.3a5.419,5.419,0,0,0,1.81-.3Z" transform="translate(-10 -31.79)" fill="#f0d0b4"/>
        </g>
        <g id="Grupo_1202494" data-name="Grupo 1202494" transform="translate(8.55 31.351)">
          <path id="Trazado_1041234" data-name="Trazado 1041234" d="M19.4,29.7a5.7,5.7,0,0,1-3.89,5.4,5.419,5.419,0,0,1-1.81.3l-1.81-.3L9.667,33.733A5.736,5.736,0,0,1,8,29.7V27.734a1.429,1.429,0,0,1,.784-1.283L13.7,24l4.916,2.451a1.429,1.429,0,0,1,.784,1.283Z" transform="translate(-8 -24)" fill="#f0d0b4"/>
        </g>
        <g id="Grupo_1202495" data-name="Grupo 1202495" transform="translate(2.85 74.102)">
          <path id="Trazado_1041235" data-name="Trazado 1041235" d="M12.55,54v8.55H6.85A2.858,2.858,0,0,1,4,59.7V56.85A2.858,2.858,0,0,1,6.85,54Z" transform="translate(-4 -54)" fill="#a0d468"/>
        </g>
        <g id="Grupo_1202496" data-name="Grupo 1202496" transform="translate(68.402 71.366)">
          <path id="Trazado_1041236" data-name="Trazado 1041236" d="M58.55,56.526v5.13l-.941.185a2.966,2.966,0,0,0-.912.356L50.684,65.8a2.932,2.932,0,0,1-.684.3V52.08a2.931,2.931,0,0,1,.684.3L56.7,55.985a2.966,2.966,0,0,0,.912.356Z" transform="translate(-50 -52.08)" fill="#b4dd7f"/>
        </g>
        <g id="Grupo_1202497" data-name="Grupo 1202497" transform="translate(11.4 71.252)">
          <path id="Trazado_1041237" data-name="Trazado 1041237" d="M49.9,52V66.25H11.425A1.429,1.429,0,0,1,10,64.825v-11.4A1.429,1.429,0,0,1,11.425,52H49.9Z" transform="translate(-10 -52)" fill="#b4dd7f"/>
        </g>
        <g id="Grupo_1202498" data-name="Grupo 1202498" transform="translate(76.952 75.812)">
          <path id="Trazado_1041238" data-name="Trazado 1041238" d="M60.3,56.055a1.745,1.745,0,0,1,0,3.42L56,60.33V55.2Z" transform="translate(-56 -55.2)" fill="#aab2bd"/>
        </g>
        <g id="Grupo_1202499" data-name="Grupo 1202499" transform="translate(57.002 71.252)">
          <path id="Trazado_1041239" data-name="Trazado 1041239" d="M42,52h5.7V66.25H42Z" transform="translate(-42 -52)" fill="#fc6e51"/>
        </g>
        <g id="Grupo_1202500" data-name="Grupo 1202500" transform="translate(62.702 71.252)">
          <path id="Trazado_1041240" data-name="Trazado 1041240" d="M51.7,52.114V66.136a2.9,2.9,0,0,1-.784.114H46V52h4.916A2.9,2.9,0,0,1,51.7,52.114Z" transform="translate(-46 -52)" fill="#ff826e"/>
        </g>
        <g id="Grupo_1202501" data-name="Grupo 1202501" transform="translate(51.302 71.252)">
          <path id="Trazado_1041241" data-name="Trazado 1041241" d="M38,52h5.7V66.25H38Z" transform="translate(-38 -52)" fill="#ff826e"/>
        </g>
        <g id="Grupo_1202502" data-name="Grupo 1202502" transform="translate(51.302 51.302)">
          <path id="Trazado_1041242" data-name="Trazado 1041242" d="M43.7,51.2v6.755H38V39.425A1.429,1.429,0,0,1,39.425,38h2.85A1.429,1.429,0,0,1,43.7,39.425Z" transform="translate(-38 -38)" fill="#ffeaa7"/>
        </g>
        <g id="Grupo_1202503" data-name="Grupo 1202503" transform="translate(39.901 39.901)">
          <path id="Trazado_1041243" data-name="Trazado 1041243" d="M35.7,31.425V61.351H30V31.425A1.429,1.429,0,0,1,31.425,30h2.85A1.429,1.429,0,0,1,35.7,31.425Z" transform="translate(-30 -30)" fill="#ffeaa7"/>
        </g>
        <g id="Grupo_1202504" data-name="Grupo 1202504" transform="translate(28.501 54.152)">
          <path id="Trazado_1041244" data-name="Trazado 1041244" d="M22,57.1V41.425A1.429,1.429,0,0,1,23.425,40h2.85A1.429,1.429,0,0,1,27.7,41.425V57.1Z" transform="translate(-22 -40)" fill="#ffeaa7"/>
        </g>
      </g>
      <path id="Trazado_1041245" data-name="Trazado 1041245" d="M83.96,77.7l-5.244-1.047a1.359,1.359,0,0,1-.453-.177l-6.027-3.614a4.268,4.268,0,0,0-2.2-.61H60.852V67.7a30.4,30.4,0,0,0,9.78-10,15.686,15.686,0,1,0,.751-30.862,30.734,30.734,0,0,0-7.709-9.3,17.079,17.079,0,0,0-33.936-2.159A30.3,30.3,0,0,0,18.976,26.839,15.668,15.668,0,1,0,19.721,57.7a30.465,30.465,0,0,0,8.093,8.852H25.226a7.139,7.139,0,0,0-6.981,5.7H15.25A2.853,2.853,0,0,0,12.4,75.1H8.125A4.28,4.28,0,0,0,3.85,79.377v2.85A4.28,4.28,0,0,0,8.125,86.5H12.4a2.853,2.853,0,0,0,2.85,2.85H70.038a4.268,4.268,0,0,0,2.2-.61l6.027-3.615a1.379,1.379,0,0,1,.452-.175L83.959,83.9a3.164,3.164,0,0,0,0-6.2ZM8.125,83.653A1.426,1.426,0,0,1,6.7,82.228v-2.85a1.426,1.426,0,0,1,1.425-1.425H12.4v5.7ZM69.4,86.5h-2.85V75.1H69.4ZM63.7,75.1V86.5h-2.85V75.1ZM58,86.5h-2.85V75.1H58Zm-2.85-14.25v-17.1H58v17.1Zm8.562-37.985a7.322,7.322,0,0,0,2.153,5.112l.752.752a7.086,7.086,0,0,0,3.511,5.485l-.349,1.049a8.268,8.268,0,0,0-5.992,3.818,12.787,12.787,0,0,1-.076-16.216ZM75.1,51.467l1.977-1.977a5.45,5.45,0,0,1,4.361,3l.009.017A12.746,12.746,0,0,1,75.1,55.068ZM74.9,47.642l-1.22,1.22-1.22-1.22.375-1.126a4.219,4.219,0,0,0,1.69,0Zm-1.22-3.89A4.28,4.28,0,0,1,69.4,39.476V37.507l4.275-2.138,4.275,2.138v1.969A4.28,4.28,0,0,1,73.677,43.751Zm-7.762,8.737a5.45,5.45,0,0,1,4.361-3l1.977,1.977v3.6a12.746,12.746,0,0,1-6.346-2.562ZM86.5,42.326a12.764,12.764,0,0,1-2.936,8.157,8.273,8.273,0,0,0-5.992-3.818l-.349-1.047a7.09,7.09,0,0,0,3.511-5.485l.752-.752a7.325,7.325,0,0,0,2.153-5.113A12.764,12.764,0,0,1,86.5,42.326ZM79.584,30.953l.456.687a4.49,4.49,0,0,1,.348,4.388,2.841,2.841,0,0,0-1.161-1.07l-5.549-2.775-5.551,2.775a2.84,2.84,0,0,0-1.161,1.07,4.5,4.5,0,0,1,.349-4.389l.457-.685a12.737,12.737,0,0,1,11.812,0ZM46.6,3.85A14.239,14.239,0,0,1,56.735,28.1a8.321,8.321,0,0,0-2.491-2.8,6.586,6.586,0,0,0,.908-3.268V15.25a8.55,8.55,0,1,0-17.1,0v6.789a6.586,6.586,0,0,0,.908,3.268,8.335,8.335,0,0,0-2.491,2.8A14.239,14.239,0,0,1,46.6,3.85ZM40.9,22.039V18.1a5.674,5.674,0,0,0,2.227,4.489L42.7,23.866a8.427,8.427,0,0,0-1.17.239,3.753,3.753,0,0,1-.631-2.066Zm9.6,1.825-.426-1.277A5.666,5.666,0,0,0,52.3,18.1v3.939a3.735,3.735,0,0,1-.633,2.065A8.385,8.385,0,0,0,50.5,23.865ZM49.452,18.1a2.85,2.85,0,0,1-5.7,0V16.013l2.85-1.9,2.85,1.9Zm-3.7,5.615a4.219,4.219,0,0,0,1.69,0l.265.8-.586,1.76a.574.574,0,0,1-1.047,0l-.587-1.761ZM46.6,10.687l-5.618,3.745a5.673,5.673,0,0,1,11.235,0Zm-3.39,16,.162.487a3.4,3.4,0,0,0,6.457,0l.162-.486a5.452,5.452,0,0,1,4.372,3l.134.268a14.207,14.207,0,0,1-15.794,0l.134-.268A5.452,5.452,0,0,1,43.211,26.688ZM22.582,30.953l.456.687a4.49,4.49,0,0,1,.348,4.388,2.841,2.841,0,0,0-1.161-1.07l-5.549-2.775-5.551,2.775a2.84,2.84,0,0,0-1.161,1.07,4.5,4.5,0,0,1,.349-4.389l.457-.685a12.737,12.737,0,0,1,11.812,0Zm-5.907,12.8A4.28,4.28,0,0,1,12.4,39.476V37.507l4.275-2.138,4.275,2.138v1.969A4.28,4.28,0,0,1,16.675,43.751Zm0,2.85a6.9,6.9,0,0,0,.845-.086l.375,1.126-1.22,1.22-1.22-1.22.375-1.126a6.9,6.9,0,0,0,.845.086Zm-3.4,2.889,1.977,1.977v3.6A12.746,12.746,0,0,1,8.9,52.505l.009-.017A5.448,5.448,0,0,1,13.274,49.49ZM18.1,51.467l1.977-1.977a5.45,5.45,0,0,1,4.361,3l.009.017A12.746,12.746,0,0,1,18.1,55.068Zm8.465-.983a8.273,8.273,0,0,0-5.992-3.818l-.349-1.047a7.09,7.09,0,0,0,3.511-5.485l.752-.752a7.325,7.325,0,0,0,2.153-5.113,12.792,12.792,0,0,1-.076,16.216ZM3.85,42.326a12.757,12.757,0,0,1,2.861-8.059,7.322,7.322,0,0,0,2.153,5.112l.752.752a7.085,7.085,0,0,0,3.51,5.486l-.349,1.049a8.268,8.268,0,0,0-5.992,3.818A12.771,12.771,0,0,1,3.85,42.326ZM22.537,56.855a15.656,15.656,0,0,0-.7-29.313,27.5,27.5,0,0,1,7.708-8.6A17.081,17.081,0,0,0,63.42,21.113a27.912,27.912,0,0,1,5.063,6.441,15.655,15.655,0,0,0-.667,29.3,27.628,27.628,0,0,1-6.964,7.4V55.152A2.853,2.853,0,0,0,58,52.3h-2.85a2.853,2.853,0,0,0-2.85,2.85v17.1h-2.85v-28.5A2.853,2.853,0,0,0,46.6,40.9h-2.85a2.853,2.853,0,0,0-2.85,2.85v22.8h-2.26c-.2,0-.395.024-.59.043V58a2.853,2.853,0,0,0-2.85-2.85h-2.85A2.853,2.853,0,0,0,29.5,58v6.255a27.623,27.623,0,0,1-6.964-7.4Zm24.065,9.7h-2.85v-22.8H46.6ZM35.2,67.574a6.226,6.226,0,0,0-2.85-.979V58H35.2ZM25.226,69.4h6.535a3.417,3.417,0,0,1,2.433,1.008L35.2,71.417l1.008-1.008A3.419,3.419,0,0,1,38.641,69.4H46.6v2.85H21.213a4.269,4.269,0,0,1,4.013-2.85ZM15.25,75.1H52.3V86.5H15.25Zm57,10.309V76.2L76.8,78.919a4.237,4.237,0,0,0,1.159.469v2.83a4.269,4.269,0,0,0-1.157.467ZM83.4,81.11l-2.6.519V79.976l2.6.519a.314.314,0,0,1,0,.616Z"/>
    </g>
  </g>
</svg>
