<svg xmlns="http://www.w3.org/2000/svg" xmlns:xlink="http://www.w3.org/1999/xlink" width="113" height="113" viewBox="0 0 113 113">
  <defs>
    <filter id="Trazado_982547" x="0" y="0" width="113" height="113" filterUnits="userSpaceOnUse">
      <feOffset dy="3" input="SourceAlpha"/>
      <feGaussianBlur stdDeviation="3" result="blur"/>
      <feFlood flood-opacity="0.161"/>
      <feComposite operator="in" in2="blur"/>
      <feComposite in="SourceGraphic"/>
    </filter>
  </defs>
  <g id="Grupo_1202507" data-name="Grupo 1202507" transform="translate(-792 -936.623)">
    <g id="Grupo_1202357" data-name="Grupo 1202357" transform="translate(-1.49 -525)">
      <g id="Grupo_1177632" data-name="Grupo 1177632" transform="translate(-4493 -458.649)">
        <g id="Grupo_1176928" data-name="Grupo 1176928" transform="translate(5295.49 1926.273)">
          <g id="Grupo_1172322" data-name="Grupo 1172322" transform="translate(0 0)">
            <g id="Grupo_1164700" data-name="Grupo 1164700">
              <g id="Grupo_1160931" data-name="Grupo 1160931">
                <g id="Grupo_1160749" data-name="Grupo 1160749">
                  <g id="Grupo_1158891" data-name="Grupo 1158891">
                    <g id="Grupo_1157406" data-name="Grupo 1157406">
                      <g id="Grupo_1155793" data-name="Grupo 1155793">
                        <g id="Grupo_1154704" data-name="Grupo 1154704">
                          <g id="Grupo_1150790" data-name="Grupo 1150790">
                            <g id="Grupo_1154214" data-name="Grupo 1154214">
                              <g id="Grupo_1152583" data-name="Grupo 1152583">
                                <g id="Grupo_1146973" data-name="Grupo 1146973">
                                  <g id="Grupo_1146954" data-name="Grupo 1146954">
                                    <g transform="matrix(1, 0, 0, 1, -9, -6)" filter="url(#Trazado_982547)">
                                      <g id="Trazado_982547-2" data-name="Trazado 982547" transform="translate(9 6)" fill="#f2f7e5">
                                        <path d="M 47.5000114440918 93.49987030029297 C 41.28938293457031 93.49987030029297 35.26534652709961 92.28384399414062 29.5951976776123 89.88558959960938 C 24.11773109436035 87.56881713867188 19.19814491271973 84.25183868408203 14.97310447692871 80.02680206298828 C 10.74805164337158 75.80176544189453 7.43107795715332 70.88218688964844 5.114304542541504 65.40472412109375 C 2.716038227081299 59.73458862304688 1.500011444091797 53.71054840087891 1.500011444091797 47.49993515014648 C 1.500011444091797 41.28932189941406 2.716038227081299 35.26528167724609 5.114304542541504 29.59514808654785 C 7.43107795715332 24.1176815032959 10.74805164337158 19.1981086730957 14.97310447692871 14.97306823730469 C 19.19814491271973 10.74802875518799 24.11773109436035 7.431055068969727 29.5951976776123 5.11428165435791 C 35.26534652709961 2.716028451919556 41.28938293457031 1.500001788139343 47.5000114440918 1.500001788139343 C 53.71063995361328 1.500001788139343 59.73467636108398 2.716028451919556 65.40482330322266 5.11428165435791 C 70.88229370117188 7.431055068969727 75.8018798828125 10.74802875518799 80.02691650390625 14.97306823730469 C 84.25196838378906 19.1981086730957 87.56894683837891 24.1176815032959 89.88571929931641 29.59514808654785 C 92.28398132324219 35.26528167724609 93.50001525878906 41.28932189941406 93.50001525878906 47.49993515014648 C 93.50001525878906 53.71054840087891 92.28398132324219 59.73458862304688 89.88571929931641 65.40472412109375 C 87.56894683837891 70.88218688964844 84.25196838378906 75.80176544189453 80.02691650390625 80.02680206298828 C 75.8018798828125 84.25183868408203 70.88229370117188 87.56881713867188 65.40482330322266 89.88558959960938 C 59.73467636108398 92.28384399414062 53.71063995361328 93.49987030029297 47.5000114440918 93.49987030029297 Z" stroke="none"/>
                                        <path d="M 47.5000114440918 3 C 41.49122619628906 3 35.66378021240234 4.1761474609375 30.17951965332031 6.495796203613281 C 24.880859375 8.7369384765625 20.12153625488281 11.94596862792969 16.03376770019531 16.03373718261719 C 11.94598388671875 20.12149047851562 8.736968994140625 24.88081359863281 6.495811462402344 30.17947387695312 C 4.176162719726562 35.66371917724609 3.000007629394531 41.49116516113281 3.000007629394531 47.49993515014648 C 3.000007629394531 53.50870513916016 4.176162719726562 59.33615112304688 6.495811462402344 64.82039642333984 C 8.736968994140625 70.11905670166016 11.94598388671875 74.87837982177734 16.03376770019531 78.96613311767578 C 20.12153625488281 83.05390167236328 24.880859375 86.26293182373047 30.17951965332031 88.50407409667969 C 35.66378021240234 90.82372283935547 41.49122619628906 91.99987030029297 47.5000114440918 91.99987030029297 C 53.50879669189453 91.99987030029297 59.33624267578125 90.82372283935547 64.82050323486328 88.50407409667969 C 70.11916351318359 86.26293182373047 74.87848663330078 83.05390167236328 78.96625518798828 78.96613311767578 C 83.05403900146484 74.87837982177734 86.2630615234375 70.11905670166016 88.50421142578125 64.82039642333984 C 90.82386016845703 59.33615112304688 92.00001525878906 53.50870513916016 92.00001525878906 47.49993515014648 C 92.00001525878906 41.49116516113281 90.82386016845703 35.66371917724609 88.50421142578125 30.17947387695312 C 86.2630615234375 24.88081359863281 83.05403900146484 20.12149047851562 78.96625518798828 16.03373718261719 C 74.87848663330078 11.94596862792969 70.11916351318359 8.7369384765625 64.82050323486328 6.495796203613281 C 59.33624267578125 4.1761474609375 53.50879669189453 3 47.5000114440918 3 M 47.5000114440918 0 C 73.73353576660156 0 95.00001525878906 21.26644134521484 95.00001525878906 47.49993515014648 C 95.00001525878906 73.73342895507812 73.73353576660156 94.99987030029297 47.5000114440918 94.99987030029297 C 21.26648712158203 94.99987030029297 7.62939453125e-06 73.73342895507812 7.62939453125e-06 47.49993515014648 C 7.62939453125e-06 21.26644134521484 21.26648712158203 0 47.5000114440918 0 Z" stroke="none" fill="#86b60c"/>
                                      </g>
                                    </g>
                                  </g>
                                </g>
                              </g>
                            </g>
                          </g>
                        </g>
                      </g>
                    </g>
                  </g>
                </g>
              </g>
            </g>
          </g>
        </g>
      </g>
    </g>
    <g id="outsourcing_3080470" transform="translate(817 958)">
      <path id="Trazado_1041246" data-name="Trazado 1041246" d="M59,13V57a4,4,0,0,1-4,4H19a4,4,0,0,1-4-4V7a4,4,0,0,1,4-4H50v8a2.006,2.006,0,0,0,2,2Z" fill="#e6e7e8"/>
      <path id="Trazado_1041247" data-name="Trazado 1041247" d="M27,35.3V44a2.006,2.006,0,0,1-2,2H23V59.54A3.839,3.839,0,0,1,24.46,61H19a4,4,0,0,1-4-4V13.41A5.106,5.106,0,0,1,17,13a4.985,4.985,0,0,1,5,5v1h1a2,2,0,0,1,0,4H21.9A5.044,5.044,0,0,1,19,26.59V29h.66a8.532,8.532,0,0,1,2.75.46,8.024,8.024,0,0,1,1.49.68l.19.11A5.837,5.837,0,0,1,27,35.3Z" fill="#d8d7da"/>
      <path id="Trazado_1041248" data-name="Trazado 1041248" d="M9,44h6V61H9Z" fill="#57565c"/>
      <path id="Trazado_1041249" data-name="Trazado 1041249" d="M15,44h6V61H15Z" fill="#57565c"/>
      <path id="Trazado_1041250" data-name="Trazado 1041250" d="M50,3l9,10H52a2.006,2.006,0,0,1-2-2Z" fill="#bcbec0"/>
      <g id="Grupo_1202506" data-name="Grupo 1202506">
        <path id="Trazado_1041251" data-name="Trazado 1041251" d="M46,20l-5,5V22H32V18h9V15Z" fill="#d8d7da"/>
        <path id="Trazado_1041252" data-name="Trazado 1041252" d="M46,34l-5,5V36H32V32h9V29Z" fill="#d8d7da"/>
        <path id="Trazado_1041253" data-name="Trazado 1041253" d="M46,48l-5,5V50H32V46h9V43Z" fill="#d8d7da"/>
      </g>
      <path id="Trazado_1041254" data-name="Trazado 1041254" d="M44,18l-5,5V20H30V16h9V13Z" fill="#ffa733"/>
      <path id="Trazado_1041255" data-name="Trazado 1041255" d="M44,32l-5,5V34H30V30h9V27Z" fill="#ffa733"/>
      <path id="Trazado_1041256" data-name="Trazado 1041256" d="M44,46l-5,5V48H30V44h9V41Z" fill="#ffa733"/>
      <path id="Trazado_1041257" data-name="Trazado 1041257" d="M25,40v2a2.006,2.006,0,0,1-2,2H21V40Z" fill="#ffc477"/>
      <path id="Trazado_1041258" data-name="Trazado 1041258" d="M20.41,27.46,19,31l-2.13-1.6L15,28l2-1h.66a8.532,8.532,0,0,1,2.75.46Z" fill="#1e81ce"/>
      <path id="Trazado_1041259" data-name="Trazado 1041259" d="M21.83,58.17a4.225,4.225,0,0,0-.83-.63A4,4,0,0,0,15,61h8a4.025,4.025,0,0,0-1.17-2.83Z" fill="#3e3d42"/>
      <path id="Trazado_1041260" data-name="Trazado 1041260" d="M22.09,28.25l-.19-.11a8.024,8.024,0,0,0-1.49-.68L19,31l-2.13-1.6L16,32l1,8-2,3-2-3,1-8-.87-2.6L11,31,9.58,27.45a7.35,7.35,0,0,0-1.37.63L8,28.2a6,6,0,0,0-3,5.2V40H9v4H21V40h4V33.3a5.837,5.837,0,0,0-2.91-5.05Z" fill="#3d9ae2"/>
      <path id="Trazado_1041261" data-name="Trazado 1041261" d="M16,32H14l-1,8,2,3,2-3Z" fill="#ff5023"/>
      <path id="Trazado_1041262" data-name="Trazado 1041262" d="M15,28l-1.87,1.4L14,32h2l.87-2.6Z" fill="#ff5023"/>
      <path id="Trazado_1041263" data-name="Trazado 1041263" d="M15,28l-1.87,1.4L11,31,9.58,27.45A7.918,7.918,0,0,1,12.22,27H13Z" fill="#1e81ce"/>
      <path id="Trazado_1041264" data-name="Trazado 1041264" d="M13.83,58.17A4,4,0,0,0,7,61h8a4.025,4.025,0,0,0-1.17-2.83Z" fill="#3e3d42"/>
      <path id="Trazado_1041265" data-name="Trazado 1041265" d="M9,40v4H7a2.006,2.006,0,0,1-2-2V40Z" fill="#ffc477"/>
      <path id="Trazado_1041266" data-name="Trazado 1041266" d="M17,23.59V27l-2,1-2-1V23.59A5.083,5.083,0,0,0,17,23.59Z" fill="#ffc477"/>
      <path id="Trazado_1041267" data-name="Trazado 1041267" d="M21,17a2,2,0,0,1,0,4H19.9a4.712,4.712,0,0,0,.1-1V17Z" fill="#ffb655"/>
      <path id="Trazado_1041268" data-name="Trazado 1041268" d="M20,16v1H19a3,3,0,0,1-3-3,3,3,0,0,1-3,3H10V16a5,5,0,0,1,10,0Z" fill="#57565c"/>
      <path id="Trazado_1041269" data-name="Trazado 1041269" d="M10.1,21H9a2,2,0,0,1,0-4h1v3a4.712,4.712,0,0,0,.1,1Z" fill="#ffb655"/>
      <path id="Trazado_1041270" data-name="Trazado 1041270" d="M17,23v2.59a5.083,5.083,0,0,1-4,0V23Z" fill="#ffb655"/>
      <path id="Trazado_1041271" data-name="Trazado 1041271" d="M20,17v3a4.712,4.712,0,0,1-.1,1,5,5,0,0,1-9.8,0,4.712,4.712,0,0,1-.1-1V17h3a3,3,0,0,0,3-3,3,3,0,0,0,3,3Z" fill="#ffc477"/>
      <path id="Trazado_1041272" data-name="Trazado 1041272" d="M59.74,12.33l-9-10A1,1,0,0,0,50,2H19a5,5,0,0,0-5,5v3.09A6.007,6.007,0,0,0,9,16v.01a3.061,3.061,0,0,0-2.84,2.01A3,3,0,0,0,9,22h.35A6.044,6.044,0,0,0,12,25.19V26a9.084,9.084,0,0,0-4.29,1.21l-.21.12A7.038,7.038,0,0,0,4,33.4V42a3.009,3.009,0,0,0,3,3H8V57.03A4.952,4.952,0,0,0,6,61a1,1,0,0,0,1,1H55a5,5,0,0,0,5-5V13a.971.971,0,0,0-.26-.67ZM9,20a1.028,1.028,0,0,1-.82-.42,1.012,1.012,0,0,1-.12-.93A1.055,1.055,0,0,1,9,18.01ZM51,5.61,56.75,12H52a1,1,0,0,1-1-1ZM15,12a4,4,0,0,1,4,4,2.006,2.006,0,0,1-2-2,1,1,0,1,0-2,0,2.006,2.006,0,0,1-2,2H11a4,4,0,0,1,4-4Zm-4,8V18h2a4,4,0,0,0,3-1.36A4,4,0,0,0,19,18v2a4,4,0,0,1-8,0ZM22,39V34H20v9H16.2l1.63-2.45a.99.99,0,0,0,.16-.67l-.97-7.78.36-1.07,1.02.77a1.029,1.029,0,0,0,.6.2.842.842,0,0,0,.27-.04,1,1,0,0,0,.66-.59l1.03-2.58c.15.07.3.13.44.21l.19.12A4.833,4.833,0,0,1,24,33.3V39Zm2,2v1a1,1,0,0,1-1,1H22V41ZM18.56,29.42l-1.67-1.25.35-.17h.42a7.315,7.315,0,0,1,1.4.15ZM12.22,28h.54l.35.17-1.67,1.25-.51-1.29A7.054,7.054,0,0,1,12.22,28ZM8,43H7a1,1,0,0,1-1-1V41H8Zm0-4H6V33.4a5.018,5.018,0,0,1,2.5-4.33l.21-.13c.1-.06.22-.1.33-.16l1.03,2.59a1,1,0,0,0,.66.59A.842.842,0,0,0,11,32a1.029,1.029,0,0,0,.6-.2l1.02-.77.36,1.07-.97,7.78a.99.99,0,0,0,.16.67L13.8,43H10V34H8Zm.17,21a3,3,0,0,1,5.66,0ZM14,57.03A4.924,4.924,0,0,0,11,56a5.468,5.468,0,0,0-1,.1V45h4Zm0-31.12A6.638,6.638,0,0,0,15,26a6.638,6.638,0,0,0,1-.09v.47l-1,.5-1-.5Zm1.69,3.86L15.28,31h-.56l-.41-1.23.69-.52ZM15,41.2l-.96-1.45L14.88,33h.24l.84,6.75ZM16,45h4V56.1a5.468,5.468,0,0,0-1-.1,4.924,4.924,0,0,0-3,1.03Zm.17,15a3,3,0,0,1,5.66,0ZM58,57a3.009,3.009,0,0,1-3,3H23.9A5.013,5.013,0,0,0,22,57.03V45h1a3.009,3.009,0,0,0,3-3V33.3a6.845,6.845,0,0,0-3.41-5.91l-.19-.12A9.485,9.485,0,0,0,18,26.01v-.82A6.044,6.044,0,0,0,20.65,22H21a3,3,0,0,0,2.84-3.97A3.056,3.056,0,0,0,21,16.01V16a6.007,6.007,0,0,0-5-5.91V7a3.009,3.009,0,0,1,3-3H49v7a3.009,3.009,0,0,0,3,3h6ZM21,20V18.01a1.047,1.047,0,0,1,.94.65,1,1,0,0,1-.12.92A1.028,1.028,0,0,1,21,20Z"/>
      <path id="Trazado_1041273" data-name="Trazado 1041273" d="M39.707,26.293A1,1,0,0,0,38,27v2H30v2h9a1,1,0,0,0,1-1v-.586L42.586,32,40,34.586V34a1,1,0,0,0-1-1H30v2h8v2a1,1,0,0,0,.617.924A.987.987,0,0,0,39,38a1,1,0,0,0,.707-.293l5-5a1,1,0,0,0,0-1.414Z"/>
      <path id="Trazado_1041274" data-name="Trazado 1041274" d="M39.707,12.293A1,1,0,0,0,38,13v2H30v2h9a1,1,0,0,0,1-1v-.586L42.586,18,40,20.586V20a1,1,0,0,0-1-1H30v2h8v2a1,1,0,0,0,.617.924A.987.987,0,0,0,39,24a1,1,0,0,0,.707-.293l5-5a1,1,0,0,0,0-1.414Z"/>
      <path id="Trazado_1041275" data-name="Trazado 1041275" d="M39.707,40.293A1,1,0,0,0,38,41v2H30v2h9a1,1,0,0,0,1-1v-.586L42.586,46,40,48.586V48a1,1,0,0,0-1-1H30v2h8v2a1,1,0,0,0,.617.924A.987.987,0,0,0,39,52a1,1,0,0,0,.707-.293l5-5a1,1,0,0,0,0-1.414Z"/>
    </g>
  </g>
</svg>
