<svg xmlns="http://www.w3.org/2000/svg" xmlns:xlink="http://www.w3.org/1999/xlink" width="113" height="113" viewBox="0 0 113 113">
  <defs>
    <filter id="Trazado_982547" x="0" y="0" width="113" height="113" filterUnits="userSpaceOnUse">
      <feOffset dy="3" input="SourceAlpha"/>
      <feGaussianBlur stdDeviation="3" result="blur"/>
      <feFlood flood-opacity="0.161"/>
      <feComposite operator="in" in2="blur"/>
      <feComposite in="SourceGraphic"/>
    </filter>
  </defs>
  <g id="Grupo_1202509" data-name="Grupo 1202509" transform="translate(-1111 -936.623)">
    <g id="Grupo_1202358" data-name="Grupo 1202358" transform="translate(317.51 -525)">
      <g id="Grupo_1177632" data-name="Grupo 1177632" transform="translate(-4493 -458.649)">
        <g id="Grupo_1176928" data-name="Grupo 1176928" transform="translate(5295.49 1926.273)">
          <g id="Grupo_1172322" data-name="Grupo 1172322" transform="translate(0 0)">
            <g id="Grupo_1164700" data-name="Grupo 1164700">
              <g id="Grupo_1160931" data-name="Grupo 1160931">
                <g id="Grupo_1160749" data-name="Grupo 1160749">
                  <g id="Grupo_1158891" data-name="Grupo 1158891">
                    <g id="Grupo_1157406" data-name="Grupo 1157406">
                      <g id="Grupo_1155793" data-name="Grupo 1155793">
                        <g id="Grupo_1154704" data-name="Grupo 1154704">
                          <g id="Grupo_1150790" data-name="Grupo 1150790">
                            <g id="Grupo_1154214" data-name="Grupo 1154214">
                              <g id="Grupo_1152583" data-name="Grupo 1152583">
                                <g id="Grupo_1146973" data-name="Grupo 1146973">
                                  <g id="Grupo_1146954" data-name="Grupo 1146954">
                                    <g transform="matrix(1, 0, 0, 1, -9, -6)" filter="url(#Trazado_982547)">
                                      <g id="Trazado_982547-2" data-name="Trazado 982547" transform="translate(9 6)" fill="#f2f7e5">
                                        <path d="M 47.5000114440918 93.49987030029297 C 41.28938293457031 93.49987030029297 35.26534652709961 92.28384399414062 29.5951976776123 89.88558959960938 C 24.11773109436035 87.56881713867188 19.19814491271973 84.25183868408203 14.97310447692871 80.02680206298828 C 10.74805164337158 75.80176544189453 7.43107795715332 70.88218688964844 5.114304542541504 65.40472412109375 C 2.716038227081299 59.73458862304688 1.500011444091797 53.71054840087891 1.500011444091797 47.49993515014648 C 1.500011444091797 41.28932189941406 2.716038227081299 35.26528167724609 5.114304542541504 29.59514808654785 C 7.43107795715332 24.1176815032959 10.74805164337158 19.1981086730957 14.97310447692871 14.97306823730469 C 19.19814491271973 10.74802875518799 24.11773109436035 7.431055068969727 29.5951976776123 5.11428165435791 C 35.26534652709961 2.716028451919556 41.28938293457031 1.500001788139343 47.5000114440918 1.500001788139343 C 53.71063995361328 1.500001788139343 59.73467636108398 2.716028451919556 65.40482330322266 5.11428165435791 C 70.88229370117188 7.431055068969727 75.8018798828125 10.74802875518799 80.02691650390625 14.97306823730469 C 84.25196838378906 19.1981086730957 87.56894683837891 24.1176815032959 89.88571929931641 29.59514808654785 C 92.28398132324219 35.26528167724609 93.50001525878906 41.28932189941406 93.50001525878906 47.49993515014648 C 93.50001525878906 53.71054840087891 92.28398132324219 59.73458862304688 89.88571929931641 65.40472412109375 C 87.56894683837891 70.88218688964844 84.25196838378906 75.80176544189453 80.02691650390625 80.02680206298828 C 75.8018798828125 84.25183868408203 70.88229370117188 87.56881713867188 65.40482330322266 89.88558959960938 C 59.73467636108398 92.28384399414062 53.71063995361328 93.49987030029297 47.5000114440918 93.49987030029297 Z" stroke="none"/>
                                        <path d="M 47.5000114440918 3 C 41.49122619628906 3 35.66378021240234 4.1761474609375 30.17951965332031 6.495796203613281 C 24.880859375 8.7369384765625 20.12153625488281 11.94596862792969 16.03376770019531 16.03373718261719 C 11.94598388671875 20.12149047851562 8.736968994140625 24.88081359863281 6.495811462402344 30.17947387695312 C 4.176162719726562 35.66371917724609 3.000007629394531 41.49116516113281 3.000007629394531 47.49993515014648 C 3.000007629394531 53.50870513916016 4.176162719726562 59.33615112304688 6.495811462402344 64.82039642333984 C 8.736968994140625 70.11905670166016 11.94598388671875 74.87837982177734 16.03376770019531 78.96613311767578 C 20.12153625488281 83.05390167236328 24.880859375 86.26293182373047 30.17951965332031 88.50407409667969 C 35.66378021240234 90.82372283935547 41.49122619628906 91.99987030029297 47.5000114440918 91.99987030029297 C 53.50879669189453 91.99987030029297 59.33624267578125 90.82372283935547 64.82050323486328 88.50407409667969 C 70.11916351318359 86.26293182373047 74.87848663330078 83.05390167236328 78.96625518798828 78.96613311767578 C 83.05403900146484 74.87837982177734 86.2630615234375 70.11905670166016 88.50421142578125 64.82039642333984 C 90.82386016845703 59.33615112304688 92.00001525878906 53.50870513916016 92.00001525878906 47.49993515014648 C 92.00001525878906 41.49116516113281 90.82386016845703 35.66371917724609 88.50421142578125 30.17947387695312 C 86.2630615234375 24.88081359863281 83.05403900146484 20.12149047851562 78.96625518798828 16.03373718261719 C 74.87848663330078 11.94596862792969 70.11916351318359 8.7369384765625 64.82050323486328 6.495796203613281 C 59.33624267578125 4.1761474609375 53.50879669189453 3 47.5000114440918 3 M 47.5000114440918 0 C 73.73353576660156 0 95.00001525878906 21.26644134521484 95.00001525878906 47.49993515014648 C 95.00001525878906 73.73342895507812 73.73353576660156 94.99987030029297 47.5000114440918 94.99987030029297 C 21.26648712158203 94.99987030029297 7.62939453125e-06 73.73342895507812 7.62939453125e-06 47.49993515014648 C 7.62939453125e-06 21.26644134521484 21.26648712158203 0 47.5000114440918 0 Z" stroke="none" fill="#86b60c"/>
                                      </g>
                                    </g>
                                  </g>
                                </g>
                              </g>
                            </g>
                          </g>
                        </g>
                      </g>
                    </g>
                  </g>
                </g>
              </g>
            </g>
          </g>
        </g>
      </g>
    </g>
    <g id="emotional-regulation_18254732" transform="translate(1112.817 954.667)">
      <g id="Grupo_1202508" data-name="Grupo 1202508" transform="translate(23.906 6.926)">
        <path id="Trazado_1041276" data-name="Trazado 1041276" d="M168.979,375.65h7.334v2.86a3.46,3.46,0,0,0,2.036,3.2c3.439,1.6,8.27,1.979,8.27,6.432v4.647a.648.648,0,0,1-.648.648H159.318a.65.65,0,0,1-.648-.648V388.14c0-4.453,4.83-4.826,8.27-6.432a3.459,3.459,0,0,0,2.04-3.2Z" transform="translate(-141.38 -330.542)" fill="#0593fc" fill-rule="evenodd"/>
        <path id="Trazado_1041277" data-name="Trazado 1041277" d="M225.955,375.65h7.334v2.86a3.468,3.468,0,0,0,1.14,2.612,5.077,5.077,0,0,1-9.619,0,3.454,3.454,0,0,0,1.143-2.612v-2.86Z" transform="translate(-198.355 -330.542)" fill="#e2aa73" fill-rule="evenodd"/>
        <path id="Trazado_1041278" data-name="Trazado 1041278" d="M188.77,258.253h19.565c0-4.5.747-7.843-4.48-8.274a.668.668,0,0,1-.564-.374.607.607,0,0,1,.065-.648l.869-1.171a.614.614,0,0,0,.046-.675.672.672,0,0,0-.61-.351h-6.291c-4.445,0-8.6,2.692-8.6,7.221Z" transform="translate(-167.309 -219.511)" fill="#303542" fill-rule="evenodd"/>
        <path id="Trazado_1041279" data-name="Trazado 1041279" d="M190.4,317.95h16.31a1.632,1.632,0,0,1,1.628,1.628v2.074a1.632,1.632,0,0,1-1.628,1.628H190.4a1.632,1.632,0,0,1-1.628-1.628v-2.074A1.632,1.632,0,0,1,190.4,317.95Z" transform="translate(-167.309 -280.837)" fill="#e2aa73" fill-rule="evenodd"/>
        <path id="Trazado_1041280" data-name="Trazado 1041280" d="M220.292,294.629l.9.6a2.666,2.666,0,0,0,1.548.468h.527a2.015,2.015,0,0,1,2.009,2.013v4.369a6.4,6.4,0,0,1-6.378,6.378h-.309a6.4,6.4,0,0,1-6.382-6.378v-4.369a2.016,2.016,0,0,1,2.013-2.013h.527a2.666,2.666,0,0,0,1.548-.468l.9-.6A2.73,2.73,0,0,1,220.292,294.629Z" transform="translate(-187.501 -260.333)" fill="#fbbd80" fill-rule="evenodd"/>
        <path id="Trazado_1041281" data-name="Trazado 1041281" d="M201.372,67.573a8,8,0,0,0,2-.831.468.468,0,0,1,.468-.011l1.167.59a.481.481,0,0,0,.572-.091l1.178-1.178a.48.48,0,0,0,.091-.572l-.59-1.163a.475.475,0,0,1,.011-.473,7.978,7.978,0,0,0,.827-2,.485.485,0,0,1,.324-.344l1.243-.4A.488.488,0,0,0,209,60.63V58.96a.485.485,0,0,0-.339-.468l-1.243-.4a.485.485,0,0,1-.324-.344,7.978,7.978,0,0,0-.827-2,.475.475,0,0,1-.011-.473l.59-1.163a.48.48,0,0,0-.091-.572l-1.178-1.182a.494.494,0,0,0-.572-.091l-1.167.594a.468.468,0,0,1-.468-.015,8.169,8.169,0,0,0-2-.827.485.485,0,0,1-.344-.324l-.4-1.239a.488.488,0,0,0-.468-.344h-1.67a.48.48,0,0,0-.468.344l-.4,1.239a.478.478,0,0,1-.344.324,8.082,8.082,0,0,0-2,.827.476.476,0,0,1-.473.015l-1.163-.594a.492.492,0,0,0-.572.091l-1.182,1.182a.486.486,0,0,0-.091.572l.594,1.163a.486.486,0,0,1-.015.473,8.083,8.083,0,0,0-.827,2,.485.485,0,0,1-.324.344l-1.243.4a.488.488,0,0,0-.339.468v1.67a.485.485,0,0,0,.339.468l1.243.4a.485.485,0,0,1,.324.344,8.083,8.083,0,0,0,.827,2,.486.486,0,0,1,.015.473l-.594,1.163a.487.487,0,0,0,.091.572l1.182,1.178a.479.479,0,0,0,.572.091l1.163-.59a.475.475,0,0,1,.473.011,7.988,7.988,0,0,0,2,.831.478.478,0,0,1,.344.324l.4,1.239a.484.484,0,0,0,.468.339h1.67a.485.485,0,0,0,.468-.339l.4-1.239A.485.485,0,0,1,201.372,67.573Z" transform="translate(-168.059 -50.11)" fill="#2f5274" fill-rule="evenodd"/>
        <path id="Trazado_1041282" data-name="Trazado 1041282" d="M233.37,89.63a4.21,4.21,0,1,1-4.21,4.21A4.207,4.207,0,0,1,233.37,89.63Z" transform="translate(-202.102 -84.154)" fill="#e2e7f0" fill-rule="evenodd"/>
        <path id="Trazado_1041283" data-name="Trazado 1041283" d="M368.688,196.611a8.146,8.146,0,1,0-8.148-8.143A8.161,8.161,0,0,0,368.688,196.611Z" transform="translate(-315.278 -162.277)" fill="#ffd400" fill-rule="evenodd"/>
        <path id="Trazado_1041284" data-name="Trazado 1041284" d="M42.033,196.611a8.146,8.146,0,1,0-8.143-8.143A8.163,8.163,0,0,0,42.033,196.611Z" transform="translate(-33.89 -162.277)" fill="#ff4646" fill-rule="evenodd"/>
        <path id="Trazado_1041285" data-name="Trazado 1041285" d="M230.251,93.84a4.215,4.215,0,0,1,3.664-4.175,4.212,4.212,0,1,0,0,8.346A4.207,4.207,0,0,1,230.251,93.84Z" transform="translate(-202.102 -84.154)" fill="#cbd0d8" fill-rule="evenodd"/>
        <path id="Trazado_1041286" data-name="Trazado 1041286" d="M35.732,188.468a8.149,8.149,0,0,1,7.225-8.1,8.146,8.146,0,1,0,0,16.191,8.148,8.148,0,0,1-7.225-8.094Z" transform="translate(-33.89 -162.277)" fill="#e63f3f" fill-rule="evenodd"/>
        <path id="Trazado_1041287" data-name="Trazado 1041287" d="M368.688,180.32a8.146,8.146,0,1,0,0,16.291,8.052,8.052,0,0,0,.919-.05,8.148,8.148,0,0,1,0-16.191A8.059,8.059,0,0,0,368.688,180.32Z" transform="translate(-315.278 -162.277)" fill="#e6bf00" fill-rule="evenodd"/>
      </g>
      <path id="Trazado_1041288" data-name="Trazado 1041288" d="M63.89,57.842c-.87-.306-1.693-.6-2.44-.944a2.432,2.432,0,0,1-1.434-2.248v-.36a7.613,7.613,0,0,0,2.674-4.142h.754a2.769,2.769,0,0,0,2.767-2.763V45.277c0-.515.01-1.02.019-1.508.04-2.026.075-3.776-.6-5.209-.705-1.5-2.091-2.386-4.223-2.706l.41-.551a1.735,1.735,0,0,0,.132-1.875l-.007-.012a1.8,1.8,0,0,0-1.588-.924H53.958a11,11,0,0,0-6.744,2.177,7.8,7.8,0,0,0-3.1,6.27v6.449a2.766,2.766,0,0,0,2.763,2.763h.761a7.614,7.614,0,0,0,2.713,4.175v.328a2.39,2.39,0,0,1-.761,1.8c-.025.021-.05.043-.073.067a2.661,2.661,0,0,1-.6.382c-.75.349-1.571.639-2.443.945-2.94,1.034-6.6,2.321-6.6,6.6v4.721a1.772,1.772,0,0,0,1.769,1.769H68.723a1.772,1.772,0,0,0,1.769-1.769V64.442c0-4.279-3.662-5.566-6.6-6.6ZM52.108,52.856a1.173,1.173,0,0,0-.119-.078,5.378,5.378,0,0,1-2.326-3.855h0a5.561,5.561,0,0,1-.033-.592V43.892a.934.934,0,0,1,.933-.933H51.1a3.822,3.822,0,0,0,2.192-.666l.915-.612a1.679,1.679,0,0,1,1.914,0l.915.612a3.815,3.815,0,0,0,2.188.666h.538a.934.934,0,0,1,.933.933v4.438a5.536,5.536,0,0,1-.033.59v0a5.375,5.375,0,0,1-2.3,3.837.988.988,0,0,0-.112.075,5.343,5.343,0,0,1-2.925.869H55a5.336,5.336,0,0,1-2.89-.849ZM63.99,47.384a.553.553,0,0,1-.547.545h-.532v-3.2h.532a.553.553,0,0,1,.547.545ZM53.956,34.707h5.531l-.342.459-.008.011a1.736,1.736,0,0,0-.161,1.8,1.786,1.786,0,0,0,1.478,1c3.147.258,3.574,1.358,3.568,4.6a2.783,2.783,0,0,0-.582-.062H62.59a3.155,3.155,0,0,0-2.832-1.771h-.538a1.6,1.6,0,0,1-.953-.291l-.915-.612h0a3.888,3.888,0,0,0-4.379,0l-.915.612a1.6,1.6,0,0,1-.957.291h-.533a3.155,3.155,0,0,0-2.832,1.771h-.859a2.824,2.824,0,0,0-.545.054V40.936c0-4.089,3.834-6.228,7.627-6.228ZM46.326,47.384V45.275a.552.552,0,0,1,.545-.545h.54v3.2h-.54A.551.551,0,0,1,46.326,47.384ZM55,55.925h.315a7.542,7.542,0,0,0,2.555-.443,4.621,4.621,0,0,0,.9,2.038,4.046,4.046,0,0,1-7.179,0,4.633,4.633,0,0,0,.9-2.026A7.546,7.546,0,0,0,55,55.925ZM68.27,68.711H63.616v-1.93a1.11,1.11,0,1,0-2.22,0v1.93H48.961v-1.93a1.11,1.11,0,1,0-2.22,0v1.93H42.087V64.439c0-2.573,1.944-3.388,5.117-4.5.877-.309,1.783-.628,2.627-1.02a6.264,6.264,0,0,0,10.7,0c.844.391,1.75.711,2.627,1.018,3.173,1.115,5.117,1.93,5.117,4.5v4.273ZM65.022,18.129a1.612,1.612,0,0,0,1.1-1.533V14.9a1.613,1.613,0,0,0-1.113-1.531l-.951-.308a9.272,9.272,0,0,0-.7-1.692l.46-.9a1.612,1.612,0,0,0-.3-1.862l-1.2-1.2a1.615,1.615,0,0,0-1.872-.3l-.89.456a9.272,9.272,0,0,0-1.692-.7l-.31-.96a1.61,1.61,0,0,0-1.528-1.1h-1.7A1.616,1.616,0,0,0,52.8,5.913l-.308.951a9.271,9.271,0,0,0-1.692.7l-.9-.46a1.61,1.61,0,0,0-1.862.3l-1.2,1.2a1.617,1.617,0,0,0-.3,1.872l.456.89a9.272,9.272,0,0,0-.7,1.692l-.96.31a1.61,1.61,0,0,0-1.1,1.528v1.7a1.616,1.616,0,0,0,1.113,1.535l.951.308a9.175,9.175,0,0,0,.7,1.692l-.46.9a1.612,1.612,0,0,0,.3,1.862l1.2,1.2a1.617,1.617,0,0,0,1.872.3l.89-.456a9.272,9.272,0,0,0,1.692.7l.31.96a1.612,1.612,0,0,0,1.533,1.1h1.7a1.613,1.613,0,0,0,1.531-1.113l.308-.951a9.272,9.272,0,0,0,1.692-.7l.9.46a1.612,1.612,0,0,0,1.862-.3l1.2-1.2a1.615,1.615,0,0,0,.3-1.872l-.456-.89a9.272,9.272,0,0,0,.7-1.692Zm-1.115-1.97-.848.274a1.619,1.619,0,0,0-1.048,1.1l0,.017a7.065,7.065,0,0,1-.723,1.749,1.6,1.6,0,0,0-.047,1.548l.4.786-.574.574-.8-.406a1.6,1.6,0,0,0-1.538.053,7.065,7.065,0,0,1-1.749.723l-.017,0a1.625,1.625,0,0,0-1.107,1.057l-.272.838h-.813l-.274-.848a1.619,1.619,0,0,0-1.1-1.048l-.017,0a7.065,7.065,0,0,1-1.749-.723,1.6,1.6,0,0,0-1.548-.047l-.786.4-.574-.574.406-.8a1.6,1.6,0,0,0-.053-1.539,7.065,7.065,0,0,1-.723-1.749l0-.017a1.625,1.625,0,0,0-1.057-1.107l-.838-.272v-.813l.848-.274a1.619,1.619,0,0,0,1.048-1.1l0-.017a7.065,7.065,0,0,1,.723-1.749,1.6,1.6,0,0,0,.047-1.548l-.4-.786.574-.574.8.406a1.6,1.6,0,0,0,1.539-.053,7.065,7.065,0,0,1,1.749-.723l.017,0A1.625,1.625,0,0,0,54.5,7.863l.272-.838h.813l.274.848a1.619,1.619,0,0,0,1.1,1.048l.017,0a7.065,7.065,0,0,1,1.749.723,1.6,1.6,0,0,0,1.548.047l.786-.4.574.574-.406.794a1.6,1.6,0,0,0,.053,1.539,7.065,7.065,0,0,1,.723,1.749l0,.017a1.625,1.625,0,0,0,1.057,1.107l.838.272v.815Zm-8.725-5.792a5.385,5.385,0,1,0,5.383,5.387A5.393,5.393,0,0,0,55.181,10.367Zm0,8.551a3.166,3.166,0,1,1,3.163-3.163A3.169,3.169,0,0,1,55.181,18.918ZM40.068,11.233a15.9,15.9,0,0,1,5.608-8.066A15.635,15.635,0,0,1,55.181-.02,15.83,15.83,0,0,1,69.207,8.543l.3-.758a1.11,1.11,0,1,1,2.069.805l-1.308,3.362a1.106,1.106,0,0,1-1.436.632l-3.362-1.308a1.11,1.11,0,1,1,.805-2.069l.982.382A13.555,13.555,0,0,0,42.2,11.867a1.111,1.111,0,0,1-1.063.793,1.094,1.094,0,0,1-.317-.047,1.11,1.11,0,0,1-.747-1.38Zm-1.279,11.68L40.1,19.551a1.111,1.111,0,0,1,1.437-.632L44.9,20.227a1.11,1.11,0,1,1-.805,2.069l-.981-.381a13.552,13.552,0,0,0,25.054-2.278,1.109,1.109,0,1,1,2.126.635,15.906,15.906,0,0,1-5.606,8.066,15.768,15.768,0,0,1-23.531-5.376l-.3.758a1.11,1.11,0,1,1-2.067-.806Zm38.891.219a9.387,9.387,0,1,0,9.385,9.389A9.4,9.4,0,0,0,77.68,23.131Zm0,16.556a7.169,7.169,0,1,1,7.167-7.167A7.174,7.174,0,0,1,77.68,39.687ZM74.745,32.11A1.11,1.11,0,0,1,73.635,31V28.671a1.11,1.11,0,0,1,2.22,0V31A1.109,1.109,0,0,1,74.745,32.11Zm6.978-3.438V31a1.11,1.11,0,0,1-2.22,0V28.673a1.11,1.11,0,0,1,2.22,0Zm-.5,6.853a4.193,4.193,0,0,1-7.092,0A1.11,1.11,0,1,1,76.01,34.34a1.975,1.975,0,0,0,3.339,0,1.11,1.11,0,0,1,1.876,1.186ZM31.685,23.131a9.387,9.387,0,1,0,9.389,9.389,9.4,9.4,0,0,0-9.389-9.389Zm0,16.556a7.169,7.169,0,1,1,7.171-7.167A7.174,7.174,0,0,1,31.685,39.687Zm-3.524-6.641a1.11,1.11,0,0,1-.784-1.894l.811-.811-.811-.811a1.11,1.11,0,0,1,1.57-1.57l1.595,1.595a1.107,1.107,0,0,1,0,1.569l-1.595,1.595A1.1,1.1,0,0,1,28.161,33.046ZM36,31.151a1.11,1.11,0,1,1-1.569,1.57l-1.595-1.595a1.108,1.108,0,0,1,0-1.569l1.595-1.595A1.109,1.109,0,0,1,36,29.532l-.811.811ZM35.229,35.7a1.109,1.109,0,1,1-1.873,1.189,1.979,1.979,0,0,0-3.344,0,1.11,1.11,0,0,1-1.869-1.2,4.2,4.2,0,0,1,7.086,0Z" transform="translate(0)"/>
    </g>
  </g>
</svg>
