<svg xmlns="http://www.w3.org/2000/svg" xmlns:xlink="http://www.w3.org/1999/xlink" width="113" height="113" viewBox="0 0 113 113">
  <defs>
    <filter id="Trazado_982547" x="0" y="0" width="113" height="113" filterUnits="userSpaceOnUse">
      <feOffset dy="3" input="SourceAlpha"/>
      <feGaussianBlur stdDeviation="3" result="blur"/>
      <feFlood flood-opacity="0.161"/>
      <feComposite operator="in" in2="blur"/>
      <feComposite in="SourceGraphic"/>
    </filter>
  </defs>
  <g id="Grupo_1202526" data-name="Grupo 1202526" transform="translate(-5974 -936.785)">
    <g id="Grupo_1202361" data-name="Grupo 1202361" transform="translate(5180.51 -524.838)">
      <g id="Grupo_1177632" data-name="Grupo 1177632" transform="translate(-4493 -458.649)">
        <g id="Grupo_1176928" data-name="Grupo 1176928" transform="translate(5295.49 1926.273)">
          <g id="Grupo_1172322" data-name="Grupo 1172322" transform="translate(0 0)">
            <g id="Grupo_1164700" data-name="Grupo 1164700">
              <g id="Grupo_1160931" data-name="Grupo 1160931">
                <g id="Grupo_1160749" data-name="Grupo 1160749">
                  <g id="Grupo_1158891" data-name="Grupo 1158891">
                    <g id="Grupo_1157406" data-name="Grupo 1157406">
                      <g id="Grupo_1155793" data-name="Grupo 1155793">
                        <g id="Grupo_1154704" data-name="Grupo 1154704">
                          <g id="Grupo_1150790" data-name="Grupo 1150790">
                            <g id="Grupo_1154214" data-name="Grupo 1154214">
                              <g id="Grupo_1152583" data-name="Grupo 1152583">
                                <g id="Grupo_1146973" data-name="Grupo 1146973">
                                  <g id="Grupo_1146954" data-name="Grupo 1146954">
                                    <g transform="matrix(1, 0, 0, 1, -9, -6)" filter="url(#Trazado_982547)">
                                      <g id="Trazado_982547-2" data-name="Trazado 982547" transform="translate(9 6)" fill="#f2f7e5">
                                        <path d="M 47.5000114440918 93.49987030029297 C 41.28938293457031 93.49987030029297 35.26534652709961 92.28384399414062 29.5951976776123 89.88558959960938 C 24.11773109436035 87.56881713867188 19.19814491271973 84.25183868408203 14.97310447692871 80.02680206298828 C 10.74805164337158 75.80176544189453 7.43107795715332 70.88218688964844 5.114304542541504 65.40472412109375 C 2.716038227081299 59.73458862304688 1.500011444091797 53.71054840087891 1.500011444091797 47.49993515014648 C 1.500011444091797 41.28932189941406 2.716038227081299 35.26528167724609 5.114304542541504 29.59514808654785 C 7.43107795715332 24.1176815032959 10.74805164337158 19.1981086730957 14.97310447692871 14.97306823730469 C 19.19814491271973 10.74802875518799 24.11773109436035 7.431055068969727 29.5951976776123 5.11428165435791 C 35.26534652709961 2.716028451919556 41.28938293457031 1.500001788139343 47.5000114440918 1.500001788139343 C 53.71063995361328 1.500001788139343 59.73467636108398 2.716028451919556 65.40482330322266 5.11428165435791 C 70.88229370117188 7.431055068969727 75.8018798828125 10.74802875518799 80.02691650390625 14.97306823730469 C 84.25196838378906 19.1981086730957 87.56894683837891 24.1176815032959 89.88571929931641 29.59514808654785 C 92.28398132324219 35.26528167724609 93.50001525878906 41.28932189941406 93.50001525878906 47.49993515014648 C 93.50001525878906 53.71054840087891 92.28398132324219 59.73458862304688 89.88571929931641 65.40472412109375 C 87.56894683837891 70.88218688964844 84.25196838378906 75.80176544189453 80.02691650390625 80.02680206298828 C 75.8018798828125 84.25183868408203 70.88229370117188 87.56881713867188 65.40482330322266 89.88558959960938 C 59.73467636108398 92.28384399414062 53.71063995361328 93.49987030029297 47.5000114440918 93.49987030029297 Z" stroke="none"/>
                                        <path d="M 47.5000114440918 3 C 41.49122619628906 3 35.66378021240234 4.1761474609375 30.17951965332031 6.495796203613281 C 24.880859375 8.7369384765625 20.12153625488281 11.94596862792969 16.03376770019531 16.03373718261719 C 11.94598388671875 20.12149047851562 8.736968994140625 24.88081359863281 6.495811462402344 30.17947387695312 C 4.176162719726562 35.66371917724609 3.000007629394531 41.49116516113281 3.000007629394531 47.49993515014648 C 3.000007629394531 53.50870513916016 4.176162719726562 59.33615112304688 6.495811462402344 64.82039642333984 C 8.736968994140625 70.11905670166016 11.94598388671875 74.87837982177734 16.03376770019531 78.96613311767578 C 20.12153625488281 83.05390167236328 24.880859375 86.26293182373047 30.17951965332031 88.50407409667969 C 35.66378021240234 90.82372283935547 41.49122619628906 91.99987030029297 47.5000114440918 91.99987030029297 C 53.50879669189453 91.99987030029297 59.33624267578125 90.82372283935547 64.82050323486328 88.50407409667969 C 70.11916351318359 86.26293182373047 74.87848663330078 83.05390167236328 78.96625518798828 78.96613311767578 C 83.05403900146484 74.87837982177734 86.2630615234375 70.11905670166016 88.50421142578125 64.82039642333984 C 90.82386016845703 59.33615112304688 92.00001525878906 53.50870513916016 92.00001525878906 47.49993515014648 C 92.00001525878906 41.49116516113281 90.82386016845703 35.66371917724609 88.50421142578125 30.17947387695312 C 86.2630615234375 24.88081359863281 83.05403900146484 20.12149047851562 78.96625518798828 16.03373718261719 C 74.87848663330078 11.94596862792969 70.11916351318359 8.7369384765625 64.82050323486328 6.495796203613281 C 59.33624267578125 4.1761474609375 53.50879669189453 3 47.5000114440918 3 M 47.5000114440918 0 C 73.73353576660156 0 95.00001525878906 21.26644134521484 95.00001525878906 47.49993515014648 C 95.00001525878906 73.73342895507812 73.73353576660156 94.99987030029297 47.5000114440918 94.99987030029297 C 21.26648712158203 94.99987030029297 7.62939453125e-06 73.73342895507812 7.62939453125e-06 47.49993515014648 C 7.62939453125e-06 21.26644134521484 21.26648712158203 0 47.5000114440918 0 Z" stroke="none" fill="#86b60c"/>
                                      </g>
                                    </g>
                                  </g>
                                </g>
                              </g>
                            </g>
                          </g>
                        </g>
                      </g>
                    </g>
                  </g>
                </g>
              </g>
            </g>
          </g>
        </g>
      </g>
    </g>
    <g id="motivation_5506565" transform="translate(5999 958)">
      <g id="Grupo_1202524" data-name="Grupo 1202524">
        <path id="Trazado_1041305" data-name="Trazado 1041305" d="M13.429,36.192,2,40l2,5,12.446-4.526" fill="#c43535"/>
        <path id="Trazado_1041306" data-name="Trazado 1041306" d="M13,36.335,2,40l1.059,2.647,11.949-3.983" fill="#dc4a4a"/>
        <path id="Trazado_1041307" data-name="Trazado 1041307" d="M41,24H57V35H41Z" fill="#777"/>
        <path id="Trazado_1041308" data-name="Trazado 1041308" d="M43,29a4,4,0,0,0,4,4H57V24H43Z" fill="#969696"/>
        <path id="Trazado_1041309" data-name="Trazado 1041309" d="M26.83,36.122,36,43l19-8,1,3,6-8L52,27l1,3L37,37l-7.24-5.793" fill="#c43535"/>
        <g id="Grupo_1202523" data-name="Grupo 1202523">
          <g id="Grupo_1202522" data-name="Grupo 1202522">
            <path id="Trazado_1041310" data-name="Trazado 1041310" d="M28.575,33.683,37,40,62,30,52,27l1,3L37,37l-5.215-4.159" fill="#dc4a4a"/>
            <path id="Trazado_1041311" data-name="Trazado 1041311" d="M58,52V48H56.738a7.968,7.968,0,0,0-.852-2.058l.892-.892L53.95,42.222l-.892.892A7.953,7.953,0,0,0,51,42.262V41H47v1.262a7.968,7.968,0,0,0-2.058.852l-.892-.892L41.222,45.05l.892.892A7.953,7.953,0,0,0,41.262,48H40v4h1.262a7.968,7.968,0,0,0,.852,2.058l-.892.892,2.828,2.828.892-.892A7.953,7.953,0,0,0,47,57.738V59h4V57.738a7.968,7.968,0,0,0,2.058-.852l.892.892,2.828-2.828-.892-.892A7.939,7.939,0,0,0,56.738,52Z" fill="#e7b541"/>
            <path id="Trazado_1041312" data-name="Trazado 1041312" d="M55.886,45.942l.892-.892L53.95,42.222l-.892.892A7.953,7.953,0,0,0,51,42.262V41H47v1.262a7.968,7.968,0,0,0-2.058.852l-.892-.892-.483.483A9.979,9.979,0,0,0,56.3,55.433l.483-.483-.892-.892A7.939,7.939,0,0,0,56.738,52H58V48H56.738a7.968,7.968,0,0,0-.852-2.058Z" fill="#f9cb6e"/>
            <path id="Trazado_1041313" data-name="Trazado 1041313" d="M58,4v6.34A13.659,13.659,0,0,1,54,20H44l-1.26-1.26A9.355,9.355,0,0,1,40,12.12,4.721,4.721,0,0,1,40.5,10,4.721,4.721,0,0,0,41,7.88V5a3.657,3.657,0,0,1,1,.13V4a2.015,2.015,0,0,1,2-2,2.006,2.006,0,0,1,2,2,2.015,2.015,0,0,1,2-2,2.006,2.006,0,0,1,2,2,2.015,2.015,0,0,1,2-2,2.006,2.006,0,0,1,2,2,2.015,2.015,0,0,1,2-2,2.006,2.006,0,0,1,2,2Z" fill="#eeb9ad"/>
            <path id="Trazado_1041314" data-name="Trazado 1041314" d="M55.94,14.619l.021-.049A13.65,13.65,0,0,0,57,9.34V3.112a2.195,2.195,0,0,0-.228-.956A1.989,1.989,0,0,0,56,2a2.015,2.015,0,0,0-2,2,2.006,2.006,0,0,0-2-2,2.015,2.015,0,0,0-2,2,2.006,2.006,0,0,0-2-2,2.015,2.015,0,0,0-2,2,2.006,2.006,0,0,0-2-2,2.015,2.015,0,0,0-2,2V5.13A3.657,3.657,0,0,0,41,5V7.88A4.721,4.721,0,0,1,40.5,10a4.721,4.721,0,0,0-.5,2.12,9.355,9.355,0,0,0,2.74,6.62L43,19h6.142a7.33,7.33,0,0,0,6.8-4.381Z" fill="#ffe2d5"/>
            <path id="Trazado_1041315" data-name="Trazado 1041315" d="M56,2a2.015,2.015,0,0,0-2,2,2.006,2.006,0,0,0-2-2,2.015,2.015,0,0,0-2,2,2.006,2.006,0,0,0-2-2,2.015,2.015,0,0,0-2,2,2.006,2.006,0,0,0-2-2,2.015,2.015,0,0,0-2,2V5.13A3.657,3.657,0,0,0,41,5V8a2.988,2.988,0,0,0,5,2.221,2.957,2.957,0,0,0,4,0A2.974,2.974,0,0,0,54.53,9.6,2.934,2.934,0,0,0,58,9.221V4a2.006,2.006,0,0,0-2-2Z" fill="#dda89f"/>
            <g id="Grupo_1202517" data-name="Grupo 1202517">
              <path id="Trazado_1041316" data-name="Trazado 1041316" d="M16,44,8.731,46.077A9.28,9.28,0,0,0,2,55v7H38V55a9.28,9.28,0,0,0-6.731-8.923L24,44Z" fill="#b5b5b5"/>
              <path id="Trazado_1041317" data-name="Trazado 1041317" d="M31.269,46.077,24,44H20l-7.269,2.077A9.28,9.28,0,0,0,6,55v7H38V55a9.28,9.28,0,0,0-6.731-8.923Z" fill="#c9c9c9"/>
              <path id="Trazado_1041318" data-name="Trazado 1041318" d="M16,41.064V44l4,2,4-2V41.064Z" fill="#eeb9ad"/>
              <path id="Trazado_1041319" data-name="Trazado 1041319" d="M8,28.765V21a9,9,0,0,1,9-9h7a4,4,0,0,1,4,4h0a4,4,0,0,1,4,4v8.771" fill="#3f4042"/>
              <path id="Trazado_1041320" data-name="Trazado 1041320" d="M32,20a4,4,0,0,0-4-4h0a4,4,0,0,0-4-4H17a8.973,8.973,0,0,0-6.334,2.608A8.992,8.992,0,0,0,10,18v3.765a4,4,0,0,0,4,4l18,0Z" fill="#5a5b5d"/>
              <g id="Grupo_1202514" data-name="Grupo 1202514">
                <path id="Trazado_1041321" data-name="Trazado 1041321" d="M29,27v6a9,9,0,0,1-18,0V27h5.615A7.954,7.954,0,0,0,24,22Z" fill="#eeb9ad"/>
                <path id="Trazado_1041322" data-name="Trazado 1041322" d="M11,28H10a3,3,0,0,0,0,6h1.056" fill="#eeb9ad"/>
                <path id="Trazado_1041323" data-name="Trazado 1041323" d="M29,28h1a3,3,0,0,1,0,6H28.944" fill="#eeb9ad"/>
              </g>
              <path id="Trazado_1041324" data-name="Trazado 1041324" d="M23.333,49.333,22,52H18l-1.333-2.667L20,46Z" fill="#e56a6a"/>
              <path id="Trazado_1041325" data-name="Trazado 1041325" d="M23,62,22,52H18L17,62Z" fill="#e56a6a"/>
              <g id="Grupo_1202515" data-name="Grupo 1202515">
                <path id="Trazado_1041326" data-name="Trazado 1041326" d="M31,56h2v6H31Z" fill="#777"/>
              </g>
              <g id="Grupo_1202516" data-name="Grupo 1202516">
                <path id="Trazado_1041327" data-name="Trazado 1041327" d="M7,56H9v6H7Z" fill="#777"/>
              </g>
              <path id="Trazado_1041328" data-name="Trazado 1041328" d="M16.615,27H13v6a9,9,0,0,0,8,8.941A9,9,0,0,0,29,33V27l-5-5A7.954,7.954,0,0,1,16.615,27Z" fill="#ffe2d5"/>
              <path id="Trazado_1041329" data-name="Trazado 1041329" d="M24,42.053a8.873,8.873,0,0,1-6,.716V44l3,1.5L24,44Z" fill="#ffe2d5"/>
              <path id="Trazado_1041330" data-name="Trazado 1041330" d="M20,46l-4-2-4.667,1.333L16,50Z" fill="#b5b5b5"/>
              <path id="Trazado_1041331" data-name="Trazado 1041331" d="M24,50l4.667-4.667L24,44l-4,2Z" fill="#b5b5b5"/>
              <path id="Trazado_1041332" data-name="Trazado 1041332" d="M19,52,18,62h5L22,52Z" fill="#ed8585"/>
            </g>
            <path id="Trazado_1041333" data-name="Trazado 1041333" d="M42,24V20H56v4" fill="#c9c9c9"/>
            <circle id="Elipse_12321" data-name="Elipse 12321" cx="4" cy="4" r="4" transform="translate(45 46)" fill="#ddd"/>
            <g id="Grupo_1202518" data-name="Grupo 1202518">
              <path id="Trazado_1041334" data-name="Trazado 1041334" d="M52,10a2,2,0,0,1-2-2V4a2,2,0,0,1,4,0V8A2,2,0,0,1,52,10Z" fill="#eeb9ad"/>
              <path id="Trazado_1041335" data-name="Trazado 1041335" d="M52,2a1.99,1.99,0,0,0-.82.18A1.99,1.99,0,0,0,51,3V7a1.992,1.992,0,0,0,2.82,1.82A1.99,1.99,0,0,0,54,8V4a2,2,0,0,0-2-2Z" fill="#ffe2d5"/>
            </g>
            <g id="Grupo_1202519" data-name="Grupo 1202519">
              <path id="Trazado_1041336" data-name="Trazado 1041336" d="M48,10a2,2,0,0,1-2-2V4a2,2,0,0,1,4,0V8A2,2,0,0,1,48,10Z" fill="#eeb9ad"/>
              <path id="Trazado_1041337" data-name="Trazado 1041337" d="M48,2a1.99,1.99,0,0,0-.82.18A1.99,1.99,0,0,0,47,3V7a1.992,1.992,0,0,0,2.82,1.82A1.99,1.99,0,0,0,50,8V4a2,2,0,0,0-2-2Z" fill="#ffe2d5"/>
            </g>
            <g id="Grupo_1202520" data-name="Grupo 1202520">
              <path id="Trazado_1041338" data-name="Trazado 1041338" d="M44,10a2,2,0,0,1-2-2V4a2,2,0,0,1,4,0V8A2,2,0,0,1,44,10Z" fill="#eeb9ad"/>
              <path id="Trazado_1041339" data-name="Trazado 1041339" d="M44,2a1.99,1.99,0,0,0-.82.18A1.99,1.99,0,0,0,43,3V7a1.992,1.992,0,0,0,2.82,1.82A1.99,1.99,0,0,0,46,8V4a2,2,0,0,0-2-2Z" fill="#ffe2d5"/>
            </g>
            <g id="Grupo_1202521" data-name="Grupo 1202521">
              <path id="Trazado_1041340" data-name="Trazado 1041340" d="M56,9a2,2,0,0,1-2-2V4a2,2,0,0,1,4,0V7A2,2,0,0,1,56,9Z" fill="#eeb9ad"/>
              <path id="Trazado_1041341" data-name="Trazado 1041341" d="M56,2a1.99,1.99,0,0,0-.82.18A1.99,1.99,0,0,0,55,3V6a1.992,1.992,0,0,0,2.82,1.82A1.99,1.99,0,0,0,58,7V4A2,2,0,0,0,56,2Z" fill="#ffe2d5"/>
            </g>
            <path id="Trazado_1041342" data-name="Trazado 1041342" d="M46.336,11.891,45,11V9a4,4,0,0,0-3.1-3.891c-.06-.015-.122-.026-.183-.037A3.978,3.978,0,0,0,41,5V7.88A4.721,4.721,0,0,1,40.5,10a4.721,4.721,0,0,0-.5,2.12A9.394,9.394,0,0,0,40.461,15H48A3.735,3.735,0,0,0,46.336,11.891Z" fill="#ffe2d5"/>
            <path id="Trazado_1041343" data-name="Trazado 1041343" d="M44,9v2a1,1,0,0,0,.445.832l1.336.891A2.731,2.731,0,0,1,47,15h2a4.725,4.725,0,0,0-2.109-3.941L46,10.465V9a5.009,5.009,0,0,0-4-4.9V5.13A3.657,3.657,0,0,0,41,5V6A3,3,0,0,1,44,9Z" fill="#eeb9ad"/>
            <path id="Trazado_1041344" data-name="Trazado 1041344" d="M43,21a2,2,0,0,0,2,2H56V20H43Z" fill="#ddd"/>
            <path id="Trazado_1041345" data-name="Trazado 1041345" d="M48,47a3.977,3.977,0,0,0-2.281.719,3.994,3.994,0,0,0,5.562,5.561A3.994,3.994,0,0,0,48,47Z" fill="#fff"/>
          </g>
        </g>
      </g>
      <g id="Grupo_1202525" data-name="Grupo 1202525">
        <path id="Trazado_1041346" data-name="Trazado 1041346" d="M62.95,29.689a1,1,0,0,0-.663-.646L58,27.757V24a1,1,0,0,0-1-1V20a.986.986,0,0,0-.867-.973A14.542,14.542,0,0,0,59,10.343V4a3,3,0,0,0-5-2.234,2.994,2.994,0,0,0-4,0,2.994,2.994,0,0,0-4,0A3,3,0,0,0,41,4a1,1,0,0,0-1,1V7.882a3.753,3.753,0,0,1-.4,1.671,5.772,5.772,0,0,0-.6,2.565,10.291,10.291,0,0,0,2.685,6.945A.989.989,0,0,0,41,20v3a1,1,0,0,0-1,1V34.594L37.151,35.84l-3.659-2.928A3.9,3.9,0,0,0,33,28.382V20a5.009,5.009,0,0,0-4.084-4.915A5.009,5.009,0,0,0,24,11H17A10.011,10.011,0,0,0,7,21v7.382A3.962,3.962,0,0,0,6,31a4,4,0,0,0,4,4h.2a10.153,10.153,0,0,0,.3,1.114l-8.819,2.94a1,1,0,0,0-.612,1.319l2,5a1,1,0,0,0,1.27.568L15,42.064v1.182l-6.544,1.87A10.322,10.322,0,0,0,1,55v7a1,1,0,0,0,1,1H38a1,1,0,0,0,1-1V55a10.324,10.324,0,0,0-7.456-9.885L25,43.245v-1.6A10.072,10.072,0,0,0,28.34,38.5l7.06,5.3a1,1,0,0,0,.988.122l18.005-7.579.659,1.976A1,1,0,0,0,56.8,38.6l6-8a1,1,0,0,0,.15-.913ZM56,3a1,1,0,0,1,1,1V7a1,1,0,0,1-2,0V4A1,1,0,0,1,56,3ZM52,3a1,1,0,0,1,1,1V8a1,1,0,0,1-2,0V4A1,1,0,0,1,52,3ZM48,3a1,1,0,0,1,1,1V8a1,1,0,0,1-2,0V4A1,1,0,0,1,48,3ZM43,4a1,1,0,0,1,2,0V6.031a5.02,5.02,0,0,0-2-1.607Zm-1.6,6.447A5.772,5.772,0,0,0,42,7.882V6.171A3.006,3.006,0,0,1,44,9v2a1,1,0,0,0,.445.832l1.336.891A2.731,2.731,0,0,1,47,15h2a4.725,4.725,0,0,0-2.109-3.941L46,10.465v-.229a0,0,0,0,0,0,0,2.994,2.994,0,0,0,4,0,3,3,0,0,0,4.528-.621,2.917,2.917,0,0,0,2.472.2v.527A12.561,12.561,0,0,1,53.559,19H44.414l-.962-.962A8.318,8.318,0,0,1,41,12.118a3.753,3.753,0,0,1,.4-1.671ZM43,21H55v2H43Zm-1,4H56v2.157l-3.713-1.115a1,1,0,0,0-1.236,1.275l.712,2.135L42,33.72ZM30,29a2,2,0,0,1,0,4ZM17,13h7a3.005,3.005,0,0,1,3,3,1,1,0,0,0,1,1,3,3,0,0,1,3,3v7.143A3.939,3.939,0,0,0,30,27a1,1,0,0,0-.293-.707l-5-5a1,1,0,0,0-1.636.336A6.92,6.92,0,0,1,16.615,26H11a1,1,0,0,0-1,1,3.939,3.939,0,0,0-1,.142V21A8.009,8.009,0,0,1,17,13ZM8,31a2,2,0,0,1,2-2v4A2,2,0,0,1,8,31ZM3.322,40.615l8-2.667a10.038,10.038,0,0,0,2.1,2.562L4.568,43.729ZM24.1,45.069l2.659.76L24,48.586l-2.312-2.312ZM18.905,53H21.1l.8,8H18.1Zm2.477-2H18.618l-.734-1.47L20,47.414l2.116,2.116ZM16,48.586l-2.758-2.758,2.659-.76,2.411,1.206ZM3,55a8.315,8.315,0,0,1,6.005-7.961l2.038-.582,4.25,4.25a.975.975,0,0,0,1.055.225l.628,1.256L16.094,61H9V56H7v5H3Zm34,0v6H33V56H31v5H23.9l-.88-8.812.628-1.256a.975.975,0,0,0,1.055-.225l4.25-4.25L31,47.039A8.315,8.315,0,0,1,37,55ZM23,43.382l-3,1.5-3-1.5v-.843a9.992,9.992,0,0,0,6,0ZM20,41a8.009,8.009,0,0,1-8-8V28h4.615a8.9,8.9,0,0,0,7.659-4.312L28,27.414V33A8.009,8.009,0,0,1,20,41Zm36.345-5.125-.4-1.189a1,1,0,0,0-1.336-.606L36.141,41.855l-6.862-5.146A9.967,9.967,0,0,0,29.8,35H30a3.972,3.972,0,0,0,2.122-.622l4.251,3.4a1,1,0,0,0,1.025.135l16-7a1,1,0,0,0,.549-1.232l-.392-1.174,6.783,2.036Z"/>
        <path id="Trazado_1041347" data-name="Trazado 1041347" d="M58,47h-.522a9,9,0,0,0-.361-.873l.369-.37a1,1,0,0,0,0-1.414l-2.828-2.828a1,1,0,0,0-1.414,0l-.37.369A8.756,8.756,0,0,0,52,41.523V41a1,1,0,0,0-1-1H47a1,1,0,0,0-1,1v.522a9,9,0,0,0-.873.361l-.37-.369a1,1,0,0,0-1.414,0l-2.828,2.828a1,1,0,0,0,0,1.414l.369.37a8.756,8.756,0,0,0-.361.873H40a1,1,0,0,0-1,1v4a1,1,0,0,0,1,1h.522a9,9,0,0,0,.361.873l-.369.369a1,1,0,0,0,0,1.414l2.828,2.829a1,1,0,0,0,1.414,0l.37-.369a8.756,8.756,0,0,0,.873.361V59a1,1,0,0,0,1,1h4a1,1,0,0,0,1-1v-.522a9,9,0,0,0,.873-.361l.37.369a1.029,1.029,0,0,0,1.414,0l2.828-2.829a1,1,0,0,0,0-1.414l-.369-.369A8.756,8.756,0,0,0,57.476,53H58a1,1,0,0,0,1-1V48A1,1,0,0,0,58,47Zm-1,4h-.262a1,1,0,0,0-.968.75,6.958,6.958,0,0,1-.746,1.8,1,1,0,0,0,.154,1.216l.186.186L53.95,56.365l-.186-.186a1,1,0,0,0-1.216-.154,6.958,6.958,0,0,1-1.8.746,1,1,0,0,0-.749.967V58H48v-.262a1,1,0,0,0-.75-.968,6.958,6.958,0,0,1-1.8-.746,1.006,1.006,0,0,0-1.216.154l-.186.186L42.635,54.95l.186-.186a1,1,0,0,0,.154-1.216,6.958,6.958,0,0,1-.746-1.8A1,1,0,0,0,41.262,51H41V49h.262a1,1,0,0,0,.968-.75,6.958,6.958,0,0,1,.746-1.8,1,1,0,0,0-.154-1.216l-.186-.186,1.414-1.414.186.186a1,1,0,0,0,1.216.154,6.958,6.958,0,0,1,1.8-.746,1,1,0,0,0,.75-.968V42h2v.262a1,1,0,0,0,.75.968,6.958,6.958,0,0,1,1.8.746,1,1,0,0,0,1.216-.154l.186-.186,1.414,1.414-.186.186a1,1,0,0,0-.154,1.216,6.958,6.958,0,0,1,.746,1.8,1,1,0,0,0,.968.75H57Z"/>
        <path id="Trazado_1041348" data-name="Trazado 1041348" d="M49,45a5,5,0,1,0,5,5A5.006,5.006,0,0,0,49,45Zm0,8a3,3,0,1,1,3-3A3,3,0,0,1,49,53Z"/>
      </g>
    </g>
  </g>
</svg>
