<svg xmlns="http://www.w3.org/2000/svg" xmlns:xlink="http://www.w3.org/1999/xlink" width="113" height="113" viewBox="0 0 113 113">
  <defs>
    <filter id="Trazado_982547" x="0" y="0" width="113" height="113" filterUnits="userSpaceOnUse">
      <feOffset dy="3" input="SourceAlpha"/>
      <feGaussianBlur stdDeviation="3" result="blur"/>
      <feFlood flood-opacity="0.161"/>
      <feComposite operator="in" in2="blur"/>
      <feComposite in="SourceGraphic"/>
    </filter>
  </defs>
  <g id="Grupo_1202527" data-name="Grupo 1202527" transform="translate(-5655 -1332.785)">
    <g id="Grupo_1202362" data-name="Grupo 1202362" transform="translate(4861.51 -128.838)">
      <g id="Grupo_1177632" data-name="Grupo 1177632" transform="translate(-4493 -458.649)">
        <g id="Grupo_1176928" data-name="Grupo 1176928" transform="translate(5295.49 1926.273)">
          <g id="Grupo_1172322" data-name="Grupo 1172322" transform="translate(0 0)">
            <g id="Grupo_1164700" data-name="Grupo 1164700">
              <g id="Grupo_1160931" data-name="Grupo 1160931">
                <g id="Grupo_1160749" data-name="Grupo 1160749">
                  <g id="Grupo_1158891" data-name="Grupo 1158891">
                    <g id="Grupo_1157406" data-name="Grupo 1157406">
                      <g id="Grupo_1155793" data-name="Grupo 1155793">
                        <g id="Grupo_1154704" data-name="Grupo 1154704">
                          <g id="Grupo_1150790" data-name="Grupo 1150790">
                            <g id="Grupo_1154214" data-name="Grupo 1154214">
                              <g id="Grupo_1152583" data-name="Grupo 1152583">
                                <g id="Grupo_1146973" data-name="Grupo 1146973">
                                  <g id="Grupo_1146954" data-name="Grupo 1146954">
                                    <g transform="matrix(1, 0, 0, 1, -9, -6)" filter="url(#Trazado_982547)">
                                      <g id="Trazado_982547-2" data-name="Trazado 982547" transform="translate(9 6)" fill="#f2f7e5">
                                        <path d="M 47.5000114440918 93.49987030029297 C 41.28938293457031 93.49987030029297 35.26534652709961 92.28384399414062 29.5951976776123 89.88558959960938 C 24.11773109436035 87.56881713867188 19.19814491271973 84.25183868408203 14.97310447692871 80.02680206298828 C 10.74805164337158 75.80176544189453 7.43107795715332 70.88218688964844 5.114304542541504 65.40472412109375 C 2.716038227081299 59.73458862304688 1.500011444091797 53.71054840087891 1.500011444091797 47.49993515014648 C 1.500011444091797 41.28932189941406 2.716038227081299 35.26528167724609 5.114304542541504 29.59514808654785 C 7.43107795715332 24.1176815032959 10.74805164337158 19.1981086730957 14.97310447692871 14.97306823730469 C 19.19814491271973 10.74802875518799 24.11773109436035 7.431055068969727 29.5951976776123 5.11428165435791 C 35.26534652709961 2.716028451919556 41.28938293457031 1.500001788139343 47.5000114440918 1.500001788139343 C 53.71063995361328 1.500001788139343 59.73467636108398 2.716028451919556 65.40482330322266 5.11428165435791 C 70.88229370117188 7.431055068969727 75.8018798828125 10.74802875518799 80.02691650390625 14.97306823730469 C 84.25196838378906 19.1981086730957 87.56894683837891 24.1176815032959 89.88571929931641 29.59514808654785 C 92.28398132324219 35.26528167724609 93.50001525878906 41.28932189941406 93.50001525878906 47.49993515014648 C 93.50001525878906 53.71054840087891 92.28398132324219 59.73458862304688 89.88571929931641 65.40472412109375 C 87.56894683837891 70.88218688964844 84.25196838378906 75.80176544189453 80.02691650390625 80.02680206298828 C 75.8018798828125 84.25183868408203 70.88229370117188 87.56881713867188 65.40482330322266 89.88558959960938 C 59.73467636108398 92.28384399414062 53.71063995361328 93.49987030029297 47.5000114440918 93.49987030029297 Z" stroke="none"/>
                                        <path d="M 47.5000114440918 3 C 41.49122619628906 3 35.66378021240234 4.1761474609375 30.17951965332031 6.495796203613281 C 24.880859375 8.7369384765625 20.12153625488281 11.94596862792969 16.03376770019531 16.03373718261719 C 11.94598388671875 20.12149047851562 8.736968994140625 24.88081359863281 6.495811462402344 30.17947387695312 C 4.176162719726562 35.66371917724609 3.000007629394531 41.49116516113281 3.000007629394531 47.49993515014648 C 3.000007629394531 53.50870513916016 4.176162719726562 59.33615112304688 6.495811462402344 64.82039642333984 C 8.736968994140625 70.11905670166016 11.94598388671875 74.87837982177734 16.03376770019531 78.96613311767578 C 20.12153625488281 83.05390167236328 24.880859375 86.26293182373047 30.17951965332031 88.50407409667969 C 35.66378021240234 90.82372283935547 41.49122619628906 91.99987030029297 47.5000114440918 91.99987030029297 C 53.50879669189453 91.99987030029297 59.33624267578125 90.82372283935547 64.82050323486328 88.50407409667969 C 70.11916351318359 86.26293182373047 74.87848663330078 83.05390167236328 78.96625518798828 78.96613311767578 C 83.05403900146484 74.87837982177734 86.2630615234375 70.11905670166016 88.50421142578125 64.82039642333984 C 90.82386016845703 59.33615112304688 92.00001525878906 53.50870513916016 92.00001525878906 47.49993515014648 C 92.00001525878906 41.49116516113281 90.82386016845703 35.66371917724609 88.50421142578125 30.17947387695312 C 86.2630615234375 24.88081359863281 83.05403900146484 20.12149047851562 78.96625518798828 16.03373718261719 C 74.87848663330078 11.94596862792969 70.11916351318359 8.7369384765625 64.82050323486328 6.495796203613281 C 59.33624267578125 4.1761474609375 53.50879669189453 3 47.5000114440918 3 M 47.5000114440918 0 C 73.73353576660156 0 95.00001525878906 21.26644134521484 95.00001525878906 47.49993515014648 C 95.00001525878906 73.73342895507812 73.73353576660156 94.99987030029297 47.5000114440918 94.99987030029297 C 21.26648712158203 94.99987030029297 7.62939453125e-06 73.73342895507812 7.62939453125e-06 47.49993515014648 C 7.62939453125e-06 21.26644134521484 21.26648712158203 0 47.5000114440918 0 Z" stroke="none" fill="#86b60c"/>
                                      </g>
                                    </g>
                                  </g>
                                </g>
                              </g>
                            </g>
                          </g>
                        </g>
                      </g>
                    </g>
                  </g>
                </g>
              </g>
            </g>
          </g>
        </g>
      </g>
    </g>
    <g id="disagree_5201559" transform="translate(5684.331 1358.616)">
      <path id="Trazado_1041349" data-name="Trazado 1041349" d="M66.978,145.058a3.285,3.285,0,0,1-1.646-2.847v-.847a1.983,1.983,0,0,1,.7-1.5,7.9,7.9,0,0,0,2.728-5.49.049.049,0,0,1,.049-.046h.03a3.956,3.956,0,0,0,3.956-3.956,2.013,2.013,0,0,0-2.013-2.013H69.2a.049.049,0,0,1-.049-.053l.093-1.458a8.4,8.4,0,1,0-16.766,0l.093,1.458a.049.049,0,0,1-.049.053H50.931a2.013,2.013,0,0,0-2.013,2.013,3.956,3.956,0,0,0,3.956,3.956h.03a.049.049,0,0,1,.049.046,7.9,7.9,0,0,0,2.728,5.49,1.984,1.984,0,0,1,.7,1.5v.847a3.284,3.284,0,0,1-1.646,2.847c1.6.751,3.754,2.7,6.122,2.7s4.522-1.952,6.123-2.7Z" transform="translate(-43.631 -105.171)" fill="#fcd0a3"/>
      <path id="Trazado_1041350" data-name="Trazado 1041350" d="M95.955,136.867a5.864,5.864,0,0,0,2.1-4.093c.176-2.508.376-5.929.376-5.921a8.4,8.4,0,1,0-16.766,0c.184,2.877.3,4.7.373,5.883a5.865,5.865,0,0,0,2.1,4.133,9.232,9.232,0,0,0,11.819,0Z" transform="translate(-72.82 -105.172)" fill="#fd7e42"/>
      <path id="Trazado_1041351" data-name="Trazado 1041351" d="M110.128,119.042a8.377,8.377,0,0,1,2.626,6.652c0-.008-.2,3.413-.376,5.921a5.864,5.864,0,0,1-2.1,4.093l0,0a9.228,9.228,0,0,1-7.726,1.959q.112.1.23.2a9.232,9.232,0,0,0,11.819,0l0,0a5.864,5.864,0,0,0,2.1-4.093c.176-2.508.376-5.929.376-5.921A8.4,8.4,0,0,0,110.128,119.042Z" transform="translate(-91.469 -106.175)" fill="#fa6931"/>
      <path id="Trazado_1041352" data-name="Trazado 1041352" d="M266.827,124.332v-9.759a10.445,10.445,0,1,0-20.89,0v9.759a2.178,2.178,0,0,1-2.178,2.178h-.605a.108.108,0,0,0-.09.167l.867,1.3a6.757,6.757,0,0,0,5.622,3.009H263.21a6.757,6.757,0,0,0,5.622-3.009l.867-1.3a.108.108,0,0,0-.09-.167H269A2.178,2.178,0,0,1,266.827,124.332Z" transform="translate(-216.776 -92.873)" fill="#fb0363"/>
      <path id="Trazado_1041353" data-name="Trazado 1041353" d="M318.3,336.176c2.861,0,5.251-3.085,5.833-5.435a2.288,2.288,0,0,1-1.356-2.089v-2.645a7.922,7.922,0,0,1-8.953,0v2.645a2.287,2.287,0,0,1-1.357,2.09C313.047,333.091,315.438,336.176,318.3,336.176Z" transform="translate(-278.693 -290.77)" fill="#ffcbbe"/>
      <path id="Trazado_1041354" data-name="Trazado 1041354" d="M278.767,380.1c5.019,0,9.259-4.619,10.624-8.622a8.634,8.634,0,0,0-1.963-.834l-2.524-.721a2.29,2.29,0,0,1-.3-.11,6.194,6.194,0,0,1-11.666,0,2.294,2.294,0,0,1-.3.11l-2.524.721a8.633,8.633,0,0,0-1.964.835C269.508,375.48,273.748,380.1,278.767,380.1Z" transform="translate(-239.161 -329.84)" fill="#eff3f5"/>
      <path id="Trazado_1041355" data-name="Trazado 1041355" d="M440.345,377.954a8.993,8.993,0,0,0,.8-1.724,8.635,8.635,0,0,0-1.963-.834l-.894-.256A8.655,8.655,0,0,1,440.345,377.954Z" transform="translate(-390.918 -334.593)" fill="#daeaef"/>
      <path id="Trazado_1041356" data-name="Trazado 1041356" d="M253.924,385.221c-1.365,4-5.6,6.922-10.624,6.922s-9.259-2.919-10.623-6.922a8.636,8.636,0,0,0-4.3,7.467v5.423h29.735a.109.109,0,0,0,.109-.109v-5.314A8.636,8.636,0,0,0,253.924,385.221Z" transform="translate(-203.695 -343.585)" fill="#62b4fd"/>
      <path id="Trazado_1041357" data-name="Trazado 1041357" d="M253.923,385.221a8.992,8.992,0,0,1-.8,1.724,8.619,8.619,0,0,1,.778,3.582v.98a4.444,4.444,0,0,1-4.444,4.444H228.378v2.162h29.735a.109.109,0,0,0,.109-.109v-5.314A8.636,8.636,0,0,0,253.923,385.221Z" transform="translate(-203.694 -343.585)" fill="#27a2fb"/>
      <path id="Trazado_1041358" data-name="Trazado 1041358" d="M35.79,380.366l-1.538-.385s-7.969,1.247-10.337,1.247-10.338-1.246-10.338-1.246l-1.537.384A5.993,5.993,0,0,0,7.5,386.179v7.128a.129.129,0,0,0,.129.129H40.309a.02.02,0,0,0,.02-.02v-7.238A5.993,5.993,0,0,0,35.79,380.366Z" transform="translate(-6.689 -338.911)" fill="#1dd0b0"/>
      <path id="Trazado_1041359" data-name="Trazado 1041359" d="M84.391,370.222l-3.373-.843a3.284,3.284,0,0,1-.842-.34,16.09,16.09,0,0,1-12.245,0,3.285,3.285,0,0,1-.841.339l-3.374.843a19.245,19.245,0,0,0,20.675,0Z" transform="translate(-56.829 -329.152)" fill="#eff3f5"/>
      <path id="Trazado_1041360" data-name="Trazado 1041360" d="M308.173,168.341a7.222,7.222,0,0,0-3.054-3.581,8.948,8.948,0,0,1-2.669-2.372l-1.7-2.262a.118.118,0,0,0-.189,0l-1.7,2.262a8.949,8.949,0,0,1-2.669,2.372,7.221,7.221,0,0,0-3.054,3.581,6.382,6.382,0,0,0-.443,2.776l.055.867a7.919,7.919,0,0,0,15.806,0l.055-.865a6.382,6.382,0,0,0-.443-2.776Z" transform="translate(-261.053 -142.777)" fill="#ffece3"/>
      <path id="Trazado_1041361" data-name="Trazado 1041361" d="M35.79,380.872l-1.292-.323a5.986,5.986,0,0,1,1.508,3.975v1.3a5.962,5.962,0,0,1-5.962,5.962H7.5v2.033a.129.129,0,0,0,.129.129H40.309a.02.02,0,0,0,.02-.02v-7.238A5.993,5.993,0,0,0,35.79,380.872Z" transform="translate(-6.689 -339.418)" fill="#04b49c"/>
      <path id="Trazado_1041362" data-name="Trazado 1041362" d="M328.3,168.343v0a7.222,7.222,0,0,0-3.054-3.581,8.949,8.949,0,0,1-2.669-2.372l-1.7-2.262a.118.118,0,0,0-.189,0l-1.128,1.5a8.939,8.939,0,0,0,1.359.968,7.221,7.221,0,0,1,3.054,3.581v0a6.382,6.382,0,0,1,.443,2.776l-.055.865a7.925,7.925,0,0,1-9.113,7.323,7.919,7.919,0,0,0,13.436-5.161l.055-.865A6.383,6.383,0,0,0,328.3,168.343Z" transform="translate(-281.175 -142.777)" fill="#ffddce"/>
      <path id="Trazado_1041363" data-name="Trazado 1041363" d="M7.618,7.49H28.272a.118.118,0,0,1,.118.118v14.8a.118.118,0,0,1-.118.118h-2.7a.118.118,0,0,0-.118.118v4.074a.118.118,0,0,1-.2.083l-4.241-4.241a.118.118,0,0,0-.083-.034H7.618a.118.118,0,0,1-.118-.118V7.608a.118.118,0,0,1,.118-.118Z" transform="translate(-6.689 -6.68)" fill="#62b4fd"/>
      <path id="Trazado_1041364" data-name="Trazado 1041364" d="M331.984,7.49H311.329a.118.118,0,0,0-.118.118v14.8a.118.118,0,0,0,.118.118h11.821a.118.118,0,0,1,.118.118v4.074a.118.118,0,0,0,.2.083l4.241-4.241a.118.118,0,0,1,.083-.034h4.191a.118.118,0,0,0,.118-.118V7.608A.118.118,0,0,0,331.984,7.49Z" transform="translate(-277.574 -6.68)" fill="#1dd0b0"/>
      <path id="Trazado_1041365" data-name="Trazado 1041365" d="M28.272,7.49H24.067v8.025a4.853,4.853,0,0,1-4.853,4.853H7.5v2.044a.118.118,0,0,0,.118.118H20.929a.118.118,0,0,1,.083.034L25.254,26.8a.118.118,0,0,0,.2-.083V22.647a.118.118,0,0,1,.118-.118h2.7a.118.118,0,0,0,.118-.118V7.608A.118.118,0,0,0,28.272,7.49Z" transform="translate(-6.689 -6.68)" fill="#27a2fb"/>
      <path id="Trazado_1041366" data-name="Trazado 1041366" d="M331.984,7.49h-4.206v8.025a4.853,4.853,0,0,1-4.853,4.853H311.212v2.044a.118.118,0,0,0,.118.118H323.15a.118.118,0,0,1,.118.118v4.074a.118.118,0,0,0,.2.083l4.241-4.241a.118.118,0,0,1,.083-.034h4.191a.118.118,0,0,0,.118-.118V7.608a.118.118,0,0,0-.118-.118Z" transform="translate(-277.575 -6.68)" fill="#04b49c"/>
      <path id="Trazado_1041367" data-name="Trazado 1041367" d="M353.529,237.547a.481.481,0,0,1-.481.481h-.2a.811.811,0,0,0,0,1.621h.2a2.1,2.1,0,0,0,2.1-2.1v-1.693a.811.811,0,0,0-1.621,0Z" transform="translate(-313.987 -209.639)"/>
      <path id="Trazado_1041368" data-name="Trazado 1041368" d="M348.349,290.154a1.3,1.3,0,0,1-1.838,0,.811.811,0,1,0-1.146,1.146,2.924,2.924,0,0,0,4.131,0,.811.811,0,0,0-1.146-1.146Z" transform="translate(-307.825 -258.581)"/>
      <path id="Trazado_1041369" data-name="Trazado 1041369" d="M138.954,331.674a8.8,8.8,0,0,0,3.232,0,.811.811,0,0,0-.3-1.594,7.209,7.209,0,0,1-2.634,0,.811.811,0,0,0-.3,1.593Z" transform="translate(-123.345 -294.391)"/>
      <path id="Trazado_1041370" data-name="Trazado 1041370" d="M58.318,42.838l-2.856,2.856a.811.811,0,0,0,0,1.146L58.318,49.7a.811.811,0,1,0,1.146-1.146l-1.472-1.473h7a.811.811,0,1,0,0-1.621h-7l1.472-1.472a.811.811,0,0,0-1.146-1.146Z" transform="translate(-49.255 -37.997)"/>
      <path id="Trazado_1041371" data-name="Trazado 1041371" d="M359.746,47.078h7l-1.472,1.472a.811.811,0,1,0,1.146,1.146l2.856-2.856a.811.811,0,0,0,0-1.146l-2.856-2.856a.811.811,0,0,0-1.146,1.146l1.473,1.472h-7a.811.811,0,0,0,0,1.621Z" transform="translate(-320.14 -37.996)"/>
      <path id="Trazado_1041372" data-name="Trazado 1041372" d="M50.636,40.936a9.458,9.458,0,0,0-2.147-.913L45.964,39.3a1.472,1.472,0,0,1-.64-.377h1.11a7.552,7.552,0,0,0,6.3-3.37l.867-1.3a.918.918,0,0,0-.764-1.428h-.605a1.369,1.369,0,0,1-1.367-1.367V27.869a.811.811,0,1,0-1.621,0V31.46a2.994,2.994,0,0,0,2.329,2.915l-.187.281A5.934,5.934,0,0,1,46.435,37.3H44.894V35.643a8.723,8.723,0,0,0,3.425-6.383l.055-.865a7.828,7.828,0,0,0-3.9-7.113,8.1,8.1,0,0,1-2.428-2.157l-1.7-2.262a.923.923,0,0,0-.211-.2h4.745v3.381a.929.929,0,0,0,1.585.657l2.221-2.221A9.562,9.562,0,0,1,49.24,21.7v2.386a.811.811,0,1,0,1.621,0V21.7a11.144,11.144,0,0,0-.923-4.473l.568-.568h3.9a.93.93,0,0,0,.928-.928V.928A.93.93,0,0,0,54.409,0H33.755a.93.93,0,0,0-.928.928V12.715A11.271,11.271,0,0,0,28.35,21.7v.948a2.807,2.807,0,0,0-1.2-.268h-.771c0-.011.032-.529.034-.574l0-.074A9.214,9.214,0,0,0,22.512,13.6V.928A.93.93,0,0,0,21.583,0H12.8a.811.811,0,0,0,0,1.621H20.89V15.039H18.883a.93.93,0,0,0-.928.928v2.4L14.9,15.311a.922.922,0,0,0-.656-.271H1.621V1.621h7.4A.811.811,0,1,0,9.018,0H.928A.93.93,0,0,0,0,.928v14.8a.93.93,0,0,0,.928.928h8.25a9.181,9.181,0,0,0-1.146,5.072c.014.224.032.5.041.648H7.3A2.827,2.827,0,0,0,4.477,25.2a4.774,4.774,0,0,0,4.1,4.72A8.659,8.659,0,0,0,11.52,35.31a1.175,1.175,0,0,1,.418.885v.847a2.475,2.475,0,0,1-1.874,2.4L5.153,40.669A6.793,6.793,0,0,0,0,47.269V54.4a.94.94,0,0,0,.939.939c39.9,0,25.95,0,53.48,0a.921.921,0,0,0,.92-.92V49.1a9.473,9.473,0,0,0-4.7-8.169Zm-1.425,1.083c-1.5,3.405-5.345,5.73-9.606,5.73a11.473,11.473,0,0,1-5.2-1.22,6.792,6.792,0,0,0-3.091-4.989l1.94-.554a7.107,7.107,0,0,0,12.693,0l2.091.6A7.861,7.861,0,0,1,49.211,42.019ZM24.386,39.441a2.476,2.476,0,0,1-1.874-2.4V36.2a1.176,1.176,0,0,1,.418-.885,8.658,8.658,0,0,0,2.939-5.385,4.751,4.751,0,0,0,2.481-1.14V31.46a1.369,1.369,0,0,1-1.367,1.367h-.605a.918.918,0,0,0-.764,1.428l.867,1.3a7.553,7.553,0,0,0,6.3,3.37h1.111a1.823,1.823,0,0,1-.537.355c-.1.015.015-.009-2.627.744a9.473,9.473,0,0,0-1.578.608l-4.76-1.19Zm20.084.888a5.492,5.492,0,0,1-9.729,0,3.1,3.1,0,0,0,1.2-2.448V36.624a8.7,8.7,0,0,0,7.332,0v1.259a3.1,3.1,0,0,0,1.2,2.447ZM40.748,20.1a9.709,9.709,0,0,0,2.911,2.587,6.216,6.216,0,0,1,3.1,5.607l-.055.865a7.109,7.109,0,0,1-14.188,0l-.055-.867a6.226,6.226,0,0,1,3.1-5.6A9.708,9.708,0,0,0,38.463,20.1l1.142-1.523ZM53.717,1.621V15.039h-3.5a.923.923,0,0,0-.657.272L46.5,18.37v-2.4a.93.93,0,0,0-.928-.928H34.448V1.621H53.717ZM32.826,14.856v.877a.93.93,0,0,0,.928.928h5.319a.925.925,0,0,0-.211.2l-1.7,2.262a8.1,8.1,0,0,1-2.428,2.157,7.841,7.841,0,0,0-3.9,7.11l.055.867a8.723,8.723,0,0,0,3.425,6.383V37.3H32.777a5.934,5.934,0,0,1-4.948-2.648l-.187-.281a2.994,2.994,0,0,0,2.329-2.915V21.7a9.645,9.645,0,0,1,2.855-6.845Zm-6.855,13.4q.048-.3.069-.6c.084-1.2.174-2.609.239-3.657h.869c2,0,1.428,3.6-1.178,4.254ZM13.953,16.661,17.991,20.7a.929.929,0,0,0,1.585-.657V16.661h2.007a.93.93,0,0,0,.928-.928V15.7a7.591,7.591,0,0,1,2.288,5.93l-.093,1.456a.859.859,0,0,0,0,.1c-.074,1.216-.182,2.934-.282,4.357a5.073,5.073,0,0,1-1.8,3.522l-.009.007a8.42,8.42,0,0,1-10.782,0,5.076,5.076,0,0,1-1.809-3.561c-.2-3.187-.244-3.85-.343-5.411,0-.012-.029-.46-.03-.472A7.562,7.562,0,0,1,11.1,16.661ZM6.1,25.2A1.2,1.2,0,0,1,7.3,24h.877c.079,1.25.054.862.229,3.614q.021.322.072.64A3.151,3.151,0,0,1,6.1,25.2Zm5.308,7.586a10.04,10.04,0,0,0,11.639,0,7.17,7.17,0,0,1-1.175,1.294,2.8,2.8,0,0,0-.979,2.112v.847a4.1,4.1,0,0,0,.916,2.579,16.059,16.059,0,0,1-9.164,0,4.1,4.1,0,0,0,.916-2.58v-.847a2.8,2.8,0,0,0-.979-2.112,7.173,7.173,0,0,1-1.174-1.292ZM1.621,47.269a5.174,5.174,0,0,1,3.925-5.027l1.2-.3a18.94,18.94,0,0,0,2.809,1.447.811.811,0,0,0,.62-1.5q-.581-.24-1.141-.521l1.425-.356a4.1,4.1,0,0,0,.666-.229,17.119,17.119,0,0,0,12.2,0,4.1,4.1,0,0,0,.667.229l1.426.356a18.225,18.225,0,0,1-8.194,1.9,18.876,18.876,0,0,1-3.455-.317.811.811,0,0,0-.3,1.594,20.51,20.51,0,0,0,3.753.345A19.649,19.649,0,0,0,27.7,41.942c1.522.38,1.193.3,1.327.333a5.174,5.174,0,0,1,3.793,4.779c.006.243,0-.677,0,6.661H28.48V51.544a.811.811,0,1,0-1.621,0v2.172H7.59V51.544a.811.811,0,1,0-1.621,0v2.172H1.621Zm52.1,6.448H49.37V51.546a.811.811,0,1,0-1.621,0v2.172H34.45V48.335a13.2,13.2,0,0,0,5.155,1.035,12.857,12.857,0,0,0,7.13-2.095,10.9,10.9,0,0,0,3.873-4.415A7.852,7.852,0,0,1,53.718,49.1Z"/>
    </g>
  </g>
</svg>
