<svg xmlns="http://www.w3.org/2000/svg" xmlns:xlink="http://www.w3.org/1999/xlink" width="113" height="113" viewBox="0 0 113 113">
  <defs>
    <filter id="Trazado_982547" x="0" y="0" width="113" height="113" filterUnits="userSpaceOnUse">
      <feOffset dy="3" input="SourceAlpha"/>
      <feGaussianBlur stdDeviation="3" result="blur"/>
      <feFlood flood-opacity="0.161"/>
      <feComposite operator="in" in2="blur"/>
      <feComposite in="SourceGraphic"/>
    </filter>
  </defs>
  <g id="Grupo_1202529" data-name="Grupo 1202529" transform="translate(-5974 -1332.785)">
    <g id="Grupo_1202363" data-name="Grupo 1202363" transform="translate(5180.51 -128.838)">
      <g id="Grupo_1177632" data-name="Grupo 1177632" transform="translate(-4493 -458.649)">
        <g id="Grupo_1176928" data-name="Grupo 1176928" transform="translate(5295.49 1926.273)">
          <g id="Grupo_1172322" data-name="Grupo 1172322" transform="translate(0 0)">
            <g id="Grupo_1164700" data-name="Grupo 1164700">
              <g id="Grupo_1160931" data-name="Grupo 1160931">
                <g id="Grupo_1160749" data-name="Grupo 1160749">
                  <g id="Grupo_1158891" data-name="Grupo 1158891">
                    <g id="Grupo_1157406" data-name="Grupo 1157406">
                      <g id="Grupo_1155793" data-name="Grupo 1155793">
                        <g id="Grupo_1154704" data-name="Grupo 1154704">
                          <g id="Grupo_1150790" data-name="Grupo 1150790">
                            <g id="Grupo_1154214" data-name="Grupo 1154214">
                              <g id="Grupo_1152583" data-name="Grupo 1152583">
                                <g id="Grupo_1146973" data-name="Grupo 1146973">
                                  <g id="Grupo_1146954" data-name="Grupo 1146954">
                                    <g transform="matrix(1, 0, 0, 1, -9, -6)" filter="url(#Trazado_982547)">
                                      <g id="Trazado_982547-2" data-name="Trazado 982547" transform="translate(9 6)" fill="#f2f7e5">
                                        <path d="M 47.5000114440918 93.49987030029297 C 41.28938293457031 93.49987030029297 35.26534652709961 92.28384399414062 29.5951976776123 89.88558959960938 C 24.11773109436035 87.56881713867188 19.19814491271973 84.25183868408203 14.97310447692871 80.02680206298828 C 10.74805164337158 75.80176544189453 7.43107795715332 70.88218688964844 5.114304542541504 65.40472412109375 C 2.716038227081299 59.73458862304688 1.500011444091797 53.71054840087891 1.500011444091797 47.49993515014648 C 1.500011444091797 41.28932189941406 2.716038227081299 35.26528167724609 5.114304542541504 29.59514808654785 C 7.43107795715332 24.1176815032959 10.74805164337158 19.1981086730957 14.97310447692871 14.97306823730469 C 19.19814491271973 10.74802875518799 24.11773109436035 7.431055068969727 29.5951976776123 5.11428165435791 C 35.26534652709961 2.716028451919556 41.28938293457031 1.500001788139343 47.5000114440918 1.500001788139343 C 53.71063995361328 1.500001788139343 59.73467636108398 2.716028451919556 65.40482330322266 5.11428165435791 C 70.88229370117188 7.431055068969727 75.8018798828125 10.74802875518799 80.02691650390625 14.97306823730469 C 84.25196838378906 19.1981086730957 87.56894683837891 24.1176815032959 89.88571929931641 29.59514808654785 C 92.28398132324219 35.26528167724609 93.50001525878906 41.28932189941406 93.50001525878906 47.49993515014648 C 93.50001525878906 53.71054840087891 92.28398132324219 59.73458862304688 89.88571929931641 65.40472412109375 C 87.56894683837891 70.88218688964844 84.25196838378906 75.80176544189453 80.02691650390625 80.02680206298828 C 75.8018798828125 84.25183868408203 70.88229370117188 87.56881713867188 65.40482330322266 89.88558959960938 C 59.73467636108398 92.28384399414062 53.71063995361328 93.49987030029297 47.5000114440918 93.49987030029297 Z" stroke="none"/>
                                        <path d="M 47.5000114440918 3 C 41.49122619628906 3 35.66378021240234 4.1761474609375 30.17951965332031 6.495796203613281 C 24.880859375 8.7369384765625 20.12153625488281 11.94596862792969 16.03376770019531 16.03373718261719 C 11.94598388671875 20.12149047851562 8.736968994140625 24.88081359863281 6.495811462402344 30.17947387695312 C 4.176162719726562 35.66371917724609 3.000007629394531 41.49116516113281 3.000007629394531 47.49993515014648 C 3.000007629394531 53.50870513916016 4.176162719726562 59.33615112304688 6.495811462402344 64.82039642333984 C 8.736968994140625 70.11905670166016 11.94598388671875 74.87837982177734 16.03376770019531 78.96613311767578 C 20.12153625488281 83.05390167236328 24.880859375 86.26293182373047 30.17951965332031 88.50407409667969 C 35.66378021240234 90.82372283935547 41.49122619628906 91.99987030029297 47.5000114440918 91.99987030029297 C 53.50879669189453 91.99987030029297 59.33624267578125 90.82372283935547 64.82050323486328 88.50407409667969 C 70.11916351318359 86.26293182373047 74.87848663330078 83.05390167236328 78.96625518798828 78.96613311767578 C 83.05403900146484 74.87837982177734 86.2630615234375 70.11905670166016 88.50421142578125 64.82039642333984 C 90.82386016845703 59.33615112304688 92.00001525878906 53.50870513916016 92.00001525878906 47.49993515014648 C 92.00001525878906 41.49116516113281 90.82386016845703 35.66371917724609 88.50421142578125 30.17947387695312 C 86.2630615234375 24.88081359863281 83.05403900146484 20.12149047851562 78.96625518798828 16.03373718261719 C 74.87848663330078 11.94596862792969 70.11916351318359 8.7369384765625 64.82050323486328 6.495796203613281 C 59.33624267578125 4.1761474609375 53.50879669189453 3 47.5000114440918 3 M 47.5000114440918 0 C 73.73353576660156 0 95.00001525878906 21.26644134521484 95.00001525878906 47.49993515014648 C 95.00001525878906 73.73342895507812 73.73353576660156 94.99987030029297 47.5000114440918 94.99987030029297 C 21.26648712158203 94.99987030029297 7.62939453125e-06 73.73342895507812 7.62939453125e-06 47.49993515014648 C 7.62939453125e-06 21.26644134521484 21.26648712158203 0 47.5000114440918 0 Z" stroke="none" fill="#86b60c"/>
                                      </g>
                                    </g>
                                  </g>
                                </g>
                              </g>
                            </g>
                          </g>
                        </g>
                      </g>
                    </g>
                  </g>
                </g>
              </g>
            </g>
          </g>
        </g>
      </g>
    </g>
    <g id="team_1875692" transform="translate(5999 1354)">
      <path id="Trazado_1041373" data-name="Trazado 1041373" d="M21.7,50.71l5.19,2.17-5.27,2.2A7.421,7.421,0,0,0,17.28,60H2a7.485,7.485,0,0,1,4.62-6.92l.84-.35,4.84-2.02a5,5,0,0,0,9.4,0Z" fill="#fcd770"/>
      <path id="Trazado_1041374" data-name="Trazado 1041374" d="M42.3,50.71a5,5,0,0,0,9.4,0l4.84,2.02.84.35A7.485,7.485,0,0,1,62,60H46.72a7.431,7.431,0,0,0-4.34-4.92l-5.27-2.2Z" fill="#fcd770"/>
      <path id="Trazado_1041375" data-name="Trazado 1041375" d="M25.41,31.58a10.487,10.487,0,0,0-3.15,5.43L22.2,37h-.37A6.835,6.835,0,0,1,17,35a6.835,6.835,0,0,1-4.83,2H11v3.68a8.788,8.788,0,0,0,3,6.6v1.39a2.006,2.006,0,0,1-1.23,1.84l-.47.2L7.46,52.73A21.558,21.558,0,0,1,4,50a6.746,6.746,0,0,0,3-5.61V37a10,10,0,0,1,18.37-5.47Z" fill="#b27946"/>
      <path id="Trazado_1041376" data-name="Trazado 1041376" d="M60,50a21.559,21.559,0,0,1-3.46,2.73L51.7,50.71l-.47-.2A2.006,2.006,0,0,1,50,48.67V47.28a8.788,8.788,0,0,0,3-6.6V37H51.83A6.835,6.835,0,0,1,47,35a6.835,6.835,0,0,1-4.83,2H41.8a9.986,9.986,0,0,0-3.16-5.48A10,10,0,0,1,57,37v7.39A6.746,6.746,0,0,0,60,50Z" fill="#b27946"/>
      <g id="Grupo_1202528" data-name="Grupo 1202528">
        <path id="Trazado_1041377" data-name="Trazado 1041377" d="M22.26,37.01A10.531,10.531,0,0,0,22,39.34v2.83a4.857,4.857,0,0,0,.34,1.78A8.818,8.818,0,0,1,17,49a8.783,8.783,0,0,1-6-8.32V37h1.17A6.835,6.835,0,0,0,17,35a6.835,6.835,0,0,0,4.83,2h.37Z" fill="#f0d0b4"/>
        <path id="Trazado_1041378" data-name="Trazado 1041378" d="M21.23,50.51l.47.2a5,5,0,0,1-9.4,0l.47-.2A2.006,2.006,0,0,0,14,48.67V47.28A8.84,8.84,0,0,0,17,49a8.724,8.724,0,0,0,3-1.74v1.41A2.006,2.006,0,0,0,21.23,50.51Z" fill="#f0d0b4"/>
        <path id="Trazado_1041379" data-name="Trazado 1041379" d="M50,47.28A8.84,8.84,0,0,1,47,49a8.818,8.818,0,0,1-5.34-5.05A4.857,4.857,0,0,0,42,42.17V39a10.048,10.048,0,0,0-.2-2h.37A6.835,6.835,0,0,0,47,35a6.835,6.835,0,0,0,4.83,2H53v3.68A8.788,8.788,0,0,1,50,47.28Z" fill="#f0d0b4"/>
        <path id="Trazado_1041380" data-name="Trazado 1041380" d="M51.23,50.51l.47.2a5,5,0,0,1-9.4,0l.47-.2A2.006,2.006,0,0,0,44,48.67V47.26A8.724,8.724,0,0,0,47,49a8.84,8.84,0,0,0,3-1.72v1.39A2.006,2.006,0,0,0,51.23,50.51Z" fill="#f0d0b4"/>
      </g>
      <path id="Trazado_1041381" data-name="Trazado 1041381" d="M37.1,52.88h.01l5.27,2.2A7.431,7.431,0,0,1,46.72,60,7,7,0,0,1,47,62H17a7,7,0,0,1,.28-2,7.421,7.421,0,0,1,4.34-4.92l5.27-2.2h.01l.4-.17a5,5,0,0,0,9.4,0Z" fill="#b4dd7f"/>
      <path id="Trazado_1041382" data-name="Trazado 1041382" d="M35.68,48.61a7.167,7.167,0,0,1-.68.67A8.84,8.84,0,0,1,32,51a8.84,8.84,0,0,1-3-1.72,9.672,9.672,0,0,1-1.34-1.47A8.73,8.73,0,0,1,26,42.68V39h1.17A6.835,6.835,0,0,0,32,37a6.835,6.835,0,0,0,4.83,2H38v3.68A8.727,8.727,0,0,1,35.68,48.61Z" fill="#f0d0b4"/>
      <path id="Trazado_1041383" data-name="Trazado 1041383" d="M36.23,52.51l.47.2a5,5,0,0,1-9.4,0l.47-.2A2.006,2.006,0,0,0,29,50.67V49.28A8.84,8.84,0,0,0,32,51a8.84,8.84,0,0,0,3-1.72v1.39A2.006,2.006,0,0,0,36.23,52.51Z" fill="#f0d0b4"/>
      <path id="Trazado_1041384" data-name="Trazado 1041384" d="M38.64,31.52A9.979,9.979,0,0,1,42,39v3.17a4.885,4.885,0,0,1-2.46,4.23l-3.86,2.21A8.727,8.727,0,0,0,38,42.68V39H36.83A6.835,6.835,0,0,1,32,37a6.835,6.835,0,0,1-4.83,2H26v3.68a8.73,8.73,0,0,0,1.66,5.13,7.188,7.188,0,0,0,.66.8L24.46,46.4A4.885,4.885,0,0,1,22,42.17V39.34a10.522,10.522,0,0,1,3.41-7.76,9.668,9.668,0,0,1,5.92-2.56c.22-.01.45-.02.67-.02a9.961,9.961,0,0,1,6.64,2.52Z" fill="#656d78"/>
      <path id="Trazado_1041385" data-name="Trazado 1041385" d="M8.76,16.05A2.028,2.028,0,0,1,9,17a2,2,0,0,1-3.73,1.01A2.032,2.032,0,0,1,5,17a2,2,0,0,1,3.76-.95Z" fill="#ffc729"/>
      <path id="Trazado_1041386" data-name="Trazado 1041386" d="M57,15a2,2,0,1,1-2,2,2,2,0,0,1,2-2Z" fill="#ffc729"/>
      <path id="Trazado_1041387" data-name="Trazado 1041387" d="M42,12.63V14l-1.93,1.34.42,2.32-2.83,2.83-2.32-.42L34,22H30l-1.34-1.93-2.32.42-2.83-2.83.42-2.32L22,14V10l1.93-1.34-.42-2.32,2.83-2.83,2.32.42L30,2h4l1.34,1.93,2.32-.42,2.83,2.83-.42,2.32L42,10ZM36,12a4,4,0,1,0-4,4A4,4,0,0,0,36,12Z" fill="#fcd770"/>
      <path id="Trazado_1041388" data-name="Trazado 1041388" d="M32,17a5,5,0,1,0-5-5A5.006,5.006,0,0,0,32,17Zm0-8a3,3,0,1,1-3,3A3,3,0,0,1,32,9Z"/>
      <path id="Trazado_1041389" data-name="Trazado 1041389" d="M58.556,52.552a22.939,22.939,0,0,0,2.151-1.845l.862-.862-1.015-.677A5.728,5.728,0,0,1,58,44.4V37a10.929,10.929,0,0,0-1.993-6.3C60.587,28.576,63,25.925,63,23c0-1.887-1.069-3.719-3.079-5.338a2.991,2.991,0,0,0-4.986-2.828A49.765,49.765,0,0,0,43,11.762V9.478L41.168,8.2l.394-2.2L38,2.438l-2.2.394L34.522,1H29.477L28.2,2.832l-2.2-.394L22.439,6.006l.394,2.2L21,9.478v2.285A49.718,49.718,0,0,0,9.065,14.835,2.992,2.992,0,0,0,4,17a3.013,3.013,0,0,0,.079.662C2.069,19.281,1,21.114,1,23c0,2.927,2.415,5.575,6.994,7.7A10.934,10.934,0,0,0,6,37v7.4a5.726,5.726,0,0,1-2.555,4.773l-1.015.677.862.862a23.094,23.094,0,0,0,2.151,1.845A8.46,8.46,0,0,0,1,60v1H16.074A8.48,8.48,0,0,0,16,62v1H48V62a8.48,8.48,0,0,0-.074-1H63V60a8.459,8.459,0,0,0-4.444-7.448Zm-.1-2.5A20.563,20.563,0,0,1,56.44,51.6L51.615,49.59A1,1,0,0,1,51,48.667v-.95a9.755,9.755,0,0,0,3-7.041V36H51.828a5.868,5.868,0,0,1-4.121-1.707L47,33.586l-.707.707a5.868,5.868,0,0,1-3.731,1.687,11.028,11.028,0,0,0-2.6-4.553A8.984,8.984,0,0,1,56,37v7.4a7.721,7.721,0,0,0,2.461,5.66ZM31.4,30.02A9,9,0,0,1,41,39v3.171a3.879,3.879,0,0,1-1.953,3.364l-.587.335A9.78,9.78,0,0,0,39,42.675V38H36.828a5.868,5.868,0,0,1-4.121-1.707L32,35.586l-.707.707A5.868,5.868,0,0,1,27.172,38H25v4.676a9.759,9.759,0,0,0,.54,3.195l-.586-.335A3.881,3.881,0,0,1,23,42.171V39.343a9.2,9.2,0,0,1,8.4-9.323ZM47,47.938a7.744,7.744,0,0,1-4.267-4.052A5.827,5.827,0,0,0,43,42.171V39c0-.357-.021-.713-.055-1.066A7.884,7.884,0,0,0,47,36.332,7.894,7.894,0,0,0,51.828,38H52v2.676a7.763,7.763,0,0,1-5,7.262ZM27,42.676V40h.172A7.894,7.894,0,0,0,32,38.332,7.894,7.894,0,0,0,36.828,40H37v2.676a7.765,7.765,0,0,1-5,7.263A7.765,7.765,0,0,1,27,42.676Zm-5.733,1.211A7.744,7.744,0,0,1,17,47.939a7.763,7.763,0,0,1-5-7.263V38h.172A7.894,7.894,0,0,0,17,36.332a7.9,7.9,0,0,0,4.094,1.606,11.824,11.824,0,0,0-.094,1.4v2.828A5.844,5.844,0,0,0,21.267,43.887Zm-6.313,5.285a9.823,9.823,0,0,0,1.73.777l.316.1.316-.1a9.589,9.589,0,0,0,1.728-.782,2.981,2.981,0,0,0,1.305,2,3.975,3.975,0,0,1-6.7,0,2.982,2.982,0,0,0,1.3-1.993Zm6.661.418A1,1,0,0,1,21,48.667V47.7a9.8,9.8,0,0,0,1.406-1.731,5.83,5.83,0,0,0,1.555,1.307L27.684,49.4c.1.108.208.213.316.317v.95a1,1,0,0,1-.615.923l-.485.2Zm8.339,1.582a9.823,9.823,0,0,0,1.73.777l.316.1.316-.1a9.744,9.744,0,0,0,1.73-.777,2.98,2.98,0,0,0,1.3,1.993,3.975,3.975,0,0,1-6.7,0A2.982,2.982,0,0,0,29.954,51.172Zm6.661.418A1,1,0,0,1,36,50.667v-.95c.108-.1.213-.208.316-.317l3.723-2.129a5.83,5.83,0,0,0,1.555-1.307A9.8,9.8,0,0,0,43,47.695v.971a1,1,0,0,1-.615.923l-5.285,2.2Zm8.34-2.424a9.652,9.652,0,0,0,1.728.782l.317.106.316-.1a9.744,9.744,0,0,0,1.73-.777,2.98,2.98,0,0,0,1.3,1.993,3.975,3.975,0,0,1-6.7,0,2.98,2.98,0,0,0,1.305-2ZM57,16a1,1,0,1,1-1,1A1,1,0,0,1,57,16ZM43,14.522v-.74a47.612,47.612,0,0,1,11.038,2.843A2.923,2.923,0,0,0,54,17a3,3,0,0,0,3,3,2.966,2.966,0,0,0,1.837-.646A5.128,5.128,0,0,1,61,23c0,2.123-2.309,4.339-6.344,6.118a10.953,10.953,0,0,0-16.2.984A10.839,10.839,0,0,0,33,28.058V23h1.522L35.8,21.168l2.2.394,3.566-3.568-.394-2.2Zm-20-4,2.027-1.411L24.59,6.68l2.09-2.089,2.432.436L30.522,3h2.955l1.41,2.027,2.432-.436,2.09,2.089-.437,2.431L41,10.522v2.955l-2.027,1.411.437,2.431-2.09,2.089-2.432-.436L33.478,21H30.523l-1.41-2.027-2.432.436-2.09-2.089.437-2.431L23,13.478ZM7,16a1,1,0,1,1-1,1A1,1,0,0,1,7,16ZM3,23a5.131,5.131,0,0,1,2.162-3.647A2.968,2.968,0,0,0,7,20a3,3,0,0,0,3-3,2.889,2.889,0,0,0-.038-.374A47.612,47.612,0,0,1,21,13.783v.74L22.832,15.8l-.394,2.2L26,21.563l2.2-.394L29.478,23H31v5.055a10.669,10.669,0,0,0-5.429,2.083,10.951,10.951,0,0,0-16.227-1.02C5.306,27.338,3,25.125,3,23Zm5,21.4V37a8.982,8.982,0,0,1,16.08-5.523A11.453,11.453,0,0,0,21.5,35.983a5.87,5.87,0,0,1-3.791-1.69L17,33.586l-.707.707A5.868,5.868,0,0,1,12.172,36H10v4.676a9.757,9.757,0,0,0,3,7.041v.95a1,1,0,0,1-.615.923L7.56,51.6a20.563,20.563,0,0,1-2.021-1.546A7.717,7.717,0,0,0,8,44.395ZM3.076,59A6.48,6.48,0,0,1,7,54l4.81-2a5.985,5.985,0,0,0,10.38,0l2.11.879-3.07,1.279A8.46,8.46,0,0,0,16.566,59Zm15,2A6.48,6.48,0,0,1,22,56l4.81-2a5.985,5.985,0,0,0,10.38,0L42,56a6.48,6.48,0,0,1,3.924,5Zm29.357-2a8.454,8.454,0,0,0-4.664-4.846L39.7,52.875,41.809,52A5.986,5.986,0,0,0,52.19,52L57,54a6.48,6.48,0,0,1,3.924,5Z"/>
    </g>
  </g>
</svg>
