<svg xmlns="http://www.w3.org/2000/svg" xmlns:xlink="http://www.w3.org/1999/xlink" width="113" height="113" viewBox="0 0 113 113">
  <defs>
    <filter id="Trazado_982547" x="0" y="0" width="113" height="113" filterUnits="userSpaceOnUse">
      <feOffset dy="3" input="SourceAlpha"/>
      <feGaussianBlur stdDeviation="3" result="blur"/>
      <feFlood flood-opacity="0.161"/>
      <feComposite operator="in" in2="blur"/>
      <feComposite in="SourceGraphic"/>
    </filter>
  </defs>
  <g id="Grupo_1202530" data-name="Grupo 1202530" transform="translate(-271 -1388.094)">
    <g id="Grupo_1202364" data-name="Grupo 1202364" transform="translate(0 517.68)">
      <g id="Grupo_1174813" data-name="Grupo 1174813" transform="translate(280 876.414)">
        <g id="Grupo_1201680" data-name="Grupo 1201680">
          <g id="Grupo_1201330" data-name="Grupo 1201330">
            <g id="Grupo_1172010" data-name="Grupo 1172010">
              <g id="Grupo_1171046" data-name="Grupo 1171046">
                <g id="Grupo_1148525" data-name="Grupo 1148525">
                  <g transform="matrix(1, 0, 0, 1, -9, -6)" filter="url(#Trazado_982547)">
                    <g id="Trazado_982547-2" data-name="Trazado 982547" transform="translate(9 6)" fill="#e9f9fd">
                      <path d="M 47.5 93.5 C 41.28937149047852 93.5 35.26533508300781 92.28397369384766 29.59518623352051 89.88570404052734 C 24.11771965026855 87.56893157958984 19.19813346862793 84.25196075439453 14.97309303283691 80.02691650390625 C 10.74804019927979 75.80186462402344 7.431066513061523 70.88229370117188 5.114293098449707 65.40481567382812 C 2.716026782989502 59.73468017578125 1.5 53.71062850952148 1.5 47.5 C 1.5 41.28937149047852 2.716026782989502 35.26533508300781 5.114293098449707 29.59518623352051 C 7.431066513061523 24.11771965026855 10.74804019927979 19.19813346862793 14.97309303283691 14.97309303283691 C 19.19813346862793 10.74804019927979 24.11771965026855 7.431066513061523 29.59518623352051 5.114293098449707 C 35.26533508300781 2.716026782989502 41.28937149047852 1.5 47.5 1.5 C 53.71062850952148 1.5 59.73468017578125 2.716026782989502 65.40481567382812 5.114293098449707 C 70.88229370117188 7.431066513061523 75.80186462402344 10.74804019927979 80.02691650390625 14.97309303283691 C 84.25196075439453 19.19813346862793 87.56893157958984 24.11771965026855 89.88570404052734 29.59518623352051 C 92.28397369384766 35.26533508300781 93.5 41.28937149047852 93.5 47.5 C 93.5 53.71062850952148 92.28397369384766 59.73468017578125 89.88570404052734 65.40481567382812 C 87.56893157958984 70.88229370117188 84.25196075439453 75.80186462402344 80.02691650390625 80.02691650390625 C 75.80186462402344 84.25196075439453 70.88229370117188 87.56893157958984 65.40481567382812 89.88570404052734 C 59.73468017578125 92.28397369384766 53.71062850952148 93.5 47.5 93.5 Z" stroke="none"/>
                      <path d="M 47.5 3 C 41.49121475219727 3 35.66376876831055 4.176155090332031 30.17950439453125 6.495796203613281 C 24.88084411621094 8.736953735351562 20.12152099609375 11.94598388671875 16.03375244140625 16.03375244140625 C 11.94598388671875 20.12152099609375 8.736953735351562 24.88084411621094 6.495796203613281 30.17950439453125 C 4.176155090332031 35.66376876831055 3 41.49121475219727 3 47.5 C 3 53.50878524780273 4.176155090332031 59.33623123168945 6.495796203613281 64.82049560546875 C 8.736953735351562 70.11915588378906 11.94598388671875 74.87847900390625 16.03375244140625 78.96624755859375 C 20.12152099609375 83.05401611328125 24.88084411621094 86.26304626464844 30.17950439453125 88.50419616699219 C 35.66376876831055 90.82384490966797 41.49121475219727 92 47.5 92 C 53.50878524780273 92 59.33623123168945 90.82384490966797 64.82049560546875 88.50419616699219 C 70.11915588378906 86.26304626464844 74.87847900390625 83.05401611328125 78.96624755859375 78.96624755859375 C 83.05401611328125 74.87847900390625 86.26304626464844 70.11915588378906 88.50419616699219 64.82049560546875 C 90.82384490966797 59.33623123168945 92 53.50878524780273 92 47.5 C 92 41.49121475219727 90.82384490966797 35.66376876831055 88.50419616699219 30.17950439453125 C 86.26304626464844 24.88084411621094 83.05401611328125 20.12152099609375 78.96624755859375 16.03375244140625 C 74.87847900390625 11.94598388671875 70.11915588378906 8.736953735351562 64.82049560546875 6.495796203613281 C 59.33623123168945 4.176155090332031 53.50878524780273 3 47.5 3 M 47.5 0 C 73.7335205078125 0 95 21.2664794921875 95 47.5 C 95 73.7335205078125 73.7335205078125 95 47.5 95 C 21.2664794921875 95 0 73.7335205078125 0 47.5 C 0 21.2664794921875 21.2664794921875 0 47.5 0 Z" stroke="none" fill="#1d7083"/>
                    </g>
                  </g>
                </g>
              </g>
            </g>
          </g>
        </g>
      </g>
    </g>
    <g id="Layer_74" data-name="Layer 74" transform="translate(300.717 1411.532)">
      <path id="Trazado_1041390" data-name="Trazado 1041390" d="M69.634,224.838v.008H21.351v-.008a3.109,3.109,0,0,1,3.276-2.909h41.73A3.11,3.11,0,0,1,69.634,224.838Z" transform="translate(-18.905 -196.509)" fill="#a7a9ac"/>
      <path id="Trazado_1041391" data-name="Trazado 1041391" d="M64.322,220.224H16.039a.687.687,0,0,1-.687-.687,3.8,3.8,0,0,1,3.963-3.6H61.046a3.8,3.8,0,0,1,3.964,3.6v.008A.687.687,0,0,1,64.322,220.224ZM16.85,218.85H63.511a2.585,2.585,0,0,0-2.466-1.543H19.315a2.582,2.582,0,0,0-2.464,1.543Z" transform="translate(-13.594 -191.2)"/>
      <path id="Trazado_1041392" data-name="Trazado 1041392" d="M58.192,472.438v2.283a3.32,3.32,0,0,1-3.541,3.041H9.541A3.319,3.319,0,0,1,6,474.721v-2.283H24.254v.813a1.311,1.311,0,0,0,1.351,1.266h10.73a1.312,1.312,0,0,0,1.352-1.266v-.813Z" transform="translate(-5.313 -418.324)" fill="#a7a9ac"/>
      <path id="Trazado_1041393" data-name="Trazado 1041393" d="M49.338,473.136H4.229A4.007,4.007,0,0,1,0,469.408v-2.283a.687.687,0,0,1,.687-.687H18.941a.687.687,0,0,1,.687.687v.813a.627.627,0,0,0,.664.579h10.73a.627.627,0,0,0,.664-.579v-.813a.687.687,0,0,1,.687-.687H52.879a.687.687,0,0,1,.687.687v2.283A4.006,4.006,0,0,1,49.338,473.136ZM1.375,467.812v1.6a2.643,2.643,0,0,0,2.854,2.354H49.338a2.643,2.643,0,0,0,2.854-2.354v-1.6H33.061v.126a2,2,0,0,1-2.038,1.954H20.292a2,2,0,0,1-2.038-1.954v-.126Z" transform="translate(0 -413.011)"/>
      <path id="Trazado_1041394" data-name="Trazado 1041394" d="M69.631,247.4v25.776H51.276v.813a1.312,1.312,0,0,1-1.352,1.266H39.195a1.311,1.311,0,0,1-1.351-1.266v-.813h-16.5V247.4Z" transform="translate(-18.903 -219.062)" fill="#a7ddee"/>
      <path id="Trazado_1041395" data-name="Trazado 1041395" d="M44.613,270.631H33.882a2,2,0,0,1-2.038-1.954v-.126H16.035a.687.687,0,0,1-.687-.687V242.087a.687.687,0,0,1,.687-.687H64.319a.687.687,0,0,1,.687.687v25.776a.687.687,0,0,1-.687.687H46.651v.126A2,2,0,0,1,44.613,270.631Zm-27.89-3.455H32.531a.687.687,0,0,1,.687.687v.813a.626.626,0,0,0,.664.579h10.73a.626.626,0,0,0,.664-.579v-.813a.687.687,0,0,1,.687-.687H63.631v-24.4H16.722Z" transform="translate(-13.59 -213.75)"/>
      <path id="Trazado_1041396" data-name="Trazado 1041396" d="M67.132,48.821H99.98V91.743H67.132Z" transform="translate(-59.443 -43.229)" fill="#379db5"/>
      <path id="Trazado_1041397" data-name="Trazado 1041397" d="M94.668,87.118H61.82a.687.687,0,0,1-.687-.687V43.508a.687.687,0,0,1,.687-.687H94.668a.687.687,0,0,1,.687.687V86.431A.687.687,0,0,1,94.668,87.118ZM62.507,85.743H93.981V44.2H62.507Z" transform="translate(-54.131 -37.916)"/>
      <path id="Trazado_1041398" data-name="Trazado 1041398" d="M123.423,75.192v36.94h-30.7V69.462h24.965Z" transform="translate(-82.107 -61.506)" fill="#5abde0"/>
      <path id="Trazado_1041399" data-name="Trazado 1041399" d="M118.111,107.507h-30.7a.687.687,0,0,1-.687-.687V64.149a.687.687,0,0,1,.687-.687h24.965a.687.687,0,0,1,.486.2l5.73,5.73a.687.687,0,0,1,.2.486v36.94A.687.687,0,0,1,118.111,107.507ZM88.1,106.132h29.321V70.164L112.1,64.837H88.1Z" transform="translate(-76.795 -56.193)"/>
      <path id="Trazado_1041400" data-name="Trazado 1041400" d="M316.418,75.192h-5.73v-5.73Z" transform="translate(-275.101 -61.506)" fill="#4cb1cc"/>
      <path id="Trazado_1041401" data-name="Trazado 1041401" d="M311.105,70.566h-5.73a.687.687,0,0,1-.687-.687v-5.73a.687.687,0,0,1,1.173-.486l5.73,5.73a.687.687,0,0,1-.486,1.173Zm-5.043-1.374h3.383l-3.383-3.383Z" transform="translate(-269.789 -56.193)"/>
      <path id="Trazado_1041402" data-name="Trazado 1041402" d="M345.295,381.138l0,.2-1.249,2.125-1.009,1.715a.939.939,0,0,1-1.47-.005l-.964-1.723-1.193-2.134,0-.2Z" transform="translate(-300.531 -337.462)" fill="#58595b"/>
      <path id="Trazado_1041403" data-name="Trazado 1041403" d="M336.986,380.905h-.02a1.48,1.48,0,0,1-1.315-.709l-2.157-3.857a.687.687,0,0,1-.087-.345l0-.2a.687.687,0,0,1,.687-.678h0l5.885.022a.687.687,0,0,1,.685.7l0,.2a.687.687,0,0,1-.095.339l-2.258,3.84A1.517,1.517,0,0,1,336.986,380.905Zm-.147-1.4a.4.4,0,0,0,.3,0l1.759-2.992-3.743-.014Z" transform="translate(-295.218 -332.15)"/>
      <path id="Trazado_1041404" data-name="Trazado 1041404" d="M339.3,184.467h5.9v22.545h-5.9Z" transform="translate(-300.432 -163.338)" fill="#a7a9ac"/>
      <path id="Trazado_1041405" data-name="Trazado 1041405" d="M339.888,202.387h-5.9a.687.687,0,0,1-.687-.687V179.154a.687.687,0,0,1,.687-.687h5.9a.687.687,0,0,1,.687.687V201.7A.687.687,0,0,1,339.888,202.387Zm-5.214-1.374H339.2V179.841h-4.526Z" transform="translate(-295.123 -158.025)"/>
      <path id="Trazado_1041406" data-name="Trazado 1041406" d="M345.2,153.275l-.015,2.26H339.3l.025-2.294a2.13,2.13,0,0,1,2.307-1.878l1.289.006A2.117,2.117,0,0,1,345.2,153.275Z" transform="translate(-300.436 -134.025)" fill="#58595b"/>
      <path id="Trazado_1041407" data-name="Trazado 1041407" d="M339.872,150.906h-5.885a.687.687,0,0,1-.687-.695l.025-2.294a2.812,2.812,0,0,1,2.979-2.559h.019l1.288.006a3.188,3.188,0,0,1,2.249.9,2.39,2.39,0,0,1,.715,1.7l-.015,2.26A.687.687,0,0,1,339.872,150.906Zm-5.191-1.374h4.508l.011-1.577a1.024,1.024,0,0,0-.318-.722,1.808,1.808,0,0,0-1.278-.493l-1.289-.006H336.3c-.865,0-1.6.547-1.606,1.2Z" transform="translate(-295.123 -128.709)"/>
      <path id="Trazado_1041408" data-name="Trazado 1041408" d="M359.108,187.789h1.375v21.75h-1.375Z" transform="translate(-317.975 -166.279)"/>
      <path id="Trazado_1041409" data-name="Trazado 1041409" d="M130.219,214.361a2.624,2.624,0,1,1,2.624-2.624A2.624,2.624,0,0,1,130.219,214.361Zm0-3.874a1.25,1.25,0,1,0,1.25,1.25A1.25,1.25,0,0,0,130.219,210.488Z" transform="translate(-112.98 -185.161)"/>
      <path id="Trazado_1041410" data-name="Trazado 1041410" d="M130.219,288.417a2.624,2.624,0,1,1,2.624-2.624A2.624,2.624,0,0,1,130.219,288.417Zm0-3.874a1.25,1.25,0,1,0,1.25,1.25A1.25,1.25,0,0,0,130.219,284.544Z" transform="translate(-112.98 -250.734)"/>
      <path id="Trazado_1041411" data-name="Trazado 1041411" d="M213.988,124.453h8.706v1.374h-8.706Z" transform="translate(-189.477 -110.198)"/>
      <path id="Trazado_1041412" data-name="Trazado 1041412" d="M213.988,154.471h8.706v1.374h-8.706Z" transform="translate(-189.477 -136.778)"/>
      <path id="Trazado_1041413" data-name="Trazado 1041413" d="M189.395,209.113h13.893v1.375H189.395Z" transform="translate(-167.701 -185.161)"/>
      <path id="Trazado_1041414" data-name="Trazado 1041414" d="M189.4,236.691h11.2v1.375H189.4Z" transform="translate(-167.701 -209.58)"/>
      <path id="Trazado_1041415" data-name="Trazado 1041415" d="M189.395,283.17h13.893v1.375H189.395Z" transform="translate(-167.701 -250.735)"/>
      <path id="Trazado_1041416" data-name="Trazado 1041416" d="M189.4,310.748h11.2v1.375H189.4Z" transform="translate(-167.701 -275.154)"/>
      <path id="Trazado_1041417" data-name="Trazado 1041417" d="M189.395,365.375h13.893v1.374H189.395Z" transform="translate(-167.701 -323.524)"/>
      <path id="Trazado_1041418" data-name="Trazado 1041418" d="M189.4,392.954h11.2v1.375H189.4Z" transform="translate(-167.701 -347.944)"/>
      <path id="Trazado_1041419" data-name="Trazado 1041419" d="M130.219,370.622A2.624,2.624,0,1,1,132.843,368,2.624,2.624,0,0,1,130.219,370.622Zm0-3.874a1.25,1.25,0,1,0,1.25,1.25,1.25,1.25,0,0,0-1.25-1.25Z" transform="translate(-112.98 -323.523)"/>
      <path id="Trazado_1041420" data-name="Trazado 1041420" d="M19.436,27.168h3.1l4.884,5.943V27.168h6.953a3.379,3.379,0,0,0,3.379-3.379L37.687,9.38A3.379,3.379,0,0,0,34.308,6H19.37a3.379,3.379,0,0,0-3.379,3.379l.066,14.409a3.379,3.379,0,0,0,3.379,3.38Z" transform="translate(-14.159 -5.313)" fill="#fdc00f"/>
      <path id="Trazado_1041421" data-name="Trazado 1041421" d="M22.106,28.485a.687.687,0,0,1-.531-.251L16.9,22.543H14.12a4.071,4.071,0,0,1-4.066-4.066L9.987,4.07A4.072,4.072,0,0,1,14.054,0H28.992a4.071,4.071,0,0,1,4.066,4.066l.066,14.406a4.072,4.072,0,0,1-4.066,4.07H22.792V27.8a.687.687,0,0,1-.687.687ZM14.054,1.374a2.7,2.7,0,0,0-2.692,2.692l.066,14.406a2.7,2.7,0,0,0,2.691,2.7h3.1a.687.687,0,0,1,.531.251l3.665,4.46V21.856a.687.687,0,0,1,.687-.687h6.953a2.7,2.7,0,0,0,2.692-2.692L31.683,4.07a2.7,2.7,0,0,0-2.692-2.7Z" transform="translate(-8.843 0)"/>
      <path id="Trazado_1041422" data-name="Trazado 1041422" d="M73.028,41.019H70.544q-.01-.6-.01-.725a5.289,5.289,0,0,1,.4-2.208,6.543,6.543,0,0,1,1.6-1.948,12.513,12.513,0,0,0,1.432-1.418,2.036,2.036,0,0,0,.36-1.169,2.067,2.067,0,0,0-.638-1.521,2.333,2.333,0,0,0-1.719-.633,2.446,2.446,0,0,0-1.744.66,3.643,3.643,0,0,0-.964,2.013l-2.513-.347a4.832,4.832,0,0,1,1.485-3.291,4.944,4.944,0,0,1,3.619-1.353,5.118,5.118,0,0,1,3.75,1.369,4.335,4.335,0,0,1,1.393,3.188,3.791,3.791,0,0,1-.511,1.905,11.968,11.968,0,0,1-2.187,2.446,4.523,4.523,0,0,0-1.077,1.288A4.753,4.753,0,0,0,73.028,41.019Zm-2.484,4.092V42.884h2.471v2.227Z" transform="translate(-59.1 -25.749)" fill="#58595b"/>
      <path id="Trazado_1041423" data-name="Trazado 1041423" d="M67.7,40.485H65.23a.687.687,0,0,1-.687-.687V37.571a.687.687,0,0,1,.687-.687H67.7a.687.687,0,0,1,.687.687V39.8A.687.687,0,0,1,67.7,40.485Zm-1.784-1.374h1.1v-.853h-1.1Zm1.8-2.717H65.23a.687.687,0,0,1-.687-.676q-.01-.6-.01-.736a5.982,5.982,0,0,1,.463-2.5,7.126,7.126,0,0,1,1.761-2.17,11.4,11.4,0,0,0,1.329-1.3,1.344,1.344,0,0,0,.237-.776,1.375,1.375,0,0,0-.435-1.033,1.663,1.663,0,0,0-1.235-.434,1.768,1.768,0,0,0-1.273.473,3.009,3.009,0,0,0-.761,1.644.686.686,0,0,1-.768.55l-2.513-.347a.687.687,0,0,1-.592-.719,5.523,5.523,0,0,1,1.69-3.743,5.629,5.629,0,0,1,4.1-1.55,5.8,5.8,0,0,1,4.232,1.566,5.018,5.018,0,0,1,1.6,3.678,4.489,4.489,0,0,1-.6,2.246,12.445,12.445,0,0,1-2.317,2.611,3.778,3.778,0,0,0-.911,1.055A4.034,4.034,0,0,0,68.4,35.7a.687.687,0,0,1-.687.7Zm-1.806-1.375h1.127a3.867,3.867,0,0,1,.238-1.327,4.963,4.963,0,0,1,1.241-1.521,11,11,0,0,0,2.056-2.281,3.087,3.087,0,0,0,.422-1.565,3.644,3.644,0,0,0-1.187-2.7,4.424,4.424,0,0,0-3.269-1.172A4.247,4.247,0,0,0,63.4,25.611a4.1,4.1,0,0,0-1.2,2.211l1.232.17a3.89,3.89,0,0,1,1.012-1.748,3.124,3.124,0,0,1,2.215-.848,3.006,3.006,0,0,1,2.2.832,2.8,2.8,0,0,1,.362,3.564,10.853,10.853,0,0,1-1.54,1.542,5.95,5.95,0,0,0-1.434,1.726,4.645,4.645,0,0,0-.336,1.92c0,.011,0,.024,0,.038Z" transform="translate(-53.786 -20.436)"/>
    </g>
  </g>
</svg>
