<svg xmlns="http://www.w3.org/2000/svg" xmlns:xlink="http://www.w3.org/1999/xlink" width="108" height="108" viewBox="0 0 108 108">
  <defs>
    <filter id="Trazado_904820" x="0" y="0" width="108" height="108" filterUnits="userSpaceOnUse">
      <feOffset dy="3" input="SourceAlpha"/>
      <feGaussianBlur stdDeviation="3" result="blur"/>
      <feFlood flood-opacity="0.161"/>
      <feComposite operator="in" in2="blur"/>
      <feComposite in="SourceGraphic"/>
    </filter>
  </defs>
  <g id="Grupo_1202543" data-name="Grupo 1202543" transform="translate(-620 -319)">
    <g id="Grupo_1202369" data-name="Grupo 1202369" transform="translate(629 325)">
      <g id="Grupo_1173585" data-name="Grupo 1173585" transform="translate(0 0)">
        <g id="Grupo_1173428" data-name="Grupo 1173428">
          <g id="Grupo_1171958" data-name="Grupo 1171958">
            <g id="Grupo_1167341" data-name="Grupo 1167341">
              <g id="Grupo_1166792" data-name="Grupo 1166792">
                <g transform="matrix(1, 0, 0, 1, -9, -6)" filter="url(#Trazado_904820)">
                  <g id="Trazado_904820-2" data-name="Trazado 904820" transform="translate(9 6)" fill="#fbfbf9">
                    <path d="M 44.99999618530273 88.50003051757812 C 39.12687301635742 88.50003051757812 33.43022155761719 87.35010528564453 28.06829643249512 85.08219146728516 C 22.88852119445801 82.89134216308594 18.23629570007324 79.75461578369141 14.24084663391113 75.75916290283203 C 10.24540901184082 71.76371765136719 7.108683586120605 67.11148834228516 4.917821407318115 61.93171691894531 C 2.649921178817749 56.56978988647461 1.499996185302734 50.87313842773438 1.499996185302734 45.00001525878906 C 1.499996185302734 39.12689208984375 2.649921178817749 33.43024063110352 4.917821407318115 28.06830215454102 C 7.108683586120605 22.88852691650391 10.24540901184082 18.23631477355957 14.24084663391113 14.24086570739746 C 18.23629570007324 10.24541568756104 22.88852119445801 7.10869026184082 28.06829643249512 4.917827606201172 C 33.43022155761719 2.649927854537964 39.12687301635742 1.50000274181366 44.99999618530273 1.50000274181366 C 50.87311935424805 1.50000274181366 56.56977081298828 2.649927854537964 61.93169784545898 4.917827606201172 C 67.11147308349609 7.10869026184082 71.76369476318359 10.24541568756104 75.75914764404297 14.24086570739746 C 79.75458526611328 18.23631477355957 82.89131164550781 22.88852691650391 85.08216857910156 28.06830215454102 C 87.35007476806641 33.43024063110352 88.5 39.12689208984375 88.5 45.00001525878906 C 88.5 50.87313842773438 87.35007476806641 56.56978988647461 85.08216857910156 61.93171691894531 C 82.89131164550781 67.11148834228516 79.75458526611328 71.76371765136719 75.75914764404297 75.75916290283203 C 71.76369476318359 79.75461578369141 67.11147308349609 82.89134216308594 61.93169784545898 85.08219146728516 C 56.56977081298828 87.35010528564453 50.87311935424805 88.50003051757812 44.99999618530273 88.50003051757812 Z" stroke="none"/>
                    <path d="M 44.99999618530273 3 C 39.32870864868164 3 33.82865142822266 4.110061645507812 28.65262603759766 6.299346923828125 C 23.65165710449219 8.414573669433594 19.15968322753906 11.44334411621094 15.301513671875 15.301513671875 C 11.44333648681641 19.15968322753906 8.414566040039062 23.65165710449219 6.299339294433594 28.65262985229492 C 4.110054016113281 33.82867050170898 2.999992370605469 39.32872772216797 2.999992370605469 45.00001525878906 C 2.999992370605469 50.67130279541016 4.110054016113281 56.17136001586914 6.299339294433594 61.34738922119141 C 8.414566040039062 66.34837341308594 11.44333648681641 70.84033203125 15.301513671875 74.69850158691406 C 19.15968322753906 78.55668640136719 23.65165710449219 81.58545684814453 28.65262603759766 83.70068359375 C 33.82865142822266 85.88996887207031 39.32870864868164 87.00003051757812 44.99999618530273 87.00003051757812 C 50.67128372192383 87.00003051757812 56.17134094238281 85.88996887207031 61.34736633300781 83.70068359375 C 66.34834289550781 81.58545684814453 70.84030914306641 78.55668640136719 74.69847869873047 74.69850158691406 C 78.55665588378906 70.84033203125 81.58542633056641 66.34837341308594 83.70065307617188 61.34738922119141 C 85.88993835449219 56.17136001586914 87 50.67130279541016 87 45.00001525878906 C 87 39.32872772216797 85.88993835449219 33.82867050170898 83.70065307617188 28.65262985229492 C 81.58542633056641 23.65165710449219 78.55665588378906 19.15968322753906 74.69847869873047 15.301513671875 C 70.84030914306641 11.44334411621094 66.34834289550781 8.414573669433594 61.34736633300781 6.299346923828125 C 56.17134094238281 4.110061645507812 50.67128372192383 3 44.99999618530273 3 M 44.99999618530273 0 C 69.85281372070312 0 90 20.14718627929688 90 45.00001525878906 C 90 69.85282897949219 69.85281372070312 90.00003051757812 44.99999618530273 90.00003051757812 C 20.14717864990234 90.00003051757812 -7.62939453125e-06 69.85282897949219 -7.62939453125e-06 45.00001525878906 C -7.62939453125e-06 20.14718627929688 20.14717864990234 0 44.99999618530273 0 Z" stroke="none" fill="#7b776f"/>
                  </g>
                </g>
              </g>
            </g>
          </g>
        </g>
      </g>
    </g>
    <g id="agile_18536674" transform="translate(638.396 339.359)">
      <g id="Grupo_1202542" data-name="Grupo 1202542" transform="translate(14.303 7.585)">
        <g id="Grupo_1202540" data-name="Grupo 1202540" transform="translate(0)">
          <path id="Trazado_1041481" data-name="Trazado 1041481" d="M84.513,59.631h4.865a1.264,1.264,0,0,1,1.26,1.26v2.3a3.36,3.36,0,0,0,5.737,2.376L98,63.94a1.264,1.264,0,0,1,1.782,0l3.44,3.44a1.264,1.264,0,0,1,0,1.782L101.6,70.785a3.36,3.36,0,0,0,2.376,5.737h2.3a1.264,1.264,0,0,1,1.26,1.26v4.865a1.264,1.264,0,0,1-1.26,1.26h-2.3a3.36,3.36,0,0,0-2.376,5.737l1.623,1.623a1.264,1.264,0,0,1,0,1.782l-3.44,3.44a1.264,1.264,0,0,1-1.782,0l-1.623-1.623a3.36,3.36,0,0,0-5.737,2.376v2.3a1.264,1.264,0,0,1-1.26,1.26H84.513a1.264,1.264,0,0,1-1.26-1.26v-2.3a3.36,3.36,0,0,0-5.737-2.376l-1.623,1.623a1.264,1.264,0,0,1-1.782,0l-3.44-3.44a1.264,1.264,0,0,1,0-1.782l1.623-1.623a3.36,3.36,0,0,0-2.376-5.737h-2.3a1.264,1.264,0,0,1-1.26-1.26V77.781a1.264,1.264,0,0,1,1.26-1.26h2.3a3.36,3.36,0,0,0,2.376-5.737L70.67,69.162a1.264,1.264,0,0,1,0-1.782l3.44-3.44a1.264,1.264,0,0,1,1.782,0l1.623,1.623a3.36,3.36,0,0,0,5.737-2.376V60.891a1.264,1.264,0,0,1,1.26-1.26Z" transform="translate(-66.362 -59.631)" fill="#ffc328" fill-rule="evenodd"/>
          <path id="Trazado_1041482" data-name="Trazado 1041482" d="M151,59.631h4.865a1.264,1.264,0,0,1,1.26,1.26v2.3a3.36,3.36,0,0,0,5.737,2.376l1.623-1.623a1.264,1.264,0,0,1,1.782,0l3.44,3.44a1.264,1.264,0,0,1,0,1.782l-1.623,1.623a3.36,3.36,0,0,0,2.376,5.737h2.3a1.264,1.264,0,0,1,1.26,1.26v4.865a1.264,1.264,0,0,1-1.26,1.26h-2.3a3.36,3.36,0,0,0-2.376,5.737l1.454,1.454a29.611,29.611,0,0,1-28.276-27.505,1.262,1.262,0,0,1,1.118.347L144,65.562a3.36,3.36,0,0,0,5.737-2.376v-2.3a1.264,1.264,0,0,1,1.26-1.26Z" transform="translate(-132.848 -59.631)" fill="#ffd54f" fill-rule="evenodd"/>
          <circle id="Elipse_12324" data-name="Elipse 12324" cx="11.071" cy="11.071" r="11.071" transform="translate(9.512 9.512)" fill="#e0dfe1"/>
          <path id="Trazado_1041483" data-name="Trazado 1041483" d="M182.3,164.278a29.711,29.711,0,0,1-15.952-14.818A11.072,11.072,0,1,1,182.3,164.278Z" transform="translate(-155.12 -134.805)" fill="#f0f0f0" fill-rule="evenodd"/>
        </g>
        <g id="Grupo_1202541" data-name="Grupo 1202541" transform="translate(14.009 14.95)">
          <path id="Trazado_1041484" data-name="Trazado 1041484" d="M204.231,195.405l-.961-2.672H192.043l-.961,2.672V204H204.23v-8.594Z" transform="translate(-191.082 -192.733)" fill="#b77442" fill-rule="evenodd"/>
          <path id="Trazado_1041485" data-name="Trazado 1041485" d="M249.557,195.405l-.961-2.672h-6.452c0,.011,0,.021,0,.031A12.62,12.62,0,0,0,249.008,204h.549v-8.594Z" transform="translate(-236.409 -192.733)" fill="#cc8758" fill-rule="evenodd"/>
          <path id="Trazado_1041486" data-name="Trazado 1041486" d="M235.341,211.981v-4.419h-4.135v4.419l2.068-1.052Z" transform="translate(-226.699 -205.896)" fill="#e0dfe1" fill-rule="evenodd"/>
          <path id="Trazado_1041487" data-name="Trazado 1041487" d="M243.08,207.562a12.532,12.532,0,0,0,.98,3.492l1.822.927v-4.419Z" transform="translate(-237.239 -205.896)" fill="#f0f0f0" fill-rule="evenodd"/>
          <path id="Trazado_1041488" data-name="Trazado 1041488" d="M203.269,192.733H192.043l-.961,2.672H204.23Z" transform="translate(-191.082 -192.733)" fill="#a56832" fill-rule="evenodd"/>
          <path id="Trazado_1041489" data-name="Trazado 1041489" d="M248.6,192.733h-6.452c0,.011,0,.021,0,.031a12.671,12.671,0,0,0,.278,2.64h7.136Z" transform="translate(-236.408 -192.733)" fill="#b77442" fill-rule="evenodd"/>
        </g>
      </g>
      <path id="Trazado_1041490" data-name="Trazado 1041490" d="M40.617,32.958V26.049H37.96v2.415a.843.843,0,0,1-1.3.711l-1.78-1.136-1.78,1.136a.843.843,0,0,1-1.3-.711V26.049H29.153v6.909Zm-7.122-6.029v-.88h2.781v.88l-.938-.6a.847.847,0,0,0-.906,0Zm-3.631-3.552-.355.987H40.261l-.355-.987ZM41.291,22.25l.961,2.672a.851.851,0,0,1,.05.286V33.8a.842.842,0,0,1-.842.842H28.311a.842.842,0,0,1-.842-.842V25.207a.851.851,0,0,1,.05-.286l.961-2.672a.843.843,0,0,1,.793-.557H40.5a.844.844,0,0,1,.793.557Zm3.823,5.918A10.229,10.229,0,1,1,34.885,17.94,10.24,10.24,0,0,1,45.114,28.168Zm1.685,0A11.914,11.914,0,1,1,34.885,16.255,11.927,11.927,0,0,1,46.8,28.168Zm1.231,5.445a4.139,4.139,0,0,0,.911,4.581l1.623,1.622a.425.425,0,0,1,0,.592l-3.44,3.439a.423.423,0,0,1-.591,0L44.91,42.224A4.2,4.2,0,0,0,37.735,45.2v2.3a.423.423,0,0,1-.418.417H32.452a.423.423,0,0,1-.418-.417V45.2a4.138,4.138,0,0,0-2.595-3.883,4.277,4.277,0,0,0-1.635-.331,4.145,4.145,0,0,0-2.945,1.241l-1.623,1.623a.423.423,0,0,1-.591,0l-3.44-3.439a.424.424,0,0,1,0-.591l1.623-1.623a4.2,4.2,0,0,0-2.972-7.176H15.562a.423.423,0,0,1-.418-.417V25.736a.423.423,0,0,1,.418-.418h2.295a4.2,4.2,0,0,0,2.972-7.175L19.206,16.52a.424.424,0,0,1,0-.591l3.44-3.439a.423.423,0,0,1,.591,0l1.623,1.622a4.2,4.2,0,0,0,7.175-2.971v-2.3a.424.424,0,0,1,.418-.418h4.865a.424.424,0,0,1,.418.418v2.3a4.2,4.2,0,0,0,7.175,2.972l1.623-1.623a.423.423,0,0,1,.591,0l3.44,3.439a.421.421,0,0,1,0,.591l-1.623,1.623a4.2,4.2,0,0,0,2.972,7.175h2.3a.423.423,0,0,1,.418.418V30.6a.423.423,0,0,1-.418.417h-2.3A4.138,4.138,0,0,0,48.03,33.613Zm1.557.645A2.448,2.448,0,0,0,50.132,37l1.623,1.623a2.1,2.1,0,0,1,0,2.973l-3.44,3.44a2.1,2.1,0,0,1-2.974,0l-1.623-1.623a2.518,2.518,0,0,0-4.3,1.78v2.3a2.1,2.1,0,0,1-2.1,2.1H32.452a2.1,2.1,0,0,1-2.1-2.1V45.2a2.518,2.518,0,0,0-4.3-1.78l-1.623,1.623a2.1,2.1,0,0,1-2.974,0l-3.44-3.44a2.1,2.1,0,0,1,0-2.973L19.638,37a2.518,2.518,0,0,0-1.781-4.3H15.562a2.105,2.105,0,0,1-2.1-2.1V25.736a2.105,2.105,0,0,1,2.1-2.1h2.295a2.518,2.518,0,0,0,1.781-4.3l-1.623-1.623a2.1,2.1,0,0,1,0-2.973l3.44-3.441a2.1,2.1,0,0,1,2.974,0l1.623,1.623a2.518,2.518,0,0,0,4.3-1.781v-2.3a2.105,2.105,0,0,1,2.1-2.1h4.865a2.105,2.105,0,0,1,2.1,2.1v2.3a2.518,2.518,0,0,0,4.3,1.781L45.341,11.3a2.1,2.1,0,0,1,2.974,0l3.44,3.441a2.1,2.1,0,0,1,0,2.973l-1.623,1.623a2.518,2.518,0,0,0,1.781,4.3h2.3a2.105,2.105,0,0,1,2.1,2.1V30.6a2.1,2.1,0,0,1-2.1,2.1h-2.3a2.448,2.448,0,0,0-2.327,1.554ZM63.491,54.5a.843.843,0,0,1-.842.842H10.592L12.1,56.846a.843.843,0,0,1-1.191,1.192L7.963,55.091a.843.843,0,0,1,0-1.192l2.947-2.947A.843.843,0,0,1,12.1,52.144l-1.509,1.508H25.43a27.165,27.165,0,1,1,34.92-16l1.979-.812a.842.842,0,1,1,.639,1.557l-3.855,1.583a.853.853,0,0,1-.32.063.842.842,0,0,1-.78-.522l-1.582-3.855a.842.842,0,1,1,1.558-.64L58.8,37A25.488,25.488,0,1,0,34.885,53.652H62.649a.842.842,0,0,1,.842.843Z" transform="translate(0 0)" fill-rule="evenodd"/>
    </g>
  </g>
</svg>
