<svg xmlns="http://www.w3.org/2000/svg" xmlns:xlink="http://www.w3.org/1999/xlink" width="113" height="113" viewBox="0 0 113 113">
  <defs>
    <filter id="Trazado_982547" x="0" y="0" width="113" height="113" filterUnits="userSpaceOnUse">
      <feOffset dy="3" input="SourceAlpha"/>
      <feGaussianBlur stdDeviation="3" result="blur"/>
      <feFlood flood-opacity="0.161"/>
      <feComposite operator="in" in2="blur"/>
      <feComposite in="SourceGraphic"/>
    </filter>
  </defs>
  <g id="Grupo_1202549" data-name="Grupo 1202549" transform="translate(-1111 -4087.494)">
    <g id="Grupo_1202373" data-name="Grupo 1202373" transform="translate(317.51 2625.871)">
      <g id="Grupo_1177632" data-name="Grupo 1177632" transform="translate(-4493 -458.649)">
        <g id="Grupo_1176928" data-name="Grupo 1176928" transform="translate(5295.49 1926.273)">
          <g id="Grupo_1172322" data-name="Grupo 1172322" transform="translate(0 0)">
            <g id="Grupo_1164700" data-name="Grupo 1164700">
              <g id="Grupo_1160931" data-name="Grupo 1160931">
                <g id="Grupo_1160749" data-name="Grupo 1160749">
                  <g id="Grupo_1158891" data-name="Grupo 1158891">
                    <g id="Grupo_1157406" data-name="Grupo 1157406">
                      <g id="Grupo_1155793" data-name="Grupo 1155793">
                        <g id="Grupo_1154704" data-name="Grupo 1154704">
                          <g id="Grupo_1150790" data-name="Grupo 1150790">
                            <g id="Grupo_1154214" data-name="Grupo 1154214">
                              <g id="Grupo_1152583" data-name="Grupo 1152583">
                                <g id="Grupo_1146973" data-name="Grupo 1146973">
                                  <g id="Grupo_1146954" data-name="Grupo 1146954">
                                    <g transform="matrix(1, 0, 0, 1, -9, -6)" filter="url(#Trazado_982547)">
                                      <g id="Trazado_982547-2" data-name="Trazado 982547" transform="translate(9 6)" fill="#f2f7e5">
                                        <path d="M 47.5000114440918 93.49987030029297 C 41.28938293457031 93.49987030029297 35.26534652709961 92.28384399414062 29.5951976776123 89.88558959960938 C 24.11773109436035 87.56881713867188 19.19814491271973 84.25183868408203 14.97310447692871 80.02680206298828 C 10.74805164337158 75.80176544189453 7.43107795715332 70.88218688964844 5.114304542541504 65.40472412109375 C 2.716038227081299 59.73458862304688 1.500011444091797 53.71054840087891 1.500011444091797 47.49993515014648 C 1.500011444091797 41.28932189941406 2.716038227081299 35.26528167724609 5.114304542541504 29.59514808654785 C 7.43107795715332 24.1176815032959 10.74805164337158 19.1981086730957 14.97310447692871 14.97306823730469 C 19.19814491271973 10.74802875518799 24.11773109436035 7.431055068969727 29.5951976776123 5.11428165435791 C 35.26534652709961 2.716028451919556 41.28938293457031 1.500001788139343 47.5000114440918 1.500001788139343 C 53.71063995361328 1.500001788139343 59.73467636108398 2.716028451919556 65.40482330322266 5.11428165435791 C 70.88229370117188 7.431055068969727 75.8018798828125 10.74802875518799 80.02691650390625 14.97306823730469 C 84.25196838378906 19.1981086730957 87.56894683837891 24.1176815032959 89.88571929931641 29.59514808654785 C 92.28398132324219 35.26528167724609 93.50001525878906 41.28932189941406 93.50001525878906 47.49993515014648 C 93.50001525878906 53.71054840087891 92.28398132324219 59.73458862304688 89.88571929931641 65.40472412109375 C 87.56894683837891 70.88218688964844 84.25196838378906 75.80176544189453 80.02691650390625 80.02680206298828 C 75.8018798828125 84.25183868408203 70.88229370117188 87.56881713867188 65.40482330322266 89.88558959960938 C 59.73467636108398 92.28384399414062 53.71063995361328 93.49987030029297 47.5000114440918 93.49987030029297 Z" stroke="none"/>
                                        <path d="M 47.5000114440918 3 C 41.49122619628906 3 35.66378021240234 4.1761474609375 30.17951965332031 6.495796203613281 C 24.880859375 8.7369384765625 20.12153625488281 11.94596862792969 16.03376770019531 16.03373718261719 C 11.94598388671875 20.12149047851562 8.736968994140625 24.88081359863281 6.495811462402344 30.17947387695312 C 4.176162719726562 35.66371917724609 3.000007629394531 41.49116516113281 3.000007629394531 47.49993515014648 C 3.000007629394531 53.50870513916016 4.176162719726562 59.33615112304688 6.495811462402344 64.82039642333984 C 8.736968994140625 70.11905670166016 11.94598388671875 74.87837982177734 16.03376770019531 78.96613311767578 C 20.12153625488281 83.05390167236328 24.880859375 86.26293182373047 30.17951965332031 88.50407409667969 C 35.66378021240234 90.82372283935547 41.49122619628906 91.99987030029297 47.5000114440918 91.99987030029297 C 53.50879669189453 91.99987030029297 59.33624267578125 90.82372283935547 64.82050323486328 88.50407409667969 C 70.11916351318359 86.26293182373047 74.87848663330078 83.05390167236328 78.96625518798828 78.96613311767578 C 83.05403900146484 74.87837982177734 86.2630615234375 70.11905670166016 88.50421142578125 64.82039642333984 C 90.82386016845703 59.33615112304688 92.00001525878906 53.50870513916016 92.00001525878906 47.49993515014648 C 92.00001525878906 41.49116516113281 90.82386016845703 35.66371917724609 88.50421142578125 30.17947387695312 C 86.2630615234375 24.88081359863281 83.05403900146484 20.12149047851562 78.96625518798828 16.03373718261719 C 74.87848663330078 11.94596862792969 70.11916351318359 8.7369384765625 64.82050323486328 6.495796203613281 C 59.33624267578125 4.1761474609375 53.50879669189453 3 47.5000114440918 3 M 47.5000114440918 0 C 73.73353576660156 0 95.00001525878906 21.26644134521484 95.00001525878906 47.49993515014648 C 95.00001525878906 73.73342895507812 73.73353576660156 94.99987030029297 47.5000114440918 94.99987030029297 C 21.26648712158203 94.99987030029297 7.62939453125e-06 73.73342895507812 7.62939453125e-06 47.49993515014648 C 7.62939453125e-06 21.26644134521484 21.26648712158203 0 47.5000114440918 0 Z" stroke="none" fill="#86b60c"/>
                                      </g>
                                    </g>
                                  </g>
                                </g>
                              </g>
                            </g>
                          </g>
                        </g>
                      </g>
                    </g>
                  </g>
                </g>
              </g>
            </g>
          </g>
        </g>
      </g>
    </g>
    <g id="team-management_9971398" transform="translate(1085.947 4093.94)">
      <g id="Grupo_1202548" data-name="Grupo 1202548" transform="translate(55.612 15.798)">
        <path id="Trazado_1041508" data-name="Trazado 1041508" d="M61.166,342.072a10.449,10.449,0,1,1,8.006,12.421A10.46,10.46,0,0,1,61.166,342.072Z" transform="translate(-60.931 -292.23)" fill="#fff" fill-rule="evenodd"/>
        <path id="Trazado_1041509" data-name="Trazado 1041509" d="M95.518,377.465a10.444,10.444,0,0,1-15.918,0,6.473,6.473,0,0,1,5.439-3.005h5.027A6.479,6.479,0,0,1,95.518,377.465ZM87.566,364.3a4.92,4.92,0,1,0,4.92,4.92A4.926,4.926,0,0,0,87.566,364.3Z" transform="translate(-77.117 -318.647)" fill="#04b3e1" fill-rule="evenodd"/>
        <path id="Trazado_1041510" data-name="Trazado 1041510" d="M177.836,342.072a10.449,10.449,0,1,1,8.006,12.421A10.46,10.46,0,0,1,177.836,342.072Z" transform="translate(-162.082 -292.23)" fill="#fff" fill-rule="evenodd"/>
        <path id="Trazado_1041511" data-name="Trazado 1041511" d="M212.218,377.465a10.444,10.444,0,0,1-15.918,0,6.479,6.479,0,0,1,5.452-3.005h5.013A6.5,6.5,0,0,1,212.218,377.465ZM204.252,364.3a4.92,4.92,0,1,0,4.92,4.92A4.926,4.926,0,0,0,204.252,364.3Z" transform="translate(-178.298 -318.647)" fill="#04b3e1" fill-rule="evenodd"/>
        <path id="Trazado_1041512" data-name="Trazado 1041512" d="M294.466,342.072a10.442,10.442,0,1,1,7.992,12.421A10.454,10.454,0,0,1,294.466,342.072Z" transform="translate(-263.206 -292.23)" fill="#fff" fill-rule="evenodd"/>
        <path id="Trazado_1041513" data-name="Trazado 1041513" d="M328.818,377.465a10.444,10.444,0,0,1-15.918,0,6.479,6.479,0,0,1,5.452-3.005h5.027A6.473,6.473,0,0,1,328.818,377.465ZM320.866,364.3a4.92,4.92,0,1,0,4.92,4.92A4.926,4.926,0,0,0,320.866,364.3Z" transform="translate(-279.392 -318.647)" fill="#04b3e1" fill-rule="evenodd"/>
        <path id="Trazado_1041514" data-name="Trazado 1041514" d="M127.17,21h5.9v3.843a15.68,15.68,0,0,1,5.9,2.447l2.726-2.726,4.176,4.176-2.726,2.726a15.68,15.68,0,0,1,2.447,5.9h3.843v5.9H145.6a15.68,15.68,0,0,1-2.447,5.9l2.726,2.726-4.176,4.176-2.726-2.726a15.68,15.68,0,0,1-5.9,2.447v3.843h-5.9V55.8a15.68,15.68,0,0,1-5.9-2.447l-2.726,2.726-4.176-4.176,2.726-2.726a15.68,15.68,0,0,1-2.447-5.9H110.8v-5.9h3.843a15.68,15.68,0,0,1,2.447-5.9l-2.726-2.726,4.176-4.162,2.726,2.726a15.68,15.68,0,0,1,5.9-2.447Z" transform="translate(-104.168 -21)" fill="#ffcd05" fill-rule="evenodd"/>
        <path id="Trazado_1041515" data-name="Trazado 1041515" d="M177.288,75.4A12.088,12.088,0,1,1,165.2,87.488,12.089,12.089,0,0,1,177.288,75.4Z" transform="translate(-151.334 -68.166)" fill="#f26739" fill-rule="evenodd"/>
      </g>
      <path id="Trazado_1041516" data-name="Trazado 1041516" d="M243.645,112.34l-.745-6.17v-3.218a.857.857,0,0,1,.851-.851h1.822a.857.857,0,0,1,.851.851v3.218l-.745,6.17a.851.851,0,0,1-.851.758H244.5A.851.851,0,0,1,243.645,112.34Zm-.612,6v-1.556a.857.857,0,0,1,.851-.851h1.556a.857.857,0,0,1,.851.851v1.556a.857.857,0,0,1-.851.851h-1.556a.857.857,0,0,1-.851-.851Z" transform="translate(-163.09 -75.517)" fill="#e6e6e6"/>
      <path id="Trazado_1041517" data-name="Trazado 1041517" d="M89.106,73.3a7.234,7.234,0,0,1,4.442-2.407,5.721,5.721,0,1,1,7.021,0,7.216,7.216,0,0,1,4.442,2.42,9.644,9.644,0,1,0-15.9-.013ZM104,74.563a5.663,5.663,0,0,0-4.428-2.141H94.545a5.683,5.683,0,0,0-4.428,2.141,9.683,9.683,0,0,0,13.883,0ZM97.072,62.249a4.122,4.122,0,1,0,4.122,4.122A4.126,4.126,0,0,0,97.072,62.249ZM86.619,63.712a11.284,11.284,0,0,1,1.622-2.806A9.648,9.648,0,0,0,73.6,73.313a7.234,7.234,0,0,1,4.442-2.407,5.725,5.725,0,1,1,8.577-7.194Zm2.686-3.989a11.41,11.41,0,0,1,1.676-1.317A11.235,11.235,0,1,1,89.305,76a11.249,11.249,0,0,1-15.519,0A11.228,11.228,0,1,1,73.8,59.722a11.41,11.41,0,0,1,1.676-1.317,11.215,11.215,0,0,1,13.83,1.317ZM88.242,74.816c-.213-.279-.426-.572-.625-.878-.452-.692-.16-.479-.785-.8a5.908,5.908,0,0,0-2.766-.718H79.039a5.683,5.683,0,0,0-4.428,2.141A9.677,9.677,0,0,0,88.242,74.816Zm-1.915-3.63a10.487,10.487,0,0,1-.306-1.237,5.85,5.85,0,0,1-.957.944,6.958,6.958,0,0,1,1.263.293Zm-4.774-8.936a4.122,4.122,0,1,0,4.122,4.122A4.126,4.126,0,0,0,81.553,62.249Zm-8.83,12.567a10.437,10.437,0,0,1-.625-.878c-.106-.16-.2-.332-.306-.492-.013-.013-.04-.027-.053-.04a5.634,5.634,0,0,0-3.192-1H63.52a5.683,5.683,0,0,0-4.428,2.141A9.666,9.666,0,0,0,72.722,74.816Zm-1.9-3.63a9.337,9.337,0,0,1-.306-1.237,5.85,5.85,0,0,1-.957.944,6.958,6.958,0,0,1,1.263.293Zm.279-7.474a11.284,11.284,0,0,1,1.622-2.806A9.64,9.64,0,0,0,57.935,73.074a2.166,2.166,0,0,0,.146.226,7.234,7.234,0,0,1,4.442-2.407A5.722,5.722,0,1,1,71.1,63.712Zm-5.053-1.463a4.122,4.122,0,1,0,4.122,4.122A4.126,4.126,0,0,0,66.047,62.249ZM79.757,36.916l-.745-6.17-.013-.2V27.434a1.649,1.649,0,0,1,1.649-1.649H82.47a1.657,1.657,0,0,1,1.649,1.649v3.112l-.013.2-.745,6.17a1.676,1.676,0,0,1-1.649,1.463,1.827,1.827,0,0,1-1.423-.412A1.705,1.705,0,0,1,79.757,36.916Zm.824-6.357.771,6.21h.412c.013-.013.013-.013.013-.04a65.339,65.339,0,0,0,.745-9.282l-.066-.053H80.635l-.066.053c.013.824-.08,2.367.013,3.112ZM79.132,42.82V41.264a1.657,1.657,0,0,1,1.649-1.649h1.556a1.657,1.657,0,0,1,1.649,1.649V42.82a1.649,1.649,0,0,1-1.649,1.649H80.781A1.657,1.657,0,0,1,79.132,42.82Zm1.6-1.569.013,1.6,1.6.013.066-.066c0-.173.027-1.556-.013-1.6H80.755Zm6.529-11.822a.8.8,0,0,1,1.13-1.13,9.648,9.648,0,0,1,0,13.657.8.8,0,1,1-1.13-1.13A8.05,8.05,0,0,0,87.257,29.429Zm-1.543,1.543a.8.8,0,0,1,1.13-1.13,7.489,7.489,0,0,1,0,10.572.8.8,0,0,1-1.13-1.13A5.891,5.891,0,0,0,85.715,30.971ZM77.39,39.283a.8.8,0,0,1-1.13,1.13,7.464,7.464,0,0,1,0-10.572.8.8,0,0,1,1.13,1.13A5.891,5.891,0,0,0,77.39,39.283Zm-1.543,1.543a.8.8,0,1,1-1.13,1.13,9.648,9.648,0,0,1,0-13.657.8.8,0,0,1,1.13,1.13A8.05,8.05,0,0,0,75.848,40.825Zm5.7-18.591A12.886,12.886,0,1,1,68.666,35.12,12.889,12.889,0,0,1,81.553,22.234Zm7.979,4.907a11.293,11.293,0,1,0,0,15.971A11.285,11.285,0,0,0,89.531,27.141ZM78.6,15h5.9a.8.8,0,0,1,.8.8V19a16.381,16.381,0,0,1,5,2.075l2.261-2.261a.811.811,0,0,1,1.13,0l4.189,4.162a.811.811,0,0,1,0,1.13L95.622,26.37a16.381,16.381,0,0,1,2.075,5h3.2a.8.8,0,0,1,.8.8v5.9a.787.787,0,0,1-.864.8H97.7a16.381,16.381,0,0,1-2.075,5l2.261,2.261a.811.811,0,0,1,0,1.13l-4.176,4.176a.787.787,0,0,1-1.13,0l-2.261-2.261a16.381,16.381,0,0,1-5,2.075v3.2a.8.8,0,0,1-.8.8h-5.9a.8.8,0,0,1-.8-.8v-3.2a16.661,16.661,0,0,1-5-2.075l-2.261,2.261a.787.787,0,0,1-1.13,0l-4.176-4.176a.787.787,0,0,1,0-1.13l2.261-2.261a16.381,16.381,0,0,1-2.075-5h-3.2a.8.8,0,0,1-.8-.8v-5.9a.8.8,0,0,1,.8-.8h3.2a16.381,16.381,0,0,1,2.075-5l-2.261-2.261a.787.787,0,0,1,0-1.13L69.424,18.8a.811.811,0,0,1,1.13,0l2.261,2.261a16.381,16.381,0,0,1,5-2.075V15.8A.781.781,0,0,1,78.6,15Zm5.107,1.6H79.385V19.6a.8.8,0,0,1-.652.824,15.459,15.459,0,0,0-2.926.864,14.771,14.771,0,0,0-2.633,1.423.792.792,0,0,1-1.051-.066L69.97,20.492l-3.045,3.059,2.154,2.154a.787.787,0,0,1,.093,1.011,14.114,14.114,0,0,0-1.45,2.686,15.1,15.1,0,0,0-.864,2.859.8.8,0,0,1-.8.7H63.015v4.309H66.06a.808.808,0,0,1,.785.652,15.459,15.459,0,0,0,.864,2.926,14.771,14.771,0,0,0,1.423,2.633.792.792,0,0,1-.066,1.051L66.924,46.7l3.045,3.045,2.154-2.154a.787.787,0,0,1,1.011-.093,14.528,14.528,0,0,0,2.686,1.45,14.94,14.94,0,0,0,2.872.864.8.8,0,0,1,.7.8v3.045h4.309V50.613a.808.808,0,0,1,.652-.785,14.2,14.2,0,0,0,2.912-.878,15.363,15.363,0,0,0,2.646-1.423.793.793,0,0,1,1.051.066l2.154,2.154L96.181,46.7l-2.154-2.154a.787.787,0,0,1-.093-1.011,15.053,15.053,0,0,0,2.327-5.6.788.788,0,0,1,.785-.652h3.045V32.966H97.045a.8.8,0,0,1-.785-.652A15.046,15.046,0,0,0,95.4,29.4a15.362,15.362,0,0,0-1.423-2.646.793.793,0,0,1,.066-1.051l2.141-2.154-3.059-3.059-2.154,2.154a.787.787,0,0,1-1.011.093,15.362,15.362,0,0,0-2.686-1.45,16.133,16.133,0,0,0-2.859-.864.8.8,0,0,1-.7-.8Z" transform="translate(0)"/>
    </g>
  </g>
</svg>
