<svg xmlns="http://www.w3.org/2000/svg" xmlns:xlink="http://www.w3.org/1999/xlink" width="113" height="113" viewBox="0 0 113 113">
  <defs>
    <filter id="Trazado_982547" x="0" y="0" width="113" height="113" filterUnits="userSpaceOnUse">
      <feOffset dy="3" input="SourceAlpha"/>
      <feGaussianBlur stdDeviation="3" result="blur"/>
      <feFlood flood-opacity="0.161"/>
      <feComposite operator="in" in2="blur"/>
      <feComposite in="SourceGraphic"/>
    </filter>
  </defs>
  <g id="Grupo_1202550" data-name="Grupo 1202550" transform="translate(-8259 -4088)">
    <g id="Grupo_1202374" data-name="Grupo 1202374" transform="translate(7465.51 2626.377)">
      <g id="Grupo_1177632" data-name="Grupo 1177632" transform="translate(-4493 -458.649)">
        <g id="Grupo_1176928" data-name="Grupo 1176928" transform="translate(5295.49 1926.273)">
          <g id="Grupo_1172322" data-name="Grupo 1172322" transform="translate(0 0)">
            <g id="Grupo_1164700" data-name="Grupo 1164700">
              <g id="Grupo_1160931" data-name="Grupo 1160931">
                <g id="Grupo_1160749" data-name="Grupo 1160749">
                  <g id="Grupo_1158891" data-name="Grupo 1158891">
                    <g id="Grupo_1157406" data-name="Grupo 1157406">
                      <g id="Grupo_1155793" data-name="Grupo 1155793">
                        <g id="Grupo_1154704" data-name="Grupo 1154704">
                          <g id="Grupo_1150790" data-name="Grupo 1150790">
                            <g id="Grupo_1154214" data-name="Grupo 1154214">
                              <g id="Grupo_1152583" data-name="Grupo 1152583">
                                <g id="Grupo_1146973" data-name="Grupo 1146973">
                                  <g id="Grupo_1146954" data-name="Grupo 1146954">
                                    <g transform="matrix(1, 0, 0, 1, -9, -6)" filter="url(#Trazado_982547)">
                                      <g id="Trazado_982547-2" data-name="Trazado 982547" transform="translate(9 6)" fill="#f2f7e5">
                                        <path d="M 47.5000114440918 93.49987030029297 C 41.28938293457031 93.49987030029297 35.26534652709961 92.28384399414062 29.5951976776123 89.88558959960938 C 24.11773109436035 87.56881713867188 19.19814491271973 84.25183868408203 14.97310447692871 80.02680206298828 C 10.74805164337158 75.80176544189453 7.43107795715332 70.88218688964844 5.114304542541504 65.40472412109375 C 2.716038227081299 59.73458862304688 1.500011444091797 53.71054840087891 1.500011444091797 47.49993515014648 C 1.500011444091797 41.28932189941406 2.716038227081299 35.26528167724609 5.114304542541504 29.59514808654785 C 7.43107795715332 24.1176815032959 10.74805164337158 19.1981086730957 14.97310447692871 14.97306823730469 C 19.19814491271973 10.74802875518799 24.11773109436035 7.431055068969727 29.5951976776123 5.11428165435791 C 35.26534652709961 2.716028451919556 41.28938293457031 1.500001788139343 47.5000114440918 1.500001788139343 C 53.71063995361328 1.500001788139343 59.73467636108398 2.716028451919556 65.40482330322266 5.11428165435791 C 70.88229370117188 7.431055068969727 75.8018798828125 10.74802875518799 80.02691650390625 14.97306823730469 C 84.25196838378906 19.1981086730957 87.56894683837891 24.1176815032959 89.88571929931641 29.59514808654785 C 92.28398132324219 35.26528167724609 93.50001525878906 41.28932189941406 93.50001525878906 47.49993515014648 C 93.50001525878906 53.71054840087891 92.28398132324219 59.73458862304688 89.88571929931641 65.40472412109375 C 87.56894683837891 70.88218688964844 84.25196838378906 75.80176544189453 80.02691650390625 80.02680206298828 C 75.8018798828125 84.25183868408203 70.88229370117188 87.56881713867188 65.40482330322266 89.88558959960938 C 59.73467636108398 92.28384399414062 53.71063995361328 93.49987030029297 47.5000114440918 93.49987030029297 Z" stroke="none"/>
                                        <path d="M 47.5000114440918 3 C 41.49122619628906 3 35.66378021240234 4.1761474609375 30.17951965332031 6.495796203613281 C 24.880859375 8.7369384765625 20.12153625488281 11.94596862792969 16.03376770019531 16.03373718261719 C 11.94598388671875 20.12149047851562 8.736968994140625 24.88081359863281 6.495811462402344 30.17947387695312 C 4.176162719726562 35.66371917724609 3.000007629394531 41.49116516113281 3.000007629394531 47.49993515014648 C 3.000007629394531 53.50870513916016 4.176162719726562 59.33615112304688 6.495811462402344 64.82039642333984 C 8.736968994140625 70.11905670166016 11.94598388671875 74.87837982177734 16.03376770019531 78.96613311767578 C 20.12153625488281 83.05390167236328 24.880859375 86.26293182373047 30.17951965332031 88.50407409667969 C 35.66378021240234 90.82372283935547 41.49122619628906 91.99987030029297 47.5000114440918 91.99987030029297 C 53.50879669189453 91.99987030029297 59.33624267578125 90.82372283935547 64.82050323486328 88.50407409667969 C 70.11916351318359 86.26293182373047 74.87848663330078 83.05390167236328 78.96625518798828 78.96613311767578 C 83.05403900146484 74.87837982177734 86.2630615234375 70.11905670166016 88.50421142578125 64.82039642333984 C 90.82386016845703 59.33615112304688 92.00001525878906 53.50870513916016 92.00001525878906 47.49993515014648 C 92.00001525878906 41.49116516113281 90.82386016845703 35.66371917724609 88.50421142578125 30.17947387695312 C 86.2630615234375 24.88081359863281 83.05403900146484 20.12149047851562 78.96625518798828 16.03373718261719 C 74.87848663330078 11.94596862792969 70.11916351318359 8.7369384765625 64.82050323486328 6.495796203613281 C 59.33624267578125 4.1761474609375 53.50879669189453 3 47.5000114440918 3 M 47.5000114440918 0 C 73.73353576660156 0 95.00001525878906 21.26644134521484 95.00001525878906 47.49993515014648 C 95.00001525878906 73.73342895507812 73.73353576660156 94.99987030029297 47.5000114440918 94.99987030029297 C 21.26648712158203 94.99987030029297 7.62939453125e-06 73.73342895507812 7.62939453125e-06 47.49993515014648 C 7.62939453125e-06 21.26644134521484 21.26648712158203 0 47.5000114440918 0 Z" stroke="none" fill="#86b60c"/>
                                      </g>
                                    </g>
                                  </g>
                                </g>
                              </g>
                            </g>
                          </g>
                        </g>
                      </g>
                    </g>
                  </g>
                </g>
              </g>
            </g>
          </g>
        </g>
      </g>
    </g>
    <g id="team_10468185" transform="translate(8217.44 4094)">
      <path id="Trazado_1041518" data-name="Trazado 1041518" d="M105.541,73.628a1.127,1.127,0,0,1,1.127,1.127v5.591a1.127,1.127,0,0,1-2.254,0V74.756A1.127,1.127,0,0,1,105.541,73.628ZM89.45,74.756v5.591a1.127,1.127,0,1,0,2.254,0V74.756a1.127,1.127,0,1,0-2.254,0ZM72.157,76.892V69.915a6.42,6.42,0,0,1,6.182-6.223,9.461,9.461,0,0,1-1.821-5.71,6.261,6.261,0,0,1,7.194-6.193L80.6,48.675a1.127,1.127,0,0,1-.248-1.22L81.9,43.618l-1.353-3.269-3.812-1.617a1.127,1.127,0,0,1-.687-1.038V32.327a1.127,1.127,0,0,1,.687-1.038l3.812-1.617L81.9,26.4l-1.553-3.838a1.127,1.127,0,0,1,.248-1.22l3.8-3.8a1.127,1.127,0,0,1,1.221-.247l3.837,1.555L92.723,17.5l1.613-3.812A1.127,1.127,0,0,1,95.373,13h5.371a1.127,1.127,0,0,1,1.038.688L103.4,17.5l3.269,1.355L110.5,17.3a1.127,1.127,0,0,1,1.221.247l3.8,3.8a1.127,1.127,0,0,1,.248,1.22L114.216,26.4l1.353,3.269,3.812,1.617a1.127,1.127,0,0,1,.687,1.038v5.368a1.127,1.127,0,0,1-.687,1.038l-3.812,1.617-1.353,3.269,1.552,3.838a1.127,1.127,0,0,1-.248,1.22l-3.114,3.114a6.261,6.261,0,0,1,7.194,6.193,9.461,9.461,0,0,1-1.821,5.71,6.421,6.421,0,0,1,6.182,6.223v6.977a1.127,1.127,0,1,1-2.254,0V69.915a4.2,4.2,0,0,0-4.38-3.985h-7.976a4.779,4.779,0,0,0-.826.072,8.5,8.5,0,0,1,4.509,7.391v6.953a1.127,1.127,0,1,1-2.254,0V73.394c0-3.49-3.1-6.329-6.9-6.329h-2.756a2.406,2.406,0,0,1-.257,1.188,2.679,2.679,0,0,1-.488.613l1.6,8.991a1.127,1.127,0,0,1-.4,1.071L98.77,81.22a1.127,1.127,0,0,1-1.425,0l-2.808-2.293a1.127,1.127,0,0,1-.4-1.071l1.6-8.994a2.693,2.693,0,0,1-.483-.609A2.416,2.416,0,0,1,95,67.064H92.238c-3.8,0-6.9,2.839-6.9,6.329v6.953a1.127,1.127,0,1,1-2.254,0V73.394A8.5,8.5,0,0,1,87.592,66a4.776,4.776,0,0,0-.825-.072h-7.98a4.2,4.2,0,0,0-4.376,3.985v6.977a1.127,1.127,0,0,1-2.254,0ZM91.7,55.985a11.78,11.78,0,0,0,1.6,5.937,5.413,5.413,0,0,0,4.758,2.888c4.637,0,6.365-5.413,6.365-8.825a6.363,6.363,0,1,0-12.726,0Zm6.361-9.909A11.066,11.066,0,1,0,87,35.012,11.066,11.066,0,0,0,98.057,46.076ZM99.643,77.6,98.057,68.7,96.475,77.6l1.583,1.292Zm-.815-10.535H97.253a1.026,1.026,0,0,0,0,.123.568.568,0,0,0,.19.139,1.127,1.127,0,0,1,.615.711,1.127,1.127,0,0,1,.62-.713.555.555,0,0,0,.189-.137,1.024,1.024,0,0,0,0-.123h-.038Zm14.513-13.091a4.013,4.013,0,0,0-4.009,4.009c0,2.364,1.244,5.694,4.009,5.694s4-3.33,4-5.694a4.011,4.011,0,0,0-4-4.008Zm-3.173-1.388-3.5-1.42-1.164.483a8.557,8.557,0,0,1,1.176,4.337,13.79,13.79,0,0,1-2.007,7.228,9.415,9.415,0,0,1-1.272,1.6h.478a9.784,9.784,0,0,1,1.5.117,6.863,6.863,0,0,1,3.525-1.235,9.462,9.462,0,0,1-1.822-5.71,6.265,6.265,0,0,1,3.09-5.4Zm-26-8.55L82.72,47.609l2.742,2.742L89.035,48.9a1.127,1.127,0,0,1,.855,0l2.171.9a8.632,8.632,0,0,1,2.871-1.848,13.32,13.32,0,1,1,6.251,0,8.64,8.64,0,0,1,2.872,1.848l2.172-.9a1.127,1.127,0,0,1,.856,0l3.573,1.449,2.742-2.742-1.445-3.573a1.127,1.127,0,0,1,0-.854l1.7-4.122a1.127,1.127,0,0,1,.6-.607l3.55-1.506V33.073l-3.55-1.506a1.127,1.127,0,0,1-.6-.607l-1.7-4.121a1.127,1.127,0,0,1,0-.854l1.445-3.574-2.742-2.742-3.573,1.449a1.127,1.127,0,0,1-.855,0l-4.121-1.709a1.127,1.127,0,0,1-.606-.6l-1.5-3.55H96.12l-1.5,3.55a1.127,1.127,0,0,1-.606.6l-4.122,1.71a1.127,1.127,0,0,1-.855,0L85.462,19.67,82.72,22.412l1.445,3.573a1.127,1.127,0,0,1,0,.854l-1.7,4.121a1.127,1.127,0,0,1-.6.607l-3.55,1.506v3.875l3.55,1.506a1.127,1.127,0,0,1,.6.607l1.7,4.122a1.127,1.127,0,0,1,0,.854Zm1.785,8.55a6.265,6.265,0,0,1,3.09,5.4,9.457,9.457,0,0,1-1.822,5.71,6.863,6.863,0,0,1,3.524,1.235,9.758,9.758,0,0,1,1.5-.117H92.7A9.665,9.665,0,0,1,91.38,63.1a14.124,14.124,0,0,1-1.938-7.119,8.56,8.56,0,0,1,1.176-4.337l-1.164-.483Zm-7.178,5.4c0,2.364,1.243,5.694,4,5.694s4.009-3.33,4.009-5.694a4.007,4.007,0,1,0-8.014,0Zm21.495-31.21a2.873,2.873,0,0,1,.813,2.124l-.292,6.628a2.73,2.73,0,0,1-5.459,0L95.038,28.9a2.875,2.875,0,0,1,.813-2.127,3.055,3.055,0,0,1,4.416,0ZM98.828,28.8a.635.635,0,0,0-.188-.467.8.8,0,0,0-1.162,0,.637.637,0,0,0-.188.47l.291,6.623a.48.48,0,1,0,.955-.006Zm1.966,12.662a2.735,2.735,0,1,1-2.737-2.733A2.735,2.735,0,0,1,100.794,41.46Zm-2.254,0a.48.48,0,1,0-.482.479A.48.48,0,0,0,98.539,41.46Z"/>
      <path id="Trazado_1041519" data-name="Trazado 1041519" d="M126.526,62.648a1.127,1.127,0,0,1,.855,0l2.171.9a8.633,8.633,0,0,1,2.871-1.848,13.32,13.32,0,1,1,6.251,0,8.64,8.64,0,0,1,2.872,1.848l2.172-.9a1.127,1.127,0,0,1,.855,0l3.573,1.449,2.742-2.742-1.445-3.573a1.127,1.127,0,0,1,0-.854l1.7-4.122a1.127,1.127,0,0,1,.6-.607l3.55-1.506V46.819l-3.55-1.506a1.127,1.127,0,0,1-.6-.607l-1.7-4.121a1.127,1.127,0,0,1,0-.854l1.445-3.574-2.742-2.742-3.573,1.449a1.127,1.127,0,0,1-.855,0L139.6,33.151a1.127,1.127,0,0,1-.606-.6l-1.5-3.55h-3.878l-1.5,3.55a1.127,1.127,0,0,1-.606.6l-4.122,1.71a1.127,1.127,0,0,1-.855,0l-3.573-1.449-2.742,2.742,1.445,3.573a1.127,1.127,0,0,1,0,.854l-1.7,4.121a1.127,1.127,0,0,1-.6.607L115.8,46.818v3.875l3.551,1.506a1.127,1.127,0,0,1,.6.607l1.7,4.122a1.127,1.127,0,0,1,0,.854l-1.445,3.574,2.742,2.742Z" transform="translate(-37.491 -13.746)" fill="#837683"/>
      <path id="Trazado_1041520" data-name="Trazado 1041520" d="M336.013,307.833c0,2.364,1.244,5.694,4.009,5.694s4-3.33,4-5.694a4.007,4.007,0,1,0-8.013,0Z" transform="translate(-226.681 -249.851)" fill="#f6dccd"/>
      <path id="Trazado_1041521" data-name="Trazado 1041521" d="M251.308,120.046a.806.806,0,0,0-.579.249.637.637,0,0,0-.188.47l.291,6.623a.48.48,0,1,0,.955-.006l.291-6.619a.635.635,0,0,0-.188-.467A.813.813,0,0,0,251.308,120.046Z" transform="translate(-153.251 -91.964)" fill="#fe646f"/>
      <path id="Trazado_1041522" data-name="Trazado 1041522" d="M123.115,313.526c2.765,0,4.009-3.33,4.009-5.694a4.007,4.007,0,1,0-8.014,0C119.111,310.2,120.353,313.526,123.115,313.526Z" transform="translate(-40.338 -249.85)" fill="#f6dccd"/>
      <path id="Trazado_1041523" data-name="Trazado 1041523" d="M251.068,397.7a1.127,1.127,0,0,1,.62-.713.555.555,0,0,0,.189-.137,1.027,1.027,0,0,0,0-.123h-1.613a1.03,1.03,0,0,0,0,.123.568.568,0,0,0,.19.139A1.127,1.127,0,0,1,251.068,397.7Z" transform="translate(-153.011 -329.664)" fill="#fe646f"/>
      <path id="Trazado_1041524" data-name="Trazado 1041524" d="M217.2,272.943a6.368,6.368,0,0,0-6.361,6.361,11.779,11.779,0,0,0,1.6,5.937,5.413,5.413,0,0,0,4.758,2.888c4.637,0,6.365-5.413,6.365-8.825A6.37,6.37,0,0,0,217.2,272.943Z" transform="translate(-119.142 -223.319)" fill="#f6dccd"/>
      <path id="Trazado_1041525" data-name="Trazado 1041525" d="M244.758,417.268l1.583,1.292,1.585-1.292-1.586-8.894Z" transform="translate(-148.283 -339.668)" fill="#fe646f"/>
      <path id="Trazado_1041526" data-name="Trazado 1041526" d="M253.085,211.6a.479.479,0,1,0,.341.139A.479.479,0,0,0,253.085,211.6Z" transform="translate(-155.028 -170.619)" fill="#fe646f"/>
      <path id="Trazado_1041527" data-name="Trazado 1041527" d="M268.709,410.011v-6.953c0-3.49-3.1-6.329-6.9-6.329h-2.756a2.406,2.406,0,0,1-.257,1.188,2.679,2.679,0,0,1-.488.613l1.6,8.991a1.127,1.127,0,0,1-.4,1.071l-2.812,2.293a1.125,1.125,0,0,1-.712.254h7.484a1.127,1.127,0,0,1-1.127-1.127V404.42a1.127,1.127,0,1,1,2.254,0v5.591a1.127,1.127,0,0,1-1.127,1.127h6.366A1.127,1.127,0,0,1,268.709,410.011Z" transform="translate(-157.929 -329.664)" fill="#8ac9fe"/>
      <path id="Trazado_1041528" data-name="Trazado 1041528" d="M343.467,399.641v-6.977a4.2,4.2,0,0,0-4.38-3.985h-7.976a4.778,4.778,0,0,0-.826.072,8.5,8.5,0,0,1,4.509,7.391v4.626h9.8A1.127,1.127,0,0,1,343.467,399.641Z" transform="translate(-221.76 -322.749)" fill="#6cf5c2"/>
      <path id="Trazado_1041529" data-name="Trazado 1041529" d="M168.037,408.59a1.127,1.127,0,0,1-.4-1.071l1.6-8.994a2.694,2.694,0,0,1-.483-.609,2.416,2.416,0,0,1-.258-1.19h-2.759c-3.8,0-6.9,2.839-6.9,6.329v6.953a1.127,1.127,0,0,1-1.127,1.127h6.367a1.127,1.127,0,0,1-1.127-1.127v-5.591a1.127,1.127,0,1,1,2.254,0v5.591a1.127,1.127,0,0,1-1.127,1.127h7.48a1.125,1.125,0,0,1-.713-.254Z" transform="translate(-73.5 -329.663)" fill="#8ac9fe"/>
      <path id="Trazado_1041530" data-name="Trazado 1041530" d="M89.957,396.142a8.5,8.5,0,0,1,4.509-7.391,4.775,4.775,0,0,0-.825-.072H85.66a4.2,4.2,0,0,0-4.376,3.985v6.977a1.127,1.127,0,0,1-1.127,1.127h9.8Z" transform="translate(-6.873 -322.749)" fill="#6cf5c2"/>
    </g>
  </g>
</svg>
