<svg xmlns="http://www.w3.org/2000/svg" xmlns:xlink="http://www.w3.org/1999/xlink" width="113" height="113" viewBox="0 0 113 113">
  <defs>
    <filter id="Trazado_982547" x="0" y="0" width="113" height="113" filterUnits="userSpaceOnUse">
      <feOffset dy="3" input="SourceAlpha"/>
      <feGaussianBlur stdDeviation="3" result="blur"/>
      <feFlood flood-opacity="0.161"/>
      <feComposite operator="in" in2="blur"/>
      <feComposite in="SourceGraphic"/>
    </filter>
  </defs>
  <g id="Grupo_1202551" data-name="Grupo 1202551" transform="translate(-8578 -4087.494)">
    <g id="Grupo_1202375" data-name="Grupo 1202375" transform="translate(7784.51 2625.871)">
      <g id="Grupo_1177632" data-name="Grupo 1177632" transform="translate(-4493 -458.649)">
        <g id="Grupo_1176928" data-name="Grupo 1176928" transform="translate(5295.49 1926.273)">
          <g id="Grupo_1172322" data-name="Grupo 1172322" transform="translate(0 0)">
            <g id="Grupo_1164700" data-name="Grupo 1164700">
              <g id="Grupo_1160931" data-name="Grupo 1160931">
                <g id="Grupo_1160749" data-name="Grupo 1160749">
                  <g id="Grupo_1158891" data-name="Grupo 1158891">
                    <g id="Grupo_1157406" data-name="Grupo 1157406">
                      <g id="Grupo_1155793" data-name="Grupo 1155793">
                        <g id="Grupo_1154704" data-name="Grupo 1154704">
                          <g id="Grupo_1150790" data-name="Grupo 1150790">
                            <g id="Grupo_1154214" data-name="Grupo 1154214">
                              <g id="Grupo_1152583" data-name="Grupo 1152583">
                                <g id="Grupo_1146973" data-name="Grupo 1146973">
                                  <g id="Grupo_1146954" data-name="Grupo 1146954">
                                    <g transform="matrix(1, 0, 0, 1, -9, -6)" filter="url(#Trazado_982547)">
                                      <g id="Trazado_982547-2" data-name="Trazado 982547" transform="translate(9 6)" fill="#f2f7e5">
                                        <path d="M 47.5000114440918 93.49987030029297 C 41.28938293457031 93.49987030029297 35.26534652709961 92.28384399414062 29.5951976776123 89.88558959960938 C 24.11773109436035 87.56881713867188 19.19814491271973 84.25183868408203 14.97310447692871 80.02680206298828 C 10.74805164337158 75.80176544189453 7.43107795715332 70.88218688964844 5.114304542541504 65.40472412109375 C 2.716038227081299 59.73458862304688 1.500011444091797 53.71054840087891 1.500011444091797 47.49993515014648 C 1.500011444091797 41.28932189941406 2.716038227081299 35.26528167724609 5.114304542541504 29.59514808654785 C 7.43107795715332 24.1176815032959 10.74805164337158 19.1981086730957 14.97310447692871 14.97306823730469 C 19.19814491271973 10.74802875518799 24.11773109436035 7.431055068969727 29.5951976776123 5.11428165435791 C 35.26534652709961 2.716028451919556 41.28938293457031 1.500001788139343 47.5000114440918 1.500001788139343 C 53.71063995361328 1.500001788139343 59.73467636108398 2.716028451919556 65.40482330322266 5.11428165435791 C 70.88229370117188 7.431055068969727 75.8018798828125 10.74802875518799 80.02691650390625 14.97306823730469 C 84.25196838378906 19.1981086730957 87.56894683837891 24.1176815032959 89.88571929931641 29.59514808654785 C 92.28398132324219 35.26528167724609 93.50001525878906 41.28932189941406 93.50001525878906 47.49993515014648 C 93.50001525878906 53.71054840087891 92.28398132324219 59.73458862304688 89.88571929931641 65.40472412109375 C 87.56894683837891 70.88218688964844 84.25196838378906 75.80176544189453 80.02691650390625 80.02680206298828 C 75.8018798828125 84.25183868408203 70.88229370117188 87.56881713867188 65.40482330322266 89.88558959960938 C 59.73467636108398 92.28384399414062 53.71063995361328 93.49987030029297 47.5000114440918 93.49987030029297 Z" stroke="none"/>
                                        <path d="M 47.5000114440918 3 C 41.49122619628906 3 35.66378021240234 4.1761474609375 30.17951965332031 6.495796203613281 C 24.880859375 8.7369384765625 20.12153625488281 11.94596862792969 16.03376770019531 16.03373718261719 C 11.94598388671875 20.12149047851562 8.736968994140625 24.88081359863281 6.495811462402344 30.17947387695312 C 4.176162719726562 35.66371917724609 3.000007629394531 41.49116516113281 3.000007629394531 47.49993515014648 C 3.000007629394531 53.50870513916016 4.176162719726562 59.33615112304688 6.495811462402344 64.82039642333984 C 8.736968994140625 70.11905670166016 11.94598388671875 74.87837982177734 16.03376770019531 78.96613311767578 C 20.12153625488281 83.05390167236328 24.880859375 86.26293182373047 30.17951965332031 88.50407409667969 C 35.66378021240234 90.82372283935547 41.49122619628906 91.99987030029297 47.5000114440918 91.99987030029297 C 53.50879669189453 91.99987030029297 59.33624267578125 90.82372283935547 64.82050323486328 88.50407409667969 C 70.11916351318359 86.26293182373047 74.87848663330078 83.05390167236328 78.96625518798828 78.96613311767578 C 83.05403900146484 74.87837982177734 86.2630615234375 70.11905670166016 88.50421142578125 64.82039642333984 C 90.82386016845703 59.33615112304688 92.00001525878906 53.50870513916016 92.00001525878906 47.49993515014648 C 92.00001525878906 41.49116516113281 90.82386016845703 35.66371917724609 88.50421142578125 30.17947387695312 C 86.2630615234375 24.88081359863281 83.05403900146484 20.12149047851562 78.96625518798828 16.03373718261719 C 74.87848663330078 11.94596862792969 70.11916351318359 8.7369384765625 64.82050323486328 6.495796203613281 C 59.33624267578125 4.1761474609375 53.50879669189453 3 47.5000114440918 3 M 47.5000114440918 0 C 73.73353576660156 0 95.00001525878906 21.26644134521484 95.00001525878906 47.49993515014648 C 95.00001525878906 73.73342895507812 73.73353576660156 94.99987030029297 47.5000114440918 94.99987030029297 C 21.26648712158203 94.99987030029297 7.62939453125e-06 73.73342895507812 7.62939453125e-06 47.49993515014648 C 7.62939453125e-06 21.26644134521484 21.26648712158203 0 47.5000114440918 0 Z" stroke="none" fill="#86b60c"/>
                                      </g>
                                    </g>
                                  </g>
                                </g>
                              </g>
                            </g>
                          </g>
                        </g>
                      </g>
                    </g>
                  </g>
                </g>
              </g>
            </g>
          </g>
        </g>
      </g>
    </g>
    <g id="loss_1552554" transform="translate(8602.498 4108.496)">
      <path id="Trazado_1041531" data-name="Trazado 1041531" d="M49.294,76.535V87.984H8V46.69h6.194V40.5H25.55a4.124,4.124,0,0,0,4.129,4.129H49.294Zm0,0" transform="translate(-6.968 -34.838)" fill="#e6e9ed"/>
      <path id="Trazado_1041532" data-name="Trazado 1041532" d="M220.129,12.625v4.129H216V8.5h4.129Zm0,0" transform="translate(-188.127 -6.968)" fill="#fcd770"/>
      <path id="Trazado_1041533" data-name="Trazado 1041533" d="M153.291,8.5v8.259h-5.162a4.129,4.129,0,0,1,0-8.259Zm0,0" transform="translate(-125.418 -6.968)" fill="#aab2bd"/>
      <path id="Trazado_1041534" data-name="Trazado 1041534" d="M438.194,12.625,432,16.755V8.5Zm0,0" transform="translate(-376.254 -6.968)" fill="#969faa"/>
      <path id="Trazado_1041535" data-name="Trazado 1041535" d="M271.744,40.5v4.129H248V40.5Zm0,0" transform="translate(-215.998 -34.838)" fill="#fcd770"/>
      <path id="Trazado_1041536" data-name="Trazado 1041536" d="M248,8.5h23.744v4.129H248Zm0,0" transform="translate(-215.998 -6.968)" fill="#b4dd7f"/>
      <path id="Trazado_1041537" data-name="Trazado 1041537" d="M14.194,40.5V46.69H8Zm0,0" transform="translate(-6.968 -34.838)" fill="#fcd770"/>
      <path id="Trazado_1041538" data-name="Trazado 1041538" d="M114.582,183.754a45.269,45.269,0,0,1-12.388-9.818c-.558-.63-1.094-1.28-1.621-1.941l-2.509-3.5H96v26.841h24.776V186.51A44.884,44.884,0,0,1,114.582,183.754Zm0,0" transform="translate(-83.612 -146.32)" fill="#b4dd7f"/>
      <path id="Trazado_1041539" data-name="Trazado 1041539" d="M338.323,328.5a10.266,10.266,0,1,1-.526.011c.175-.011.351-.011.526-.011Zm0,0" transform="translate(-285.674 -285.674)" fill="#fcd770"/>
      <path id="Trazado_1041540" data-name="Trazado 1041540" d="M387.1,362.819a1.033,1.033,0,0,1-1.032-1.032H384a3.093,3.093,0,0,0,2.065,2.908v2.254h2.065v-2.254a3.09,3.09,0,0,0-1.032-6,1.032,1.032,0,1,1,1.032-1.032h2.065a3.093,3.093,0,0,0-2.065-2.907V352.5h-2.065v2.255a3.089,3.089,0,0,0,1.032,6,1.032,1.032,0,0,1,0,2.065Zm0,0" transform="translate(-334.448 -306.577)"/>
      <path id="Trazado_1041541" data-name="Trazado 1041541" d="M63.984,52.468A11.517,11.517,0,0,0,52.353,41.79,43.79,43.79,0,0,1,17.8,25.07l-2.817-3.927H11.355V50.049H38.2V41.654a46.315,46.315,0,0,0,14.156,2.2,9.451,9.451,0,0,1,9.571,8.733,9.294,9.294,0,1,1-15.911-5.946L44.539,45.2a11.242,11.242,0,0,0-3.189,6.916H2.064V12.884H8.258V6.69h9.4a5.17,5.17,0,0,0,5.057,4.129H41.293V33.053A46.093,46.093,0,0,1,19.768,17.564l-1.641,1.253A48.243,48.243,0,0,0,56.238,37.661H57.5L54.142,39.9l1.145,1.717,7.482-4.988L55.287,31.64l-1.145,1.717L57.5,35.6H56.237a45.6,45.6,0,0,1-12.88-1.87V8.755H33.035V6.69H54.714V8.755H45.423V10.82H56.059L63.8,5.658,56.059.5H22.711a5.171,5.171,0,0,0-5.057,4.129H6.8L0,11.425V54.178H41.356c.028.309.049.617.1.929a11.289,11.289,0,0,0,8.837,9.158,11.872,11.872,0,0,0,2.347.236A11.352,11.352,0,0,0,63.984,52.468ZM29.938,38.055v9.929H25.808V35.456A45.937,45.937,0,0,0,29.938,38.055ZM23.744,33.9V47.984H19.614V30.194A46.339,46.339,0,0,0,23.744,33.9ZM13.42,23.208h.5l2.228,3.1c.449.57.926,1.108,1.4,1.653v20.02H13.419V23.208ZM36.132,47.984H32V39.126c1.349.663,2.719,1.283,4.129,1.811ZM28.905,8.755V2.561H30.97V8.755Zm4.129-4.129V2.561H54.714V4.625ZM56.779,7.859v-4.4l3.3,2.2Zm-34.067-5.3h4.129V8.755H22.711a3.1,3.1,0,1,1,0-6.194ZM3.524,10.82l2.67-2.67v2.67Zm0,0"/>
      <path id="Trazado_1041542" data-name="Trazado 1041542" d="M160,96.5h18.582v2.065H160Zm0,0" transform="translate(-139.353 -83.612)"/>
      <path id="Trazado_1041543" data-name="Trazado 1041543" d="M192,128.5h14.453v2.065H192Zm0,0" transform="translate(-167.224 -111.482)"/>
      <path id="Trazado_1041544" data-name="Trazado 1041544" d="M224,160.5h10.323v2.065H224Zm0,0" transform="translate(-195.095 -139.353)"/>
    </g>
  </g>
</svg>
