<svg xmlns="http://www.w3.org/2000/svg" xmlns:xlink="http://www.w3.org/1999/xlink" width="113" height="113" viewBox="0 0 113 113">
  <defs>
    <filter id="Trazado_982547" x="0" y="0" width="113" height="113" filterUnits="userSpaceOnUse">
      <feOffset dy="3" input="SourceAlpha"/>
      <feGaussianBlur stdDeviation="3" result="blur"/>
      <feFlood flood-opacity="0.161"/>
      <feComposite operator="in" in2="blur"/>
      <feComposite in="SourceGraphic"/>
    </filter>
  </defs>
  <g id="Grupo_1202562" data-name="Grupo 1202562" transform="translate(-8259 -4506.656)">
    <g id="Grupo_1202376" data-name="Grupo 1202376" transform="translate(7465.51 3045.033)">
      <g id="Grupo_1177632" data-name="Grupo 1177632" transform="translate(-4493 -458.649)">
        <g id="Grupo_1176928" data-name="Grupo 1176928" transform="translate(5295.49 1926.273)">
          <g id="Grupo_1172322" data-name="Grupo 1172322" transform="translate(0 0)">
            <g id="Grupo_1164700" data-name="Grupo 1164700">
              <g id="Grupo_1160931" data-name="Grupo 1160931">
                <g id="Grupo_1160749" data-name="Grupo 1160749">
                  <g id="Grupo_1158891" data-name="Grupo 1158891">
                    <g id="Grupo_1157406" data-name="Grupo 1157406">
                      <g id="Grupo_1155793" data-name="Grupo 1155793">
                        <g id="Grupo_1154704" data-name="Grupo 1154704">
                          <g id="Grupo_1150790" data-name="Grupo 1150790">
                            <g id="Grupo_1154214" data-name="Grupo 1154214">
                              <g id="Grupo_1152583" data-name="Grupo 1152583">
                                <g id="Grupo_1146973" data-name="Grupo 1146973">
                                  <g id="Grupo_1146954" data-name="Grupo 1146954">
                                    <g transform="matrix(1, 0, 0, 1, -9, -6)" filter="url(#Trazado_982547)">
                                      <g id="Trazado_982547-2" data-name="Trazado 982547" transform="translate(9 6)" fill="#f2f7e5">
                                        <path d="M 47.5000114440918 93.49987030029297 C 41.28938293457031 93.49987030029297 35.26534652709961 92.28384399414062 29.5951976776123 89.88558959960938 C 24.11773109436035 87.56881713867188 19.19814491271973 84.25183868408203 14.97310447692871 80.02680206298828 C 10.74805164337158 75.80176544189453 7.43107795715332 70.88218688964844 5.114304542541504 65.40472412109375 C 2.716038227081299 59.73458862304688 1.500011444091797 53.71054840087891 1.500011444091797 47.49993515014648 C 1.500011444091797 41.28932189941406 2.716038227081299 35.26528167724609 5.114304542541504 29.59514808654785 C 7.43107795715332 24.1176815032959 10.74805164337158 19.1981086730957 14.97310447692871 14.97306823730469 C 19.19814491271973 10.74802875518799 24.11773109436035 7.431055068969727 29.5951976776123 5.11428165435791 C 35.26534652709961 2.716028451919556 41.28938293457031 1.500001788139343 47.5000114440918 1.500001788139343 C 53.71063995361328 1.500001788139343 59.73467636108398 2.716028451919556 65.40482330322266 5.11428165435791 C 70.88229370117188 7.431055068969727 75.8018798828125 10.74802875518799 80.02691650390625 14.97306823730469 C 84.25196838378906 19.1981086730957 87.56894683837891 24.1176815032959 89.88571929931641 29.59514808654785 C 92.28398132324219 35.26528167724609 93.50001525878906 41.28932189941406 93.50001525878906 47.49993515014648 C 93.50001525878906 53.71054840087891 92.28398132324219 59.73458862304688 89.88571929931641 65.40472412109375 C 87.56894683837891 70.88218688964844 84.25196838378906 75.80176544189453 80.02691650390625 80.02680206298828 C 75.8018798828125 84.25183868408203 70.88229370117188 87.56881713867188 65.40482330322266 89.88558959960938 C 59.73467636108398 92.28384399414062 53.71063995361328 93.49987030029297 47.5000114440918 93.49987030029297 Z" stroke="none"/>
                                        <path d="M 47.5000114440918 3 C 41.49122619628906 3 35.66378021240234 4.1761474609375 30.17951965332031 6.495796203613281 C 24.880859375 8.7369384765625 20.12153625488281 11.94596862792969 16.03376770019531 16.03373718261719 C 11.94598388671875 20.12149047851562 8.736968994140625 24.88081359863281 6.495811462402344 30.17947387695312 C 4.176162719726562 35.66371917724609 3.000007629394531 41.49116516113281 3.000007629394531 47.49993515014648 C 3.000007629394531 53.50870513916016 4.176162719726562 59.33615112304688 6.495811462402344 64.82039642333984 C 8.736968994140625 70.11905670166016 11.94598388671875 74.87837982177734 16.03376770019531 78.96613311767578 C 20.12153625488281 83.05390167236328 24.880859375 86.26293182373047 30.17951965332031 88.50407409667969 C 35.66378021240234 90.82372283935547 41.49122619628906 91.99987030029297 47.5000114440918 91.99987030029297 C 53.50879669189453 91.99987030029297 59.33624267578125 90.82372283935547 64.82050323486328 88.50407409667969 C 70.11916351318359 86.26293182373047 74.87848663330078 83.05390167236328 78.96625518798828 78.96613311767578 C 83.05403900146484 74.87837982177734 86.2630615234375 70.11905670166016 88.50421142578125 64.82039642333984 C 90.82386016845703 59.33615112304688 92.00001525878906 53.50870513916016 92.00001525878906 47.49993515014648 C 92.00001525878906 41.49116516113281 90.82386016845703 35.66371917724609 88.50421142578125 30.17947387695312 C 86.2630615234375 24.88081359863281 83.05403900146484 20.12149047851562 78.96625518798828 16.03373718261719 C 74.87848663330078 11.94596862792969 70.11916351318359 8.7369384765625 64.82050323486328 6.495796203613281 C 59.33624267578125 4.1761474609375 53.50879669189453 3 47.5000114440918 3 M 47.5000114440918 0 C 73.73353576660156 0 95.00001525878906 21.26644134521484 95.00001525878906 47.49993515014648 C 95.00001525878906 73.73342895507812 73.73353576660156 94.99987030029297 47.5000114440918 94.99987030029297 C 21.26648712158203 94.99987030029297 7.62939453125e-06 73.73342895507812 7.62939453125e-06 47.49993515014648 C 7.62939453125e-06 21.26644134521484 21.26648712158203 0 47.5000114440918 0 Z" stroke="none" fill="#86b60c"/>
                                      </g>
                                    </g>
                                  </g>
                                </g>
                              </g>
                            </g>
                          </g>
                        </g>
                      </g>
                    </g>
                  </g>
                </g>
              </g>
            </g>
          </g>
        </g>
      </g>
    </g>
    <g id="deficit_2973290" transform="translate(8281 4531)">
      <g id="Grupo_1202560" data-name="Grupo 1202560">
        <g id="Grupo_1202552" data-name="Grupo 1202552">
          <path id="Trazado_1041545" data-name="Trazado 1041545" d="M37.98,26.99a17.729,17.729,0,0,0-5.35-11.96,12.587,12.587,0,0,1,.91-2.17L30.86,9.1,35.1,4.86l3.76,2.68a13.086,13.086,0,0,1,2.38-.98L42,2h6l.76,4.56a13.086,13.086,0,0,1,2.38.98L54.9,4.86,59.14,9.1l-2.68,3.76a13.085,13.085,0,0,1,.98,2.38L62,16v6l-4.56.76a13.086,13.086,0,0,1-.98,2.38l2.68,3.76L54.9,33.14l-3.76-2.68a13.086,13.086,0,0,1-2.38.98L48,36l-.16.87ZM37,19a8,8,0,1,0,8-8A8,8,0,0,0,37,19Z" fill="#ffc729"/>
        </g>
        <g id="Grupo_1202553" data-name="Grupo 1202553">
          <path id="Trazado_1041546" data-name="Trazado 1041546" d="M45,11a8,8,0,1,1-8,8A8,8,0,0,1,45,11Zm4,8a4,4,0,1,0-4,4A4,4,0,0,0,49,19Z" fill="#fcd770"/>
        </g>
        <g id="Grupo_1202554" data-name="Grupo 1202554">
          <path id="Trazado_1041547" data-name="Trazado 1041547" d="M12,54H28a8,8,0,1,1-16,0Z" fill="#aab2bd"/>
        </g>
        <g id="Grupo_1202555" data-name="Grupo 1202555">
          <path id="Trazado_1041548" data-name="Trazado 1041548" d="M28,48a2.006,2.006,0,0,1,2,2v2a2.006,2.006,0,0,1-2,2H12a2.006,2.006,0,0,1-2-2V50a2.006,2.006,0,0,1,2-2Z" fill="#ccd1d9"/>
        </g>
        <g id="Grupo_1202556" data-name="Grupo 1202556">
          <path id="Trazado_1041549" data-name="Trazado 1041549" d="M37.98,26.99l-8.57-8.58a4.827,4.827,0,0,0-6.39-.38L23,18l-3-4-4,5H11v5L7,27l4.06,2.94,1.55,1.12-1.1,5.43,5.43-1.1.67,1L20,40l3.06-4.61,5.43,1.1L28,29.91,35.41,37a17.827,17.827,0,0,1-4.98,5.3A5.709,5.709,0,0,0,28,46.96V48H12V46.96A5.709,5.709,0,0,0,9.57,42.3,17.756,17.756,0,0,1,19.76,10h.48A17.743,17.743,0,0,1,37.98,26.99Z" fill="#ffeaa7"/>
        </g>
        <g id="Grupo_1202557" data-name="Grupo 1202557">
          <path id="Trazado_1041550" data-name="Trazado 1041550" d="M23,18l.02.03a5.084,5.084,0,0,0-.43.38L11.06,29.94,7,27l4-3V19h5l4-5Z" fill="#e6e9ed"/>
        </g>
        <g id="Grupo_1202558" data-name="Grupo 1202558">
          <path id="Trazado_1041551" data-name="Trazado 1041551" d="M28,29.91l.49,6.58-5.43-1.1L20,40l-2.39-3.61L26,28Z" fill="#e6e9ed"/>
        </g>
        <g id="Grupo_1202559" data-name="Grupo 1202559">
          <path id="Trazado_1041552" data-name="Trazado 1041552" d="M37.98,26.99l9.86,9.88,6.14,6.15L55.5,41.5a1.708,1.708,0,0,1,2.85.74l3.58,12.53a1.487,1.487,0,0,1,.07.47A1.763,1.763,0,0,1,60.24,57a1.487,1.487,0,0,1-.47-.07L47.24,53.35a1.708,1.708,0,0,1-.74-2.85l1.48-1.48L35.41,37,28,29.91,26,28l-8.39,8.39-.67-1-5.43,1.1,1.1-5.43-1.55-1.12L22.59,18.41a5.083,5.083,0,0,1,.43-.38,4.827,4.827,0,0,1,6.39.38Z" fill="#ef7385"/>
        </g>
      </g>
      <g id="Grupo_1202561" data-name="Grupo 1202561">
        <path id="Trazado_1041553" data-name="Trazado 1041553" d="M50,19a5,5,0,1,0-5,5A5.006,5.006,0,0,0,50,19Zm-8,0a3,3,0,1,1,3,3A3,3,0,0,1,42,19Z"/>
        <path id="Trazado_1041554" data-name="Trazado 1041554" d="M63,22.847V15.153l-4.795-.8a14.177,14.177,0,0,0-.581-1.406l2.825-3.955L55.008,3.552,51.054,6.377A14.062,14.062,0,0,0,49.647,5.8l-.8-4.8H41.154l-.8,4.8a13.831,13.831,0,0,0-1.407.582L34.993,3.552l-5.44,5.441,2.824,3.955c-.054.113-.1.232-.15.347A18.711,18.711,0,0,0,20.244,9h-.488A18.755,18.755,0,0,0,9,43.12a4.7,4.7,0,0,1,2,3.842v.222A3,3,0,0,0,9,50v2a3,3,0,0,0,2.042,2.829,9,9,0,0,0,17.916,0A3,3,0,0,0,31,52V50a3,3,0,0,0-2-2.816v-.222a4.694,4.694,0,0,1,2-3.841,18.609,18.609,0,0,0,4.566-4.586l10.981,10.5-.754.754A2.692,2.692,0,0,0,45,51.709a2.723,2.723,0,0,0,1.967,2.607L59.494,57.9a2.718,2.718,0,0,0,.745.1A2.763,2.763,0,0,0,63,55.24a2.717,2.717,0,0,0-.1-.745l-3.58-12.528a2.711,2.711,0,0,0-4.524-1.173l-.809.809-5.072-5.078.735-4.32a13.83,13.83,0,0,0,1.407-.582l3.954,2.825,5.441-5.441-2.825-3.955a14.179,14.179,0,0,0,.581-1.406ZM10.146,41.482A16.756,16.756,0,0,1,19.756,11h.488A16.654,16.654,0,0,1,36.619,24.218l-6.5-6.509A5.744,5.744,0,0,0,23.277,16.7l-3.252-4.336L15.52,18H10v5.5L5.314,27.014l6.185,4.48-1.262,6.269,6.24-1.256L20,41.807l3.522-5.3,6.058,1.219-.391-5.291,4.914,4.7a16.612,16.612,0,0,1-3.338,3.637c-.3.242-.594.488-.912.71A6.692,6.692,0,0,0,27,46.962V47H13v-.038a6.693,6.693,0,0,0-2.854-5.48Zm-1.46-14.5L12,24.5V20h4.48l3.494-4.367,1.7,2.273L10.956,28.63ZM27.031,30.37l.359,4.875-4.79-.964L20,38.193l-1.11-1.67L26.015,29.4ZM20,61a7,7,0,0,1-6.92-6H26.92A7,7,0,0,1,20,61Zm9-9a1,1,0,0,1-1,1H12a1,1,0,0,1-1-1V50a1,1,0,0,1,1-1H28a1,1,0,0,1,1,1Zm27.207-9.792a.74.74,0,0,1,1.186.309l3.579,12.524a.753.753,0,0,1,.028.2.767.767,0,0,1-.956.733l-12.528-3.58a.712.712,0,0,1-.308-1.187l2.2-2.2L25.984,26.6l-8.223,8.223-.362-.544-4.607.927.922-4.579-1.118-.81,10.7-10.7a3.914,3.914,0,0,1,5.408,0L53.981,44.432Zm1.629-13.416-3.045,3.044-3.574-2.554-.548.294a11.967,11.967,0,0,1-2.2.909l-.6.18L47.187,34.8l-8.245-8.255c-.021-.327-.04-.655-.077-.977A8.994,8.994,0,1,0,36.1,17.717a18.6,18.6,0,0,0-2.312-2.96,11.771,11.771,0,0,1,.634-1.426l.293-.548L32.164,9.208l3.045-3.044,3.574,2.554.548-.294a11.967,11.967,0,0,1,2.2-.909l.6-.18L42.847,3h4.307l.723,4.335.6.18a11.869,11.869,0,0,1,2.2.909l.548.294,3.574-2.554,3.045,3.044-2.553,3.575.293.548a12.033,12.033,0,0,1,.91,2.2l.18.594L61,16.847v4.306l-4.334.723-.18.594a12.033,12.033,0,0,1-.91,2.2l-.293.548ZM38,19a7,7,0,1,1,7,7A7.008,7.008,0,0,1,38,19Z"/>
      </g>
    </g>
  </g>
</svg>
