<svg xmlns="http://www.w3.org/2000/svg" xmlns:xlink="http://www.w3.org/1999/xlink" width="113" height="113" viewBox="0 0 113 113">
  <defs>
    <filter id="Trazado_982547" x="0" y="0" width="113" height="113" filterUnits="userSpaceOnUse">
      <feOffset dy="3" input="SourceAlpha"/>
      <feGaussianBlur stdDeviation="3" result="blur"/>
      <feFlood flood-opacity="0.161"/>
      <feComposite operator="in" in2="blur"/>
      <feComposite in="SourceGraphic"/>
    </filter>
  </defs>
  <g id="Grupo_1202563" data-name="Grupo 1202563" transform="translate(-8578 -4506.656)">
    <g id="Grupo_1202377" data-name="Grupo 1202377" transform="translate(7784.51 3045.033)">
      <g id="Grupo_1177632" data-name="Grupo 1177632" transform="translate(-4493 -458.649)">
        <g id="Grupo_1176928" data-name="Grupo 1176928" transform="translate(5295.49 1926.273)">
          <g id="Grupo_1172322" data-name="Grupo 1172322" transform="translate(0 0)">
            <g id="Grupo_1164700" data-name="Grupo 1164700">
              <g id="Grupo_1160931" data-name="Grupo 1160931">
                <g id="Grupo_1160749" data-name="Grupo 1160749">
                  <g id="Grupo_1158891" data-name="Grupo 1158891">
                    <g id="Grupo_1157406" data-name="Grupo 1157406">
                      <g id="Grupo_1155793" data-name="Grupo 1155793">
                        <g id="Grupo_1154704" data-name="Grupo 1154704">
                          <g id="Grupo_1150790" data-name="Grupo 1150790">
                            <g id="Grupo_1154214" data-name="Grupo 1154214">
                              <g id="Grupo_1152583" data-name="Grupo 1152583">
                                <g id="Grupo_1146973" data-name="Grupo 1146973">
                                  <g id="Grupo_1146954" data-name="Grupo 1146954">
                                    <g transform="matrix(1, 0, 0, 1, -9, -6)" filter="url(#Trazado_982547)">
                                      <g id="Trazado_982547-2" data-name="Trazado 982547" transform="translate(9 6)" fill="#f2f7e5">
                                        <path d="M 47.5000114440918 93.49987030029297 C 41.28938293457031 93.49987030029297 35.26534652709961 92.28384399414062 29.5951976776123 89.88558959960938 C 24.11773109436035 87.56881713867188 19.19814491271973 84.25183868408203 14.97310447692871 80.02680206298828 C 10.74805164337158 75.80176544189453 7.43107795715332 70.88218688964844 5.114304542541504 65.40472412109375 C 2.716038227081299 59.73458862304688 1.500011444091797 53.71054840087891 1.500011444091797 47.49993515014648 C 1.500011444091797 41.28932189941406 2.716038227081299 35.26528167724609 5.114304542541504 29.59514808654785 C 7.43107795715332 24.1176815032959 10.74805164337158 19.1981086730957 14.97310447692871 14.97306823730469 C 19.19814491271973 10.74802875518799 24.11773109436035 7.431055068969727 29.5951976776123 5.11428165435791 C 35.26534652709961 2.716028451919556 41.28938293457031 1.500001788139343 47.5000114440918 1.500001788139343 C 53.71063995361328 1.500001788139343 59.73467636108398 2.716028451919556 65.40482330322266 5.11428165435791 C 70.88229370117188 7.431055068969727 75.8018798828125 10.74802875518799 80.02691650390625 14.97306823730469 C 84.25196838378906 19.1981086730957 87.56894683837891 24.1176815032959 89.88571929931641 29.59514808654785 C 92.28398132324219 35.26528167724609 93.50001525878906 41.28932189941406 93.50001525878906 47.49993515014648 C 93.50001525878906 53.71054840087891 92.28398132324219 59.73458862304688 89.88571929931641 65.40472412109375 C 87.56894683837891 70.88218688964844 84.25196838378906 75.80176544189453 80.02691650390625 80.02680206298828 C 75.8018798828125 84.25183868408203 70.88229370117188 87.56881713867188 65.40482330322266 89.88558959960938 C 59.73467636108398 92.28384399414062 53.71063995361328 93.49987030029297 47.5000114440918 93.49987030029297 Z" stroke="none"/>
                                        <path d="M 47.5000114440918 3 C 41.49122619628906 3 35.66378021240234 4.1761474609375 30.17951965332031 6.495796203613281 C 24.880859375 8.7369384765625 20.12153625488281 11.94596862792969 16.03376770019531 16.03373718261719 C 11.94598388671875 20.12149047851562 8.736968994140625 24.88081359863281 6.495811462402344 30.17947387695312 C 4.176162719726562 35.66371917724609 3.000007629394531 41.49116516113281 3.000007629394531 47.49993515014648 C 3.000007629394531 53.50870513916016 4.176162719726562 59.33615112304688 6.495811462402344 64.82039642333984 C 8.736968994140625 70.11905670166016 11.94598388671875 74.87837982177734 16.03376770019531 78.96613311767578 C 20.12153625488281 83.05390167236328 24.880859375 86.26293182373047 30.17951965332031 88.50407409667969 C 35.66378021240234 90.82372283935547 41.49122619628906 91.99987030029297 47.5000114440918 91.99987030029297 C 53.50879669189453 91.99987030029297 59.33624267578125 90.82372283935547 64.82050323486328 88.50407409667969 C 70.11916351318359 86.26293182373047 74.87848663330078 83.05390167236328 78.96625518798828 78.96613311767578 C 83.05403900146484 74.87837982177734 86.2630615234375 70.11905670166016 88.50421142578125 64.82039642333984 C 90.82386016845703 59.33615112304688 92.00001525878906 53.50870513916016 92.00001525878906 47.49993515014648 C 92.00001525878906 41.49116516113281 90.82386016845703 35.66371917724609 88.50421142578125 30.17947387695312 C 86.2630615234375 24.88081359863281 83.05403900146484 20.12149047851562 78.96625518798828 16.03373718261719 C 74.87848663330078 11.94596862792969 70.11916351318359 8.7369384765625 64.82050323486328 6.495796203613281 C 59.33624267578125 4.1761474609375 53.50879669189453 3 47.5000114440918 3 M 47.5000114440918 0 C 73.73353576660156 0 95.00001525878906 21.26644134521484 95.00001525878906 47.49993515014648 C 95.00001525878906 73.73342895507812 73.73353576660156 94.99987030029297 47.5000114440918 94.99987030029297 C 21.26648712158203 94.99987030029297 7.62939453125e-06 73.73342895507812 7.62939453125e-06 47.49993515014648 C 7.62939453125e-06 21.26644134521484 21.26648712158203 0 47.5000114440918 0 Z" stroke="none" fill="#86b60c"/>
                                      </g>
                                    </g>
                                  </g>
                                </g>
                              </g>
                            </g>
                          </g>
                        </g>
                      </g>
                    </g>
                  </g>
                </g>
              </g>
            </g>
          </g>
        </g>
      </g>
    </g>
    <g id="Layer_7" data-name="Layer 7" transform="translate(8603 4528)">
      <rect id="Rectángulo_416642" data-name="Rectángulo 416642" width="48" height="32" rx="3" transform="translate(2 7)" fill="#78b761"/>
      <path id="Trazado_1041555" data-name="Trazado 1041555" d="M6,28H28v6H6Z" fill="#c1c8d1"/>
      <path id="Trazado_1041556" data-name="Trazado 1041556" d="M2,13H50v6H2Z" fill="#c1c8d1"/>
      <circle id="Elipse_12326" data-name="Elipse 12326" cx="11" cy="11" r="11" transform="translate(40 2)" fill="#e47c6f"/>
      <path id="Trazado_1041557" data-name="Trazado 1041557" d="M59,7.5a13.131,13.131,0,0,0-.22-2.27,11,11,0,1,0-14.19,16.7C52.68,21.2,59,15,59,7.5Z" fill="#e9968c"/>
      <path id="Trazado_1041558" data-name="Trazado 1041558" d="M19,39V35a3,3,0,0,0-6,0V50.8A6.66,6.66,0,0,0,15.5,56,6.66,6.66,0,0,1,18,61.2V62H35V60.83A6.84,6.84,0,0,1,37,56a6.84,6.84,0,0,0,2-4.83V39Z" fill="#fddfb1"/>
      <path id="Trazado_1041559" data-name="Trazado 1041559" d="M42,27a4,4,0,0,0-3,1.38,4,4,0,1,0,0,5.24A4,4,0,1,0,42,27Z" fill="#c1c8d1"/>
      <path id="Trazado_1041560" data-name="Trazado 1041560" d="M49,5h4v8H49Z" fill="#fff"/>
      <path id="Trazado_1041561" data-name="Trazado 1041561" d="M49,16h4v4H49Z" fill="#fff"/>
      <path id="Trazado_1041562" data-name="Trazado 1041562" d="M39,27a4.92,4.92,0,0,0-3-1,5,5,0,1,0,0,10,4.92,4.92,0,0,0,3-1,4.92,4.92,0,0,0,3,1,5,5,0,1,0,0-10A4.92,4.92,0,0,0,39,27Zm6,4a3.01,3.01,0,0,1-5.25,2,1,1,0,0,0-1.5,0,3,3,0,1,1,0-4,1,1,0,0,0,1.5,0A3.01,3.01,0,0,1,45,31Z"/>
      <path id="Trazado_1041563" data-name="Trazado 1041563" d="M53,4H49a1,1,0,0,0-1,1v8a1,1,0,0,0,1,1h4a1,1,0,0,0,1-1V5A1,1,0,0,0,53,4Zm-1,8H50V6h2Z"/>
      <path id="Trazado_1041564" data-name="Trazado 1041564" d="M53,15H49a1,1,0,0,0-1,1v4a1,1,0,0,0,1,1h4a1,1,0,0,0,1-1V16A1,1,0,0,0,53,15Zm-1,4H50V17h2Z"/>
      <path id="Trazado_1041565" data-name="Trazado 1041565" d="M51,1a12,12,0,0,0-9.73,5H5a4,4,0,0,0-4,4V36a4,4,0,0,0,4,4h7V50.8a7.61,7.61,0,0,0,2.88,6A5.63,5.63,0,0,1,17,61.2V62a1,1,0,0,0,1,1H35a1,1,0,0,0,1-1V60.83a5.79,5.79,0,0,1,1.71-4.12A7.78,7.78,0,0,0,40,51.17V40h7a4,4,0,0,0,4-4V25A12,12,0,0,0,51,1ZM5,8H40.11a12,12,0,0,0-1.06,4H3V10A2,2,0,0,1,5,8Zm34.05,6a12,12,0,0,0,1.06,4H3V14ZM12.56,33H7V29H27v4H19.44a4,4,0,0,0-6.88,0ZM38,51.17a5.79,5.79,0,0,1-1.71,4.12A7.78,7.78,0,0,0,34,60.83V61H19a7.62,7.62,0,0,0-2.88-5.78A5.63,5.63,0,0,1,14,50.8V35a2,2,0,0,1,4,0v9a1,1,0,0,0,1,1,7,7,0,0,1,7,7h2a9,9,0,0,0-8-8.94V40H38ZM49,36a2,2,0,0,1-2,2H20V35h8a1,1,0,0,0,1-1V28a1,1,0,0,0-1-1H6a1,1,0,0,0-1,1v6a1,1,0,0,0,1,1h6v3H5a2,2,0,0,1-2-2V20H41.27A12,12,0,0,0,49,24.82Zm2-13A10,10,0,1,1,61,13,10,10,0,0,1,51,23Z"/>
    </g>
  </g>
</svg>
