<svg xmlns="http://www.w3.org/2000/svg" xmlns:xlink="http://www.w3.org/1999/xlink" width="113" height="113" viewBox="0 0 113 113">
  <defs>
    <filter id="Trazado_982547" x="0" y="0" width="113" height="113" filterUnits="userSpaceOnUse">
      <feOffset dy="3" input="SourceAlpha"/>
      <feGaussianBlur stdDeviation="3" result="blur"/>
      <feFlood flood-opacity="0.161"/>
      <feComposite operator="in" in2="blur"/>
      <feComposite in="SourceGraphic"/>
    </filter>
  </defs>
  <g id="Grupo_1202566" data-name="Grupo 1202566" transform="translate(-8259 -4933.656)">
    <g id="Grupo_1202378" data-name="Grupo 1202378" transform="translate(7465.51 3472.033)">
      <g id="Grupo_1177632" data-name="Grupo 1177632" transform="translate(-4493 -458.649)">
        <g id="Grupo_1176928" data-name="Grupo 1176928" transform="translate(5295.49 1926.273)">
          <g id="Grupo_1172322" data-name="Grupo 1172322" transform="translate(0 0)">
            <g id="Grupo_1164700" data-name="Grupo 1164700">
              <g id="Grupo_1160931" data-name="Grupo 1160931">
                <g id="Grupo_1160749" data-name="Grupo 1160749">
                  <g id="Grupo_1158891" data-name="Grupo 1158891">
                    <g id="Grupo_1157406" data-name="Grupo 1157406">
                      <g id="Grupo_1155793" data-name="Grupo 1155793">
                        <g id="Grupo_1154704" data-name="Grupo 1154704">
                          <g id="Grupo_1150790" data-name="Grupo 1150790">
                            <g id="Grupo_1154214" data-name="Grupo 1154214">
                              <g id="Grupo_1152583" data-name="Grupo 1152583">
                                <g id="Grupo_1146973" data-name="Grupo 1146973">
                                  <g id="Grupo_1146954" data-name="Grupo 1146954">
                                    <g transform="matrix(1, 0, 0, 1, -9, -6)" filter="url(#Trazado_982547)">
                                      <g id="Trazado_982547-2" data-name="Trazado 982547" transform="translate(9 6)" fill="#f2f7e5">
                                        <path d="M 47.5000114440918 93.49987030029297 C 41.28938293457031 93.49987030029297 35.26534652709961 92.28384399414062 29.5951976776123 89.88558959960938 C 24.11773109436035 87.56881713867188 19.19814491271973 84.25183868408203 14.97310447692871 80.02680206298828 C 10.74805164337158 75.80176544189453 7.43107795715332 70.88218688964844 5.114304542541504 65.40472412109375 C 2.716038227081299 59.73458862304688 1.500011444091797 53.71054840087891 1.500011444091797 47.49993515014648 C 1.500011444091797 41.28932189941406 2.716038227081299 35.26528167724609 5.114304542541504 29.59514808654785 C 7.43107795715332 24.1176815032959 10.74805164337158 19.1981086730957 14.97310447692871 14.97306823730469 C 19.19814491271973 10.74802875518799 24.11773109436035 7.431055068969727 29.5951976776123 5.11428165435791 C 35.26534652709961 2.716028451919556 41.28938293457031 1.500001788139343 47.5000114440918 1.500001788139343 C 53.71063995361328 1.500001788139343 59.73467636108398 2.716028451919556 65.40482330322266 5.11428165435791 C 70.88229370117188 7.431055068969727 75.8018798828125 10.74802875518799 80.02691650390625 14.97306823730469 C 84.25196838378906 19.1981086730957 87.56894683837891 24.1176815032959 89.88571929931641 29.59514808654785 C 92.28398132324219 35.26528167724609 93.50001525878906 41.28932189941406 93.50001525878906 47.49993515014648 C 93.50001525878906 53.71054840087891 92.28398132324219 59.73458862304688 89.88571929931641 65.40472412109375 C 87.56894683837891 70.88218688964844 84.25196838378906 75.80176544189453 80.02691650390625 80.02680206298828 C 75.8018798828125 84.25183868408203 70.88229370117188 87.56881713867188 65.40482330322266 89.88558959960938 C 59.73467636108398 92.28384399414062 53.71063995361328 93.49987030029297 47.5000114440918 93.49987030029297 Z" stroke="none"/>
                                        <path d="M 47.5000114440918 3 C 41.49122619628906 3 35.66378021240234 4.1761474609375 30.17951965332031 6.495796203613281 C 24.880859375 8.7369384765625 20.12153625488281 11.94596862792969 16.03376770019531 16.03373718261719 C 11.94598388671875 20.12149047851562 8.736968994140625 24.88081359863281 6.495811462402344 30.17947387695312 C 4.176162719726562 35.66371917724609 3.000007629394531 41.49116516113281 3.000007629394531 47.49993515014648 C 3.000007629394531 53.50870513916016 4.176162719726562 59.33615112304688 6.495811462402344 64.82039642333984 C 8.736968994140625 70.11905670166016 11.94598388671875 74.87837982177734 16.03376770019531 78.96613311767578 C 20.12153625488281 83.05390167236328 24.880859375 86.26293182373047 30.17951965332031 88.50407409667969 C 35.66378021240234 90.82372283935547 41.49122619628906 91.99987030029297 47.5000114440918 91.99987030029297 C 53.50879669189453 91.99987030029297 59.33624267578125 90.82372283935547 64.82050323486328 88.50407409667969 C 70.11916351318359 86.26293182373047 74.87848663330078 83.05390167236328 78.96625518798828 78.96613311767578 C 83.05403900146484 74.87837982177734 86.2630615234375 70.11905670166016 88.50421142578125 64.82039642333984 C 90.82386016845703 59.33615112304688 92.00001525878906 53.50870513916016 92.00001525878906 47.49993515014648 C 92.00001525878906 41.49116516113281 90.82386016845703 35.66371917724609 88.50421142578125 30.17947387695312 C 86.2630615234375 24.88081359863281 83.05403900146484 20.12149047851562 78.96625518798828 16.03373718261719 C 74.87848663330078 11.94596862792969 70.11916351318359 8.7369384765625 64.82050323486328 6.495796203613281 C 59.33624267578125 4.1761474609375 53.50879669189453 3 47.5000114440918 3 M 47.5000114440918 0 C 73.73353576660156 0 95.00001525878906 21.26644134521484 95.00001525878906 47.49993515014648 C 95.00001525878906 73.73342895507812 73.73353576660156 94.99987030029297 47.5000114440918 94.99987030029297 C 21.26648712158203 94.99987030029297 7.62939453125e-06 73.73342895507812 7.62939453125e-06 47.49993515014648 C 7.62939453125e-06 21.26644134521484 21.26648712158203 0 47.5000114440918 0 Z" stroke="none" fill="#86b60c"/>
                                      </g>
                                    </g>
                                  </g>
                                </g>
                              </g>
                            </g>
                          </g>
                        </g>
                      </g>
                    </g>
                  </g>
                </g>
              </g>
            </g>
          </g>
        </g>
      </g>
    </g>
    <g id="increase_8027587" transform="translate(8284 4953)">
      <g id="Grupo_1202564" data-name="Grupo 1202564">
        <path id="Trazado_1041566" data-name="Trazado 1041566" d="M63,53v5H23.66A10.106,10.106,0,0,0,25,53Z" fill="#d74c4c"/>
        <path id="Trazado_1041567" data-name="Trazado 1041567" d="M57,16.36V53H49V22.18Z" fill="#f7a539"/>
        <path id="Trazado_1041568" data-name="Trazado 1041568" d="M49,22.18V53H41V28Z" fill="#ea8532"/>
        <path id="Trazado_1041569" data-name="Trazado 1041569" d="M41,28V53H33V23Z" fill="#f7a539"/>
        <path id="Trazado_1041570" data-name="Trazado 1041570" d="M33,23V53H25V29.77Z" fill="#ea8532"/>
        <path id="Trazado_1041571" data-name="Trazado 1041571" d="M25,29.77V53a8.876,8.876,0,0,0-3.29-6.88L17,42V38l3-4Z" fill="#f7a539"/>
        <path id="Trazado_1041572" data-name="Trazado 1041572" d="M57,16.36l-8,5.82L41,28l-8-5-8,6.77L20,34a8.082,8.082,0,0,0-4-1.73V30L33,16l8,5,12-9L50,7,62,9l1,3Z" fill="#ffcc3e"/>
        <path id="Trazado_1041573" data-name="Trazado 1041573" d="M16,30v2.27a25.819,25.819,0,0,0-5-.15V5h5Z" fill="#d74c4c"/>
        <path id="Trazado_1041574" data-name="Trazado 1041574" d="M16,32.27A8.082,8.082,0,0,1,20,34l-3,4H9L6,34s1.46-1.46,5-1.88A25.819,25.819,0,0,1,16,32.27Z" fill="#999"/>
        <path id="Trazado_1041575" data-name="Trazado 1041575" d="M9,38h8v4H9Z" fill="#ea8532"/>
        <path id="Trazado_1041576" data-name="Trazado 1041576" d="M25,53a10.106,10.106,0,0,1-1.34,5,10.355,10.355,0,0,1-1.48,2,9.406,9.406,0,0,1-6.81,3H10.63A9.631,9.631,0,0,1,4.29,46.12L9,42h8l4.71,4.12A8.876,8.876,0,0,1,25,53Z" fill="#999"/>
      </g>
      <g id="Grupo_1202565" data-name="Grupo 1202565">
        <path id="Trazado_1041577" data-name="Trazado 1041577" d="M17.207,48.793a1,1,0,0,0-1.414,0L13,51.586l-2.793-2.793a1,1,0,0,0-1.414,1.414L11.586,53,8.793,55.793a.975.975,0,0,0,0,1.414,1.113,1.113,0,0,0,1.414,0L13,54.414l2.793,2.793a1.325,1.325,0,0,0,1.414,0,1,1,0,0,0,0-1.414L14.414,53l2.793-2.793A1,1,0,0,0,17.207,48.793Z" fill="#252525"/>
        <path id="Trazado_1041578" data-name="Trazado 1041578" d="M63,52H58V16.873l5.588-4.064a1,1,0,0,0,.361-1.125l-1-3a1,1,0,0,0-.784-.67l-12-2a1,1,0,0,0-1.022,1.5l2.536,4.227L40.949,19.79,33.53,15.153a1,1,0,0,0-1.166.076L17,27.882V5a1,1,0,0,0-1-1H11a1,1,0,0,0-1,1V31.271a9.14,9.14,0,0,0-4.707,2.022A1,1,0,0,0,5.2,34.6L8,38.333v3.213L3.631,45.368A10.561,10.561,0,0,0,.95,48.975,10.632,10.632,0,0,0,10.63,64h4.74a10.345,10.345,0,0,0,7.535-3.312A11.285,11.285,0,0,0,24.2,59H63a1,1,0,0,0,1-1V53A1,1,0,0,0,63,52Zm-7,0H50V45a1,1,0,0,0-2,0v7H42V28.509l6-4.364V40a1,1,0,0,0,2,0V22.691l6-4.364ZM34,52V33a1,1,0,0,0-2,0V52H26V30.233l7.089-6L40,28.553V52H34ZM18,38.333l2.73-3.64L24,31.926V47.1a11.971,11.971,0,0,0-1.632-1.736L18,41.546Zm15.08-21.1,7.39,4.618A1,1,0,0,0,41.6,21.8l12-9a1,1,0,0,0,.257-1.314L51.971,8.343l9.27,1.545.578,1.733L40.957,26.794l-7.428-4.642a1,1,0,0,0-1.176.084L19.962,32.72A10.146,10.146,0,0,0,17,31.478V30.47l16.08-13.242ZM15,6V31.123A17.766,17.766,0,0,0,13,31c-.347,0-.679.012-1,.029V6Zm3.583,28.224L16.5,37h-7L7.419,34.225a14.8,14.8,0,0,1,11.164,0ZM16,39v2H10V39Zm-.63,23H10.63A8.631,8.631,0,0,1,4.948,46.873L9.375,43h7.249l4.427,3.872A7.834,7.834,0,0,1,24,53,9.125,9.125,0,0,1,22.792,57.5a9.315,9.315,0,0,1-1.336,1.806A8.365,8.365,0,0,1,15.371,62ZM62,57H25.23a11.061,11.061,0,0,0,.7-3H62Z" fill="#252525"/>
        <circle id="Elipse_12327" data-name="Elipse 12327" cx="1" cy="1" r="1" transform="translate(32 28)" fill="#252525"/>
      </g>
    </g>
  </g>
</svg>
