<svg xmlns="http://www.w3.org/2000/svg" xmlns:xlink="http://www.w3.org/1999/xlink" width="103" height="103" viewBox="0 0 103 103">
  <defs>
    <filter id="Trazado_982547" x="0" y="0" width="103" height="103" filterUnits="userSpaceOnUse">
      <feOffset dy="3" input="SourceAlpha"/>
      <feGaussianBlur stdDeviation="3" result="blur"/>
      <feFlood flood-opacity="0.161"/>
      <feComposite operator="in" in2="blur"/>
      <feComposite in="SourceGraphic"/>
    </filter>
  </defs>
  <g id="Grupo_1202401" data-name="Grupo 1202401" transform="translate(-191 -575)">
    <g id="Grupo_1202207" data-name="Grupo 1202207" transform="translate(-80 -295.414)">
      <g id="Grupo_1174813" data-name="Grupo 1174813" transform="translate(280 876.414)">
        <g id="Grupo_1201680" data-name="Grupo 1201680">
          <g id="Grupo_1201330" data-name="Grupo 1201330">
            <g id="Grupo_1172010" data-name="Grupo 1172010">
              <g id="Grupo_1171046" data-name="Grupo 1171046">
                <g id="Grupo_1148525" data-name="Grupo 1148525">
                  <g transform="matrix(1, 0, 0, 1, -9, -6)" filter="url(#Trazado_982547)">
                    <g id="Trazado_982547-2" data-name="Trazado 982547" transform="translate(9 6)" fill="#f2f7e5">
                      <path d="M 42.5 83.5 C 36.96437835693359 83.5 31.59512901306152 82.41617584228516 26.54141235351562 80.27863311767578 C 21.65934181213379 78.21369171142578 17.27447128295898 75.25723266601562 13.50862312316895 71.49137878417969 C 9.742764472961426 67.72553253173828 6.786305904388428 63.34066009521484 4.721364498138428 58.45858764648438 C 2.583823442459106 53.40486907958984 1.5 48.03562164306641 1.5 42.5 C 1.5 36.96437835693359 2.583823442459106 31.59512901306152 4.721364498138428 26.54141235351562 C 6.786305904388428 21.65934181213379 9.742764472961426 17.27448272705078 13.50862312316895 13.50862312316895 C 17.27447128295898 9.742776870727539 21.65934181213379 6.786305904388428 26.54141235351562 4.721364498138428 C 31.59512901306152 2.583823442459106 36.96437835693359 1.5 42.5 1.5 C 48.03562164306641 1.5 53.40486907958984 2.583823442459106 58.45858764648438 4.721364498138428 C 63.34066009521484 6.786305904388428 67.72553253173828 9.742776870727539 71.49137878417969 13.50862312316895 C 75.25723266601562 17.27448272705078 78.21369171142578 21.65934181213379 80.27863311767578 26.54141235351562 C 82.41617584228516 31.59512901306152 83.5 36.96437835693359 83.5 42.5 C 83.5 48.03562164306641 82.41617584228516 53.40486907958984 80.27863311767578 58.45858764648438 C 78.21369171142578 63.34066009521484 75.25723266601562 67.72553253173828 71.49137878417969 71.49137878417969 C 67.72553253173828 75.25723266601562 63.34066009521484 78.21369171142578 58.45858764648438 80.27863311767578 C 53.40486907958984 82.41617584228516 48.03562164306641 83.5 42.5 83.5 Z" stroke="none"/>
                      <path d="M 42.5 3 C 37.16621398925781 3 31.99356079101562 4.043960571289062 27.125732421875 6.102882385253906 C 22.42246627807617 8.092185974121094 18.19785308837891 10.94070434570312 14.56928253173828 14.56928253173828 C 10.94070434570312 18.19785308837891 8.092185974121094 22.42246627807617 6.102882385253906 27.125732421875 C 4.043960571289062 31.99356079101562 3 37.16621398925781 3 42.5 C 3 47.83378601074219 4.043960571289062 53.00643920898438 6.102882385253906 57.874267578125 C 8.092185974121094 62.57753372192383 10.94070434570312 66.80214691162109 14.56928253173828 70.43071746826172 C 18.19785308837891 74.05929565429688 22.42246627807617 76.90781402587891 27.125732421875 78.89711761474609 C 31.99356079101562 80.95603942871094 37.16621398925781 82 42.5 82 C 47.83378601074219 82 53.00643920898438 80.95603942871094 57.874267578125 78.89711761474609 C 62.57753372192383 76.90781402587891 66.80214691162109 74.05929565429688 70.43071746826172 70.43071746826172 C 74.05929565429688 66.80214691162109 76.90781402587891 62.57753372192383 78.89711761474609 57.874267578125 C 80.95603942871094 53.00643920898438 82 47.83378601074219 82 42.5 C 82 37.16621398925781 80.95603942871094 31.99356079101562 78.89711761474609 27.125732421875 C 76.90781402587891 22.42246627807617 74.05929565429688 18.19785308837891 70.43071746826172 14.56928253173828 C 66.80214691162109 10.94070434570312 62.57753372192383 8.092185974121094 57.874267578125 6.102882385253906 C 53.00643920898438 4.043960571289062 47.83378601074219 3 42.5 3 M 42.5 0 C 65.97210693359375 0 85 19.02789306640625 85 42.5 C 85 65.97210693359375 65.97210693359375 85 42.5 85 C 19.02789306640625 85 0 65.97210693359375 0 42.5 C 0 19.02789306640625 19.02789306640625 0 42.5 0 Z" stroke="none" fill="#1d7083"/>
                    </g>
                  </g>
                </g>
              </g>
            </g>
          </g>
        </g>
      </g>
    </g>
    <g id="presentation_8629308" transform="translate(213.402 544.994)">
      <g id="Grupo_1202400" data-name="Grupo 1202400" transform="translate(0.928 57.389)">
        <path id="Trazado_1041021" data-name="Trazado 1041021" d="M179.414,63.48h33.96a1.284,1.284,0,1,1,0,2.568h-33.96a1.284,1.284,0,1,1,0-2.568Z" transform="translate(-158.29 -63.48)" fill="#818181" fill-rule="evenodd"/>
        <path id="Trazado_1041022" data-name="Trazado 1041022" d="M199.67,85.64H231.2v28.213H199.67Z" transform="translate(-177.333 -83.072)" fill="#e6e6e5" fill-rule="evenodd"/>
        <path id="Trazado_1041023" data-name="Trazado 1041023" d="M179.414,331.658h33.96a1.284,1.284,0,1,0,0-2.568h-33.96a1.284,1.284,0,1,0,0,2.568Z" transform="translate(-158.29 -298.308)" fill="#818181" fill-rule="evenodd"/>
        <path id="Trazado_1041024" data-name="Trazado 1041024" d="M323.457,386.56a1.607,1.607,0,1,1-1.607,1.607A1.607,1.607,0,0,1,323.457,386.56Z" transform="translate(-285.354 -349.118)" fill="#818181" fill-rule="evenodd"/>
        <path id="Trazado_1041025" data-name="Trazado 1041025" d="M266.853,154.792a9.265,9.265,0,1,1-9.012-12.312l.263,9.26Z" transform="translate(-220.805 -133.325)" fill="#fcb13c" fill-rule="evenodd"/>
        <path id="Trazado_1041026" data-name="Trazado 1041026" d="M359.469,169.35a9.281,9.281,0,0,1,.64,7.535l-8.749-3.053Z" transform="translate(-311.444 -157.081)" fill="#00b2ca" fill-rule="evenodd"/>
        <path id="Trazado_1041027" data-name="Trazado 1041027" d="M344.093,108.87a9.262,9.262,0,0,1,8.109,4.782l-8.109,4.483-.263-9.26C343.918,108.871,344.006,108.87,344.093,108.87Z" transform="translate(-304.787 -103.61)" fill="#ed2224" fill-rule="evenodd"/>
        <path id="Trazado_1041028" data-name="Trazado 1041028" d="M22.832,218.367a13.52,13.52,0,0,0,6.157-.978c3.091-1.269,5.426-2.11,8.516-3.385a2.45,2.45,0,0,1,1.869,4.529c-3.681,1.519-4.925,2.1-8.63,3.539s-4.448,2.138-4.441,6.4v8.971a2.185,2.185,0,0,1-2.181,2.181H14.028a2.185,2.185,0,0,1-2.181-2.181v-1.611h-3.2a1.714,1.714,0,0,1-1.711-1.7c-.008-2.712.012-6.853.012-8.614,0-4.675,3.724-7.023,8.352-7.144l0-.006,1.278-4.389,5.324-.182.939,4.57Z" transform="translate(-6.933 -196.37)" fill="#00b2ca" fill-rule="evenodd"/>
        <path id="Trazado_1041029" data-name="Trazado 1041029" d="M90.593,279.31,88.98,282l1.355.948-1.233,8.2,2.511,3.816,2.7-3.826-1.232-8.188L94.435,282l-1.612-2.685Z" transform="translate(-79.471 -254.297)" fill="#516e7a" fill-rule="evenodd"/>
        <path id="Trazado_1041030" data-name="Trazado 1041030" d="M62.416,119.247c1.673,0,1.807.938,5.15-.1,1.016-.315,1.8,1.286,1.333,3.581a19.839,19.839,0,0,0-.1,4.451,6.359,6.359,0,0,1-5.832,6.343c-2.873.041-6.323-1.267-6.935-6.343S58.891,119.247,62.416,119.247Z" transform="translate(-50.279 -112.662)" fill="#fad1a3" fill-rule="evenodd"/>
      </g>
      <path id="Trazado_1041031" data-name="Trazado 1041031" d="M17.166,80.175l-1.927,2.292,1.325,2.205h0a.785.785,0,0,1-.225,1.048l-.953.666,1.159,7.708h0a.784.784,0,0,1-.134.57l-2.7,3.826h0a.786.786,0,0,1-1.3-.021L9.936,94.708a.786.786,0,0,1-.16-.6l.606-4.031a.789.789,0,1,1,1.56.234l-.562,3.737,1.708,2.6,1.851-2.624L13.755,86.14a.786.786,0,0,1,.385-.8l.7-.488-1-1.672H12.49l-1,1.672.753.527a.785.785,0,0,1,.327.761h0l-.223,1.479a.789.789,0,1,1-1.56-.234l.151-1-.926-.648a.787.787,0,0,1-.253-1.067l1.233-2.054L8.936,80.176A9.162,9.162,0,0,0,4.072,81.7,5.478,5.478,0,0,0,1.8,85.444a.789.789,0,1,1-1.56-.234,7.01,7.01,0,0,1,2.91-4.785,10.628,10.628,0,0,1,5.533-1.808l.264-.907a6.6,6.6,0,0,1-1.913-2.1h0a9.314,9.314,0,0,1-1.14-3.622,8.622,8.622,0,0,1,.637-4.669,7,7,0,0,1,3.044-3.262.786.786,0,1,1,.752,1.38,5.455,5.455,0,0,0-2.367,2.535,6.574,6.574,0,0,0-.567,2.648A3.744,3.744,0,0,0,9.178,69.9a3.109,3.109,0,0,0,1.053-2.063.864.864,0,0,1,.046-.181.788.788,0,0,1,1.02-.447,12.751,12.751,0,0,0,1.328.426,15.474,15.474,0,0,0,4.036.563c1.046-.021,1.877-.2,2.057-.662,0-.012.009-.025.014-.039.013-.07.025-.139.039-.207a4.475,4.475,0,0,0-.01-2.156,1.291,1.291,0,0,0-.223-.448.243.243,0,0,0-.082-.074l-.017.006c-2.474.766-3.374.535-4.278.3a4.076,4.076,0,0,0-1.1-.167c-.119,0-.194,0-.225,0s-.117.007-.221.015a.788.788,0,0,1-.117-1.573c.063,0,.158-.009.283-.015s.231-.008.279-.008a5.464,5.464,0,0,1,1.493.223c.687.176,1.371.352,3.427-.284a1.587,1.587,0,0,1,.794-.043,1.722,1.722,0,0,1,.97.6,2.829,2.829,0,0,1,.524,1,6.04,6.04,0,0,1,.046,2.932c-.012.056-.022.111-.032.167a.677.677,0,0,1-.016.093,15.149,15.149,0,0,0-.07,3.2c.019.347.035.644.035.834a7.243,7.243,0,0,1-1.94,4.9,7.465,7.465,0,0,1-1.006.911l.185.9a14.2,14.2,0,0,0,2.157-.109,12.015,12.015,0,0,0,2.842-.748V60.737h-.424a2.073,2.073,0,0,1,0-4.147h7.11a.789.789,0,1,1,0,1.578h-7.11a.5.5,0,0,0,0,.99H36.127a.789.789,0,1,1,0,1.578H24.052V77.114c.979-.392,1.9-.75,2.813-1.106l1.311-.511a10.052,10.052,0,0,1,9.764-9.749.786.786,0,0,1,.808.765l.247,8.717,8.238,2.874a.787.787,0,0,1,.484,1,10.048,10.048,0,0,1-17.591,2.641c-1.53.643-2.878,1.2-5.106,2.068-.351.137-.673.264-.968.389v3.168h15.7a.789.789,0,1,1,0,1.578H22.05a.5.5,0,0,0,0,.99h23.9a.789.789,0,1,1,0,1.578H39.819v2.647a2.4,2.4,0,1,1-1.577,0V91.52H22.051a2.057,2.057,0,0,1-.965-.24v7.173a2.976,2.976,0,0,1-2.97,2.97H11.781a.789.789,0,0,1,0-1.578h6.335a1.4,1.4,0,0,0,1.392-1.392V89.48h0c0-2.306.218-3.677.985-4.725a5.746,5.746,0,0,1,2.377-1.746A.81.81,0,0,1,23,82.95c.431-.2.913-.392,1.452-.6,2.492-.967,3.858-1.541,5.593-2.271.889-.374,1.872-.787,3.022-1.262A1.533,1.533,0,0,0,34.1,77.357a1.905,1.905,0,0,0-.147-.706,1.926,1.926,0,0,0-.4-.6,1.531,1.531,0,0,0-1.759-.3c-1.587.655-2.973,1.195-4.364,1.736-1.221.475-2.446.953-3.812,1.509a.789.789,0,0,1-.122.05l-.218.089a13.7,13.7,0,0,1-3.445.935,16.4,16.4,0,0,1-2.671.114ZM13.915,81.6l2.065-2.456-.125-.61a5.9,5.9,0,0,1-2.231.49c-.155,0-.308,0-.457,0-.18-.006-.331-.014-.454-.024a.788.788,0,1,1,.123-1.571c.156.013.283.021.38.024q.2.007.389,0a4.588,4.588,0,0,0,2.365-.75.458.458,0,0,1,.039-.025,5.789,5.789,0,0,0,1.126-.953,5.665,5.665,0,0,0,1.52-3.829c0-.225-.014-.469-.029-.754-.025-.473-.057-1.042-.054-1.654a6.474,6.474,0,0,1-1.877.282,17.129,17.129,0,0,1-4.475-.613c-.219-.059-.43-.119-.633-.183a4.335,4.335,0,0,1-1.416,2.144A5.357,5.357,0,0,1,7.515,72.2,7.452,7.452,0,0,0,8.4,74.817h0a5.015,5.015,0,0,0,1.865,1.859.788.788,0,0,1,.358.935l-.459,1.576,2.03,2.415h1.726ZM5.05,85.81V96.05H2.638a.924.924,0,0,1-.924-.916c0-1.737,0-4.063.006-5.972l0-1.082a.786.786,0,1,0-1.571,0l0,1.082c0,1.91-.012,4.235-.006,5.972a2.5,2.5,0,0,0,2.5,2.494H5.05v.822a2.976,2.976,0,0,0,2.97,2.97h.129a.789.789,0,1,0,0-1.578H8.02A1.4,1.4,0,0,1,6.628,98.45V85.81a.789.789,0,0,0-1.578,0ZM29.8,74.852c.451-.181.914-.37,1.4-.568a3.044,3.044,0,0,1,3.486.662,3.512,3.512,0,0,1,.986,2.4,3.042,3.042,0,0,1-2,2.926c-.8.33-1.457.6-2.041.848a8.532,8.532,0,0,0,2.531,2.116,8.479,8.479,0,0,0,11.78-3.914l-7.971-2.78a.788.788,0,0,1-.527-.721L37.2,67.38a8.472,8.472,0,0,0-7.4,7.473ZM22.473,85.017a2.875,2.875,0,0,0-.709.668,3.8,3.8,0,0,0-.6,1.889,2.063,2.063,0,0,1,.89-.2h.424V85.017ZM40.232,61.85c-.092,0,.031,0-.141,0l-.144,0a.786.786,0,0,0-.765.808l.262,9.213a.789.789,0,0,0,1.167.716l8.109-4.484h0l0,0a.786.786,0,0,0,.3-1.07,10.046,10.046,0,0,0-8.795-5.187Zm4.3,2.745a8.422,8.422,0,0,0-3.75-1.15l.2,7.144,6.257-3.459A8.545,8.545,0,0,0,44.53,64.6Zm5.132,4.711c-.006-.013-.013-.025-.02-.038a.789.789,0,0,0-1.07-.312l-8.109,4.483h0a.787.787,0,0,0,.121,1.432l8.749,3.053a.787.787,0,0,0,1-.484,9.942,9.942,0,0,0,.42-1.632,10.028,10.028,0,0,0-.178-4.191,9.983,9.983,0,0,0-.913-2.312Zm-.608,2.7a8.294,8.294,0,0,0-.44-1.272l-5.848,3.233,6.308,2.2q.075-.3.127-.617a8.676,8.676,0,0,0-.147-3.545ZM39.608,95.851a.82.82,0,1,0,.24.579A.815.815,0,0,0,39.608,95.851Zm9.377-4.333h7.024a2.073,2.073,0,0,0,0-4.147h-.424v-17.4a.789.789,0,1,0-1.578,0v17.4H42.784a.789.789,0,1,0,0,1.578H56.01a.5.5,0,0,1,0,.99H48.984a.789.789,0,0,0,0,1.578Zm7.024-32.359H39.173a.789.789,0,0,0,0,1.578H54.007v6.514a.789.789,0,1,0,1.578,0V60.737h.424a2.073,2.073,0,0,0,0-4.147h-23.6a.789.789,0,0,0,0,1.578h23.6a.5.5,0,0,1,0,.99Z" fill="#0b0a0a" fill-rule="evenodd"/>
    </g>
  </g>
</svg>
