<svg xmlns="http://www.w3.org/2000/svg" xmlns:xlink="http://www.w3.org/1999/xlink" width="113" height="113" viewBox="0 0 113 113">
  <defs>
    <filter id="Trazado_982547" x="0" y="0" width="113" height="113" filterUnits="userSpaceOnUse">
      <feOffset dy="3" input="SourceAlpha"/>
      <feGaussianBlur stdDeviation="3" result="blur"/>
      <feFlood flood-opacity="0.161"/>
      <feComposite operator="in" in2="blur"/>
      <feComposite in="SourceGraphic"/>
    </filter>
  </defs>
  <g id="Grupo_1202568" data-name="Grupo 1202568" transform="translate(-8578 -4933.656)">
    <g id="Grupo_1202379" data-name="Grupo 1202379" transform="translate(7784.51 3472.033)">
      <g id="Grupo_1177632" data-name="Grupo 1177632" transform="translate(-4493 -458.649)">
        <g id="Grupo_1176928" data-name="Grupo 1176928" transform="translate(5295.49 1926.273)">
          <g id="Grupo_1172322" data-name="Grupo 1172322" transform="translate(0 0)">
            <g id="Grupo_1164700" data-name="Grupo 1164700">
              <g id="Grupo_1160931" data-name="Grupo 1160931">
                <g id="Grupo_1160749" data-name="Grupo 1160749">
                  <g id="Grupo_1158891" data-name="Grupo 1158891">
                    <g id="Grupo_1157406" data-name="Grupo 1157406">
                      <g id="Grupo_1155793" data-name="Grupo 1155793">
                        <g id="Grupo_1154704" data-name="Grupo 1154704">
                          <g id="Grupo_1150790" data-name="Grupo 1150790">
                            <g id="Grupo_1154214" data-name="Grupo 1154214">
                              <g id="Grupo_1152583" data-name="Grupo 1152583">
                                <g id="Grupo_1146973" data-name="Grupo 1146973">
                                  <g id="Grupo_1146954" data-name="Grupo 1146954">
                                    <g transform="matrix(1, 0, 0, 1, -9, -6)" filter="url(#Trazado_982547)">
                                      <g id="Trazado_982547-2" data-name="Trazado 982547" transform="translate(9 6)" fill="#f2f7e5">
                                        <path d="M 47.5000114440918 93.49987030029297 C 41.28938293457031 93.49987030029297 35.26534652709961 92.28384399414062 29.5951976776123 89.88558959960938 C 24.11773109436035 87.56881713867188 19.19814491271973 84.25183868408203 14.97310447692871 80.02680206298828 C 10.74805164337158 75.80176544189453 7.43107795715332 70.88218688964844 5.114304542541504 65.40472412109375 C 2.716038227081299 59.73458862304688 1.500011444091797 53.71054840087891 1.500011444091797 47.49993515014648 C 1.500011444091797 41.28932189941406 2.716038227081299 35.26528167724609 5.114304542541504 29.59514808654785 C 7.43107795715332 24.1176815032959 10.74805164337158 19.1981086730957 14.97310447692871 14.97306823730469 C 19.19814491271973 10.74802875518799 24.11773109436035 7.431055068969727 29.5951976776123 5.11428165435791 C 35.26534652709961 2.716028451919556 41.28938293457031 1.500001788139343 47.5000114440918 1.500001788139343 C 53.71063995361328 1.500001788139343 59.73467636108398 2.716028451919556 65.40482330322266 5.11428165435791 C 70.88229370117188 7.431055068969727 75.8018798828125 10.74802875518799 80.02691650390625 14.97306823730469 C 84.25196838378906 19.1981086730957 87.56894683837891 24.1176815032959 89.88571929931641 29.59514808654785 C 92.28398132324219 35.26528167724609 93.50001525878906 41.28932189941406 93.50001525878906 47.49993515014648 C 93.50001525878906 53.71054840087891 92.28398132324219 59.73458862304688 89.88571929931641 65.40472412109375 C 87.56894683837891 70.88218688964844 84.25196838378906 75.80176544189453 80.02691650390625 80.02680206298828 C 75.8018798828125 84.25183868408203 70.88229370117188 87.56881713867188 65.40482330322266 89.88558959960938 C 59.73467636108398 92.28384399414062 53.71063995361328 93.49987030029297 47.5000114440918 93.49987030029297 Z" stroke="none"/>
                                        <path d="M 47.5000114440918 3 C 41.49122619628906 3 35.66378021240234 4.1761474609375 30.17951965332031 6.495796203613281 C 24.880859375 8.7369384765625 20.12153625488281 11.94596862792969 16.03376770019531 16.03373718261719 C 11.94598388671875 20.12149047851562 8.736968994140625 24.88081359863281 6.495811462402344 30.17947387695312 C 4.176162719726562 35.66371917724609 3.000007629394531 41.49116516113281 3.000007629394531 47.49993515014648 C 3.000007629394531 53.50870513916016 4.176162719726562 59.33615112304688 6.495811462402344 64.82039642333984 C 8.736968994140625 70.11905670166016 11.94598388671875 74.87837982177734 16.03376770019531 78.96613311767578 C 20.12153625488281 83.05390167236328 24.880859375 86.26293182373047 30.17951965332031 88.50407409667969 C 35.66378021240234 90.82372283935547 41.49122619628906 91.99987030029297 47.5000114440918 91.99987030029297 C 53.50879669189453 91.99987030029297 59.33624267578125 90.82372283935547 64.82050323486328 88.50407409667969 C 70.11916351318359 86.26293182373047 74.87848663330078 83.05390167236328 78.96625518798828 78.96613311767578 C 83.05403900146484 74.87837982177734 86.2630615234375 70.11905670166016 88.50421142578125 64.82039642333984 C 90.82386016845703 59.33615112304688 92.00001525878906 53.50870513916016 92.00001525878906 47.49993515014648 C 92.00001525878906 41.49116516113281 90.82386016845703 35.66371917724609 88.50421142578125 30.17947387695312 C 86.2630615234375 24.88081359863281 83.05403900146484 20.12149047851562 78.96625518798828 16.03373718261719 C 74.87848663330078 11.94596862792969 70.11916351318359 8.7369384765625 64.82050323486328 6.495796203613281 C 59.33624267578125 4.1761474609375 53.50879669189453 3 47.5000114440918 3 M 47.5000114440918 0 C 73.73353576660156 0 95.00001525878906 21.26644134521484 95.00001525878906 47.49993515014648 C 95.00001525878906 73.73342895507812 73.73353576660156 94.99987030029297 47.5000114440918 94.99987030029297 C 21.26648712158203 94.99987030029297 7.62939453125e-06 73.73342895507812 7.62939453125e-06 47.49993515014648 C 7.62939453125e-06 21.26644134521484 21.26648712158203 0 47.5000114440918 0 Z" stroke="none" fill="#86b60c"/>
                                      </g>
                                    </g>
                                  </g>
                                </g>
                              </g>
                            </g>
                          </g>
                        </g>
                      </g>
                    </g>
                  </g>
                </g>
              </g>
            </g>
          </g>
        </g>
      </g>
    </g>
    <g id="Icon" transform="translate(8598.044 4950.352)">
      <circle id="Elipse_12328" data-name="Elipse 12328" cx="18.742" cy="18.742" r="18.742" transform="translate(17.714 30.942)" fill="#ffd54f"/>
      <g id="Grupo_1202567" data-name="Grupo 1202567" transform="translate(7.171 5.171)">
        <path id="Trazado_1041579" data-name="Trazado 1041579" d="M24.793,32.862a18.642,18.642,0,0,1,17.156,0l-3.893-18.49h4.686L33.371,5,24,14.371h4.686Z" transform="translate(-4.086 -5)" fill="#ef5451"/>
        <path id="Trazado_1041580" data-name="Trazado 1041580" d="M14.028,12,7,20.2h4.686V35.428h4.686V20.2h4.686Z" transform="translate(-7 -3.8)" fill="#ef5451"/>
        <path id="Trazado_1041581" data-name="Trazado 1041581" d="M52.028,12l7.028,8.2H54.371V35.428H49.686V20.2H45Z" transform="translate(-0.487 -3.8)" fill="#ef5451"/>
      </g>
      <path id="Trazado_1041582" data-name="Trazado 1041582" d="M44.524,32.255,41.042,15.714h3.242a1.171,1.171,0,0,0,.828-2L35.741,4.343a1.171,1.171,0,0,0-1.656,0l-9.371,9.371a1.171,1.171,0,0,0,.828,2h3.242L25.308,32.255a19.914,19.914,0,1,0,19.223,0ZM31.374,14.784a1.171,1.171,0,0,0-1.147-1.413H28.37l6.543-6.543,6.543,6.543H39.6a1.171,1.171,0,0,0-1.147,1.413l3.425,16.268a19.562,19.562,0,0,0-13.928,0Zm3.539,52.471A17.571,17.571,0,1,1,52.484,49.684,17.571,17.571,0,0,1,34.913,67.255Z" transform="translate(1.543 0)"/>
      <path id="Trazado_1041583" data-name="Trazado 1041583" d="M34.2,36.857a3.514,3.514,0,0,1,3.514,3.514,1.171,1.171,0,1,0,2.343,0A5.864,5.864,0,0,0,34.2,34.514V32.171a1.171,1.171,0,1,0-2.343,0v2.343H27.171A1.171,1.171,0,0,0,26,35.686v9.371a1.171,1.171,0,0,0,1.171,1.171H37.714v7.028H31.857a3.514,3.514,0,0,1-3.514-3.514,1.171,1.171,0,0,0-2.343,0A5.864,5.864,0,0,0,31.857,55.6v2.343a1.171,1.171,0,1,0,2.343,0V55.6h4.686a1.171,1.171,0,0,0,1.171-1.171V45.057a1.171,1.171,0,0,0-1.171-1.171H28.343V36.857Z" transform="translate(3.428 4.627)"/>
      <path id="Trazado_1041584" data-name="Trazado 1041584" d="M17.714,35.6V21.54h3.514a1.171,1.171,0,0,0,.889-1.934l-7.028-8.2a1.21,1.21,0,0,0-1.778,0l-7.028,8.2a1.171,1.171,0,0,0,.889,1.934h3.514V35.6a1.171,1.171,0,0,0,1.171,1.171h4.686A1.171,1.171,0,0,0,17.714,35.6ZM15.371,20.368V34.425H13.028V20.368A1.171,1.171,0,0,0,11.857,19.2H9.718L14.2,13.969,18.681,19.2H16.542A1.171,1.171,0,0,0,15.371,20.368Z" transform="translate(0 1.203)"/>
      <path id="Trazado_1041585" data-name="Trazado 1041585" d="M60.117,19.606l-7.028-8.2a1.21,1.21,0,0,0-1.778,0l-7.028,8.2a1.171,1.171,0,0,0,.889,1.934h3.514V35.6a1.171,1.171,0,0,0,1.171,1.171h4.686A1.171,1.171,0,0,0,55.714,35.6V21.54h3.514a1.171,1.171,0,0,0,.889-1.934ZM54.542,19.2a1.171,1.171,0,0,0-1.171,1.171V34.425H51.028V20.368A1.171,1.171,0,0,0,49.857,19.2H47.718L52.2,13.969,56.681,19.2Z" transform="translate(6.513 1.203)"/>
    </g>
  </g>
</svg>
