<svg xmlns="http://www.w3.org/2000/svg" xmlns:xlink="http://www.w3.org/1999/xlink" width="113" height="113" viewBox="0 0 113 113">
  <defs>
    <filter id="Trazado_982547" x="0" y="0" width="113" height="113" filterUnits="userSpaceOnUse">
      <feOffset dy="3" input="SourceAlpha"/>
      <feGaussianBlur stdDeviation="3" result="blur"/>
      <feFlood flood-opacity="0.161"/>
      <feComposite operator="in" in2="blur"/>
      <feComposite in="SourceGraphic"/>
    </filter>
  </defs>
  <g id="Grupo_1202569" data-name="Grupo 1202569" transform="translate(-8259 -5353.656)">
    <g id="Grupo_1202380" data-name="Grupo 1202380" transform="translate(7465.51 3892.033)">
      <g id="Grupo_1177632" data-name="Grupo 1177632" transform="translate(-4493 -458.649)">
        <g id="Grupo_1176928" data-name="Grupo 1176928" transform="translate(5295.49 1926.273)">
          <g id="Grupo_1172322" data-name="Grupo 1172322" transform="translate(0 0)">
            <g id="Grupo_1164700" data-name="Grupo 1164700">
              <g id="Grupo_1160931" data-name="Grupo 1160931">
                <g id="Grupo_1160749" data-name="Grupo 1160749">
                  <g id="Grupo_1158891" data-name="Grupo 1158891">
                    <g id="Grupo_1157406" data-name="Grupo 1157406">
                      <g id="Grupo_1155793" data-name="Grupo 1155793">
                        <g id="Grupo_1154704" data-name="Grupo 1154704">
                          <g id="Grupo_1150790" data-name="Grupo 1150790">
                            <g id="Grupo_1154214" data-name="Grupo 1154214">
                              <g id="Grupo_1152583" data-name="Grupo 1152583">
                                <g id="Grupo_1146973" data-name="Grupo 1146973">
                                  <g id="Grupo_1146954" data-name="Grupo 1146954">
                                    <g transform="matrix(1, 0, 0, 1, -9, -6)" filter="url(#Trazado_982547)">
                                      <g id="Trazado_982547-2" data-name="Trazado 982547" transform="translate(9 6)" fill="#f2f7e5">
                                        <path d="M 47.5000114440918 93.49987030029297 C 41.28938293457031 93.49987030029297 35.26534652709961 92.28384399414062 29.5951976776123 89.88558959960938 C 24.11773109436035 87.56881713867188 19.19814491271973 84.25183868408203 14.97310447692871 80.02680206298828 C 10.74805164337158 75.80176544189453 7.43107795715332 70.88218688964844 5.114304542541504 65.40472412109375 C 2.716038227081299 59.73458862304688 1.500011444091797 53.71054840087891 1.500011444091797 47.49993515014648 C 1.500011444091797 41.28932189941406 2.716038227081299 35.26528167724609 5.114304542541504 29.59514808654785 C 7.43107795715332 24.1176815032959 10.74805164337158 19.1981086730957 14.97310447692871 14.97306823730469 C 19.19814491271973 10.74802875518799 24.11773109436035 7.431055068969727 29.5951976776123 5.11428165435791 C 35.26534652709961 2.716028451919556 41.28938293457031 1.500001788139343 47.5000114440918 1.500001788139343 C 53.71063995361328 1.500001788139343 59.73467636108398 2.716028451919556 65.40482330322266 5.11428165435791 C 70.88229370117188 7.431055068969727 75.8018798828125 10.74802875518799 80.02691650390625 14.97306823730469 C 84.25196838378906 19.1981086730957 87.56894683837891 24.1176815032959 89.88571929931641 29.59514808654785 C 92.28398132324219 35.26528167724609 93.50001525878906 41.28932189941406 93.50001525878906 47.49993515014648 C 93.50001525878906 53.71054840087891 92.28398132324219 59.73458862304688 89.88571929931641 65.40472412109375 C 87.56894683837891 70.88218688964844 84.25196838378906 75.80176544189453 80.02691650390625 80.02680206298828 C 75.8018798828125 84.25183868408203 70.88229370117188 87.56881713867188 65.40482330322266 89.88558959960938 C 59.73467636108398 92.28384399414062 53.71063995361328 93.49987030029297 47.5000114440918 93.49987030029297 Z" stroke="none"/>
                                        <path d="M 47.5000114440918 3 C 41.49122619628906 3 35.66378021240234 4.1761474609375 30.17951965332031 6.495796203613281 C 24.880859375 8.7369384765625 20.12153625488281 11.94596862792969 16.03376770019531 16.03373718261719 C 11.94598388671875 20.12149047851562 8.736968994140625 24.88081359863281 6.495811462402344 30.17947387695312 C 4.176162719726562 35.66371917724609 3.000007629394531 41.49116516113281 3.000007629394531 47.49993515014648 C 3.000007629394531 53.50870513916016 4.176162719726562 59.33615112304688 6.495811462402344 64.82039642333984 C 8.736968994140625 70.11905670166016 11.94598388671875 74.87837982177734 16.03376770019531 78.96613311767578 C 20.12153625488281 83.05390167236328 24.880859375 86.26293182373047 30.17951965332031 88.50407409667969 C 35.66378021240234 90.82372283935547 41.49122619628906 91.99987030029297 47.5000114440918 91.99987030029297 C 53.50879669189453 91.99987030029297 59.33624267578125 90.82372283935547 64.82050323486328 88.50407409667969 C 70.11916351318359 86.26293182373047 74.87848663330078 83.05390167236328 78.96625518798828 78.96613311767578 C 83.05403900146484 74.87837982177734 86.2630615234375 70.11905670166016 88.50421142578125 64.82039642333984 C 90.82386016845703 59.33615112304688 92.00001525878906 53.50870513916016 92.00001525878906 47.49993515014648 C 92.00001525878906 41.49116516113281 90.82386016845703 35.66371917724609 88.50421142578125 30.17947387695312 C 86.2630615234375 24.88081359863281 83.05403900146484 20.12149047851562 78.96625518798828 16.03373718261719 C 74.87848663330078 11.94596862792969 70.11916351318359 8.7369384765625 64.82050323486328 6.495796203613281 C 59.33624267578125 4.1761474609375 53.50879669189453 3 47.5000114440918 3 M 47.5000114440918 0 C 73.73353576660156 0 95.00001525878906 21.26644134521484 95.00001525878906 47.49993515014648 C 95.00001525878906 73.73342895507812 73.73353576660156 94.99987030029297 47.5000114440918 94.99987030029297 C 21.26648712158203 94.99987030029297 7.62939453125e-06 73.73342895507812 7.62939453125e-06 47.49993515014648 C 7.62939453125e-06 21.26644134521484 21.26648712158203 0 47.5000114440918 0 Z" stroke="none" fill="#86b60c"/>
                                      </g>
                                    </g>
                                  </g>
                                </g>
                              </g>
                            </g>
                          </g>
                        </g>
                      </g>
                    </g>
                  </g>
                </g>
              </g>
            </g>
          </g>
        </g>
      </g>
    </g>
    <g id="warning_14123371" transform="translate(8282.727 5373.874)">
      <path id="Trazado_1041586" data-name="Trazado 1041586" d="M28,5h8.339v9.382H28Z" transform="translate(1.104 0.127)" fill="#71c967"/>
      <circle id="Elipse_12329" data-name="Elipse 12329" cx="22.933" cy="22.933" r="22.933" transform="translate(10.34 10.339)" fill="#e0e0e0"/>
      <path id="Trazado_1041587" data-name="Trazado 1041587" d="M32,10a22.933,22.933,0,1,1,0,45.867" transform="translate(1.273 0.339)" fill="#cfd2d3"/>
      <circle id="Elipse_12330" data-name="Elipse 12330" cx="10.424" cy="10.424" r="10.424" transform="translate(3.043 42.655)" fill="#f95f5f"/>
      <path id="Trazado_1041588" data-name="Trazado 1041588" d="M3,51H13.424V61.424A10.424,10.424,0,0,1,3,51Z" transform="translate(0.043 2.079)" fill="#f43b3b"/>
      <path id="Trazado_1041589" data-name="Trazado 1041589" d="M23.424,51.424H13V41A10.424,10.424,0,0,1,23.424,51.424Z" transform="translate(0.467 1.655)" fill="#f43b3b"/>
      <path id="Trazado_1041590" data-name="Trazado 1041590" d="M25,3H39.594V7.17H25Z" transform="translate(0.976 0.042)" fill="#6090bf"/>
      <circle id="Elipse_12331" data-name="Elipse 12331" cx="10.424" cy="10.424" r="10.424" transform="translate(42.655 42.655)" fill="#fac240"/>
      <path id="Trazado_1041591" data-name="Trazado 1041591" d="M41,51H51.424V61.424A10.424,10.424,0,0,1,41,51Z" transform="translate(1.655 2.079)" fill="#e5820c"/>
      <path id="Trazado_1041592" data-name="Trazado 1041592" d="M61.424,51.424H51V41A10.424,10.424,0,0,1,61.424,51.424Z" transform="translate(2.079 1.655)" fill="#e5820c"/>
      <circle id="Elipse_12332" data-name="Elipse 12332" cx="3.127" cy="3.127" r="3.127" transform="translate(30.146 30.145)" fill="#6090bf"/>
      <path id="Trazado_1041593" data-name="Trazado 1041593" d="M33.487,28.485V20H31.4v8.485a4.17,4.17,0,0,0-2.533,6.109l-7.36,7.3,1.48,1.48,7.37-7.287a4.17,4.17,0,1,0,3.127-7.6Zm-1.042,6.109a2.085,2.085,0,1,1,2.085-2.085A2.085,2.085,0,0,1,32.445,34.594Z" transform="translate(0.828 0.764)"/>
      <path id="Trazado_1041594" data-name="Trazado 1041594" d="M55.633,41.914a23.642,23.642,0,0,0,1.616-8.642A23.976,23.976,0,0,0,38.486,9.891V8.255H40.57a1.042,1.042,0,0,0,1.042-1.042V3.042A1.042,1.042,0,0,0,40.57,2H25.976a1.042,1.042,0,0,0-1.042,1.042v4.17a1.042,1.042,0,0,0,1.042,1.042h2.085V9.891A23.976,23.976,0,0,0,10.9,41.914,11.467,11.467,0,1,0,24.632,55.643a24.059,24.059,0,0,0,17.283,0A11.467,11.467,0,1,0,55.633,41.914ZM27.019,4.085H39.528V6.17H27.019ZM36.4,8.255V9.526a24.153,24.153,0,0,0-6.255,0V8.255ZM13.467,62.461a9.382,9.382,0,1,1,9.382-9.382A9.382,9.382,0,0,1,13.467,62.461Zm20.849-7.3V49.952H32.231v5.212a21.422,21.422,0,0,1-7.3-1.637c0-.136,0-.271,0-.417a11.467,11.467,0,0,0-11.467-11.5H13.05a21.359,21.359,0,0,1-1.668-7.3h5.212V32.23H11.382A21.891,21.891,0,0,1,29.3,11.747a20.484,20.484,0,0,1,2.929-.313v5.16h2.085v-5.16a20.848,20.848,0,0,1,2.94.313A21.891,21.891,0,0,1,55.164,32.23H49.952v2.085h5.212a21.474,21.474,0,0,1-1.637,7.3h-.448A11.467,11.467,0,0,0,41.613,53.079v.427A21.651,21.651,0,0,1,34.316,55.164ZM43.7,53.079a9.382,9.382,0,0,1,8.339-9.319v3.065H49.952a1.042,1.042,0,0,0-1.042,1.042v5.212a1.042,1.042,0,0,0,1.042,1.042h5.212v3.127H48.91v2.085h3.127V62.4A9.382,9.382,0,0,1,43.7,53.079ZM54.122,62.4V59.333h2.085a1.042,1.042,0,0,0,1.042-1.042V53.079a1.042,1.042,0,0,0-1.042-1.042H50.995V48.909h6.255V46.824H54.122V43.76a9.382,9.382,0,0,1,0,18.639Z" transform="translate(0 0)"/>
      <path id="Trazado_1041595" data-name="Trazado 1041595" d="M12,44h2.085V54.424H12Z" transform="translate(0.425 1.782)"/>
      <path id="Trazado_1041596" data-name="Trazado 1041596" d="M12,56h2.085v2.085H12Z" transform="translate(0.425 2.291)"/>
    </g>
  </g>
</svg>
