<svg xmlns="http://www.w3.org/2000/svg" xmlns:xlink="http://www.w3.org/1999/xlink" width="113" height="113" viewBox="0 0 113 113">
  <defs>
    <filter id="Trazado_982547" x="0" y="0" width="113" height="113" filterUnits="userSpaceOnUse">
      <feOffset dy="3" input="SourceAlpha"/>
      <feGaussianBlur stdDeviation="3" result="blur"/>
      <feFlood flood-opacity="0.161"/>
      <feComposite operator="in" in2="blur"/>
      <feComposite in="SourceGraphic"/>
    </filter>
  </defs>
  <g id="Grupo_1202577" data-name="Grupo 1202577" transform="translate(-8578.5 -5353.656)">
    <g id="Grupo_1202381" data-name="Grupo 1202381" transform="translate(7785.01 3892.033)">
      <g id="Grupo_1177632" data-name="Grupo 1177632" transform="translate(-4493 -458.649)">
        <g id="Grupo_1176928" data-name="Grupo 1176928" transform="translate(5295.49 1926.273)">
          <g id="Grupo_1172322" data-name="Grupo 1172322" transform="translate(0 0)">
            <g id="Grupo_1164700" data-name="Grupo 1164700">
              <g id="Grupo_1160931" data-name="Grupo 1160931">
                <g id="Grupo_1160749" data-name="Grupo 1160749">
                  <g id="Grupo_1158891" data-name="Grupo 1158891">
                    <g id="Grupo_1157406" data-name="Grupo 1157406">
                      <g id="Grupo_1155793" data-name="Grupo 1155793">
                        <g id="Grupo_1154704" data-name="Grupo 1154704">
                          <g id="Grupo_1150790" data-name="Grupo 1150790">
                            <g id="Grupo_1154214" data-name="Grupo 1154214">
                              <g id="Grupo_1152583" data-name="Grupo 1152583">
                                <g id="Grupo_1146973" data-name="Grupo 1146973">
                                  <g id="Grupo_1146954" data-name="Grupo 1146954">
                                    <g transform="matrix(1, 0, 0, 1, -9, -6)" filter="url(#Trazado_982547)">
                                      <g id="Trazado_982547-2" data-name="Trazado 982547" transform="translate(9 6)" fill="#f2f7e5">
                                        <path d="M 47.5000114440918 93.49987030029297 C 41.28938293457031 93.49987030029297 35.26534652709961 92.28384399414062 29.5951976776123 89.88558959960938 C 24.11773109436035 87.56881713867188 19.19814491271973 84.25183868408203 14.97310447692871 80.02680206298828 C 10.74805164337158 75.80176544189453 7.43107795715332 70.88218688964844 5.114304542541504 65.40472412109375 C 2.716038227081299 59.73458862304688 1.500011444091797 53.71054840087891 1.500011444091797 47.49993515014648 C 1.500011444091797 41.28932189941406 2.716038227081299 35.26528167724609 5.114304542541504 29.59514808654785 C 7.43107795715332 24.1176815032959 10.74805164337158 19.1981086730957 14.97310447692871 14.97306823730469 C 19.19814491271973 10.74802875518799 24.11773109436035 7.431055068969727 29.5951976776123 5.11428165435791 C 35.26534652709961 2.716028451919556 41.28938293457031 1.500001788139343 47.5000114440918 1.500001788139343 C 53.71063995361328 1.500001788139343 59.73467636108398 2.716028451919556 65.40482330322266 5.11428165435791 C 70.88229370117188 7.431055068969727 75.8018798828125 10.74802875518799 80.02691650390625 14.97306823730469 C 84.25196838378906 19.1981086730957 87.56894683837891 24.1176815032959 89.88571929931641 29.59514808654785 C 92.28398132324219 35.26528167724609 93.50001525878906 41.28932189941406 93.50001525878906 47.49993515014648 C 93.50001525878906 53.71054840087891 92.28398132324219 59.73458862304688 89.88571929931641 65.40472412109375 C 87.56894683837891 70.88218688964844 84.25196838378906 75.80176544189453 80.02691650390625 80.02680206298828 C 75.8018798828125 84.25183868408203 70.88229370117188 87.56881713867188 65.40482330322266 89.88558959960938 C 59.73467636108398 92.28384399414062 53.71063995361328 93.49987030029297 47.5000114440918 93.49987030029297 Z" stroke="none"/>
                                        <path d="M 47.5000114440918 3 C 41.49122619628906 3 35.66378021240234 4.1761474609375 30.17951965332031 6.495796203613281 C 24.880859375 8.7369384765625 20.12153625488281 11.94596862792969 16.03376770019531 16.03373718261719 C 11.94598388671875 20.12149047851562 8.736968994140625 24.88081359863281 6.495811462402344 30.17947387695312 C 4.176162719726562 35.66371917724609 3.000007629394531 41.49116516113281 3.000007629394531 47.49993515014648 C 3.000007629394531 53.50870513916016 4.176162719726562 59.33615112304688 6.495811462402344 64.82039642333984 C 8.736968994140625 70.11905670166016 11.94598388671875 74.87837982177734 16.03376770019531 78.96613311767578 C 20.12153625488281 83.05390167236328 24.880859375 86.26293182373047 30.17951965332031 88.50407409667969 C 35.66378021240234 90.82372283935547 41.49122619628906 91.99987030029297 47.5000114440918 91.99987030029297 C 53.50879669189453 91.99987030029297 59.33624267578125 90.82372283935547 64.82050323486328 88.50407409667969 C 70.11916351318359 86.26293182373047 74.87848663330078 83.05390167236328 78.96625518798828 78.96613311767578 C 83.05403900146484 74.87837982177734 86.2630615234375 70.11905670166016 88.50421142578125 64.82039642333984 C 90.82386016845703 59.33615112304688 92.00001525878906 53.50870513916016 92.00001525878906 47.49993515014648 C 92.00001525878906 41.49116516113281 90.82386016845703 35.66371917724609 88.50421142578125 30.17947387695312 C 86.2630615234375 24.88081359863281 83.05403900146484 20.12149047851562 78.96625518798828 16.03373718261719 C 74.87848663330078 11.94596862792969 70.11916351318359 8.7369384765625 64.82050323486328 6.495796203613281 C 59.33624267578125 4.1761474609375 53.50879669189453 3 47.5000114440918 3 M 47.5000114440918 0 C 73.73353576660156 0 95.00001525878906 21.26644134521484 95.00001525878906 47.49993515014648 C 95.00001525878906 73.73342895507812 73.73353576660156 94.99987030029297 47.5000114440918 94.99987030029297 C 21.26648712158203 94.99987030029297 7.62939453125e-06 73.73342895507812 7.62939453125e-06 47.49993515014648 C 7.62939453125e-06 21.26644134521484 21.26648712158203 0 47.5000114440918 0 Z" stroke="none" fill="#86b60c"/>
                                      </g>
                                    </g>
                                  </g>
                                </g>
                              </g>
                            </g>
                          </g>
                        </g>
                      </g>
                    </g>
                  </g>
                </g>
              </g>
            </g>
          </g>
        </g>
      </g>
    </g>
    <g id="depreciation_2643824" transform="translate(8604 5375)">
      <g id="Grupo_1202575" data-name="Grupo 1202575">
        <g id="Grupo_1202570" data-name="Grupo 1202570">
          <path id="Trazado_1041597" data-name="Trazado 1041597" d="M35.85,43.62,35,46H29l-.79-2.21L26,46.85,23,51l-3-2.85-6-5.7-6-5.7L3,32H2V62H38V43.07a19.343,19.343,0,0,1-2.15.55Z" fill="#ccd1d9"/>
        </g>
        <g id="Grupo_1202571" data-name="Grupo 1202571">
          <path id="Trazado_1041598" data-name="Trazado 1041598" d="M62,50V62H50V58h8V50Z" fill="#ff826e"/>
        </g>
        <g id="Grupo_1202572" data-name="Grupo 1202572">
          <path id="Trazado_1041599" data-name="Trazado 1041599" d="M54,21v6l-2.38.85a19.945,19.945,0,0,1-3.02,7.31l1.08,2.27-4.24,4.25L43.16,40.6a20.306,20.306,0,0,1-7.31,3.02L35,46H29l-.79-2.21-.06-.17a19.945,19.945,0,0,1-7.31-3.02l-2.28,1.08-4.24-4.25,1.08-2.27a19.945,19.945,0,0,1-3.02-7.31L10,27V21l2.38-.85a19.945,19.945,0,0,1,3.02-7.31l-1.08-2.28,4.24-4.24L20.84,7.4a19.945,19.945,0,0,1,7.31-3.02L29,2h6l.85,2.38A19.945,19.945,0,0,1,43.16,7.4l2.28-1.08,4.24,4.24L48.6,12.84a19.945,19.945,0,0,1,3.02,7.31Z" fill="#a0d468"/>
        </g>
        <g id="Grupo_1202573" data-name="Grupo 1202573">
          <path id="Trazado_1041600" data-name="Trazado 1041600" d="M32,8A16,16,0,1,1,16,24,16,16,0,0,1,32,8Z" fill="#b4dd7f"/>
        </g>
        <g id="Grupo_1202574" data-name="Grupo 1202574">
          <circle id="Elipse_12333" data-name="Elipse 12333" cx="12" cy="12" r="12" transform="translate(20 12)" fill="#fcd770"/>
        </g>
      </g>
      <g id="Grupo_1202576" data-name="Grupo 1202576">
        <path id="Trazado_1041601" data-name="Trazado 1041601" d="M45,24A13,13,0,1,0,32,37,13.015,13.015,0,0,0,45,24ZM21,24A11,11,0,1,1,32,35,11.013,11.013,0,0,1,21,24Z"/>
        <path id="Trazado_1041602" data-name="Trazado 1041602" d="M49,24A17,17,0,1,0,32,41,17.019,17.019,0,0,0,49,24ZM17,24A15,15,0,1,1,32,39,15.017,15.017,0,0,1,17,24Z"/>
        <path id="Trazado_1041603" data-name="Trazado 1041603" d="M33,33.031l.068-2.169a3.9,3.9,0,0,0,.262-7.472L31.3,22.714a1.906,1.906,0,0,1,.6-3.714h.188A1.907,1.907,0,0,1,34,20.9V21l2-.095a3.906,3.906,0,0,0-3-3.789V15H31v2.117a3.9,3.9,0,0,0-.33,7.494l2.026.676a1.905,1.905,0,0,1-.6,3.713h-.188A1.907,1.907,0,0,1,30,27.095V26H28v1.095A3.908,3.908,0,0,0,31.065,30.9L31,32.969Z"/>
        <path id="Trazado_1041604" data-name="Trazado 1041604" d="M57,49v6.586L43.185,41.771l.051-.029,2.407,1.141,5.24-5.239-1.141-2.407A20.788,20.788,0,0,0,52.486,28.6L55,27.7V20.3l-2.514-.9a20.766,20.766,0,0,0-2.744-6.634l1.141-2.408-5.24-5.238L43.236,6.259A20.735,20.735,0,0,0,36.6,3.516L35.705,1H28.3l-.9,2.515a20.735,20.735,0,0,0-6.634,2.743L18.357,5.117l-5.24,5.238,1.141,2.408A20.788,20.788,0,0,0,11.514,19.4L9,20.3V27.7l2.514.9a20.766,20.766,0,0,0,2.744,6.634l-1.141,2.407,5.24,5.239,2.407-1.141a20.7,20.7,0,0,0,5.86,2.536l-3.764,5.21L3.4,31H1V63H43V61H39V43.78a20.688,20.688,0,0,0,2.37-1L55.586,57H49v6H63V49ZM20.928,39.451l-2.155,1.021-3.246-3.247,1.021-2.153-.317-.472a18.8,18.8,0,0,1-2.871-6.941l-.109-.559L11,26.295V21.7l2.251-.805.109-.559A18.812,18.812,0,0,1,16.231,13.4l.318-.473-1.021-2.154,3.246-3.246,2.155,1.021L21.4,8.23a18.794,18.794,0,0,1,6.942-2.87l.559-.109L29.705,3H34.3l.8,2.251.559.109A18.794,18.794,0,0,1,42.6,8.23l.472.318,2.155-1.021,3.246,3.246-1.021,2.154.318.473a18.8,18.8,0,0,1,2.871,6.941l.109.559L53,21.7v4.59l-2.251.805-.109.559A18.812,18.812,0,0,1,47.769,34.6l-.318.473,1.021,2.153-3.246,3.247-2.155-1.021-.471.318a18.794,18.794,0,0,1-6.942,2.87l-.559.109L34.3,45h-4.59l-.8-2.251-.559-.109A18.794,18.794,0,0,1,21.4,39.77Zm6.98,6.465L28.3,47H31V61H27V47.172Zm-4.767,6.6L25,49.94V61H21V50.479ZM15,44.779l4,3.8V61H15ZM13,61H9V39.079l4,3.8ZM3,33.379l4,3.8V61H3ZM37,61H33V47h2.705l.9-2.515c.135-.03.264-.074.4-.107V61Zm24,0H51V59h8V51h2Z"/>
      </g>
    </g>
  </g>
</svg>
