<svg xmlns="http://www.w3.org/2000/svg" xmlns:xlink="http://www.w3.org/1999/xlink" width="113" height="113" viewBox="0 0 113 113">
  <defs>
    <filter id="Trazado_982547" x="0" y="0" width="113" height="113" filterUnits="userSpaceOnUse">
      <feOffset dy="3" input="SourceAlpha"/>
      <feGaussianBlur stdDeviation="3" result="blur"/>
      <feFlood flood-opacity="0.161"/>
      <feComposite operator="in" in2="blur"/>
      <feComposite in="SourceGraphic"/>
    </filter>
  </defs>
  <g id="Grupo_1202591" data-name="Grupo 1202591" transform="translate(-8259 -5775.656)">
    <g id="Grupo_1202382" data-name="Grupo 1202382" transform="translate(7465.51 4314.033)">
      <g id="Grupo_1177632" data-name="Grupo 1177632" transform="translate(-4493 -458.649)">
        <g id="Grupo_1176928" data-name="Grupo 1176928" transform="translate(5295.49 1926.273)">
          <g id="Grupo_1172322" data-name="Grupo 1172322" transform="translate(0 0)">
            <g id="Grupo_1164700" data-name="Grupo 1164700">
              <g id="Grupo_1160931" data-name="Grupo 1160931">
                <g id="Grupo_1160749" data-name="Grupo 1160749">
                  <g id="Grupo_1158891" data-name="Grupo 1158891">
                    <g id="Grupo_1157406" data-name="Grupo 1157406">
                      <g id="Grupo_1155793" data-name="Grupo 1155793">
                        <g id="Grupo_1154704" data-name="Grupo 1154704">
                          <g id="Grupo_1150790" data-name="Grupo 1150790">
                            <g id="Grupo_1154214" data-name="Grupo 1154214">
                              <g id="Grupo_1152583" data-name="Grupo 1152583">
                                <g id="Grupo_1146973" data-name="Grupo 1146973">
                                  <g id="Grupo_1146954" data-name="Grupo 1146954">
                                    <g transform="matrix(1, 0, 0, 1, -9, -6)" filter="url(#Trazado_982547)">
                                      <g id="Trazado_982547-2" data-name="Trazado 982547" transform="translate(9 6)" fill="#f2f7e5">
                                        <path d="M 47.5000114440918 93.49987030029297 C 41.28938293457031 93.49987030029297 35.26534652709961 92.28384399414062 29.5951976776123 89.88558959960938 C 24.11773109436035 87.56881713867188 19.19814491271973 84.25183868408203 14.97310447692871 80.02680206298828 C 10.74805164337158 75.80176544189453 7.43107795715332 70.88218688964844 5.114304542541504 65.40472412109375 C 2.716038227081299 59.73458862304688 1.500011444091797 53.71054840087891 1.500011444091797 47.49993515014648 C 1.500011444091797 41.28932189941406 2.716038227081299 35.26528167724609 5.114304542541504 29.59514808654785 C 7.43107795715332 24.1176815032959 10.74805164337158 19.1981086730957 14.97310447692871 14.97306823730469 C 19.19814491271973 10.74802875518799 24.11773109436035 7.431055068969727 29.5951976776123 5.11428165435791 C 35.26534652709961 2.716028451919556 41.28938293457031 1.500001788139343 47.5000114440918 1.500001788139343 C 53.71063995361328 1.500001788139343 59.73467636108398 2.716028451919556 65.40482330322266 5.11428165435791 C 70.88229370117188 7.431055068969727 75.8018798828125 10.74802875518799 80.02691650390625 14.97306823730469 C 84.25196838378906 19.1981086730957 87.56894683837891 24.1176815032959 89.88571929931641 29.59514808654785 C 92.28398132324219 35.26528167724609 93.50001525878906 41.28932189941406 93.50001525878906 47.49993515014648 C 93.50001525878906 53.71054840087891 92.28398132324219 59.73458862304688 89.88571929931641 65.40472412109375 C 87.56894683837891 70.88218688964844 84.25196838378906 75.80176544189453 80.02691650390625 80.02680206298828 C 75.8018798828125 84.25183868408203 70.88229370117188 87.56881713867188 65.40482330322266 89.88558959960938 C 59.73467636108398 92.28384399414062 53.71063995361328 93.49987030029297 47.5000114440918 93.49987030029297 Z" stroke="none"/>
                                        <path d="M 47.5000114440918 3 C 41.49122619628906 3 35.66378021240234 4.1761474609375 30.17951965332031 6.495796203613281 C 24.880859375 8.7369384765625 20.12153625488281 11.94596862792969 16.03376770019531 16.03373718261719 C 11.94598388671875 20.12149047851562 8.736968994140625 24.88081359863281 6.495811462402344 30.17947387695312 C 4.176162719726562 35.66371917724609 3.000007629394531 41.49116516113281 3.000007629394531 47.49993515014648 C 3.000007629394531 53.50870513916016 4.176162719726562 59.33615112304688 6.495811462402344 64.82039642333984 C 8.736968994140625 70.11905670166016 11.94598388671875 74.87837982177734 16.03376770019531 78.96613311767578 C 20.12153625488281 83.05390167236328 24.880859375 86.26293182373047 30.17951965332031 88.50407409667969 C 35.66378021240234 90.82372283935547 41.49122619628906 91.99987030029297 47.5000114440918 91.99987030029297 C 53.50879669189453 91.99987030029297 59.33624267578125 90.82372283935547 64.82050323486328 88.50407409667969 C 70.11916351318359 86.26293182373047 74.87848663330078 83.05390167236328 78.96625518798828 78.96613311767578 C 83.05403900146484 74.87837982177734 86.2630615234375 70.11905670166016 88.50421142578125 64.82039642333984 C 90.82386016845703 59.33615112304688 92.00001525878906 53.50870513916016 92.00001525878906 47.49993515014648 C 92.00001525878906 41.49116516113281 90.82386016845703 35.66371917724609 88.50421142578125 30.17947387695312 C 86.2630615234375 24.88081359863281 83.05403900146484 20.12149047851562 78.96625518798828 16.03373718261719 C 74.87848663330078 11.94596862792969 70.11916351318359 8.7369384765625 64.82050323486328 6.495796203613281 C 59.33624267578125 4.1761474609375 53.50879669189453 3 47.5000114440918 3 M 47.5000114440918 0 C 73.73353576660156 0 95.00001525878906 21.26644134521484 95.00001525878906 47.49993515014648 C 95.00001525878906 73.73342895507812 73.73353576660156 94.99987030029297 47.5000114440918 94.99987030029297 C 21.26648712158203 94.99987030029297 7.62939453125e-06 73.73342895507812 7.62939453125e-06 47.49993515014648 C 7.62939453125e-06 21.26644134521484 21.26648712158203 0 47.5000114440918 0 Z" stroke="none" fill="#86b60c"/>
                                      </g>
                                    </g>
                                  </g>
                                </g>
                              </g>
                            </g>
                          </g>
                        </g>
                      </g>
                    </g>
                  </g>
                </g>
              </g>
            </g>
          </g>
        </g>
      </g>
    </g>
    <g id="_x33_3_Setting" transform="translate(8275.61 5788.769)">
      <g id="Grupo_1202590" data-name="Grupo 1202590" transform="translate(9.097 9.093)">
        <g id="Grupo_1202589" data-name="Grupo 1202589" transform="translate(0.614 0.614)">
          <g id="Grupo_1202585" data-name="Grupo 1202585">
            <g id="Grupo_1202578" data-name="Grupo 1202578">
              <path id="Trazado_1041605" data-name="Trazado 1041605" d="M75.3,51.883a31.47,31.47,0,0,1-3.844,9.292A7.316,7.316,0,0,0,61.177,71.452,31.472,31.472,0,0,1,51.885,75.3a7.316,7.316,0,0,0-14.533,0,31.254,31.254,0,0,1-9.292-3.853A7.31,7.31,0,0,0,17.792,61.175a31.256,31.256,0,0,1-3.853-9.292,7.316,7.316,0,0,0,0-14.533,31.47,31.47,0,0,1,3.844-9.292A7.316,7.316,0,0,0,28.06,17.781a31.472,31.472,0,0,1,9.292-3.844,7.316,7.316,0,0,0,14.533,0,31.472,31.472,0,0,1,9.292,3.844A7.316,7.316,0,0,0,71.454,28.058,31.475,31.475,0,0,1,75.3,37.35a7.316,7.316,0,0,0,0,14.533Z" transform="translate(-13.939 -13.937)" fill="#fd8d06"/>
            </g>
            <g id="Grupo_1202579" data-name="Grupo 1202579" transform="translate(0 0)">
              <path id="Trazado_1041606" data-name="Trazado 1041606" d="M41.466,69.541A7.315,7.315,0,0,0,37.355,75.3a31.379,31.379,0,0,1-9.3-3.853A7.308,7.308,0,0,0,17.793,61.178a31.379,31.379,0,0,1-3.853-9.3,7.314,7.314,0,0,0,0-14.53,31.681,31.681,0,0,1,3.841-9.3A7.317,7.317,0,0,0,28.059,17.779a31.681,31.681,0,0,1,9.3-3.841,7.5,7.5,0,0,0,.239,1.184,38.329,38.329,0,0,0,3.872,54.419Z" transform="translate(-13.94 -13.938)" fill="#d54e21"/>
            </g>
            <g id="Grupo_1202580" data-name="Grupo 1202580" transform="translate(15.239 15.159)">
              <path id="Trazado_1041607" data-name="Trazado 1041607" d="M165.058,148.983a15.44,15.44,0,1,1-15.44-15.44A15.437,15.437,0,0,1,165.058,148.983Z" transform="translate(-134.178 -133.543)" fill="#fff"/>
            </g>
            <g id="Grupo_1202581" data-name="Grupo 1202581" transform="translate(15.242 17.8)">
              <path id="Trazado_1041608" data-name="Trazado 1041608" d="M162.427,175.814a15.437,15.437,0,1,1-21.433-21.433,15.439,15.439,0,0,0,21.433,21.433Z" transform="translate(-134.196 -154.381)" fill="#bae3f5"/>
            </g>
            <g id="Grupo_1202584" data-name="Grupo 1202584" transform="translate(20.684 20.682)">
              <g id="Grupo_1202582" data-name="Grupo 1202582" transform="translate(0)">
                <path id="Trazado_1041609" data-name="Trazado 1041609" d="M197.127,187.118a10,10,0,1,1-10-10A10,10,0,0,1,197.127,187.118Z" transform="translate(-177.136 -177.122)" fill="#f14f56"/>
              </g>
              <g id="Grupo_1202583" data-name="Grupo 1202583" transform="translate(0 1.244)">
                <path id="Trazado_1041610" data-name="Trazado 1041610" d="M195.873,200.534A10,10,0,1,1,182.29,186.94a10,10,0,0,0,13.583,13.594Z" transform="translate(-177.133 -186.94)" fill="#d72f37"/>
              </g>
            </g>
          </g>
          <g id="Grupo_1202588" data-name="Grupo 1202588" transform="translate(25.553 25.553)">
            <g id="Grupo_1202586" data-name="Grupo 1202586" transform="translate(0)">
              <path id="Trazado_1041611" data-name="Trazado 1041611" d="M225.312,222.92a1.689,1.689,0,0,1-2.389,2.389l-2.242-2.242-2.242,2.242a1.689,1.689,0,1,1-2.389-2.389l2.242-2.242-2.242-2.244a1.689,1.689,0,0,1,2.389-2.389l2.242,2.242,2.242-2.242a1.689,1.689,0,0,1,2.389,2.389l-2.242,2.244Z" transform="translate(-215.555 -215.551)" fill="#fff"/>
            </g>
            <g id="Grupo_1202587" data-name="Grupo 1202587" transform="translate(0 0)">
              <path id="Trazado_1041612" data-name="Trazado 1041612" d="M225.72,224.637a1.664,1.664,0,0,1-.411.673,1.689,1.689,0,0,1-2.389,0l-2.242-2.242-2.242,2.242a1.689,1.689,0,0,1-2.389-2.389l2.242-2.242-2.242-2.244a1.689,1.689,0,0,1,2.389-2.389l.863.863a6.789,6.789,0,0,0-.05.826A6.916,6.916,0,0,0,225.72,224.637Z" transform="translate(-215.552 -215.552)" fill="#bae3f5"/>
            </g>
          </g>
        </g>
        <path id="Trazado_1041613" data-name="Trazado 1041613" d="M71.14,33.729a.614.614,0,0,0,.526-.751,32.051,32.051,0,0,0-3.919-9.473.613.613,0,0,0-.9-.159,6.7,6.7,0,0,1-9.415-9.415.614.614,0,0,0-.159-.9A32.048,32.048,0,0,0,47.8,9.11a.614.614,0,0,0-.751.526,6.7,6.7,0,0,1-13.314,0,.614.614,0,0,0-.751-.526,32.047,32.047,0,0,0-9.473,3.919.614.614,0,0,0-.158.9,6.7,6.7,0,0,1-9.415,9.415.614.614,0,0,0-.9.158,32.061,32.061,0,0,0-3.919,9.473.614.614,0,0,0,.527.751,6.7,6.7,0,0,1,0,13.314.614.614,0,0,0-.527.751,31.848,31.848,0,0,0,3.929,9.474.614.614,0,0,0,.9.156,6.7,6.7,0,0,1,9.406,9.406.614.614,0,0,0,.156.9,31.831,31.831,0,0,0,9.474,3.928.614.614,0,0,0,.751-.526,6.7,6.7,0,0,1,13.314,0,.613.613,0,0,0,.751.526,32.051,32.051,0,0,0,9.473-3.919.614.614,0,0,0,.159-.9,6.7,6.7,0,0,1,9.415-9.415.613.613,0,0,0,.9-.159,32.049,32.049,0,0,0,3.919-9.473.614.614,0,0,0-.526-.751,6.7,6.7,0,0,1,0-13.314Zm-7.153,6.657a7.926,7.926,0,0,0,6.326,7.766,30.815,30.815,0,0,1-3.269,7.9A7.93,7.93,0,0,0,56.06,67.041a30.792,30.792,0,0,1-7.9,3.269,7.931,7.931,0,0,0-15.534,0,30.585,30.585,0,0,1-7.9-3.276A7.927,7.927,0,0,0,13.742,56.056a30.627,30.627,0,0,1-3.276-7.9,7.931,7.931,0,0,0,0-15.534,30.826,30.826,0,0,1,3.269-7.9A7.932,7.932,0,0,0,24.721,13.732a30.784,30.784,0,0,1,7.9-3.269,7.93,7.93,0,0,0,15.533,0,30.789,30.789,0,0,1,7.9,3.269A7.931,7.931,0,0,0,67.044,24.716a30.787,30.787,0,0,1,3.269,7.9,7.926,7.926,0,0,0-6.326,7.766Z" transform="translate(-9.097 -9.093)"/>
        <path id="Trazado_1041614" data-name="Trazado 1041614" d="M145.392,128.7a16.051,16.051,0,1,0,16.053,16.053A16.071,16.071,0,0,0,145.392,128.7Zm0,30.875a14.824,14.824,0,1,1,14.826-14.821A14.841,14.841,0,0,1,145.392,159.579Z" transform="translate(-114.099 -113.544)"/>
        <path id="Trazado_1041615" data-name="Trazado 1041615" d="M182.9,172.28a10.611,10.611,0,1,0,10.61,10.61A10.621,10.621,0,0,0,182.9,172.28Zm0,19.994a9.384,9.384,0,1,1,9.382-9.385A9.394,9.394,0,0,1,182.9,192.274Z" transform="translate(-151.611 -151.597)"/>
        <path id="Trazado_1041616" data-name="Trazado 1041616" d="M221.515,211.539a2.358,2.358,0,0,0-3.257,0l-1.807,1.807-1.808-1.807a2.358,2.358,0,0,0-3.257,0,2.3,2.3,0,0,0,0,3.256l1.808,1.81-1.808,1.807a2.306,2.306,0,0,0,0,3.257,2.358,2.358,0,0,0,3.257,0l1.808-1.808,1.807,1.808a2.3,2.3,0,0,0,3.257-3.257l-1.808-1.807,1.807-1.809A2.3,2.3,0,0,0,221.515,211.539Zm-.868,2.388-2.242,2.244a.613.613,0,0,0,0,.868l2.242,2.241a1.072,1.072,0,0,1,0,1.521,1.1,1.1,0,0,1-1.521,0l-2.241-2.242a.614.614,0,0,0-.868,0l-2.242,2.242a1.1,1.1,0,0,1-1.521,0,1.078,1.078,0,0,1,0-1.521l2.242-2.241a.613.613,0,0,0,0-.868l-2.243-2.245a1.072,1.072,0,0,1,0-1.52,1.1,1.1,0,0,1,1.521,0l2.242,2.241a.613.613,0,0,0,.868,0l2.241-2.241a1.1,1.1,0,0,1,1.521,0A1.072,1.072,0,0,1,220.647,213.927Z" transform="translate(-185.157 -185.31)"/>
      </g>
    </g>
  </g>
</svg>
