<svg xmlns="http://www.w3.org/2000/svg" xmlns:xlink="http://www.w3.org/1999/xlink" width="93.934" height="93.934" viewBox="0 0 93.934 93.934">
  <defs>
    <filter id="Trazado_982547" x="0" y="0" width="93.934" height="93.934" filterUnits="userSpaceOnUse">
      <feOffset dy="3" input="SourceAlpha"/>
      <feGaussianBlur stdDeviation="3" result="blur"/>
      <feFlood flood-opacity="0.161"/>
      <feComposite operator="in" in2="blur"/>
      <feComposite in="SourceGraphic"/>
    </filter>
  </defs>
  <g id="Grupo_1202593" data-name="Grupo 1202593" transform="translate(-193.033 -7923.419)">
    <g id="Grupo_1202393" data-name="Grupo 1202393" transform="translate(4 6910.419)">
      <g id="Grupo_1176309" data-name="Grupo 1176309" transform="translate(0 -973)">
        <g id="Grupo_1172970" data-name="Grupo 1172970" transform="translate(-1 -9042)">
          <g id="Grupo_1171971" data-name="Grupo 1171971" transform="translate(199.033 11034)">
            <g id="Grupo_1167337" data-name="Grupo 1167337" transform="translate(0)">
              <g id="Grupo_1166720" data-name="Grupo 1166720">
                <g id="Grupo_1164305" data-name="Grupo 1164305">
                  <g id="Grupo_1163948" data-name="Grupo 1163948">
                    <g id="Grupo_1158168" data-name="Grupo 1158168">
                      <g id="Grupo_1152576" data-name="Grupo 1152576">
                        <g id="Grupo_1148633" data-name="Grupo 1148633">
                          <g id="Grupo_1148525" data-name="Grupo 1148525">
                            <g transform="matrix(1, 0, 0, 1, -9, -6)" filter="url(#Trazado_982547)">
                              <g id="Trazado_982547-2" data-name="Trazado 982547" transform="translate(9 6)" fill="#f2f7e5">
                                <path d="M 37.966796875 74.43359375 C 33.04315185546875 74.43359375 28.26757431030273 73.46962738037109 23.77274131774902 71.56847381591797 C 19.43047523498535 69.73184967041016 15.53040790557861 67.10224914550781 12.18087482452393 63.75271987915039 C 8.831341743469238 60.4031867980957 6.201741218566895 56.50312042236328 4.365118980407715 52.16086196899414 C 2.463963508605957 47.66601943969727 1.499996900558472 42.89044189453125 1.499996900558472 37.966796875 C 1.499996900558472 33.04315185546875 2.463963508605957 28.26757431030273 4.365118980407715 23.77274131774902 C 6.201741218566895 19.43047523498535 8.831341743469238 15.53040790557861 12.18087482452393 12.18087482452393 C 15.53040790557861 8.831341743469238 19.43047523498535 6.201741218566895 23.77274131774902 4.365118980407715 C 28.26757431030273 2.463963508605957 33.04315185546875 1.499996900558472 37.966796875 1.499996900558472 C 42.89044189453125 1.499996900558472 47.66601943969727 2.463963508605957 52.16086196899414 4.365118980407715 C 56.50312042236328 6.201741218566895 60.4031867980957 8.831341743469238 63.75271987915039 12.18087482452393 C 67.10224914550781 15.53040790557861 69.73184967041016 19.43047523498535 71.56847381591797 23.77274131774902 C 73.46962738037109 28.26757431030273 74.43359375 33.04315185546875 74.43359375 37.966796875 C 74.43359375 42.89044189453125 73.46962738037109 47.66601943969727 71.56847381591797 52.16086196899414 C 69.73184967041016 56.50313186645508 67.10224914550781 60.4031867980957 63.75271987915039 63.75271987915039 C 60.4031867980957 67.10224914550781 56.50313186645508 69.73184967041016 52.16086196899414 71.56847381591797 C 47.66601943969727 73.46962738037109 42.89044189453125 74.43359375 37.966796875 74.43359375 Z" stroke="none"/>
                                <path d="M 37.966796875 3 C 33.2449836730957 3 28.66600799560547 3.924095153808594 24.35705947875977 5.746635437011719 C 20.19359588623047 7.507637023925781 16.45379638671875 10.02928161621094 13.24153518676758 13.24153518676758 C 10.02927398681641 16.45379638671875 7.507621765136719 20.19359588623047 5.746635437011719 24.35705947875977 C 3.924095153808594 28.66600799560547 3 33.2449836730957 3 37.966796875 C 3 42.6886100769043 3.924095153808594 47.26758575439453 5.746635437011719 51.57653427124023 C 7.507621765136719 55.73999786376953 10.02927398681641 59.47979736328125 13.24153518676758 62.69205856323242 C 16.45379638671875 65.90431976318359 20.19359588623047 68.42597198486328 24.35705947875977 70.18695831298828 C 28.66600799560547 72.00949859619141 33.2449836730957 72.93359375 37.966796875 72.93359375 C 42.6886100769043 72.93359375 47.26758575439453 72.00949859619141 51.57653427124023 70.18695831298828 C 55.73999786376953 68.42597198486328 59.47979736328125 65.90431976318359 62.69205856323242 62.69205856323242 C 65.90431976318359 59.47979736328125 68.42597198486328 55.73999786376953 70.18695831298828 51.57653427124023 C 72.00949859619141 47.26758575439453 72.93359375 42.6886100769043 72.93359375 37.966796875 C 72.93359375 33.2449836730957 72.00949859619141 28.66600799560547 70.18695831298828 24.35705947875977 C 68.42597198486328 20.19359588623047 65.90431976318359 16.45379638671875 62.69205856323242 13.24153518676758 C 59.47979736328125 10.02928161621094 55.73999786376953 7.507637023925781 51.57653427124023 5.746635437011719 C 47.26758575439453 3.924095153808594 42.6886100769043 3 37.966796875 3 M 37.966796875 0 C 58.93528366088867 0 75.93359375 16.99832153320312 75.93359375 37.966796875 C 75.93359375 58.93528366088867 58.93528366088867 75.93359375 37.966796875 75.93359375 C 16.99831008911133 75.93359375 0 58.93528366088867 0 37.966796875 C 0 16.99832153320312 16.99831008911133 0 37.966796875 0 Z" stroke="none" fill="#1d7083"/>
                              </g>
                            </g>
                          </g>
                        </g>
                      </g>
                    </g>
                  </g>
                </g>
              </g>
            </g>
          </g>
        </g>
      </g>
    </g>
    <g id="clock_13022447" transform="translate(212.57 7939.99)">
      <circle id="Elipse_12334" data-name="Elipse 12334" cx="23.921" cy="23.921" r="23.921" transform="translate(1.841 1.841)" fill="#3079e6"/>
      <circle id="Elipse_12335" data-name="Elipse 12335" cx="20.504" cy="20.504" r="20.504" transform="translate(5.258 5.258)" fill="#e3e8f6"/>
      <ellipse id="Elipse_12336" data-name="Elipse 12336" cx="17.941" cy="20.339" rx="17.941" ry="20.339" transform="translate(10.384 5.423)" fill="#f8f7fe"/>
      <circle id="Elipse_12337" data-name="Elipse 12337" cx="11.106" cy="11.106" r="11.106" transform="translate(30.888 30.888)" fill="#f3a845"/>
      <ellipse id="Elipse_12338" data-name="Elipse 12338" cx="9.398" cy="10.962" rx="9.398" ry="10.962" transform="translate(34.305 31.032)" fill="#eecc61"/>
      <g id="Grupo_1202592" data-name="Grupo 1202592" transform="translate(5.258 5.258)">
        <path id="Trazado_1041617" data-name="Trazado 1041617" d="M30.709,6.021C30.425,6.01,30.141,6,29.854,6s-.571.01-.854.021v3.4h1.709Z" transform="translate(-9.35 -6)" fill="#73a4ea"/>
        <path id="Trazado_1041618" data-name="Trazado 1041618" d="M29,53.4c.284.011.568.021.854.021s.571-.01.854-.021V50H29Z" transform="translate(-9.35 -12.41)" fill="#73a4ea"/>
        <path id="Trazado_1041619" data-name="Trazado 1041619" d="M6.021,30.709h3.4V29h-3.4c-.011.284-.021.568-.021.854S6.01,30.425,6.021,30.709Z" transform="translate(-6 -9.35)" fill="#73a4ea"/>
        <path id="Trazado_1041620" data-name="Trazado 1041620" d="M50,30.709h3.4c.011-.284.021-.568.021-.854s-.01-.571-.021-.854H50Z" transform="translate(-12.41 -9.35)" fill="#73a4ea"/>
        <path id="Trazado_1041621" data-name="Trazado 1041621" d="M11.016,20.259l1.025-1.367L9.629,17.083q-.462.723-.866,1.486Z" transform="translate(-6.402 -7.614)" fill="#73a4ea"/>
        <path id="Trazado_1041622" data-name="Trazado 1041622" d="M18.892,12.041l1.367-1.025-1.69-2.253q-.762.4-1.486.866Z" transform="translate(-7.614 -6.402)" fill="#73a4ea"/>
        <path id="Trazado_1041623" data-name="Trazado 1041623" d="M39.815,8.228l-1.669,2.783,1.464.88,1.726-2.877q-.744-.423-1.521-.786Z" transform="translate(-10.683 -6.325)" fill="#73a4ea"/>
        <path id="Trazado_1041624" data-name="Trazado 1041624" d="M46.485,18.824l.88,1.464,3.113-1.868c-.27-.5-.563-.993-.872-1.469Z" transform="translate(-11.898 -7.595)" fill="#73a4ea"/>
        <path id="Trazado_1041625" data-name="Trazado 1041625" d="M8.763,40.89q.4.763.866,1.486l2.412-1.809L11.016,39.2Z" transform="translate(-6.402 -10.836)" fill="#73a4ea"/>
        <path id="Trazado_1041626" data-name="Trazado 1041626" d="M17.082,49.811q.724.464,1.486.867l1.691-2.253L18.891,47.4Z" transform="translate(-7.614 -12.031)" fill="#73a4ea"/>
        <path id="Trazado_1041627" data-name="Trazado 1041627" d="M33,29h2.563v1.709H33Z" transform="translate(-9.933 -9.35)" fill="#73a4ea"/>
        <path id="Trazado_1041628" data-name="Trazado 1041628" d="M38,29h1.709v1.709H38Z" transform="translate(-10.662 -9.35)" fill="#73a4ea"/>
        <path id="Trazado_1041629" data-name="Trazado 1041629" d="M42,29h1.709v1.709H42Z" transform="translate(-11.244 -9.35)" fill="#73a4ea"/>
        <path id="Trazado_1041630" data-name="Trazado 1041630" d="M46,29h1.709v1.709H46Z" transform="translate(-11.827 -9.35)" fill="#73a4ea"/>
      </g>
      <circle id="Elipse_12339" data-name="Elipse 12339" cx="3.417" cy="3.417" r="3.417" transform="translate(22.345 22.345)" fill="#3079e6"/>
      <path id="Trazado_1041631" data-name="Trazado 1041631" d="M25.073,30.892,19.53,36.434A1.812,1.812,0,1,0,22.093,39l5.542-5.542a3.412,3.412,0,0,1-2.563-2.563Z" transform="translate(-2.636 -4.368)" fill="#2763bb"/>
      <path id="Trazado_1041632" data-name="Trazado 1041632" d="M22.369,39.278l5.542-5.542a3.4,3.4,0,0,1-1.65-.913l-4.839,4.839a1.813,1.813,0,0,0-.531,1.281,1.786,1.786,0,0,0,.228.865,1.805,1.805,0,0,0,1.249-.531Z" transform="translate(-2.911 -4.649)" fill="#3079e6"/>
      <path id="Trazado_1041633" data-name="Trazado 1041633" d="M29.709,24.106a3.379,3.379,0,0,1,1.709.474V14.709a1.709,1.709,0,1,0-3.417,0V24.58a3.379,3.379,0,0,1,1.709-.474Z" transform="translate(-3.947 -1.762)" fill="#2763bb"/>
      <path id="Trazado_1041634" data-name="Trazado 1041634" d="M31.709,14.749a1.7,1.7,0,0,0-.854-1.472A1.7,1.7,0,0,0,30,14.749v9.4a3.379,3.379,0,0,1,1.709.474Z" transform="translate(-4.238 -1.802)" fill="#3079e6"/>
      <path id="Trazado_1041635" data-name="Trazado 1041635" d="M29,29h1.709v1.709H29Z" transform="translate(-4.092 -4.092)" fill="#73a4ea"/>
      <path id="Trazado_1041636" data-name="Trazado 1041636" d="M41,50.543V43.709A1.709,1.709,0,0,1,42.709,42H52.961a1.709,1.709,0,0,1,1.709,1.709v6.835a1.709,1.709,0,0,1-1.709,1.709H48.689l-2.563,2.563V52.252H42.709A1.709,1.709,0,0,1,41,50.543Z" transform="translate(-5.84 -5.986)" fill="#2763bb"/>
      <path id="Trazado_1041637" data-name="Trazado 1041637" d="M46.417,54.815l2.563-2.563h4.272a1.709,1.709,0,0,0,1.709-1.709V43.709A1.709,1.709,0,0,0,53.252,42H44.709A1.709,1.709,0,0,0,43,43.709v6.835a1.709,1.709,0,0,0,1.709,1.709h1.709Z" transform="translate(-6.132 -5.986)" fill="#3079e6"/>
      <path id="Trazado_1041638" data-name="Trazado 1041638" d="M44,45h8.543v1.709H44Z" transform="translate(-6.277 -6.423)" fill="#fff"/>
      <path id="Trazado_1041639" data-name="Trazado 1041639" d="M44,49h5.126v1.709H44Z" transform="translate(-6.277 -7.006)" fill="#fff"/>
      <path id="Trazado_1041640" data-name="Trazado 1041640" d="M52,49h1.709v1.709H52Z" transform="translate(-7.443 -7.006)" fill="#fff"/>
      <path id="Trazado_1041641" data-name="Trazado 1041641" d="M49.531,32.718A24.815,24.815,0,1,0,32.718,49.531,11.953,11.953,0,1,0,49.531,32.718ZM25.762,48.829A23.111,23.111,0,1,1,48.043,31.694a11.891,11.891,0,0,0-1.563-.779A21.4,21.4,0,1,0,30.914,46.48a11.838,11.838,0,0,0,.779,1.563,23.1,23.1,0,0,1-5.932.786Zm4.631-3.977a19.6,19.6,0,0,1-3.777.529V42.849H24.908V45.39a19.5,19.5,0,0,1-8.073-2.136l1.1-1.643-1.422-.948-1.164,1.745a19.8,19.8,0,0,1-6.231-6.231l1.745-1.164L9.91,33.592l-1.643,1.1a19.5,19.5,0,0,1-2.133-8.073H8.675V24.908H6.134A19.5,19.5,0,0,1,8.27,16.834l1.643,1.1.948-1.422L9.115,15.344a19.8,19.8,0,0,1,6.231-6.231l1.164,1.745,1.422-.948-1.1-1.643a19.5,19.5,0,0,1,8.073-2.133V8.675h1.709V6.134A19.529,19.529,0,0,1,34.049,7.95L32.743,9.91l1.422.948,1.408-2.112a19.785,19.785,0,0,1,6.585,6.2l-2.343,1.563.948,1.422,2.28-1.52a19.521,19.521,0,0,1,2.348,8.5H42.849v1.709h2.532a19.6,19.6,0,0,1-.529,3.777A11.913,11.913,0,0,0,30.393,44.852Zm11.6,7.394A10.252,10.252,0,1,1,52.246,41.994,10.252,10.252,0,0,1,41.994,52.246Z" transform="translate(0 0)"/>
      <path id="Trazado_1041642" data-name="Trazado 1041642" d="M30.815,23.983v-9.42a2.563,2.563,0,0,0-5.126,0v9.42a4.252,4.252,0,0,0-1.709,3.4,4.2,4.2,0,0,0,.046.455l-5.246,5.246a2.667,2.667,0,0,0,3.771,3.771L27.8,31.6a4.2,4.2,0,0,0,.455.046,4.279,4.279,0,0,0,4.186-3.417h.94V26.524h-.94a4.261,4.261,0,0,0-1.623-2.541ZM27.4,14.563a.854.854,0,1,1,1.709,0v8.629a4.272,4.272,0,0,0-1.709,0ZM21.344,35.641a.958.958,0,0,1-1.355-1.355l4.652-4.651a4.272,4.272,0,0,0,1.354,1.354Zm6.908-5.7a2.563,2.563,0,1,1,2.563-2.563A2.563,2.563,0,0,1,28.252,29.941Z" transform="translate(-2.49 -1.616)"/>
      <path id="Trazado_1041643" data-name="Trazado 1041643" d="M29,29h1.709v1.709H29Z" transform="translate(-4.092 -4.092)"/>
      <path id="Trazado_1041644" data-name="Trazado 1041644" d="M38,29h1.709v1.709H38Z" transform="translate(-5.403 -4.092)"/>
      <path id="Trazado_1041645" data-name="Trazado 1041645" d="M42,29h1.709v1.709H42Z" transform="translate(-5.986 -4.092)"/>
      <path id="Trazado_1041646" data-name="Trazado 1041646" d="M46,29h1.709v1.709H46Z" transform="translate(-6.569 -4.092)"/>
      <path id="Trazado_1041647" data-name="Trazado 1041647" d="M52.815,41H42.563A2.563,2.563,0,0,0,40,43.563V50.4a2.563,2.563,0,0,0,2.563,2.563h2.563v1.709a.854.854,0,0,0,1.458.6L48.9,52.961h3.918A2.563,2.563,0,0,0,55.378,50.4V43.563A2.563,2.563,0,0,0,52.815,41Zm.854,9.4a.854.854,0,0,1-.854.854H48.543a.854.854,0,0,0-.6.25l-1.1,1.1v-.5a.854.854,0,0,0-.854-.854H42.563a.854.854,0,0,1-.854-.854V43.563a.854.854,0,0,1,.854-.854H52.815a.854.854,0,0,1,.854.854Z" transform="translate(-5.695 -5.84)"/>
      <path id="Trazado_1041648" data-name="Trazado 1041648" d="M44,45h8.543v1.709H44Z" transform="translate(-6.277 -6.423)"/>
      <path id="Trazado_1041649" data-name="Trazado 1041649" d="M44,49h5.126v1.709H44Z" transform="translate(-6.277 -7.006)"/>
      <path id="Trazado_1041650" data-name="Trazado 1041650" d="M52,49h1.709v1.709H52Z" transform="translate(-7.443 -7.006)"/>
    </g>
  </g>
</svg>
