<svg xmlns="http://www.w3.org/2000/svg" xmlns:xlink="http://www.w3.org/1999/xlink" width="93.934" height="93.934" viewBox="0 0 93.934 93.934">
  <defs>
    <filter id="Trazado_982547" x="0" y="0" width="93.934" height="93.934" filterUnits="userSpaceOnUse">
      <feOffset dy="3" input="SourceAlpha"/>
      <feGaussianBlur stdDeviation="3" result="blur"/>
      <feFlood flood-opacity="0.161"/>
      <feComposite operator="in" in2="blur"/>
      <feComposite in="SourceGraphic"/>
    </filter>
  </defs>
  <g id="Grupo_1202595" data-name="Grupo 1202595" transform="translate(-508.033 -7923.419)">
    <g id="Grupo_1202394" data-name="Grupo 1202394" transform="translate(319 6910.419)">
      <g id="Grupo_1176309" data-name="Grupo 1176309" transform="translate(0 -973)">
        <g id="Grupo_1172970" data-name="Grupo 1172970" transform="translate(-1 -9042)">
          <g id="Grupo_1171971" data-name="Grupo 1171971" transform="translate(199.033 11034)">
            <g id="Grupo_1167337" data-name="Grupo 1167337" transform="translate(0)">
              <g id="Grupo_1166720" data-name="Grupo 1166720">
                <g id="Grupo_1164305" data-name="Grupo 1164305">
                  <g id="Grupo_1163948" data-name="Grupo 1163948">
                    <g id="Grupo_1158168" data-name="Grupo 1158168">
                      <g id="Grupo_1152576" data-name="Grupo 1152576">
                        <g id="Grupo_1148633" data-name="Grupo 1148633">
                          <g id="Grupo_1148525" data-name="Grupo 1148525">
                            <g transform="matrix(1, 0, 0, 1, -9, -6)" filter="url(#Trazado_982547)">
                              <g id="Trazado_982547-2" data-name="Trazado 982547" transform="translate(9 6)" fill="#f2f7e5">
                                <path d="M 37.966796875 74.43359375 C 33.04315185546875 74.43359375 28.26757431030273 73.46962738037109 23.77274131774902 71.56847381591797 C 19.43047523498535 69.73184967041016 15.53040790557861 67.10224914550781 12.18087482452393 63.75271987915039 C 8.831341743469238 60.4031867980957 6.201741218566895 56.50312042236328 4.365118980407715 52.16086196899414 C 2.463963508605957 47.66601943969727 1.499996900558472 42.89044189453125 1.499996900558472 37.966796875 C 1.499996900558472 33.04315185546875 2.463963508605957 28.26757431030273 4.365118980407715 23.77274131774902 C 6.201741218566895 19.43047523498535 8.831341743469238 15.53040790557861 12.18087482452393 12.18087482452393 C 15.53040790557861 8.831341743469238 19.43047523498535 6.201741218566895 23.77274131774902 4.365118980407715 C 28.26757431030273 2.463963508605957 33.04315185546875 1.499996900558472 37.966796875 1.499996900558472 C 42.89044189453125 1.499996900558472 47.66601943969727 2.463963508605957 52.16086196899414 4.365118980407715 C 56.50312042236328 6.201741218566895 60.4031867980957 8.831341743469238 63.75271987915039 12.18087482452393 C 67.10224914550781 15.53040790557861 69.73184967041016 19.43047523498535 71.56847381591797 23.77274131774902 C 73.46962738037109 28.26757431030273 74.43359375 33.04315185546875 74.43359375 37.966796875 C 74.43359375 42.89044189453125 73.46962738037109 47.66601943969727 71.56847381591797 52.16086196899414 C 69.73184967041016 56.50313186645508 67.10224914550781 60.4031867980957 63.75271987915039 63.75271987915039 C 60.4031867980957 67.10224914550781 56.50313186645508 69.73184967041016 52.16086196899414 71.56847381591797 C 47.66601943969727 73.46962738037109 42.89044189453125 74.43359375 37.966796875 74.43359375 Z" stroke="none"/>
                                <path d="M 37.966796875 3 C 33.2449836730957 3 28.66600799560547 3.924095153808594 24.35705947875977 5.746635437011719 C 20.19359588623047 7.507637023925781 16.45379638671875 10.02928161621094 13.24153518676758 13.24153518676758 C 10.02927398681641 16.45379638671875 7.507621765136719 20.19359588623047 5.746635437011719 24.35705947875977 C 3.924095153808594 28.66600799560547 3 33.2449836730957 3 37.966796875 C 3 42.6886100769043 3.924095153808594 47.26758575439453 5.746635437011719 51.57653427124023 C 7.507621765136719 55.73999786376953 10.02927398681641 59.47979736328125 13.24153518676758 62.69205856323242 C 16.45379638671875 65.90431976318359 20.19359588623047 68.42597198486328 24.35705947875977 70.18695831298828 C 28.66600799560547 72.00949859619141 33.2449836730957 72.93359375 37.966796875 72.93359375 C 42.6886100769043 72.93359375 47.26758575439453 72.00949859619141 51.57653427124023 70.18695831298828 C 55.73999786376953 68.42597198486328 59.47979736328125 65.90431976318359 62.69205856323242 62.69205856323242 C 65.90431976318359 59.47979736328125 68.42597198486328 55.73999786376953 70.18695831298828 51.57653427124023 C 72.00949859619141 47.26758575439453 72.93359375 42.6886100769043 72.93359375 37.966796875 C 72.93359375 33.2449836730957 72.00949859619141 28.66600799560547 70.18695831298828 24.35705947875977 C 68.42597198486328 20.19359588623047 65.90431976318359 16.45379638671875 62.69205856323242 13.24153518676758 C 59.47979736328125 10.02928161621094 55.73999786376953 7.507637023925781 51.57653427124023 5.746635437011719 C 47.26758575439453 3.924095153808594 42.6886100769043 3 37.966796875 3 M 37.966796875 0 C 58.93528366088867 0 75.93359375 16.99832153320312 75.93359375 37.966796875 C 75.93359375 58.93528366088867 58.93528366088867 75.93359375 37.966796875 75.93359375 C 16.99831008911133 75.93359375 0 58.93528366088867 0 37.966796875 C 0 16.99832153320312 16.99831008911133 0 37.966796875 0 Z" stroke="none" fill="#1d7083"/>
                              </g>
                            </g>
                          </g>
                        </g>
                      </g>
                    </g>
                  </g>
                </g>
              </g>
            </g>
          </g>
        </g>
      </g>
    </g>
    <g id="file_976541" transform="translate(512.233 7942.096)">
      <g id="Grupo_1202594" data-name="Grupo 1202594" transform="translate(39.793 1.066)">
        <path id="Trazado_1041651" data-name="Trazado 1041651" d="M211.6,223.234a10.257,10.257,0,0,0-5.067-1.5c-5.933,0-10.725,6.566-10.725,6.566a20.668,20.668,0,0,0,5.658,5.067,10.257,10.257,0,0,0,5.067,1.5c5.933,0,10.725-6.566,10.725-6.566A20.669,20.669,0,0,0,211.6,223.234Zm-3.167-8.3a13.423,13.423,0,1,1-1.879-.137A15.9,15.9,0,0,1,208.438,214.937Z" transform="translate(-193.1 -193.192)" fill="#fdc75b"/>
        <path id="Trazado_1041652" data-name="Trazado 1041652" d="M282.534,294.7a20.669,20.669,0,0,1,5.658,5.067s-4.793,6.566-10.725,6.566a10.149,10.149,0,0,1-5.067-1.5l2.238-2.238a4.008,4.008,0,0,0,5.669-5.669Z" transform="translate(-264.029 -264.657)" fill="#fdc75b"/>
        <path id="Trazado_1041653" data-name="Trazado 1041653" d="M234.5,282.088l-2.238,2.238A4.008,4.008,0,0,0,226.6,290l-2.238,2.238a20.669,20.669,0,0,1-5.658-5.067s4.793-6.566,10.725-6.566A10.254,10.254,0,0,1,234.5,282.088Z" transform="translate(-215.998 -252.046)" fill="#fdc75b"/>
        <path id="Trazado_1041654" data-name="Trazado 1041654" d="M299.269,315.9a4.008,4.008,0,0,1-5.669,5.669Z" transform="translate(-282.991 -283.619)" fill="#fdc75b"/>
        <path id="Trazado_1041655" data-name="Trazado 1041655" d="M289.34,305.972l-5.669,5.669a4.008,4.008,0,0,1,5.669-5.669Z" transform="translate(-273.063 -273.691)" fill="#fdc75b"/>
        <path id="Trazado_1041656" data-name="Trazado 1041656" d="M236.7,10.1l10.736,11.274h-7.147a3.586,3.586,0,0,1-3.589-3.589Z" transform="translate(-232.098 -10.1)" fill="#fdc75b"/>
      </g>
      <path id="Trazado_1041657" data-name="Trazado 1041657" d="M61.839,31.719A13.464,13.464,0,0,0,50.006,51.6l-.021.011H35.945A4.645,4.645,0,0,1,31.3,46.962V14.745A4.645,4.645,0,0,1,35.945,10.1H52.982v7.685a3.586,3.586,0,0,0,3.589,3.589h7.147V31.846h0A13.93,13.93,0,0,0,61.839,31.719Z" transform="translate(-8.587 -9.034)" fill="#ed664c"/>
      <path id="Trazado_1041658" data-name="Trazado 1041658" d="M56.219,21.925V12.34a1.109,1.109,0,0,0-.306-.728L45.166.327A1.07,1.07,0,0,0,44.4,0H27.358A5.677,5.677,0,0,0,21.7,5.711V37.928A5.641,5.641,0,0,0,27.358,43.6H40.807a14.353,14.353,0,0,0,12.446,7.052,14.513,14.513,0,0,0,2.966-28.723ZM45.451,3.705l7.21,7.59H47.985a2.55,2.55,0,0,1-2.533-2.544V3.705ZM23.811,37.928V5.711a3.566,3.566,0,0,1,3.547-3.6H43.34v6.64a4.654,4.654,0,0,0,4.645,4.655h6.123v8.244c-.317-.011-.57-.053-.844-.053a14.73,14.73,0,0,0-9.627,3.631H30.229a1.056,1.056,0,0,0,0,2.111H41.672a16.813,16.813,0,0,0-1.858,3.272H30.229a1.056,1.056,0,0,0,0,2.111h8.9a14.211,14.211,0,0,0-.4,3.4,14.46,14.46,0,0,0,1.024,5.363H27.358A3.537,3.537,0,0,1,23.811,37.928Zm29.441,10.62a12.427,12.427,0,0,1-10.915-6.492h0a12.4,12.4,0,0,1,10.9-18.315,13.5,13.5,0,0,1,1.731.116,12.406,12.406,0,0,1-1.721,24.691Z"/>
      <path id="Trazado_1041659" data-name="Trazado 1041659" d="M93.556,191.111h10.693a1.056,1.056,0,0,0,0-2.111H93.556a1.056,1.056,0,0,0,0,2.111Z" transform="translate(-63.326 -169.049)"/>
      <path id="Trazado_1041660" data-name="Trazado 1041660" d="M229.292,259.572a1.052,1.052,0,1,0-1.488-1.488l-2.291,2.291a10.758,10.758,0,0,0-4.877-1.246c-6.4,0-11.369,6.714-11.58,7a1.045,1.045,0,0,0,0,1.246,22.114,22.114,0,0,0,4.835,4.634l-1.921,1.921a1.051,1.051,0,0,0,0,1.488,1.037,1.037,0,0,0,.749.306,1.081,1.081,0,0,0,.749-.306l2.291-2.291a10.758,10.758,0,0,0,4.877,1.246c6.4,0,11.369-6.714,11.58-7a1.045,1.045,0,0,0,0-1.246,22.114,22.114,0,0,0-4.835-4.634Zm-5.711,7.168a2.955,2.955,0,0,1-2.945,2.956,2.894,2.894,0,0,1-1.2-.253l3.9-3.9A3.019,3.019,0,0,1,223.581,266.74Zm-5.9,0a2.955,2.955,0,0,1,2.945-2.956,2.894,2.894,0,0,1,1.2.253l-3.9,3.9A2.812,2.812,0,0,1,217.68,266.74Zm-6.429,0c1.32-1.562,5.078-5.51,9.374-5.51a8.264,8.264,0,0,1,3.283.728l-.528.528a5.066,5.066,0,0,0-7,7.009l-.971.971A19.89,19.89,0,0,1,211.252,266.74Zm18.748,0c-1.32,1.562-5.078,5.51-9.374,5.51a8.263,8.263,0,0,1-3.283-.728l.528-.528a5.066,5.066,0,0,0,7-7.009l.971-.971A19.908,19.908,0,0,1,230,266.74Z" transform="translate(-167.394 -230.564)"/>
    </g>
  </g>
</svg>
