<svg xmlns="http://www.w3.org/2000/svg" xmlns:xlink="http://www.w3.org/1999/xlink" width="103" height="103" viewBox="0 0 103 103">
  <defs>
    <filter id="Trazado_982547" x="0" y="0" width="103" height="103" filterUnits="userSpaceOnUse">
      <feOffset dy="3" input="SourceAlpha"/>
      <feGaussianBlur stdDeviation="3" result="blur"/>
      <feFlood flood-opacity="0.161"/>
      <feComposite operator="in" in2="blur"/>
      <feComposite in="SourceGraphic"/>
    </filter>
  </defs>
  <g id="Grupo_1202407" data-name="Grupo 1202407" transform="translate(-611 -575)">
    <g id="Grupo_1202208" data-name="Grupo 1202208" transform="translate(340 -295.414)">
      <g id="Grupo_1174813" data-name="Grupo 1174813" transform="translate(280 876.414)">
        <g id="Grupo_1201680" data-name="Grupo 1201680">
          <g id="Grupo_1201330" data-name="Grupo 1201330">
            <g id="Grupo_1172010" data-name="Grupo 1172010">
              <g id="Grupo_1171046" data-name="Grupo 1171046">
                <g id="Grupo_1148525" data-name="Grupo 1148525">
                  <g transform="matrix(1, 0, 0, 1, -9, -6)" filter="url(#Trazado_982547)">
                    <g id="Trazado_982547-2" data-name="Trazado 982547" transform="translate(9 6)" fill="#f2f7e5">
                      <path d="M 42.5 83.5 C 36.96437835693359 83.5 31.59512901306152 82.41617584228516 26.54141235351562 80.27863311767578 C 21.65934181213379 78.21369171142578 17.27447128295898 75.25723266601562 13.50862312316895 71.49137878417969 C 9.742764472961426 67.72553253173828 6.786305904388428 63.34066009521484 4.721364498138428 58.45858764648438 C 2.583823442459106 53.40486907958984 1.5 48.03562164306641 1.5 42.5 C 1.5 36.96437835693359 2.583823442459106 31.59512901306152 4.721364498138428 26.54141235351562 C 6.786305904388428 21.65934181213379 9.742764472961426 17.27448272705078 13.50862312316895 13.50862312316895 C 17.27447128295898 9.742776870727539 21.65934181213379 6.786305904388428 26.54141235351562 4.721364498138428 C 31.59512901306152 2.583823442459106 36.96437835693359 1.5 42.5 1.5 C 48.03562164306641 1.5 53.40486907958984 2.583823442459106 58.45858764648438 4.721364498138428 C 63.34066009521484 6.786305904388428 67.72553253173828 9.742776870727539 71.49137878417969 13.50862312316895 C 75.25723266601562 17.27448272705078 78.21369171142578 21.65934181213379 80.27863311767578 26.54141235351562 C 82.41617584228516 31.59512901306152 83.5 36.96437835693359 83.5 42.5 C 83.5 48.03562164306641 82.41617584228516 53.40486907958984 80.27863311767578 58.45858764648438 C 78.21369171142578 63.34066009521484 75.25723266601562 67.72553253173828 71.49137878417969 71.49137878417969 C 67.72553253173828 75.25723266601562 63.34066009521484 78.21369171142578 58.45858764648438 80.27863311767578 C 53.40486907958984 82.41617584228516 48.03562164306641 83.5 42.5 83.5 Z" stroke="none"/>
                      <path d="M 42.5 3 C 37.16621398925781 3 31.99356079101562 4.043960571289062 27.125732421875 6.102882385253906 C 22.42246627807617 8.092185974121094 18.19785308837891 10.94070434570312 14.56928253173828 14.56928253173828 C 10.94070434570312 18.19785308837891 8.092185974121094 22.42246627807617 6.102882385253906 27.125732421875 C 4.043960571289062 31.99356079101562 3 37.16621398925781 3 42.5 C 3 47.83378601074219 4.043960571289062 53.00643920898438 6.102882385253906 57.874267578125 C 8.092185974121094 62.57753372192383 10.94070434570312 66.80214691162109 14.56928253173828 70.43071746826172 C 18.19785308837891 74.05929565429688 22.42246627807617 76.90781402587891 27.125732421875 78.89711761474609 C 31.99356079101562 80.95603942871094 37.16621398925781 82 42.5 82 C 47.83378601074219 82 53.00643920898438 80.95603942871094 57.874267578125 78.89711761474609 C 62.57753372192383 76.90781402587891 66.80214691162109 74.05929565429688 70.43071746826172 70.43071746826172 C 74.05929565429688 66.80214691162109 76.90781402587891 62.57753372192383 78.89711761474609 57.874267578125 C 80.95603942871094 53.00643920898438 82 47.83378601074219 82 42.5 C 82 37.16621398925781 80.95603942871094 31.99356079101562 78.89711761474609 27.125732421875 C 76.90781402587891 22.42246627807617 74.05929565429688 18.19785308837891 70.43071746826172 14.56928253173828 C 66.80214691162109 10.94070434570312 62.57753372192383 8.092185974121094 57.874267578125 6.102882385253906 C 53.00643920898438 4.043960571289062 47.83378601074219 3 42.5 3 M 42.5 0 C 65.97210693359375 0 85 19.02789306640625 85 42.5 C 85 65.97210693359375 65.97210693359375 85 42.5 85 C 19.02789306640625 85 0 65.97210693359375 0 42.5 C 0 19.02789306640625 19.02789306640625 0 42.5 0 Z" stroke="none" fill="#1d7083"/>
                    </g>
                  </g>
                </g>
              </g>
            </g>
          </g>
        </g>
      </g>
    </g>
    <g id="Layer_2" transform="translate(631.247 592.243)">
      <g id="Grupo_1202406" data-name="Grupo 1202406" transform="translate(4.164 4.168)">
        <path id="Trazado_1041032" data-name="Trazado 1041032" d="M109.167,99.177V110.02a1.094,1.094,0,0,1-1.094,1.094H95.614a1.094,1.094,0,0,1-1.094-1.094V99.177a1.094,1.094,0,0,1,1.094-1.094h12.46A1.094,1.094,0,0,1,109.167,99.177Z" transform="translate(-74.755 -77.539)" fill="#f0c020"/>
        <path id="Trazado_1041033" data-name="Trazado 1041033" d="M122.305,103.961l-2.214-2.237-2.215,2.237V98.085h4.429Z" transform="translate(-93.001 -77.541)" fill="#fc5d3d"/>
        <g id="Grupo_1202402" data-name="Grupo 1202402" transform="translate(0.548 32.383)">
          <circle id="Elipse_12298" data-name="Elipse 12298" cx="10.623" cy="10.623" r="10.623" fill="#13bf6d"/>
        </g>
        <path id="Trazado_1041034" data-name="Trazado 1041034" d="M32.654,165.424h0l-2.562-2.585v-.846a2.628,2.628,0,0,0-2.625-2.625h-5.94a2.628,2.628,0,0,0-2.625,2.625v.846l-2.562,2.585h0a1.545,1.545,0,0,0-.448,1.083v.666a3.882,3.882,0,0,0,1.4,2.986v3.92a2.19,2.19,0,0,0,2.188,2.188H29.513a2.19,2.19,0,0,0,2.188-2.188v-3.92a3.882,3.882,0,0,0,1.4-2.986v-.666A1.542,1.542,0,0,0,32.654,165.424Z" transform="translate(-13.326 -125.417)" fill="#139c6e"/>
        <path id="Trazado_1041035" data-name="Trazado 1041035" d="M29.3,192v7.572a.656.656,0,0,0,.656.656H39.989a.656.656,0,0,0,.656-.656V192Z" transform="translate(-23.802 -150.915)" fill="#f0c020"/>
        <path id="Trazado_1041036" data-name="Trazado 1041036" d="M43.688,166.367h-5.94a1.094,1.094,0,0,0-1.094,1.094v1.477h8.128v-1.477A1.094,1.094,0,0,0,43.688,166.367Z" transform="translate(-29.547 -130.886)" fill="#f0c020"/>
        <g id="Grupo_1202403" data-name="Grupo 1202403" transform="translate(0.548 0.547)">
          <path id="Trazado_1041037" data-name="Trazado 1041037" d="M27.916,17.29A10.624,10.624,0,1,1,17.294,6.667,10.566,10.566,0,0,1,27.916,17.29Z" transform="translate(-6.669 -6.667)" fill="#13bf6d"/>
        </g>
        <path id="Trazado_1041038" data-name="Trazado 1041038" d="M33.109,25.946v.912a10.63,10.63,0,0,1-17.209,0v-.914a3.718,3.718,0,0,1,1.82-3.192,3.263,3.263,0,0,1-.1-.818v-1.2a3.357,3.357,0,0,1,2.4-3.216,3.71,3.71,0,0,1,1.236-1.2,3.371,3.371,0,0,1-.105-.82v-1.2a3.355,3.355,0,0,1,6.709,0v1.2a3.371,3.371,0,0,1-.1.82,3.689,3.689,0,0,1,1.236,1.2A3.359,3.359,0,0,1,31.4,20.733v1.2a3.264,3.264,0,0,1-.107.818A3.719,3.719,0,0,1,33.109,25.946Z" transform="translate(-13.333 -9.456)" fill="#139c6e"/>
        <path id="Trazado_1041039" data-name="Trazado 1041039" d="M46.142,48.927H39.069V42.292A2.187,2.187,0,0,1,41.257,40.1h2.7a2.187,2.187,0,0,1,2.188,2.188Z" transform="translate(-31.433 -32.243)" fill="#efefef"/>
        <path id="Trazado_1041040" data-name="Trazado 1041040" d="M27.609,181.155H22.893l3.01-3.038h2.709Z" transform="translate(-18.796 -140.065)" fill="#efefef"/>
        <path id="Trazado_1041041" data-name="Trazado 1041041" d="M49.168,181.155H44.452l1-3.038h2.709Z" transform="translate(-35.639 -140.065)" fill="#fc5d3d"/>
        <path id="Trazado_1041042" data-name="Trazado 1041042" d="M67.143,181.155H62.427l-1-3.038h2.709Z" transform="translate(-48.898 -140.065)" fill="#efefef"/>
        <path id="Trazado_1041043" data-name="Trazado 1041043" d="M25.251,195.028a2.358,2.358,0,0,1-2.358-2.358V192h4.716v.666A2.358,2.358,0,0,1,25.251,195.028Z" transform="translate(-18.796 -150.915)" fill="#afafaf"/>
        <path id="Trazado_1041044" data-name="Trazado 1041044" d="M46.81,195.028a2.358,2.358,0,0,1-2.358-2.358V192h4.716v.666A2.358,2.358,0,0,1,46.81,195.028Z" transform="translate(-35.639 -150.915)" fill="#b25035"/>
        <path id="Trazado_1041045" data-name="Trazado 1041045" d="M68.369,195.028a2.358,2.358,0,0,1-2.358-2.358V192h4.716v.666A2.358,2.358,0,0,1,68.369,195.028Z" transform="translate(-52.482 -150.915)" fill="#afafaf"/>
        <path id="Trazado_1041046" data-name="Trazado 1041046" d="M50.771,218.351H47.3v-2.718a.437.437,0,0,1,.438-.437h2.594a.437.437,0,0,1,.438.438Z" transform="translate(-37.866 -169.033)" fill="#efefef"/>
        <circle id="Elipse_12299" data-name="Elipse 12299" cx="10.623" cy="10.623" r="10.623" transform="translate(32.384 32.383)" fill="#13bf6d"/>
        <path id="Trazado_1041047" data-name="Trazado 1041047" d="M179.158,179.267l-1.289-2.424a1.531,1.531,0,0,0-1.352-.812h-1.811v-1.023a2.19,2.19,0,0,0-2.188-2.188h-8.75a2.19,2.19,0,0,0-2.188,2.188v6.775a2.191,2.191,0,0,0,2.269,2.188,3.262,3.262,0,0,0,5.762,0h2.43a3.26,3.26,0,0,0,5.82-.119,2.19,2.19,0,0,0,1.483-2.069V180a1.573,1.573,0,0,0-.187-.734Z" transform="translate(-127.146 -135.927)" fill="#139c6e"/>
        <path id="Trazado_1041048" data-name="Trazado 1041048" d="M214.653,216.791a1.733,1.733,0,1,0,3.466,0Z" transform="translate(-168.608 -170.279)" fill="#878787"/>
        <path id="Trazado_1041049" data-name="Trazado 1041049" d="M177.2,216.791a1.733,1.733,0,1,0,3.466,0Z" transform="translate(-139.35 -170.279)" fill="#878787"/>
        <path id="Trazado_1041050" data-name="Trazado 1041050" d="M178.643,180.476v7.431h-9.407a.656.656,0,0,1-.656-.656v-6.775a.656.656,0,0,1,.656-.656h8.751A.656.656,0,0,1,178.643,180.476Z" transform="translate(-132.614 -141.396)" fill="#f0c020"/>
        <path id="Trazado_1041051" data-name="Trazado 1041051" d="M219.219,196.936v1.781a.655.655,0,0,1-.656.656h-3.983V194.5h3.343Z" transform="translate(-168.55 -152.862)" fill="#efefef"/>
        <path id="Trazado_1041052" data-name="Trazado 1041052" d="M226.445,196.936h-2.179a.437.437,0,0,1-.438-.437v-2h1.319Z" transform="translate(-175.777 -152.862)" fill="#4ba5c8"/>
        <circle id="Elipse_12300" data-name="Elipse 12300" cx="10.623" cy="10.623" r="10.623" transform="translate(32.384 0.547)" fill="#13bf6d"/>
        <path id="Trazado_1041053" data-name="Trazado 1041053" d="M177.182,27.841,175.79,28.9a1.97,1.97,0,0,0-3.069-.971l-1.3.989V28.26a1.971,1.971,0,0,0-1.969-1.969h-3.028a1.971,1.971,0,0,0-1.969,1.969v8.724a1.971,1.971,0,0,0,1.969,1.969h11.949a1.971,1.971,0,0,0,1.969-1.969V29.408A1.971,1.971,0,0,0,177.182,27.841Z" transform="translate(-129.392 -21.452)" fill="#139c6e"/>
        <path id="Trazado_1041054" data-name="Trazado 1041054" d="M175.36,42.89h-3.465a.437.437,0,0,1-.437-.437V33.729a.437.437,0,0,1,.438-.438h3.028a.437.437,0,0,1,.438.438Z" transform="translate(-134.861 -26.92)" fill="#afafaf"/>
        <path id="Trazado_1041055" data-name="Trazado 1041055" d="M189.3,41.574l3.758-2.86a.437.437,0,0,1,.7.348V40.6a.437.437,0,0,0,.7.348l3.056-2.325a.437.437,0,0,1,.7.348v7.576a.437.437,0,0,1-.437.438H189.3Z" transform="translate(-148.8 -31.018)" fill="#efefef"/>
        <path id="Trazado_1041056" data-name="Trazado 1041056" d="M205.856,66.81h-2.981V64.564a.656.656,0,0,1,.656-.656H205.2a.656.656,0,0,1,.656.656Z" transform="translate(-159.407 -50.84)" fill="#afafaf"/>
        <path id="Trazado_1041057" data-name="Trazado 1041057" d="M175.36,35.558h-3.9V33.73a.437.437,0,0,1,.438-.438h3.028a.437.437,0,0,1,.438.438Z" transform="translate(-134.861 -26.921)" fill="#fc5d3d"/>
        <path id="Trazado_1041058" data-name="Trazado 1041058" d="M188.138,183.549l-1.5-1.077-1.512,1.077V179.82h3.013Z" transform="translate(-145.54 -141.396)" fill="#fc5d3d"/>
        <path id="Trazado_1041059" data-name="Trazado 1041059" d="M32.559,52.228A1.823,1.823,0,0,1,30.736,50.4V49.2a1.823,1.823,0,1,1,3.646,0v1.2A1.823,1.823,0,0,1,32.559,52.228Z" transform="translate(-24.923 -37.927)" fill="#feb69f"/>
        <path id="Trazado_1041060" data-name="Trazado 1041060" d="M29.974,71.735v5.3a10.583,10.583,0,0,1-7.074-2.7V71.735a2.188,2.188,0,0,1,2.188-2.188h2.7A2.188,2.188,0,0,1,29.974,71.735Z" transform="translate(-18.801 -55.245)" fill="#efefef"/>
        <path id="Trazado_1041061" data-name="Trazado 1041061" d="M64.892,52.228A1.823,1.823,0,0,1,63.069,50.4V49.2a1.823,1.823,0,1,1,3.646,0v1.2A1.823,1.823,0,0,1,64.892,52.228Z" transform="translate(-50.183 -37.927)" fill="#feb69f"/>
        <path id="Trazado_1041062" data-name="Trazado 1041062" d="M62.312,71.735V74.34a10.567,10.567,0,0,1-7.072,2.7v-5.3a2.187,2.187,0,0,1,2.188-2.188h2.7A2.188,2.188,0,0,1,62.312,71.735Z" transform="translate(-44.067 -55.245)" fill="#efefef"/>
        <path id="Trazado_1041063" data-name="Trazado 1041063" d="M48.726,22.787A1.823,1.823,0,0,1,46.9,20.964v-1.2a1.823,1.823,0,1,1,3.646,0v1.2A1.823,1.823,0,0,1,48.726,22.787Z" transform="translate(-37.554 -14.926)" fill="#feb69f"/>
        <g id="Grupo_1202404" data-name="Grupo 1202404" transform="translate(21.248 22.137)">
          <path id="Trazado_1041064" data-name="Trazado 1041064" d="M101.842,114.992a.547.547,0,0,1-.547-.547v-5.688a.547.547,0,0,1,1.094,0v5.688A.547.547,0,0,1,101.842,114.992Zm0-7.875a.547.547,0,0,1-.547-.547v-.656a.547.547,0,0,1,1.094,0v.656A.547.547,0,0,1,101.842,107.117Z" transform="translate(-101.295 -105.367)" fill="#f8e5b0"/>
        </g>
        <g id="Grupo_1202405" data-name="Grupo 1202405" transform="translate(31.837 22.137)">
          <path id="Trazado_1041065" data-name="Trazado 1041065" d="M150.251,114.992a.547.547,0,0,1-.547-.547v-.656a.547.547,0,0,1,1.094,0v.656A.547.547,0,0,1,150.251,114.992Zm0-2.844a.547.547,0,0,1-.547-.547v-5.688a.547.547,0,0,1,1.094,0V111.6A.547.547,0,0,1,150.251,112.148Z" transform="translate(-149.704 -105.367)" fill="#f8e5b0"/>
        </g>
        <path id="Trazado_1041066" data-name="Trazado 1041066" d="M92.02,108.067V97.224a1.642,1.642,0,0,1,1.641-1.641h12.46a1.642,1.642,0,0,1,1.641,1.641v10.843a1.642,1.642,0,0,1-1.641,1.641h-4.375a.547.547,0,0,1,0-1.094h4.38a.547.547,0,0,0,.542-.546V97.224a.548.548,0,0,0-.547-.547h-3.469v5.33a.547.547,0,0,1-.935.385l-1.826-1.844-1.826,1.844a.547.547,0,0,1-.935-.385v-5.33H93.661a.548.548,0,0,0-.547.547v10.843a.547.547,0,0,0,.542.546H97.37a.547.547,0,1,1,0,1.094h-3.71A1.642,1.642,0,0,1,92.02,108.067Zm9.538-11.39H98.223v4L99.5,99.385a.547.547,0,0,1,.777,0l1.279,1.292Z" transform="translate(-72.801 -75.586)"/>
        <path id="Trazado_1041067" data-name="Trazado 1041067" d="M10.805,36.968a21.233,21.233,0,0,1-.77-4.878l-.841.841a.547.547,0,0,1-.773-.773l1.608-1.608a21.2,21.2,0,0,1,.761-5.008A11.176,11.176,0,0,1,5.1,10.866a.556.556,0,0,1,.72-.282.55.55,0,0,1,.282.722A10.078,10.078,0,0,0,7.715,21.928v-1.27A2.738,2.738,0,0,1,9.85,17.991a2.355,2.355,0,0,1-.421-1.345v-1.2A2.372,2.372,0,0,1,11.5,13.1a2.744,2.744,0,0,1,1.892-1.544,2.354,2.354,0,0,1-.421-1.346V9a2.37,2.37,0,1,1,4.739,0v1.2a2.356,2.356,0,0,1-.422,1.346A2.745,2.745,0,0,1,19.176,13.1a2.372,2.372,0,0,1,2.066,2.348v1.2a2.356,2.356,0,0,1-.421,1.345,2.738,2.738,0,0,1,2.135,2.666v1.268a9.979,9.979,0,0,0,2.457-6.588A10.087,10.087,0,0,0,15.337,5.262h0A10.042,10.042,0,0,0,8.488,7.948a.547.547,0,1,1-.744-.8,11.126,11.126,0,0,1,7.591-2.977h0a11.182,11.182,0,0,1,10.191,6.608,21.209,21.209,0,0,1,4.86-.766l-.84-.84a.547.547,0,0,1,.773-.773L31.928,10a21.227,21.227,0,0,1,5.051.773A11.168,11.168,0,1,1,51.715,25.539a21.177,21.177,0,0,1,.756,4.823l.838-.838a.547.547,0,0,1,.773.773L52.477,31.9a21.252,21.252,0,0,1-.774,5.059,11.14,11.14,0,0,1,1.749.972.548.548,0,0,1-.617.906A10.018,10.018,0,0,0,47.171,37.1h0A10.077,10.077,0,1,0,57.248,47.181s0,0,0-.007A10.051,10.051,0,0,0,55.7,41.8a.546.546,0,0,1,.171-.755.558.558,0,0,1,.755.171,11.133,11.133,0,0,1,1.717,5.945s0,.007,0,.01a11.168,11.168,0,0,1-21.386,4.511,21.2,21.2,0,0,1-4.84.76l.839.839a.547.547,0,0,1-.774.773l-1.607-1.607a21.229,21.229,0,0,1-5.024-.766A11.168,11.168,0,1,1,10.805,36.968ZM25.412,47.175A10.077,10.077,0,1,0,15.335,57.252,10.088,10.088,0,0,0,25.412,47.175ZM37.095,15.338A10.077,10.077,0,1,0,47.172,5.262,10.088,10.088,0,0,0,37.095,15.338ZM20.221,19.017h-2.7a1.642,1.642,0,0,0-1.641,1.641V25.4a10.01,10.01,0,0,0,5.978-2.388V20.657A1.643,1.643,0,0,0,20.221,19.017Zm-1.349-4.849A1.277,1.277,0,0,0,17.6,15.443v1.2a1.276,1.276,0,1,0,2.552,0v-1.2A1.277,1.277,0,0,0,18.872,14.167ZM14.06,10.206a1.276,1.276,0,0,0,2.552,0V9A1.276,1.276,0,1,0,14.06,9Zm-1.387,3.036a2.372,2.372,0,0,1,1.5,2.2v1.2a2.355,2.355,0,0,1-.421,1.345,2.736,2.736,0,0,1,1.588,1.033,2.737,2.737,0,0,1,1.587-1.032,2.355,2.355,0,0,1-.421-1.345v-1.2a2.372,2.372,0,0,1,1.5-2.2,1.643,1.643,0,0,0-1.315-.666h-2.7a1.643,1.643,0,0,0-1.315.666Zm-2.149,3.4a1.276,1.276,0,0,0,2.552,0v-1.2a1.276,1.276,0,0,0-2.552,0ZM8.809,20.657v2.355A10.043,10.043,0,0,0,14.79,25.4V20.657a1.642,1.642,0,0,0-1.641-1.641h-2.7A1.642,1.642,0,0,0,8.809,20.657Zm3.02,15.914a11.165,11.165,0,0,1,14.116,14.09,20.151,20.151,0,0,0,4.652.7l1.584-1.584a.547.547,0,1,1,.773.773l-.8.8a20.128,20.128,0,0,0,4.407-.687A11.165,11.165,0,0,1,47.171,36h0a11.181,11.181,0,0,1,3.5.562,20.169,20.169,0,0,0,.706-4.684L49.8,30.3a.547.547,0,1,1,.773-.773l.8.8a20.087,20.087,0,0,0-.683-4.389A11.164,11.164,0,0,1,36.579,11.8a20.131,20.131,0,0,0-4.673-.7l-1.584,1.584a.547.547,0,0,1-.773-.773l.8-.8a20.13,20.13,0,0,0-4.421.692A11.17,11.17,0,0,1,11.814,25.94a20.122,20.122,0,0,0-.692,4.634l1.583,1.583a.547.547,0,0,1-.773.773l-.8-.8a20.17,20.17,0,0,0,.7,4.44Z" transform="translate(-4.164 -4.168)"/>
        <path id="Trazado_1041068" data-name="Trazado 1041068" d="M35.634,170.022v.666a2.9,2.9,0,0,1-1.4,2.481v4.424a1.2,1.2,0,0,1-1.2,1.2H23a1.2,1.2,0,0,1-1.2-1.2v-4.424a2.9,2.9,0,0,1-1.4-2.481v-.666a.568.568,0,0,1,.156-.382l0,0,2.852-2.878v-1.251a1.642,1.642,0,0,1,1.641-1.641h5.94a1.642,1.642,0,0,1,1.641,1.641v1.251l2.852,2.878,0,0a.566.566,0,0,1,.156.382Zm-5.81.547H26.2v.119a1.811,1.811,0,0,0,3.622,0Zm-2.77-3.038-.642,1.944h3.2l-.642-1.944Zm6.721,1.944-1.926-1.944H30.124l.642,1.944ZM24.5,166.437H31.53v-.93a.548.548,0,0,0-.547-.547h-5.94a.548.548,0,0,0-.547.547Zm-2.245,3.038H25.26l.642-1.944H24.177Zm-.765,1.213a1.811,1.811,0,0,0,3.622,0v-.119H21.486Zm7.715,4.954H26.825V177.7H29.2Zm3.937-2.082a2.886,2.886,0,0,1-2.767-1.183,2.9,2.9,0,0,1-4.716,0,2.857,2.857,0,0,1-2.768,1.183v4.033A.109.109,0,0,0,23,177.7h2.735v-2.17a.986.986,0,0,1,.984-.984H29.31a.986.986,0,0,1,.984.984v2.17h2.734a.109.109,0,0,0,.109-.109Zm1.4-2.992H30.918v.119a1.811,1.811,0,0,0,3.622,0Z" transform="translate(-16.842 -128.933)"/>
        <path id="Trazado_1041069" data-name="Trazado 1041069" d="M177.235,178.521v2.007h2.795a.547.547,0,0,1,.483.29l1.3,2.439c0,.005,0,.012.007.017a.509.509,0,0,1,.032.084c0,.011.007.021.01.032a.546.546,0,0,1,.015.123V185.3a1.2,1.2,0,0,1-1.2,1.2h-.023a2.276,2.276,0,0,1-4.422,0h-3.771a2.276,2.276,0,0,1-4.422,0h-.752a1.2,1.2,0,0,1-1.2-1.2v-6.775a1.2,1.2,0,0,1,1.2-1.2h8.75A1.2,1.2,0,0,1,177.235,178.521Zm-6.444-.109v2.121l.648-.461a.547.547,0,0,1,.636,0l.635.456v-2.117h-1.919Zm-3.51,6.994h8.859v-4.33s0,0,0-.005v-2.549a.109.109,0,0,0-.109-.109H173.8v3.182a.547.547,0,0,1-.866.445l-1.183-.849-1.193.85a.547.547,0,0,1-.864-.446v-3.182h-2.416a.109.109,0,0,0-.109.109V185.3a.109.109,0,0,0,.109.109ZM171.3,186.5h-2.105a1.185,1.185,0,0,0,2.105,0Zm8.192,0h-2.105a1.185,1.185,0,0,0,2.105,0Zm.212-4.877h-.444v1.345h1.159Zm-2.466,0v3.782h3.436a.108.108,0,0,0,.109-.109v-1.234h-1.632a.986.986,0,0,1-.984-.984v-1.455Z" transform="translate(-130.659 -139.441)"/>
        <path id="Trazado_1041070" data-name="Trazado 1041070" d="M168.957,40.5V31.775a.986.986,0,0,1,.984-.984h3.028a.986.986,0,0,1,.984.984V34.42l2.88-2.192a.985.985,0,0,1,1.58.783v1.32l2.88-2.192a.985.985,0,0,1,1.58.783V40.5a.986.986,0,0,1-.984.984H169.941A.985.985,0,0,1,168.957,40.5Zm1.094-.109h2.809V34.151h-2.809Zm8.76,0v-1.7a.109.109,0,0,0-.109-.109h-1.669a.109.109,0,0,0-.109.109v1.7Zm-4.857-4.6v4.6h1.876v-1.7a1.2,1.2,0,0,1,1.2-1.2H178.7a1.2,1.2,0,0,1,1.2,1.2v1.7h1.876V33.144l-2.88,2.192a.985.985,0,0,1-1.581-.783v-1.32Zm-3.9-2.737h2.809V31.885h-2.809Z" transform="translate(-132.908 -24.967)"/>
        <path id="Trazado_1041071" data-name="Trazado 1041071" d="M13.239,24.855A.564.564,0,0,1,14,24.726a.547.547,0,1,1-.763.129Z" transform="translate(-11.175 -20.154)"/>
        <circle id="Elipse_12301" data-name="Elipse 12301" cx="0.547" cy="0.547" r="0.547" transform="translate(26.21 33.027)"/>
        <path id="Trazado_1041072" data-name="Trazado 1041072" d="M233.351,165.479a.546.546,0,0,1,.013-.772.561.561,0,0,1,.774.013l0,0a.547.547,0,0,1-.79.757Z" transform="translate(-183.096 -129.472)"/>
      </g>
    </g>
  </g>
</svg>
