<svg xmlns="http://www.w3.org/2000/svg" xmlns:xlink="http://www.w3.org/1999/xlink" width="93.934" height="93.934" viewBox="0 0 93.934 93.934">
  <defs>
    <filter id="Trazado_982547" x="0" y="0" width="93.934" height="93.934" filterUnits="userSpaceOnUse">
      <feOffset dy="3" input="SourceAlpha"/>
      <feGaussianBlur stdDeviation="3" result="blur"/>
      <feFlood flood-opacity="0.161"/>
      <feComposite operator="in" in2="blur"/>
      <feComposite in="SourceGraphic"/>
    </filter>
  </defs>
  <g id="Grupo_1202596" data-name="Grupo 1202596" transform="translate(-823.033 -7923.419)">
    <g id="Grupo_1202395" data-name="Grupo 1202395" transform="translate(634 6910.419)">
      <g id="Grupo_1176309" data-name="Grupo 1176309" transform="translate(0 -973)">
        <g id="Grupo_1172970" data-name="Grupo 1172970" transform="translate(-1 -9042)">
          <g id="Grupo_1171971" data-name="Grupo 1171971" transform="translate(199.033 11034)">
            <g id="Grupo_1167337" data-name="Grupo 1167337" transform="translate(0)">
              <g id="Grupo_1166720" data-name="Grupo 1166720">
                <g id="Grupo_1164305" data-name="Grupo 1164305">
                  <g id="Grupo_1163948" data-name="Grupo 1163948">
                    <g id="Grupo_1158168" data-name="Grupo 1158168">
                      <g id="Grupo_1152576" data-name="Grupo 1152576">
                        <g id="Grupo_1148633" data-name="Grupo 1148633">
                          <g id="Grupo_1148525" data-name="Grupo 1148525">
                            <g transform="matrix(1, 0, 0, 1, -9, -6)" filter="url(#Trazado_982547)">
                              <g id="Trazado_982547-2" data-name="Trazado 982547" transform="translate(9 6)" fill="#f2f7e5">
                                <path d="M 37.966796875 74.43359375 C 33.04315185546875 74.43359375 28.26757431030273 73.46962738037109 23.77274131774902 71.56847381591797 C 19.43047523498535 69.73184967041016 15.53040790557861 67.10224914550781 12.18087482452393 63.75271987915039 C 8.831341743469238 60.4031867980957 6.201741218566895 56.50312042236328 4.365118980407715 52.16086196899414 C 2.463963508605957 47.66601943969727 1.499996900558472 42.89044189453125 1.499996900558472 37.966796875 C 1.499996900558472 33.04315185546875 2.463963508605957 28.26757431030273 4.365118980407715 23.77274131774902 C 6.201741218566895 19.43047523498535 8.831341743469238 15.53040790557861 12.18087482452393 12.18087482452393 C 15.53040790557861 8.831341743469238 19.43047523498535 6.201741218566895 23.77274131774902 4.365118980407715 C 28.26757431030273 2.463963508605957 33.04315185546875 1.499996900558472 37.966796875 1.499996900558472 C 42.89044189453125 1.499996900558472 47.66601943969727 2.463963508605957 52.16086196899414 4.365118980407715 C 56.50312042236328 6.201741218566895 60.4031867980957 8.831341743469238 63.75271987915039 12.18087482452393 C 67.10224914550781 15.53040790557861 69.73184967041016 19.43047523498535 71.56847381591797 23.77274131774902 C 73.46962738037109 28.26757431030273 74.43359375 33.04315185546875 74.43359375 37.966796875 C 74.43359375 42.89044189453125 73.46962738037109 47.66601943969727 71.56847381591797 52.16086196899414 C 69.73184967041016 56.50313186645508 67.10224914550781 60.4031867980957 63.75271987915039 63.75271987915039 C 60.4031867980957 67.10224914550781 56.50313186645508 69.73184967041016 52.16086196899414 71.56847381591797 C 47.66601943969727 73.46962738037109 42.89044189453125 74.43359375 37.966796875 74.43359375 Z" stroke="none"/>
                                <path d="M 37.966796875 3 C 33.2449836730957 3 28.66600799560547 3.924095153808594 24.35705947875977 5.746635437011719 C 20.19359588623047 7.507637023925781 16.45379638671875 10.02928161621094 13.24153518676758 13.24153518676758 C 10.02927398681641 16.45379638671875 7.507621765136719 20.19359588623047 5.746635437011719 24.35705947875977 C 3.924095153808594 28.66600799560547 3 33.2449836730957 3 37.966796875 C 3 42.6886100769043 3.924095153808594 47.26758575439453 5.746635437011719 51.57653427124023 C 7.507621765136719 55.73999786376953 10.02927398681641 59.47979736328125 13.24153518676758 62.69205856323242 C 16.45379638671875 65.90431976318359 20.19359588623047 68.42597198486328 24.35705947875977 70.18695831298828 C 28.66600799560547 72.00949859619141 33.2449836730957 72.93359375 37.966796875 72.93359375 C 42.6886100769043 72.93359375 47.26758575439453 72.00949859619141 51.57653427124023 70.18695831298828 C 55.73999786376953 68.42597198486328 59.47979736328125 65.90431976318359 62.69205856323242 62.69205856323242 C 65.90431976318359 59.47979736328125 68.42597198486328 55.73999786376953 70.18695831298828 51.57653427124023 C 72.00949859619141 47.26758575439453 72.93359375 42.6886100769043 72.93359375 37.966796875 C 72.93359375 33.2449836730957 72.00949859619141 28.66600799560547 70.18695831298828 24.35705947875977 C 68.42597198486328 20.19359588623047 65.90431976318359 16.45379638671875 62.69205856323242 13.24153518676758 C 59.47979736328125 10.02928161621094 55.73999786376953 7.507637023925781 51.57653427124023 5.746635437011719 C 47.26758575439453 3.924095153808594 42.6886100769043 3 37.966796875 3 M 37.966796875 0 C 58.93528366088867 0 75.93359375 16.99832153320312 75.93359375 37.966796875 C 75.93359375 58.93528366088867 58.93528366088867 75.93359375 37.966796875 75.93359375 C 16.99831008911133 75.93359375 0 58.93528366088867 0 37.966796875 C 0 16.99832153320312 16.99831008911133 0 37.966796875 0 Z" stroke="none" fill="#1d7083"/>
                              </g>
                            </g>
                          </g>
                        </g>
                      </g>
                    </g>
                  </g>
                </g>
              </g>
            </g>
          </g>
        </g>
      </g>
    </g>
    <g id="disagreement_9066971" transform="translate(840.5 7937.886)">
      <path id="Trazado_1041661" data-name="Trazado 1041661" d="M243.219,405.406h-2.75v-8.25l1.375-1.375,1.375,1.375Z" transform="translate(-212.344 -353.906)" fill="#c2bce0"/>
      <path id="Trazado_1041662" data-name="Trazado 1041662" d="M8,18.17a8.841,8.841,0,0,1-.5-2.922V13a5.5,5.5,0,0,1,10.827-1.375Z" fill="#6354b1"/>
      <path id="Trazado_1041663" data-name="Trazado 1041663" d="M76.978,11.484v2.529l3.368-2.134a5.5,5.5,0,0,0-4.8-4.1A5.48,5.48,0,0,1,76.978,11.484Z" transform="translate(-62.019 -0.254)" fill="#54469c"/>
      <path id="Trazado_1041664" data-name="Trazado 1041664" d="M390.754,18.17a8.841,8.841,0,0,0,.5-2.922V13a5.5,5.5,0,0,0-5.5-5.5h0a5.5,5.5,0,0,0-5.5,5.5v.55Z" transform="translate(-339.75)" fill="#fee903"/>
      <path id="Trazado_1041665" data-name="Trazado 1041665" d="M448.292,7.778a5.48,5.48,0,0,1,1.435,3.7v2.248a8.843,8.843,0,0,1-.562,3.106l3.608,1.587a8.841,8.841,0,0,0,.5-2.922V13.253A5.5,5.5,0,0,0,448.292,7.778Z" transform="translate(-401.768 -0.253)" fill="#f4d902"/>
      <path id="Trazado_1041666" data-name="Trazado 1041666" d="M19.875,357.438l-5.5,1.375L7.5,357.438v-8.25H19.875Z" transform="translate(0 -311.438)" fill="#e3ca00"/>
      <path id="Trazado_1041667" data-name="Trazado 1041667" d="M364.719,357.438l5.5,1.375,6.875-1.375v-8.25H364.719Z" transform="translate(-325.594 -311.438)" fill="#e41f2d"/>
      <path id="Trazado_1041668" data-name="Trazado 1041668" d="M302.594,447.875h14.334a3.541,3.541,0,0,0,3.541-3.541v-1.959H305.693a3.1,3.1,0,0,0-3.1,3.1Z" transform="translate(-268.969 -396.375)" fill="#6e61b6"/>
      <path id="Trazado_1041669" data-name="Trazado 1041669" d="M166.938,318.125h-2.75l-1.375,2.75,1.375,2.75h5.849v-2.4A3.1,3.1,0,0,0,166.938,318.125Z" transform="translate(-141.563 -283.125)" fill="#fff3de"/>
      <path id="Trazado_1041670" data-name="Trazado 1041670" d="M16.727,56.543V54.979a.885.885,0,0,1,.885-.885h5.816a5.508,5.508,0,0,1,.173,1.375v2.75l.76,1.52a.85.85,0,0,1-.76,1.23v2.063a3.44,3.44,0,0,1-4.709,3.194h0l-.715-.285a8.853,8.853,0,0,1-5.08-5.3l2.235-1.49A3.131,3.131,0,0,0,16.727,56.543Z" transform="translate(-5.102 -42.469)" fill="#fff3de"/>
      <path id="Trazado_1041671" data-name="Trazado 1041671" d="M19.875,233.187v-2.938a5.312,5.312,0,0,0-5.312-5.312H10.6a3.1,3.1,0,0,0-3.1,3.1v8a2.656,2.656,0,0,0,2.656,2.656H22.625v-5.5h-2.75Z" transform="translate(0 -198.187)" fill="#fee903"/>
      <path id="Trazado_1041672" data-name="Trazado 1041672" d="M172.124,318.164a3.087,3.087,0,0,1,.3,1.325v.58a1.821,1.821,0,0,1-1.821,1.821h-2.257l.885,1.771h5.849v-2.4A3.1,3.1,0,0,0,172.124,318.164Z" transform="translate(-146.603 -283.161)" fill="#ffe5c2"/>
      <path id="Trazado_1041673" data-name="Trazado 1041673" d="M9.207,360.25a2.657,2.657,0,0,0,2.5,1.771H24.181V360.25Z" transform="translate(-1.556 -321.521)" fill="#f4d902"/>
      <path id="Trazado_1041674" data-name="Trazado 1041674" d="M270.693,318.125h2.75l1.375,2.75-1.375,2.75h-5.849v-2.4A3.1,3.1,0,0,1,270.693,318.125Z" transform="translate(-237.068 -283.125)" fill="#ffeee6"/>
      <path id="Trazado_1041675" data-name="Trazado 1041675" d="M267.594,360.25v1.771h5.849l.885-1.771Z" transform="translate(-237.068 -321.521)" fill="#ffdfcf"/>
      <path id="Trazado_1041676" data-name="Trazado 1041676" d="M336.406,233.187v-2.938a5.312,5.312,0,0,1,5.312-5.312h3.965a3.1,3.1,0,0,1,3.1,3.1v8a2.656,2.656,0,0,1-2.656,2.656H333.656v-5.5h2.75Z" transform="translate(-297.281 -198.187)" fill="#fd4755"/>
      <path id="Trazado_1041677" data-name="Trazado 1041677" d="M345.682,224.938h-.741a3.086,3.086,0,0,1,.3,1.328v6.174a4.477,4.477,0,0,1-4.477,4.477h-7.107v1.771h12.469a2.656,2.656,0,0,0,2.656-2.656v-8A3.1,3.1,0,0,0,345.682,224.938Z" transform="translate(-297.281 -198.188)" fill="#fb2b3a"/>
      <rect id="Rectángulo_416683" data-name="Rectángulo 416683" width="33" height="2.75" transform="translate(13 40.5)" fill="#fe9738"/>
      <path id="Trazado_1041678" data-name="Trazado 1041678" d="M25.375,447.875H11.041A3.541,3.541,0,0,1,7.5,444.334v-1.959H22.276a3.1,3.1,0,0,1,3.1,3.1Z" transform="translate(0 -396.375)" fill="#01c0fa"/>
      <path id="Trazado_1041679" data-name="Trazado 1041679" d="M378.365,49.93v-.778a1.327,1.327,0,0,0-.14-.594l-.38-.759a1.771,1.771,0,0,0-2.495-.726l-3.86,2.316v2.2l-.76,1.52a.85.85,0,0,0,.76,1.23V56.4A3.44,3.44,0,0,0,376.2,59.6h0l.715-.285a8.849,8.849,0,0,0,4.592-4.169h0l0-.006h0a8.847,8.847,0,0,0,.485-1.128l-2.25-1.5A3.1,3.1,0,0,1,378.365,49.93Z" transform="translate(-330.99 -35.838)" fill="#ffeee6"/>
      <path id="Trazado_1041680" data-name="Trazado 1041680" d="M53.41,59.739l-.76-1.52v-2.75a5.512,5.512,0,0,0-.173-1.375H49.109v7.167a3.44,3.44,0,0,1-4.142,3.365,8.844,8.844,0,0,0,2.259,1.315l.715.285h0a3.439,3.439,0,0,0,4.709-3.194V60.969A.85.85,0,0,0,53.41,59.739Z" transform="translate(-34.15 -42.469)" fill="#ffe5c2"/>
      <path id="Trazado_1041681" data-name="Trazado 1041681" d="M394.971,100.69l-2.25-1.5a3.1,3.1,0,0,1-1.033-1.155,8.838,8.838,0,0,1-.743,2.011h0l0,.006h0a8.848,8.848,0,0,1-4.592,4.169l-.715.285h0a3.412,3.412,0,0,1-.759.2,3.442,3.442,0,0,0,4.3,1.566h0l.715-.285a8.849,8.849,0,0,0,4.592-4.169h0l0-.006h0A8.847,8.847,0,0,0,394.971,100.69Z" transform="translate(-343.966 -82.521)" fill="#ffdfcf"/>
      <path id="Trazado_1041682" data-name="Trazado 1041682" d="M196.714,100.688h-8.834a1.771,1.771,0,0,0-1.771,1.771v8.834a1.771,1.771,0,0,0,1.771,1.771h3.042l1.375,1.375,1.375-1.375h3.042a1.771,1.771,0,0,0,1.771-1.771v-8.834A1.771,1.771,0,0,0,196.714,100.688Z" transform="translate(-162.797 -84.938)" fill="#fd4755"/>
      <path id="Trazado_1041683" data-name="Trazado 1041683" d="M196.714,100.688h-1.771v7.351a3.254,3.254,0,0,1-3.254,3.254h-5.58a1.771,1.771,0,0,0,1.771,1.771h3.042l1.375,1.375,1.375-1.375h3.042a1.771,1.771,0,0,0,1.771-1.771v-8.834A1.771,1.771,0,0,0,196.714,100.688Z" transform="translate(-162.797 -84.938)" fill="#fb2b3a"/>
      <path id="Trazado_1041684" data-name="Trazado 1041684" d="M223.785,136.341l-1.162-1.162,1.162-1.162a1.107,1.107,0,0,0,0-1.565l-.38-.38a1.107,1.107,0,0,0-1.565,0l-1.162,1.162-1.162-1.162a1.107,1.107,0,0,0-1.565,0l-.38.38a1.107,1.107,0,0,0,0,1.565l1.162,1.162-1.162,1.162a1.107,1.107,0,0,0,0,1.565l.38.38a1.107,1.107,0,0,0,1.565,0l1.162-1.162,1.162,1.162a1.107,1.107,0,0,0,1.565,0l.38-.38A1.107,1.107,0,0,0,223.785,136.341Z" transform="translate(-191.178 -113.249)" fill="#fff"/>
      <path id="Trazado_1041685" data-name="Trazado 1041685" d="M276.736,180.833l.38-.38a1.107,1.107,0,0,0,0-1.565l-.46-.46v.468a3.242,3.242,0,0,1-.9,2.243A1.105,1.105,0,0,0,276.736,180.833Z" transform="translate(-244.509 -155.796)" fill="#f2fbff"/>
      <path id="Trazado_1041686" data-name="Trazado 1041686" d="M285.971,134.657q-.039-.039-.081-.073v2.478l.46-.46a1.107,1.107,0,0,0,0-1.565Z" transform="translate(-253.744 -115.833)" fill="#f2fbff"/>
      <path id="Trazado_1041687" data-name="Trazado 1041687" d="M198.485,107.563v3.729a1.771,1.771,0,0,1-1.771,1.771h-3.042l-1.375,1.375-1.375-1.375h-3.042a1.771,1.771,0,0,1-1.771-1.771v-8.834a1.771,1.771,0,0,1,1.771-1.771h8.834a1.771,1.771,0,0,1,1.771,1.771v2.006" transform="translate(-162.797 -84.938)" fill="none" stroke="#000" stroke-linecap="round" stroke-linejoin="round" stroke-miterlimit="10" stroke-width="1.5"/>
      <line id="Línea_877" data-name="Línea 877" y1="2.75" transform="translate(28.125 43.25)" fill="none" stroke="#000" stroke-linecap="round" stroke-linejoin="round" stroke-miterlimit="10" stroke-width="1.5"/>
      <path id="Trazado_1041688" data-name="Trazado 1041688" d="M243.219,411.312v8.25h-2.75v-2.4" transform="translate(-212.344 -368.062)" fill="none" stroke="#000" stroke-linecap="round" stroke-linejoin="round" stroke-miterlimit="10" stroke-width="1.5"/>
      <path id="Trazado_1041689" data-name="Trazado 1041689" d="M302.594,447.875h14.334a3.541,3.541,0,0,0,3.541-3.541v-1.959H305.693a3.1,3.1,0,0,0-3.1,3.1Z" transform="translate(-268.969 -396.375)" fill="none" stroke="#000" stroke-linecap="round" stroke-linejoin="round" stroke-miterlimit="10" stroke-width="1.5"/>
      <path id="Trazado_1041690" data-name="Trazado 1041690" d="M25.375,447.875H11.041A3.541,3.541,0,0,1,7.5,444.334v-1.959H22.276a3.1,3.1,0,0,1,3.1,3.1Z" transform="translate(0 -396.375)" fill="none" stroke="#000" stroke-linecap="round" stroke-linejoin="round" stroke-miterlimit="10" stroke-width="1.5"/>
      <path id="Trazado_1041691" data-name="Trazado 1041691" d="M8,18.17a8.841,8.841,0,0,1-.5-2.922V13a5.5,5.5,0,0,1,10.827-1.375" fill="none" stroke="#000" stroke-linecap="round" stroke-linejoin="round" stroke-miterlimit="10" stroke-width="1.5"/>
      <path id="Trazado_1041692" data-name="Trazado 1041692" d="M390.754,18.17a8.841,8.841,0,0,0,.5-2.922V13a5.5,5.5,0,0,0-5.5-5.5h0a5.5,5.5,0,0,0-5.5,5.5v.55" transform="translate(-339.75)" fill="none" stroke="#000" stroke-linecap="round" stroke-linejoin="round" stroke-miterlimit="10" stroke-width="1.5"/>
      <line id="Línea_878" data-name="Línea 878" y2="2.75" transform="translate(19.875 43.25)" fill="none" stroke="#000" stroke-linecap="round" stroke-linejoin="round" stroke-miterlimit="10" stroke-width="1.5"/>
      <line id="Línea_879" data-name="Línea 879" y1="8.25" transform="translate(7.5 37.75)" fill="none" stroke="#000" stroke-linecap="round" stroke-linejoin="round" stroke-miterlimit="10" stroke-width="1.5"/>
      <line id="Línea_880" data-name="Línea 880" y2="2.75" transform="translate(39.125 43.25)" fill="none" stroke="#000" stroke-linecap="round" stroke-linejoin="round" stroke-miterlimit="10" stroke-width="1.5"/>
      <path id="Trazado_1041693" data-name="Trazado 1041693" d="M178.344,323.625h5.849v-2.4a3.1,3.1,0,0,0-3.1-3.1h-2.75" transform="translate(-155.719 -283.125)" fill="none" stroke="#000" stroke-linecap="round" stroke-linejoin="round" stroke-miterlimit="10" stroke-width="1.5"/>
      <path id="Trazado_1041694" data-name="Trazado 1041694" d="M79.25,289.813H69.625v-2.75" transform="translate(-56.625 -254.813)" fill="none" stroke="#000" stroke-linecap="round" stroke-linejoin="round" stroke-miterlimit="10" stroke-width="1.5"/>
      <path id="Trazado_1041695" data-name="Trazado 1041695" d="M16.727,56.543V54.979a.885.885,0,0,1,.885-.885h5.816a5.508,5.508,0,0,1,.173,1.375v2.75l.76,1.52a.85.85,0,0,1-.76,1.23v2.063a3.44,3.44,0,0,1-4.709,3.194h0l-.715-.285a8.853,8.853,0,0,1-5.08-5.3l2.235-1.49A3.131,3.131,0,0,0,16.727,56.543Z" transform="translate(-5.102 -42.469)" fill="none" stroke="#000" stroke-linecap="round" stroke-linejoin="round" stroke-miterlimit="10" stroke-width="1.5"/>
      <path id="Trazado_1041696" data-name="Trazado 1041696" d="M19.875,233.187v-2.938a5.312,5.312,0,0,0-5.312-5.312H10.6a3.1,3.1,0,0,0-3.1,3.1v8a2.656,2.656,0,0,0,2.656,2.656H22.625v-5.5h-2.75Z" transform="translate(0 -198.187)" fill="none" stroke="#000" stroke-linecap="round" stroke-linejoin="round" stroke-miterlimit="10" stroke-width="1.5"/>
      <path id="Trazado_1041697" data-name="Trazado 1041697" d="M273.443,323.625h-5.849v-2.4a3.1,3.1,0,0,1,3.1-3.1h2.75" transform="translate(-237.068 -283.125)" fill="none" stroke="#000" stroke-linecap="round" stroke-linejoin="round" stroke-miterlimit="10" stroke-width="1.5"/>
      <path id="Trazado_1041698" data-name="Trazado 1041698" d="M333.656,289.813h9.625v-2.75" transform="translate(-297.281 -254.813)" fill="none" stroke="#000" stroke-linecap="round" stroke-linejoin="round" stroke-miterlimit="10" stroke-width="1.5"/>
      <path id="Trazado_1041699" data-name="Trazado 1041699" d="M337.781,238.687h-4.125v-5.5h2.75v-2.938a5.312,5.312,0,0,1,5.312-5.312h3.965a3.1,3.1,0,0,1,3.1,3.1v8a2.656,2.656,0,0,1-2.656,2.656H340.88" transform="translate(-297.281 -198.187)" fill="none" stroke="#000" stroke-linecap="round" stroke-linejoin="round" stroke-miterlimit="10" stroke-width="1.5"/>
      <path id="Trazado_1041700" data-name="Trazado 1041700" d="M102.625,380.25V383h-33v-2.75" transform="translate(-56.625 -339.75)" fill="none" stroke="#000" stroke-linecap="round" stroke-linejoin="round" stroke-miterlimit="10" stroke-width="1.5"/>
      <path id="Trazado_1041701" data-name="Trazado 1041701" d="M378.365,49.93v-.778a1.327,1.327,0,0,0-.14-.594l-.38-.759a1.771,1.771,0,0,0-2.495-.726l-3.86,2.316v2.2l-.76,1.52a.85.85,0,0,0,.76,1.23V56.4A3.44,3.44,0,0,0,376.2,59.6h0l.715-.285a8.849,8.849,0,0,0,4.592-4.169h0l0-.006h0a8.847,8.847,0,0,0,.485-1.128l-2.25-1.5A3.1,3.1,0,0,1,378.365,49.93Z" transform="translate(-330.99 -35.838)" fill="none" stroke="#000" stroke-linecap="round" stroke-linejoin="round" stroke-miterlimit="10" stroke-width="1.5"/>
      <line id="Línea_881" data-name="Línea 881" y1="8.25" transform="translate(51.5 37.75)" fill="none" stroke="#000" stroke-linecap="round" stroke-linejoin="round" stroke-miterlimit="10" stroke-width="1.5"/>
      <path id="Trazado_1041702" data-name="Trazado 1041702" d="M223.785,136.341l-1.162-1.162,1.162-1.162a1.107,1.107,0,0,0,0-1.565l-.38-.38a1.107,1.107,0,0,0-1.565,0l-1.162,1.162-1.162-1.162a1.107,1.107,0,0,0-1.565,0l-.38.38a1.107,1.107,0,0,0,0,1.565l1.162,1.162-1.162,1.162a1.107,1.107,0,0,0,0,1.565l.38.38a1.107,1.107,0,0,0,1.565,0l1.162-1.162,1.162,1.162a1.107,1.107,0,0,0,1.565,0l.38-.38A1.107,1.107,0,0,0,223.785,136.341Z" transform="translate(-191.178 -113.249)" fill="none" stroke="#000" stroke-linecap="round" stroke-linejoin="round" stroke-miterlimit="10" stroke-width="1.5"/>
      <line id="Línea_882" data-name="Línea 882" x2="2.053" transform="translate(28.474 40.5)" fill="none" stroke="#000" stroke-linecap="round" stroke-linejoin="round" stroke-miterlimit="10" stroke-width="1.5"/>
    </g>
  </g>
</svg>
