<svg xmlns="http://www.w3.org/2000/svg" xmlns:xlink="http://www.w3.org/1999/xlink" width="103" height="103" viewBox="0 0 103 103">
  <defs>
    <filter id="Trazado_982547" x="0" y="0" width="103" height="103" filterUnits="userSpaceOnUse">
      <feOffset dy="3" input="SourceAlpha"/>
      <feGaussianBlur stdDeviation="3" result="blur"/>
      <feFlood flood-opacity="0.161"/>
      <feComposite operator="in" in2="blur"/>
      <feComposite in="SourceGraphic"/>
    </filter>
  </defs>
  <g id="Grupo_1202409" data-name="Grupo 1202409" transform="translate(-1031 -575)">
    <g id="Grupo_1202209" data-name="Grupo 1202209" transform="translate(760 -295.414)">
      <g id="Grupo_1174813" data-name="Grupo 1174813" transform="translate(280 876.414)">
        <g id="Grupo_1201680" data-name="Grupo 1201680">
          <g id="Grupo_1201330" data-name="Grupo 1201330">
            <g id="Grupo_1172010" data-name="Grupo 1172010">
              <g id="Grupo_1171046" data-name="Grupo 1171046">
                <g id="Grupo_1148525" data-name="Grupo 1148525">
                  <g transform="matrix(1, 0, 0, 1, -9, -6)" filter="url(#Trazado_982547)">
                    <g id="Trazado_982547-2" data-name="Trazado 982547" transform="translate(9 6)" fill="#f2f7e5">
                      <path d="M 42.5 83.5 C 36.96437835693359 83.5 31.59512901306152 82.41617584228516 26.54141235351562 80.27863311767578 C 21.65934181213379 78.21369171142578 17.27447128295898 75.25723266601562 13.50862312316895 71.49137878417969 C 9.742764472961426 67.72553253173828 6.786305904388428 63.34066009521484 4.721364498138428 58.45858764648438 C 2.583823442459106 53.40486907958984 1.5 48.03562164306641 1.5 42.5 C 1.5 36.96437835693359 2.583823442459106 31.59512901306152 4.721364498138428 26.54141235351562 C 6.786305904388428 21.65934181213379 9.742764472961426 17.27448272705078 13.50862312316895 13.50862312316895 C 17.27447128295898 9.742776870727539 21.65934181213379 6.786305904388428 26.54141235351562 4.721364498138428 C 31.59512901306152 2.583823442459106 36.96437835693359 1.5 42.5 1.5 C 48.03562164306641 1.5 53.40486907958984 2.583823442459106 58.45858764648438 4.721364498138428 C 63.34066009521484 6.786305904388428 67.72553253173828 9.742776870727539 71.49137878417969 13.50862312316895 C 75.25723266601562 17.27448272705078 78.21369171142578 21.65934181213379 80.27863311767578 26.54141235351562 C 82.41617584228516 31.59512901306152 83.5 36.96437835693359 83.5 42.5 C 83.5 48.03562164306641 82.41617584228516 53.40486907958984 80.27863311767578 58.45858764648438 C 78.21369171142578 63.34066009521484 75.25723266601562 67.72553253173828 71.49137878417969 71.49137878417969 C 67.72553253173828 75.25723266601562 63.34066009521484 78.21369171142578 58.45858764648438 80.27863311767578 C 53.40486907958984 82.41617584228516 48.03562164306641 83.5 42.5 83.5 Z" stroke="none"/>
                      <path d="M 42.5 3 C 37.16621398925781 3 31.99356079101562 4.043960571289062 27.125732421875 6.102882385253906 C 22.42246627807617 8.092185974121094 18.19785308837891 10.94070434570312 14.56928253173828 14.56928253173828 C 10.94070434570312 18.19785308837891 8.092185974121094 22.42246627807617 6.102882385253906 27.125732421875 C 4.043960571289062 31.99356079101562 3 37.16621398925781 3 42.5 C 3 47.83378601074219 4.043960571289062 53.00643920898438 6.102882385253906 57.874267578125 C 8.092185974121094 62.57753372192383 10.94070434570312 66.80214691162109 14.56928253173828 70.43071746826172 C 18.19785308837891 74.05929565429688 22.42246627807617 76.90781402587891 27.125732421875 78.89711761474609 C 31.99356079101562 80.95603942871094 37.16621398925781 82 42.5 82 C 47.83378601074219 82 53.00643920898438 80.95603942871094 57.874267578125 78.89711761474609 C 62.57753372192383 76.90781402587891 66.80214691162109 74.05929565429688 70.43071746826172 70.43071746826172 C 74.05929565429688 66.80214691162109 76.90781402587891 62.57753372192383 78.89711761474609 57.874267578125 C 80.95603942871094 53.00643920898438 82 47.83378601074219 82 42.5 C 82 37.16621398925781 80.95603942871094 31.99356079101562 78.89711761474609 27.125732421875 C 76.90781402587891 22.42246627807617 74.05929565429688 18.19785308837891 70.43071746826172 14.56928253173828 C 66.80214691162109 10.94070434570312 62.57753372192383 8.092185974121094 57.874267578125 6.102882385253906 C 53.00643920898438 4.043960571289062 47.83378601074219 3 42.5 3 M 42.5 0 C 65.97210693359375 0 85 19.02789306640625 85 42.5 C 85 65.97210693359375 65.97210693359375 85 42.5 85 C 19.02789306640625 85 0 65.97210693359375 0 42.5 C 0 19.02789306640625 19.02789306640625 0 42.5 0 Z" stroke="none" fill="#1d7083"/>
                    </g>
                  </g>
                </g>
              </g>
            </g>
          </g>
        </g>
      </g>
    </g>
    <g id="organization_12134833" transform="translate(1050.463 588.202)">
      <path id="Trazado_1041073" data-name="Trazado 1041073" d="M43.71,21.232l3.365-2.257L52.4,24.3l-2.257,3.365,2.241,5.409,3.975.784v7.526l-3.975.784-2.241,5.409L52.4,50.939,47.076,56.26,43.71,54,38.3,56.244l-.784,3.975H29.992l-.784-3.975L23.8,54,20.434,56.26l-5.322-5.322,2.257-3.365-2.241-5.409-3.975-.784V33.855l3.975-.784,2.241-5.409L15.112,24.3l5.322-5.322L23.8,21.232l5.409-2.241.784-3.975h7.526l.784,3.975Z" transform="translate(-6.288 -6.302)" fill="#909cd1" fill-rule="evenodd"/>
      <path id="Trazado_1041074" data-name="Trazado 1041074" d="M43.71,21.232l1.912-1.282L49.969,24.3l-2.257,3.365,2.241,5.409,3.975.784v7.526l-3.975.784-2.241,5.409,2.257,3.365-4.347,4.347L43.71,54h0l-1.968-1.32-5.627,2.331-1.026,5.2h-5.1l-.784-3.975L23.8,54h0l-2.013-.834-2.659,1.784-4.015-4.015,2.257-3.365-2.241-5.409-3.975-.784V33.855l3.975-.784,2.241-5.409L15.112,24.3l4.015-4.015,2.659,1.784,2.013-.834,5.409-2.241.784-3.975h5.1l1.026,5.2,5.627,2.331Z" transform="translate(-6.288 -6.302)" fill="#bdc7f2" fill-rule="evenodd"/>
      <circle id="Elipse_12302" data-name="Elipse 12302" cx="14.6" cy="14.6" r="14.6" transform="translate(11.588 16.716)" fill="#909cd1"/>
      <circle id="Elipse_12303" data-name="Elipse 12303" cx="14.6" cy="14.6" r="14.6" transform="translate(11.195 18.615) rotate(-7.004)" fill="#f3f3ff"/>
      <g id="Grupo_1202408" data-name="Grupo 1202408" transform="translate(16.597 20.108)">
        <path id="Trazado_1041075" data-name="Trazado 1041075" d="M158.243,109.031v4.447l-5.435,2.3v18.011a14.643,14.643,0,0,0,10.87,0V111.336l-5.435-2.3Z" transform="translate(-147.373 -109.031)" fill="#ffcec0" fill-rule="evenodd"/>
        <path id="Trazado_1041076" data-name="Trazado 1041076" d="M233.163,146.548V124.09l-1.287-.546v23.451Q232.533,146.8,233.163,146.548Z" transform="translate(-216.859 -121.785)" fill="#fdb0a0" fill-rule="evenodd"/>
        <path id="Trazado_1041077" data-name="Trazado 1041077" d="M242.5,196.005v14.222a14.632,14.632,0,0,0,5.435-3.807v-8.11l-5.435-2.3Z" transform="translate(-226.194 -185.465)" fill="#f29988" fill-rule="evenodd"/>
        <path id="Trazado_1041078" data-name="Trazado 1041078" d="M113.4,196.005v14.222a14.631,14.631,0,0,1-5.435-3.808v-8.11l5.435-2.3Z" transform="translate(-107.962 -185.465)" fill="#fdb0a0" fill-rule="evenodd"/>
        <path id="Trazado_1041079" data-name="Trazado 1041079" d="M144.412,196.005v14.222q-.592-.238-1.158-.524V196.5Z" transform="translate(-138.977 -185.465)" fill="#f29988" fill-rule="evenodd"/>
        <path id="Trazado_1041080" data-name="Trazado 1041080" d="M242.5,196.005v14.222q.592-.238,1.158-.524V196.5Z" transform="translate(-226.194 -185.465)" fill="#ea806f" fill-rule="evenodd"/>
        <path id="Trazado_1041081" data-name="Trazado 1041081" d="M184.209,274.461v-6.39h-4.192v6.378a14.685,14.685,0,0,0,4.192.012Z" transform="translate(-171.285 -248.797)" fill="#f3f3ff" fill-rule="evenodd"/>
        <path id="Trazado_1041082" data-name="Trazado 1041082" d="M173.919,274.322v-6.251h.739v6.378Q174.286,274.395,173.919,274.322Z" transform="translate(-165.926 -248.797)" fill="#fdb0a0" fill-rule="evenodd"/>
      </g>
      <circle id="Elipse_12304" data-name="Elipse 12304" cx="13.12" cy="13.12" r="13.12" transform="translate(19.631 44.259) rotate(-13.3)" fill="#f23353"/>
      <path id="Trazado_1041083" data-name="Trazado 1041083" d="M167.5,280.762a13.119,13.119,0,1,0,12.555,13.107A13.119,13.119,0,0,0,167.5,280.762Z" transform="translate(-132.653 -239.843)" fill="#ff5471" fill-rule="evenodd"/>
      <circle id="Elipse_12305" data-name="Elipse 12305" cx="9.674" cy="9.674" r="9.674" transform="translate(25.013 44.352)" fill="#f23353"/>
      <circle id="Elipse_12306" data-name="Elipse 12306" cx="9.674" cy="9.674" r="9.674" transform="translate(22.414 49.688) rotate(-26.565)" fill="#f3f3ff"/>
      <circle id="Elipse_12307" data-name="Elipse 12307" cx="6.229" cy="6.229" r="6.229" transform="translate(27.034 51.228) rotate(-26.565)" fill="#f23353"/>
      <path id="Trazado_1041084" data-name="Trazado 1041084" d="M217.545,337.669a6.229,6.229,0,1,0,5.743,6.21A6.229,6.229,0,0,0,217.545,337.669Z" transform="translate(-182.62 -289.853)" fill="#ff5471" fill-rule="evenodd"/>
      <path id="Trazado_1041085" data-name="Trazado 1041085" d="M369.5,239.761l1.843-6.88,9.049-5.225-1.843,6.88Z" transform="translate(-321.211 -193.173)" fill="#ffcec0" fill-rule="evenodd"/>
      <path id="Trazado_1041086" data-name="Trazado 1041086" d="M369.5,289.652l6.88,1.843,9.049-5.225-6.88-1.843Z" transform="translate(-321.211 -243.063)" fill="#ffcec0" fill-rule="evenodd"/>
      <path id="Trazado_1041087" data-name="Trazado 1041087" d="M430.8,228.722l1.845-1.065-1.843,6.88-1.845,1.065Z" transform="translate(-373.455 -193.173)" fill="#fdb0a0" fill-rule="evenodd"/>
      <path id="Trazado_1041088" data-name="Trazado 1041088" d="M437.677,286.271l-6.88-1.844-1.845,1.065,6.88,1.844Z" transform="translate(-373.455 -243.063)" fill="#fdb0a0" fill-rule="evenodd"/>
      <path id="Trazado_1041089" data-name="Trazado 1041089" d="M286.983,264.994a1.294,1.294,0,0,0-1.763-.473l-22.795,13.16a1.291,1.291,0,0,0,1.291,2.236l22.794-13.16a1.294,1.294,0,0,0,.472-1.763Z" transform="translate(-226.543 -225.419)" fill="#f9ac00" fill-rule="evenodd"/>
      <path id="Trazado_1041090" data-name="Trazado 1041090" d="M286.444,264.487a1.293,1.293,0,0,0-1.224.035l-22.795,13.16a.832.832,0,1,0,.613,1.377l22.795-13.16a1.3,1.3,0,0,0,.611-1.411Z" transform="translate(-226.543 -225.419)" fill="#fcdb35" fill-rule="evenodd"/>
      <path id="Trazado_1041091" data-name="Trazado 1041091" d="M62.032,43.51l-2.807-.751L52.241,46.79l2.807.751,6.984-4.032ZM46.89,49.881l-1.949,1.124A10.037,10.037,0,1,1,42.8,47.3l1.944-1.122a12.17,12.17,0,1,0,2.146,3.706ZM33.748,40.212a13.846,13.846,0,0,1,3.734.065V33.507l-3.734-1.584Zm-16.293.531a13.911,13.911,0,0,0,3.734,2.829V31.923l-3.734,1.584v7.236Zm21.723-7.8a.849.849,0,0,0-.516-.78L33.748,30.08V22.412a.846.846,0,0,0-.518-.781l-5.43-2.3a.848.848,0,0,0-1.179.782v3.882l-4.914,2.083a.85.85,0,0,0-.518.782v3.224l-4.913,2.084a.847.847,0,0,0-.517.78V38.53a13.763,13.763,0,1,1,23.42.047V32.944Zm-8.807,6.436a.848.848,0,0,0-.848-.848H25.331a.849.849,0,0,0-.849.848v5.387a13.605,13.605,0,0,1-1.6-.459V27.417L27.8,25.334a.849.849,0,0,0,.517-.782V21.39l3.734,1.584V40.519a13.551,13.551,0,0,0-1.68.529V39.381Zm-1.7.848v1.608a13.98,13.98,0,0,0-2.495,1.754V40.229Zm-6.225,8.618-4.621-1.915a.847.847,0,0,0-.8.08l-2.79,1.87L9.9,44.542l1.87-2.79a.848.848,0,0,0,.079-.8L9.61,35.542a.853.853,0,0,0-.62-.508L5.7,34.384V28.247l3.294-.65a.854.854,0,0,0,.62-.508l2.242-5.414a.848.848,0,0,0-.079-.8L9.9,18.089l4.34-4.34,2.79,1.87a.847.847,0,0,0,.8.08l5.414-2.243a.847.847,0,0,0,.508-.619l.65-3.295h6.139l.649,3.295a.85.85,0,0,0,.508.619L37.108,15.7a.849.849,0,0,0,.8-.08l2.789-1.87,4.341,4.34-1.872,2.79a.851.851,0,0,0-.079.8l2.244,5.414a.848.848,0,0,0,.619.508l3.294.65v6.137l-3.294.65a.848.848,0,0,0-.619.508l-2.244,5.414a.851.851,0,0,0,.079.8l1,1.482a14.021,14.021,0,0,0-4.469-2.429,15.469,15.469,0,1,0-15.919,5.538,13.938,13.938,0,0,0-1.322,2.5ZM50.1,43.082l.751-2.807,6.984-4.032-.752,2.807ZM35.426,51.554a2.141,2.141,0,0,0,2.14,3.708l2.248-1.3c0,.03,0,.059,0,.09a4.433,4.433,0,1,1-2.139-3.8l-2.251,1.3Zm8,.324a8.341,8.341,0,1,1-2.141-3.708l-2,1.155a6.077,6.077,0,0,0-3.91-1.407,6.134,6.134,0,1,0,6.051,5.116l2-1.155ZM59.1,39.845a.437.437,0,0,1,.219-.058.486.486,0,0,1,.119.015.438.438,0,0,1,.313.543.439.439,0,0,1-.205.27L36.718,53.792a.447.447,0,0,1-.336.044.442.442,0,0,1-.27-.206.45.45,0,0,1,.162-.607L59.1,39.845Zm5.553,4.111-9.061,5.232a.851.851,0,0,1-.424.112.911.911,0,0,1-.221-.028L50.164,47.99l-1.786,1.03A13.94,13.94,0,1,1,21.91,50.46L17.6,48.674l-2.991,2.006a.848.848,0,0,1-1.073-.1L8.21,45.249A.848.848,0,0,1,8.1,44.176l2.006-2.991L8.216,36.61l-3.533-.7A.85.85,0,0,1,4,35.082V27.549a.85.85,0,0,1,.685-.833l3.533-.7,1.894-4.575L8.1,18.455a.848.848,0,0,1,.106-1.072l5.326-5.326a.848.848,0,0,1,1.073-.1L17.6,13.958l4.574-1.9.7-3.532a.849.849,0,0,1,.832-.685h7.533a.847.847,0,0,1,.831.685l.7,3.532,4.574,1.9,2.991-2.006a.849.849,0,0,1,1.073.1l5.327,5.326a.849.849,0,0,1,.1,1.072l-2.005,2.991,1.9,4.575,3.532.7a.848.848,0,0,1,.683.833v7.533a.848.848,0,0,1-.683.833l-3.532.7-1.9,4.575,2.005,2.991a.845.845,0,0,1,.1.734l1.091-.629L49.3,39.5a.847.847,0,0,1,.395-.515L58.76,33.75a.849.849,0,0,1,1.245.954l-.911,3.4a2.162,2.162,0,0,1,.782.061,2.138,2.138,0,0,1,1.174,3.328l3.4.91a.849.849,0,0,1,.2,1.555ZM25.159,30.064h1.7V28.5h-1.7ZM28,35.99h1.7V34.427H28Zm0-2.963h1.7V31.463H28ZM25.159,35.99h1.7V34.427h-1.7ZM28,30.064h1.7V28.5H28Zm-2.839,1.4v1.563h1.7V31.463Z" transform="translate(0 0)" fill-rule="evenodd"/>
    </g>
  </g>
</svg>
