<svg xmlns="http://www.w3.org/2000/svg" xmlns:xlink="http://www.w3.org/1999/xlink" width="103" height="103" viewBox="0 0 103 103">
  <defs>
    <filter id="Trazado_982547" x="0" y="0" width="103" height="103" filterUnits="userSpaceOnUse">
      <feOffset dy="3" input="SourceAlpha"/>
      <feGaussianBlur stdDeviation="3" result="blur"/>
      <feFlood flood-opacity="0.161"/>
      <feComposite operator="in" in2="blur"/>
      <feComposite in="SourceGraphic"/>
    </filter>
  </defs>
  <g id="Grupo_1202412" data-name="Grupo 1202412" transform="translate(-191 -744)">
    <g id="Grupo_1202212" data-name="Grupo 1202212" transform="translate(-80 -126.414)">
      <g id="Grupo_1174813" data-name="Grupo 1174813" transform="translate(280 876.414)">
        <g id="Grupo_1201680" data-name="Grupo 1201680">
          <g id="Grupo_1201330" data-name="Grupo 1201330">
            <g id="Grupo_1172010" data-name="Grupo 1172010">
              <g id="Grupo_1171046" data-name="Grupo 1171046">
                <g id="Grupo_1148525" data-name="Grupo 1148525">
                  <g transform="matrix(1, 0, 0, 1, -9, -6)" filter="url(#Trazado_982547)">
                    <g id="Trazado_982547-2" data-name="Trazado 982547" transform="translate(9 6)" fill="#f2f7e5">
                      <path d="M 42.5 83.5 C 36.96437835693359 83.5 31.59512901306152 82.41617584228516 26.54141235351562 80.27863311767578 C 21.65934181213379 78.21369171142578 17.27447128295898 75.25723266601562 13.50862312316895 71.49137878417969 C 9.742764472961426 67.72553253173828 6.786305904388428 63.34066009521484 4.721364498138428 58.45858764648438 C 2.583823442459106 53.40486907958984 1.5 48.03562164306641 1.5 42.5 C 1.5 36.96437835693359 2.583823442459106 31.59512901306152 4.721364498138428 26.54141235351562 C 6.786305904388428 21.65934181213379 9.742764472961426 17.27448272705078 13.50862312316895 13.50862312316895 C 17.27447128295898 9.742776870727539 21.65934181213379 6.786305904388428 26.54141235351562 4.721364498138428 C 31.59512901306152 2.583823442459106 36.96437835693359 1.5 42.5 1.5 C 48.03562164306641 1.5 53.40486907958984 2.583823442459106 58.45858764648438 4.721364498138428 C 63.34066009521484 6.786305904388428 67.72553253173828 9.742776870727539 71.49137878417969 13.50862312316895 C 75.25723266601562 17.27448272705078 78.21369171142578 21.65934181213379 80.27863311767578 26.54141235351562 C 82.41617584228516 31.59512901306152 83.5 36.96437835693359 83.5 42.5 C 83.5 48.03562164306641 82.41617584228516 53.40486907958984 80.27863311767578 58.45858764648438 C 78.21369171142578 63.34066009521484 75.25723266601562 67.72553253173828 71.49137878417969 71.49137878417969 C 67.72553253173828 75.25723266601562 63.34066009521484 78.21369171142578 58.45858764648438 80.27863311767578 C 53.40486907958984 82.41617584228516 48.03562164306641 83.5 42.5 83.5 Z" stroke="none"/>
                      <path d="M 42.5 3 C 37.16621398925781 3 31.99356079101562 4.043960571289062 27.125732421875 6.102882385253906 C 22.42246627807617 8.092185974121094 18.19785308837891 10.94070434570312 14.56928253173828 14.56928253173828 C 10.94070434570312 18.19785308837891 8.092185974121094 22.42246627807617 6.102882385253906 27.125732421875 C 4.043960571289062 31.99356079101562 3 37.16621398925781 3 42.5 C 3 47.83378601074219 4.043960571289062 53.00643920898438 6.102882385253906 57.874267578125 C 8.092185974121094 62.57753372192383 10.94070434570312 66.80214691162109 14.56928253173828 70.43071746826172 C 18.19785308837891 74.05929565429688 22.42246627807617 76.90781402587891 27.125732421875 78.89711761474609 C 31.99356079101562 80.95603942871094 37.16621398925781 82 42.5 82 C 47.83378601074219 82 53.00643920898438 80.95603942871094 57.874267578125 78.89711761474609 C 62.57753372192383 76.90781402587891 66.80214691162109 74.05929565429688 70.43071746826172 70.43071746826172 C 74.05929565429688 66.80214691162109 76.90781402587891 62.57753372192383 78.89711761474609 57.874267578125 C 80.95603942871094 53.00643920898438 82 47.83378601074219 82 42.5 C 82 37.16621398925781 80.95603942871094 31.99356079101562 78.89711761474609 27.125732421875 C 76.90781402587891 22.42246627807617 74.05929565429688 18.19785308837891 70.43071746826172 14.56928253173828 C 66.80214691162109 10.94070434570312 62.57753372192383 8.092185974121094 57.874267578125 6.102882385253906 C 53.00643920898438 4.043960571289062 47.83378601074219 3 42.5 3 M 42.5 0 C 65.97210693359375 0 85 19.02789306640625 85 42.5 C 85 65.97210693359375 65.97210693359375 85 42.5 85 C 19.02789306640625 85 0 65.97210693359375 0 42.5 C 0 19.02789306640625 19.02789306640625 0 42.5 0 Z" stroke="none" fill="#1d7083"/>
                    </g>
                  </g>
                </g>
              </g>
            </g>
          </g>
        </g>
      </g>
    </g>
    <g id="rivalry_18292520" transform="translate(205.47 734.935)">
      <g id="Grupo_1202411" data-name="Grupo 1202411" transform="translate(8.823 29.827)">
        <g id="Grupo_1202410" data-name="Grupo 1202410" transform="translate(17.193 2.688)">
          <path id="Trazado_1041092" data-name="Trazado 1041092" d="M306.383,58.875a.953.953,0,0,1,.937,1.131l-1,5.285a.953.953,0,0,1-.936.776h-3.557V58.875Z" transform="translate(-285.307 -58.875)" fill="#f5b945" fill-rule="evenodd"/>
          <path id="Trazado_1041093" data-name="Trazado 1041093" d="M166.795,58.875v7.191h-3.557a.953.953,0,0,1-.936-.776l-1-5.285a.953.953,0,0,1,.937-1.131Z" transform="translate(-161.284 -58.875)" fill="#f5b945" fill-rule="evenodd"/>
          <path id="Trazado_1041094" data-name="Trazado 1041094" d="M241.788,93.41h3.106v16.967h-3.106Z" transform="translate(-232.326 -89.351)" fill="#f5b945" fill-rule="evenodd"/>
        </g>
        <path id="Trazado_1041095" data-name="Trazado 1041095" d="M216.4,198.614a.551.551,0,0,1,.551.551v4.051H205.265v-4.051a.551.551,0,0,1,.551-.551Z" transform="translate(-182.903 -179.503)" fill="#fdcd56" fill-rule="evenodd"/>
        <path id="Trazado_1041096" data-name="Trazado 1041096" d="M204.28,224.722a.551.551,0,0,1,.551.551v1.966a.551.551,0,0,1-.551.551H189.966a.551.551,0,0,1-.551-.551v-1.966a.551.551,0,0,1,.551-.551Z" transform="translate(-168.916 -202.542)" fill="#f5b945" fill-rule="evenodd"/>
        <path id="Trazado_1041097" data-name="Trazado 1041097" d="M205.942,36l-.434,8.415a5.936,5.936,0,0,1-5.927,5.611h-2.352a5.936,5.936,0,0,1-5.927-5.611L190.867,36Z" transform="translate(-170.197 -36.004)" fill="#fdcd56" fill-rule="evenodd"/>
        <path id="Trazado_1041098" data-name="Trazado 1041098" d="M226.931,58.875l.883,2.716h2.856l-2.31,1.679.883,2.716-2.31-1.679-2.31,1.679.883-2.716-2.31-1.679h2.856Z" transform="translate(-198.724 -56.187)" fill="#f5b945" fill-rule="evenodd"/>
        <path id="Trazado_1041099" data-name="Trazado 1041099" d="M344.787,373.97h2.045a4.809,4.809,0,0,1,4.809,4.809v6.947H332.547v-6.947a4.809,4.809,0,0,1,4.809-4.809h2.033l2.7,2.6Z" transform="translate(-295.226 -334.249)" fill="#66d4f1" fill-rule="evenodd"/>
        <circle id="Elipse_12308" data-name="Elipse 12308" cx="4.79" cy="4.79" r="4.79" transform="translate(42.002 27.731)" fill="#efc7a4"/>
        <path id="Trazado_1041100" data-name="Trazado 1041100" d="M27.24,373.97h2.045a4.809,4.809,0,0,1,4.809,4.809v6.947H15v-6.947a4.809,4.809,0,0,1,4.809-4.809h2.033l2.7,2.6Z" transform="translate(-15 -334.249)" fill="#66d4f1" fill-rule="evenodd"/>
        <circle id="Elipse_12309" data-name="Elipse 12309" cx="4.79" cy="4.79" r="4.79" transform="translate(4.681 27.731)" fill="#efc7a4"/>
        <path id="Trazado_1041101" data-name="Trazado 1041101" d="M220.442,299.882c.372-1.323,2.185-6.643,2.185-6.643l-2.92-2.333,7.748-6.693-2.54,6.473L228,292.923Z" transform="translate(-195.648 -255.041)" fill="#fdcd56" fill-rule="evenodd"/>
      </g>
      <path id="Trazado_1041102" data-name="Trazado 1041102" d="M65.237,82.126H46.144a.823.823,0,0,1-.823-.823V74.356a5.631,5.631,0,0,1,5.631-5.631h2.033a.823.823,0,0,1,.57.229L55.689,71l2.123-2.048a.823.823,0,0,1,.571-.231h2.045a5.631,5.631,0,0,1,5.631,5.631V81.3A.823.823,0,0,1,65.237,82.126Zm-4.009-1.645h3.186V74.356a3.986,3.986,0,0,0-3.986-3.986H58.716l-2.454,2.368a.823.823,0,0,1-1.141,0L52.655,70.37h-1.7a3.986,3.986,0,0,0-3.986,3.986v6.125h3.186V75.426a.823.823,0,1,1,1.645,0v5.055h7.785V75.426a.823.823,0,1,1,1.645,0ZM27.916,82.126H8.823A.823.823,0,0,1,8,81.3V74.356a5.631,5.631,0,0,1,5.631-5.631h2.033a.823.823,0,0,1,.57.229L18.368,71l2.123-2.048a.823.823,0,0,1,.571-.231h2.045a5.631,5.631,0,0,1,5.631,5.631V81.3A.823.823,0,0,1,27.916,82.126Zm-4.009-1.645h3.186V74.356a3.986,3.986,0,0,0-3.986-3.986H21.395L18.94,72.738a.823.823,0,0,1-1.141,0L15.334,70.37h-1.7a3.986,3.986,0,0,0-3.986,3.986v6.125h3.186V75.426a.823.823,0,1,1,1.645,0v5.055h7.785V75.426a.823.823,0,1,1,1.645,0Zm5.711-39.952H27.969a1.776,1.776,0,0,1-1.745-1.445l-1-5.285a1.776,1.776,0,0,1,1.745-2.106h1.8l-.094-1.823A.823.823,0,0,1,29.492,29H44.567a.823.823,0,0,1,.822.865l-.094,1.823h1.8A1.776,1.776,0,0,1,48.836,33.8l-1,5.285a1.776,1.776,0,0,1-1.745,1.445H44.441a6.768,6.768,0,0,1-5.036,4.041v3.546h2.919A1.374,1.374,0,0,1,43.7,49.489v1.695h.489a1.374,1.374,0,0,1,1.374,1.374v1.966A1.374,1.374,0,0,1,44.187,55.9H29.873A1.374,1.374,0,0,1,28.5,54.524V52.558a1.374,1.374,0,0,1,1.374-1.374h.489V49.489a1.374,1.374,0,0,1,1.374-1.374h2.919V44.569a6.768,6.768,0,0,1-5.036-4.041Zm-.769-7.191H26.969a.13.13,0,0,0-.128.155l1,5.285a.13.13,0,0,0,.128.106h1.194q-.042-.294-.059-.6v0Zm16.361,0-.255,4.947v0q-.017.3-.059.6H46.09a.13.13,0,0,0,.128-.106l1-5.285a.13.13,0,0,0-.128-.155ZM37.76,44.675H36.3v3.44h1.46Zm4.293,6.508V49.761H32.007v1.423ZM30.144,52.829v1.423H43.915V52.829ZM43.7,30.649H30.358l.389,7.548a5.114,5.114,0,0,0,5.106,4.832h2.352A5.114,5.114,0,0,0,43.312,38.2Zm-5.889,1.611.7,2.147h2.258a.823.823,0,0,1,.484,1.488l-1.827,1.327.7,2.147a.823.823,0,0,1-1.266.92L37.03,38.964,35.2,40.291a.823.823,0,0,1-1.266-.92l.7-2.147L32.808,35.9a.823.823,0,0,1,.484-1.488H35.55l.7-2.147a.823.823,0,0,1,1.565,0Zm-.782,2.916-.1.308a.823.823,0,0,1-.783.568h-.324l.262.19a.823.823,0,0,1,.3.92l-.1.308.262-.19a.822.822,0,0,1,.967,0l.262.19-.1-.308a.823.823,0,0,1,.3-.92l.262-.19h-.324a.823.823,0,0,1-.783-.568ZM55.615,56.735A5.613,5.613,0,1,1,50,62.348,5.616,5.616,0,0,1,55.615,56.735Zm0,1.645a3.968,3.968,0,1,0,3.968,3.968A3.97,3.97,0,0,0,55.615,58.38ZM18.294,56.735a5.613,5.613,0,1,1-5.613,5.613A5.616,5.616,0,0,1,18.294,56.735Zm0,1.645a3.968,3.968,0,1,0,3.968,3.968A3.97,3.97,0,0,0,18.294,58.38ZM32.825,74.445c.3-1.07,1.538-4.739,2.013-6.138l-2.469-1.972a.823.823,0,0,1-.024-1.265l7.748-6.693a.823.823,0,0,1,1.3.923l-2.307,5.88,2.572,1.863a.823.823,0,0,1,.075,1.272l-7.561,6.959a.823.823,0,0,1-1.349-.828Zm2.522-2.488,4.533-4.173-2.273-1.646a.823.823,0,0,1-.283-.967L38.647,61.8l-4.478,3.869,2.147,1.715a.823.823,0,0,1,.265.908S35.942,70.163,35.347,71.957Z" fill-rule="evenodd"/>
    </g>
  </g>
</svg>
